<?xml version="1.0" encoding="UTF-8"?>
<svg width="29px" height="29px" viewBox="0 0 33 34" version="1.1" xmlns="http://www.w3.org/2000/svg" xmlns:xlink="http://www.w3.org/1999/xlink">
    <!-- Generator: Sketch 53.2 (72643) - https://sketchapp.com -->
    <title>exit</title>
    <desc>Created with Sketch.</desc>
    <g id="Hive" stroke="none" stroke-width="1" fill="none" fill-rule="evenodd">
        <g id="Hive-Central-de-Compartilhamento---Open" transform="translate(-1309.000000, -18.000000)" fill="#F6BD60" fill-rule="nonzero">
            <g id="exit" transform="translate(1309.000000, 18.000000)">
                <path d="M32.9504688,14.7650023 C32.917121,14.6893107 32.8687341,14.6210036 32.8085773,14.5637734 L24.9627001,7.1804598 C24.707034,6.93984673 24.2937834,6.93984673 24.0381172,7.1804598 C23.7824511,7.42107287 23.7824511,7.80999221 24.0381172,8.05060528 L30.7684793,14.3846982 L16.6538776,14.3846982 C16.2922833,14.3846982 16,14.6597725 16,15.0000769 C16,15.3403813 16.2922833,15.6154556 16.6538776,15.6154556 L30.7684793,15.6154556 L24.0381172,21.9495486 C23.7824511,22.1901616 23.7824511,22.579081 24.0381172,22.819694 C24.1656233,22.9396929 24.333016,23 24.5004087,23 C24.6678013,23 24.835194,22.9396929 24.9627001,22.819694 L32.8085773,15.435765 C32.869388,15.3791502 32.917121,15.3108432 32.9504688,15.2351516 C33.0165104,15.0849992 33.0165104,14.9151547 32.9504688,14.7650023 Z" id="Path"></path>
                <path d="M22.3611111,17.9272727 C22.0078056,17.9272727 21.7222222,18.2036 21.7222222,18.5454545 L21.7222222,28.4363636 L15.3333333,28.4363636 L15.3333333,4.94545455 C15.3333333,4.67592727 15.1531667,4.43792727 14.8880278,4.35632727 L4.75397222,1.23636364 L21.7222222,1.23636364 L21.7222222,11.1272727 C21.7222222,11.4691273 22.0078056,11.7454545 22.3611111,11.7454545 C22.7144167,11.7454545 23,11.4691273 23,11.1272727 L23,0.618181818 C23,0.276327273 22.7144167,0 22.3611111,0 L0.638888889,0 C0.618444444,0 0.600555556,0.00927272727 0.58075,0.0111272727 C0.544972222,0.0142181818 0.513666667,0.0222545455 0.479805556,0.0309090909 C0.41975,0.0463636364 0.366083333,0.0673818182 0.314333333,0.0976727273 C0.297722222,0.107563636 0.277916667,0.107563636 0.261944444,0.118690909 C0.242138889,0.132909091 0.226805556,0.150836364 0.208916667,0.166290909 C0.198055556,0.176181818 0.186555556,0.184836364 0.176333333,0.195345455 C0.127777778,0.246036364 0.0881666667,0.302290909 0.0587777778,0.364109091 C0.0530277778,0.376472727 0.0498333333,0.388836364 0.0447222222,0.4012 C0.0178888889,0.470436364 0,0.542763636 0,0.618181818 L0,29.0545455 C0,29.1318182 0.0185277778,29.2047636 0.046,29.274 C0.0549444444,29.2968727 0.0683611111,29.3160364 0.0798611111,29.3376727 C0.1035,29.3815636 0.130333333,29.4217455 0.164194444,29.4588364 C0.182722222,29.4786182 0.20125,29.4965455 0.221694444,29.5144727 C0.25875,29.546 0.300277778,29.5719636 0.345,29.5948364 C0.368638889,29.6072 0.390361111,29.6201818 0.415916667,29.6294545 C0.426777778,29.6331636 0.435083333,29.6405818 0.445944444,29.6442909 L14.5015,33.9715636 C14.5641111,33.9901091 14.6292778,34 14.6944444,34 C14.8286111,34 14.9608611,33.9592 15.0713889,33.8813091 C15.2362222,33.7650909 15.3333333,33.5796364 15.3333333,33.3818182 L15.3333333,29.6727273 L22.3611111,29.6727273 C22.7144167,29.6727273 23,29.3964 23,29.0545455 L23,18.5454545 C23,18.2036 22.7137778,17.9272727 22.3611111,17.9272727 Z" id="Path"></path>
            </g>
        </g>
    </g>
</svg>