<?xml version="1.0" encoding="UTF-8"?>
<svg width="25px" height="30px" viewBox="0 0 25 30" version="1.1" xmlns="http://www.w3.org/2000/svg" xmlns:xlink="http://www.w3.org/1999/xlink">
    <!-- Generator: Sketch 53.2 (72643) - https://sketchapp.com -->
    <title>file</title>
    <desc>Created with Sketch.</desc>
    <g id="Hive" stroke="none" stroke-width="1" fill="none" fill-rule="evenodd">
        <g id="Hive-Empty" transform="translate(-153.000000, -178.000000)" fill="#F6BD60" fill-rule="nonzero">
            <g id="File" transform="translate(153.500000, 178.000000)">
                <g id="file">
                    <path d="M18.4814815,11 L5.51851852,11 C5.2322963,11 5,11.2235 5,11.5 C5,11.7765 5.2322963,12 5.51851852,12 L18.4814815,12 C18.7677037,12 19,11.7765 19,11.5 C19,11.2235 18.7677037,11 18.4814815,11 Z" id="Path"></path>
                    <path d="M5.58333333,8 L11.4166667,8 C11.7386667,8 12,7.7765 12,7.5 C12,7.2235 11.7386667,7 11.4166667,7 L5.58333333,7 C5.26133333,7 5,7.2235 5,7.5 C5,7.7765 5.26133333,8 5.58333333,8 Z" id="Path"></path>
                    <path d="M18.4814815,15 L5.51851852,15 C5.2322963,15 5,15.2235 5,15.5 C5,15.7765 5.2322963,16 5.51851852,16 L18.4814815,16 C18.7677037,16 19,15.7765 19,15.5 C19,15.2235 18.7677037,15 18.4814815,15 Z" id="Path"></path>
                    <path d="M18.4814815,19 L5.51851852,19 C5.2322963,19 5,19.2235 5,19.5 C5,19.7765 5.2322963,20 5.51851852,20 L18.4814815,20 C18.7677037,20 19,19.7765 19,19.5 C19,19.2235 18.7677037,19 18.4814815,19 Z" id="Path"></path>
                    <path d="M18.4814815,23 L5.51851852,23 C5.2322963,23 5,23.2235 5,23.5 C5,23.7765 5.2322963,24 5.51851852,24 L18.4814815,24 C18.7677037,24 19,23.7765 19,23.5 C19,23.2235 18.7677037,23 18.4814815,23 Z" id="Path"></path>
                    <path d="M16.5518298,0 L0,0 L0,30 L24,30 L24,7.293 L16.5518298,0 Z M16.8510638,1.707 L22.2566809,7 L16.8510638,7 L16.8510638,1.707 Z M1.0212766,29 L1.0212766,1 L15.8297872,1 L15.8297872,8 L22.9787234,8 L22.9787234,29 L1.0212766,29 Z" id="Shape"></path>
                </g>
            </g>
        </g>
    </g>
</svg>