<?xml version="1.0" encoding="UTF-8"?>
<svg width="30px" height="30px" viewBox="0 0 30 30" version="1.1" xmlns="http://www.w3.org/2000/svg" xmlns:xlink="http://www.w3.org/1999/xlink">
    <!-- Generator: Sketch 53.2 (72643) - https://sketchapp.com -->
    <title>Disciplinas</title>
    <desc>Created with Sketch.</desc>
    <g id="Hive" stroke="none" stroke-width="1" fill="none" fill-rule="evenodd">
        <g id="Hive-Central-de-Compartilhamento---Open" transform="translate(-32.000000, -241.000000)" fill="#F6BD60" fill-rule="nonzero">
            <g id="Disciplinas" transform="translate(32.000000, 241.000000)">
                <g id="open-book">
                    <path d="M17.0493821,13.7270315 C17.1298104,13.9000463 17.2898148,14 17.4552521,14 C17.5243352,14 17.5952293,13.9824817 17.6611698,13.9455118 C17.6879615,13.9305128 20.3632942,12.4356014 21.6827444,11.9771385 C21.9218455,11.8936485 22.0545255,11.6126532 21.9786247,11.3497034 C21.9031499,11.0866951 21.6495611,10.9402213 21.4082229,11.0232427 C20.0183048,11.5067233 17.3611882,12.9916159 17.2484821,13.0545996 C17.0248275,13.1795711 16.9357705,13.480604 17.0493821,13.7270315 Z" id="Path"></path>
                    <path d="M17.4552432,8 C17.5243264,8 17.5952206,7.98248174 17.6611613,7.94551175 C17.687953,7.93051284 20.363291,6.43560145 21.6827438,5.97713852 C21.9218453,5.89364847 22.0545257,5.61265317 21.9786246,5.34970344 C21.9031497,5.08669512 21.6495604,4.94022134 21.4082218,5.02324268 C20.0183009,5.50672333 17.3611792,6.99161591 17.2484728,7.05459964 C17.024871,7.17957107 16.9357606,7.48054539 17.0493724,7.72703147 C17.1298009,7.8999877 17.2898056,8 17.4552432,8 Z" id="Path"></path>
                    <path d="M29.4999619,7.50016395 C29.2234585,7.50016395 28.9999824,7.72416564 28.9999824,8.00013947 L28.9999824,27.4999466 C28.9999824,28.3269306 28.3269759,28.9999318 27.4999854,28.9999318 L15.5000088,28.9999318 L15.5000088,27.8494549 C16.2290308,27.5944574 18.1279919,26.9999711 20,26.9999711 C24.3554993,26.9999711 27.3130131,27.9644733 27.3424857,27.9744341 C27.4929541,28.0244141 27.6610007,27.9994534 27.7924848,27.9054113 C27.9229728,27.8114279 27.9999648,27.6604333 27.9999648,27.499888 L27.9999648,5.50020326 C27.9999648,5.26571339 27.8374847,5.06268806 27.6084422,5.01218074 C27.6084422,5.01218074 27.2164507,4.92470114 26.5464325,4.80165548 C26.2759057,4.75167551 26.0144609,4.93167373 25.9644219,5.20266714 C25.9144416,5.47465664 26.0939139,5.73516187 26.3654368,5.78514185 C26.6209636,5.83213357 26.8349476,5.87361753 26.9999473,5.90666408 L26.9999473,26.8354415 C25.8669221,26.5384327 23.35097,25.9999614 19.9999414,25.9999614 C17.82143,25.9999614 15.6814733,26.7154426 15.0194238,26.9579598 C14.4309093,26.6979819 12.6519479,25.9999614 10.4999209,25.9999614 C7.05590419,25.9999614 4.21891754,26.5679636 2.99993555,26.8564764 L2.99993555,5.88715256 C3.99842969,5.64164717 6.94744737,5.00016914 10.4999209,5.00016914 C12.3229447,5.00016914 13.8863987,5.567644 14.4999326,5.8241649 L14.4999326,25.4999859 C14.4999326,25.6799841 14.5969051,25.8465059 14.7534087,25.9349816 C14.9099123,26.0239846 15.1029197,26.0214651 15.2574311,25.9284778 C15.3069428,25.8990054 20.2609175,22.9399917 24.6579011,21.4745179 C24.8623928,21.4060225 24.9999121,21.2155361 24.9999121,21.0000304 L24.9999121,0.500213651 C24.9999121,0.336211367 24.9194045,0.18269726 24.7844047,0.0892411531 C24.6504011,-0.00427354701 24.4784288,-0.0257772406 24.3239173,0.0317612528 C20.3234369,1.53221516 16.2754956,4.05119415 16.2349488,4.07621344 C16.0009258,4.22269636 15.9294415,4.53118941 16.0759256,4.76521053 C16.221941,4.99923165 16.5304365,5.07071532 16.7649282,4.92423239 C16.8019008,4.90073653 20.3234369,2.70976211 23.9998945,1.23128064 L23.9998945,20.6420847 C20.5868739,21.8280691 17.0233847,23.7645734 15.4998916,24.6315179 L15.4998916,5.50020326 C15.4998916,5.31071295 15.3928996,5.13768731 15.2233882,5.05272722 C15.1373728,5.01024717 13.0884119,4.0002181 10.4999209,4.0002181 C5.98194144,4.0002181 2.50845213,4.97772796 2.36243679,5.01968067 C2.14792549,5.08067616 1.99991797,5.27719765 1.99991797,5.50020326 L1.99991797,27.5000052 C1.99991797,27.6565076 2.07392173,27.8045139 2.19843321,27.8990247 C2.28644085,27.9655279 2.39243673,28.0000393 2.49995605,28.0000393 C2.54595206,28.0000393 2.59194806,27.9935355 2.63694797,27.9805278 C2.67145963,27.9710357 6.12895287,27.0000297 10.4999209,27.0000297 C12.3279251,27.0000297 13.8899143,27.569028 14.4999326,27.8244942 L14.4999326,28.9999904 L2.49995605,28.9999904 C1.67296548,28.9999904 0.999958984,28.3269892 0.999958984,27.5000052 L0.999958984,8.00019806 C0.999958984,7.72422423 0.775955516,7.50022254 0.499979492,7.50022254 C0.224003469,7.50022254 0,7.72422423 0,8.00019806 L0,27.5000052 C0,28.8784681 1.12148218,30 2.50001465,30 L27.4999854,30 C28.8784592,30 30,28.8785267 30,27.5000052 L30,8.00019806 C29.9999414,7.72416564 29.7764653,7.50016395 29.4999619,7.50016395 Z" id="Path"></path>
                    <path d="M17.0493821,11.7270315 C17.1298104,11.9000463 17.2898148,12 17.4552521,12 C17.5243352,12 17.5952293,11.9824817 17.6611698,11.9455118 C17.6879615,11.9305128 20.3632942,10.4356014 21.6827444,9.97713852 C21.9218455,9.89364847 22.0545255,9.61265317 21.9786247,9.34970344 C21.9031499,9.08669512 21.6495611,8.94022134 21.4082229,9.02324268 C20.0183048,9.50672333 17.3611882,10.9916159 17.2484821,11.0545996 C17.0248275,11.1795711 16.9357705,11.480604 17.0493821,11.7270315 Z" id="Path"></path>
                    <path d="M17.0493821,17.7270315 C17.1298104,17.9000463 17.2898148,18 17.4552521,18 C17.5243352,18 17.5952293,17.9824817 17.6611698,17.9455118 C17.6879615,17.9305128 20.3632942,16.4356014 21.6827444,15.9771385 C21.9218455,15.8936485 22.0545255,15.6126532 21.9786247,15.3497034 C21.9031499,15.0866951 21.6495611,14.9402213 21.4082229,15.0232427 C20.0183048,15.5067233 17.3611882,16.9916159 17.2484821,17.0545996 C17.0248275,17.1795711 16.9357705,17.480604 17.0493821,17.7270315 Z" id="Path"></path>
                    <path d="M11.6394461,9.1847261 C8.75798124,8.70095311 5.4835571,9.31727951 5.34591743,9.34364935 C5.09721453,9.3913811 4.94929427,9.57432671 5.01600877,9.75261653 C5.0720052,9.90183692 5.260501,10 5.46633163,10 C5.5064697,10 5.54704524,9.99632231 5.58767546,9.98865393 C5.61895472,9.98231578 8.77154288,9.38903363 11.4267252,9.83473861 C11.6763578,9.87648432 11.9288339,9.76529283 11.9876192,9.58567278 C12.0463498,9.40640486 11.8905004,9.22678482 11.6394461,9.1847261 Z" id="Path"></path>
                    <path d="M11.6394461,12.1846011 C8.75798124,11.701106 5.4835571,12.3171748 5.34591743,12.3435487 C5.09721453,12.3912877 4.94929427,12.5743006 5.01600877,12.7525786 C5.0720052,12.9018219 5.260501,13 5.46633163,13 C5.5064697,13 5.54704524,12.9963217 5.58767546,12.9886522 C5.61895472,12.9823131 8.77154288,12.3889399 11.4267252,12.8347133 C11.6763578,12.8764654 11.9288339,12.7652568 11.9876192,12.5856092 C12.0463498,12.4063138 11.8905004,12.2266662 11.6394461,12.1846011 Z" id="Path"></path>
                    <path d="M17.0493821,19.727031 C17.1298104,19.9000461 17.2898148,20 17.4552521,20 C17.5243352,20 17.5952293,19.9824817 17.6611698,19.9455117 C17.6879615,19.9305127 20.3632942,18.4355988 21.6827444,17.9771351 C21.9218455,17.8936449 22.0545255,17.6126491 21.9786247,17.3496989 C21.9031499,17.0867487 21.6495611,16.9402161 21.4082229,17.0232376 C20.0183048,17.5067191 17.3611882,18.9916142 17.2484821,19.054598 C17.0248275,19.1795697 16.9357705,19.4806031 17.0493821,19.727031 Z" id="Path"></path>
                    <path d="M11.6394461,15.1845847 C8.75798124,14.7012888 5.4835571,15.3167519 5.34591743,15.3434669 C5.09721453,15.3911863 4.94929427,15.5741238 5.01600877,15.7523284 C5.0720052,15.9015103 5.260501,16 5.46633163,16 C5.5064697,16 5.54704524,15.9960103 5.58767546,15.9883048 C5.61895472,15.9819683 8.77154288,15.3888395 11.4267252,15.8344293 C11.6763578,15.8761642 11.9288339,15.7650014 11.9876192,15.5854278 C12.0463498,15.4062062 11.8905004,15.2266326 11.6394461,15.1845847 Z" id="Path"></path>
                    <path d="M11.6394461,21.1846611 C8.75798124,20.7010584 5.4835571,21.3171678 5.34591743,21.3435284 C5.09721453,21.3912433 4.94929427,21.5741637 5.01600877,21.7523516 C5.0720052,21.9015195 5.260501,22 5.46633163,22 C5.5064697,22 5.54704524,21.9960107 5.58767546,21.9883059 C5.61895472,21.98197 8.77154288,21.3888967 11.4267252,21.8344448 C11.6763578,21.8758238 11.9288339,21.7650234 11.9876192,21.5854666 C12.0463498,21.4062618 11.8905004,21.226705 11.6394461,21.1846611 Z" id="Path"></path>
                    <path d="M11.6394461,18.1847097 C8.75798124,17.7011359 5.4835571,18.3168566 5.34591743,18.3435676 C5.09721453,18.3912797 4.94929427,18.5741891 5.01600877,18.7523664 C5.0720052,18.9015254 5.260501,19 5.46633163,19 C5.5064697,19 5.54704524,18.996011 5.58767546,18.9883066 C5.61895472,18.9819711 8.77154288,18.3889332 11.4267252,18.8344547 C11.6763578,18.8761832 11.9288339,18.7650375 11.9876192,18.5854914 C12.0463498,18.4062972 11.8905004,18.2267511 11.6394461,18.1847097 Z" id="Path"></path>
                </g>
            </g>
        </g>
    </g>
</svg>