<?xml version="1.0" encoding="UTF-8"?>
<svg width="27px" height="26px" viewBox="0 0 27 26" version="1.1" xmlns="http://www.w3.org/2000/svg" xmlns:xlink="http://www.w3.org/1999/xlink">
    <!-- Generator: Sketch 53.2 (72643) - https://sketchapp.com -->
    <title>Ferramentas</title>
    <desc>Created with Sketch.</desc>
    <g id="Hive" stroke="none" stroke-width="1" fill="none" fill-rule="evenodd">
        <g id="Hive-Central-de-Compartilhamento---Open" transform="translate(-32.000000, -348.000000)" fill="#F6BD60" fill-rule="nonzero">
            <g id="Ferramentas" transform="translate(32.000000, 348.000000)">
                <g id="tools">
                    <path d="M26.9423781,19.956491 C26.7156844,19.2158976 26.3080723,18.5428749 25.7559439,17.9977701 C24.876583,17.1173046 23.6799408,16.6237887 22.4329009,16.6271769 C21.7955777,16.6274965 21.1648673,16.7562453 20.5787765,17.0056243 L15.9563056,12.4028859 L22.0939197,6.33749947 L23.54743,6.29658624 C23.7232765,6.29128031 23.8841,6.19666846 23.9737245,6.04599271 L26.0538364,2.56325398 C26.1747269,2.36226774 26.1429474,2.10515366 25.9767952,1.93932722 L24.1791677,0.149373401 C24.0126303,-0.0160694732 23.754414,-0.0477132997 23.5525661,0.0726610948 L20.0548965,2.14389337 C19.9035747,2.23313536 19.8085573,2.3932723 19.8032286,2.56836814 L19.76214,4.0105595 L13.6399341,10.0964025 L9.43862169,5.91302471 C9.87974666,3.36624005 8.16391115,0.945583218 5.60620814,0.506341335 C4.42112217,0.302798015 3.20271589,0.559400681 2.20188674,1.22334569 C1.96691114,1.38156483 1.905214,1.69947341 2.06411143,1.93344595 C2.10879532,1.99922675 2.16824543,2.05375641 2.2378393,2.09275184 L4.56961904,3.38663274 C5.08322692,3.67813951 5.18594849,4.54754565 4.76992612,5.28398379 C4.35390374,6.02042194 3.55781153,6.39886932 3.03906758,6.11247671 L0.876778428,4.94644964 C0.628256418,4.8102853 0.315918629,4.90055011 0.179234734,5.14801123 C0.132111211,5.23322582 0.110411278,5.3300751 0.116702975,5.4271801 C0.279195666,8.00650356 2.51088608,9.96624728 5.1012674,9.80444824 C5.6364468,9.77101446 6.16193186,9.64661267 6.65493122,9.43667666 L10.4761738,13.2416071 L8.82235645,14.8883646 L8.4474227,14.5201455 C8.03236333,14.1246296 7.3781553,14.1246296 6.96309594,14.5201455 L6.44948807,15.0315609 C6.05818307,15.4109032 6.03340149,16.028757 6.3929912,16.4379532 L0.317010046,22.4777688 C-0.0928490378,22.8682984 -0.107165857,23.5158142 0.285037956,23.9239236 C0.295438515,23.9347912 0.306095879,23.9454031 0.317010046,23.9557592 L2.05300466,25.6843432 C2.44520847,26.0924527 3.09550024,26.1067084 3.50535933,25.7161788 C3.5162735,25.7058227 3.52693086,25.6952108 3.53733142,25.6843432 L9.61844865,19.6342993 C10.0293992,19.992354 10.6499017,19.9676782 11.0308703,19.5780436 L11.5444782,19.0666282 C11.9543373,18.6760987 11.9686541,18.0285829 11.5764503,17.6204734 C11.5660497,17.6096058 11.5553923,17.5989939 11.5444782,17.5886378 L11.1695444,17.2153046 L12.8130896,15.5429763 L17.795086,20.5037054 C17.3646826,23.052344 19.0906619,25.4657771 21.6502267,25.8943432 C23.1662688,26.148197 24.711137,25.6476492 25.7868245,24.5541152 C25.975447,24.3431564 25.9567003,24.0199419 25.7448371,23.8320606 C25.6901379,23.7835401 25.6256159,23.7472296 25.555701,23.7256223 L22.6640887,22.9533851 C22.3807055,22.8626728 22.1563873,22.6450016 22.0580314,22.3652574 C21.9078011,21.9795863 21.8897606,21.5553033 22.0066706,21.1583171 C22.2223859,20.355395 22.9054844,19.7826098 23.4807252,19.9360344 L26.341521,20.7031574 C26.3874889,20.7098058 26.4342273,20.7098058 26.4801952,20.7031574 C26.7638351,20.7066095 26.9965637,20.480436 26.9999663,20.1980069 C27.0009293,20.1140069 26.9812196,20.0310298 26.9423781,19.956491 Z M20.6198651,4.57823057 C20.7123145,4.48553654 20.7656014,4.36107082 20.7688114,4.23046812 L20.8099,2.86498906 L23.7220567,1.14151923 L24.9547156,2.36891614 L23.2598096,5.26352718 L21.8627962,5.31466872 C21.7316336,5.31786506 21.6066342,5.37092441 21.5135428,5.46297918 L15.2475268,11.6971326 L14.3641212,10.8174982 L20.6198651,4.57823057 Z M2.80794404,24.9581334 L1.04626903,23.2142069 L7.15306665,17.1488206 L8.0364722,18.028455 L8.87878911,18.8978611 L2.80794404,24.9581334 Z M10.3220272,18.8211488 L9.64406484,18.1409664 L9.38212483,17.8801445 L7.22497176,15.7168575 L7.73857963,15.2054421 L10.8202269,18.3148476 L10.3220272,18.8211488 Z M10.4196127,16.4890947 L9.53620719,15.6094603 L11.1900245,13.9627028 L12.0734301,14.8423372 L10.4196127,16.4890947 Z M23.7323288,18.9490027 C23.5799157,18.9082173 23.4227517,18.8875689 23.2649457,18.8876328 C22.1452163,18.9776419 21.2209789,19.7956508 20.9999349,20.8923811 C20.8246663,21.5082531 20.8589496,22.1645908 21.0975204,22.7590473 C21.3176656,23.3311293 21.7951283,23.7667913 22.3866762,23.9353026 L24.2972975,24.446718 C22.5550112,25.4804803 20.3009788,24.9121699 19.2627847,23.177385 C18.7751782,22.3626364 18.6246269,21.391139 18.8427819,20.4679064 C18.8818803,20.2961986 18.8294923,20.1165001 18.7041077,19.9922901 L7.12738626,8.45475914 C6.96303174,8.30101489 6.71720617,8.27199207 6.52132897,8.38316098 C5.99096464,8.66181844 5.40037978,8.80757182 4.80074259,8.80763575 C3.2554891,8.80897821 1.87523214,7.84566342 1.34929767,6.39886932 L2.52032363,7.04836685 C2.79330621,7.20057685 3.10114993,7.27984623 3.41400133,7.27850377 C4.36494631,7.2239741 5.21548095,6.67107015 5.64819558,5.82608409 C6.34670229,4.58334473 6.07449012,3.10535428 5.04727437,2.53256906 L3.55267545,1.68873369 C5.46265474,1.00938229 7.56401715,2.00044136 8.24628101,3.90220337 C8.48305424,4.56231277 8.52433548,5.27624864 8.36518124,5.95905209 C8.32608284,6.13075981 8.37847084,6.31045838 8.50385536,6.43466839 L20.1062572,17.9824276 C20.2648337,18.1405189 20.5081554,18.1778522 20.7071785,18.0744824 C21.237607,17.7960167 21.8281276,17.6503273 22.4277648,17.6500076 C23.7283484,17.6489848 24.932181,18.3339618 25.5915893,19.4501898 L23.7323288,18.9490027 Z" id="Shape"></path>
                </g>
            </g>
        </g>
    </g>
</svg>