<?xml version="1.0" encoding="UTF-8"?>
<svg width="29px" height="29px" viewBox="0 0 29 29" version="1.1" xmlns="http://www.w3.org/2000/svg" xmlns:xlink="http://www.w3.org/1999/xlink">
    <!-- Generator: Sketch 53.2 (72643) - https://sketchapp.com -->
    <title>book</title>
    <desc>Created with Sketch.</desc>
    <g id="Hive" stroke="none" stroke-width="1" fill="none" fill-rule="evenodd">
        <g id="Hive-Central-de-Compartilhamento---Open" transform="translate(-32.000000, -295.000000)" fill="#F6BD60" fill-rule="nonzero">
            <g id="Biblioteca" transform="translate(32.000000, 295.000000)">
                <g id="book">
                    <path d="M14.516129,0 L8.22580645,0 C7.95859058,0 7.74193548,0.216414373 7.74193548,0.483333333 L7.74193548,3.86666667 L0.483870968,3.86666667 C0.216655101,3.86666667 0,4.08308104 0,4.35 L0,28.5166667 C0,28.7835856 0.216655101,29 0.483870968,29 L14.516129,29 C14.7833449,29 15,28.7835856 15,28.5166667 L15,0.483333333 C15,0.216414373 14.7833449,0 14.516129,0 Z M14.0322581,25.1333333 L8.70967742,25.1333333 L8.70967742,24.1666667 L14.0322581,24.1666667 L14.0322581,25.1333333 Z M0.967741935,7.25 L7.74193548,7.25 L7.74193548,21.75 L0.967741935,21.75 L0.967741935,7.25 Z M14.0322581,5.31666667 L8.70967742,5.31666667 L8.70967742,3.86666667 L14.0322581,3.86666667 L14.0322581,5.31666667 Z M0.967741935,22.7166667 L7.74193548,22.7166667 L7.74193548,24.1666667 L0.967741935,24.1666667 L0.967741935,22.7166667 Z M8.70967742,23.2 L8.70967742,6.28333333 L14.0322581,6.28333333 L14.0322581,23.2 L8.70967742,23.2 Z M14.0322581,0.966666667 L14.0322581,2.9 L8.70967742,2.9 L8.70967742,0.966666667 L14.0322581,0.966666667 Z M7.74193548,4.83333333 L7.74193548,6.28333333 L0.967741935,6.28333333 L0.967741935,4.83333333 L7.74193548,4.83333333 Z M0.967741935,25.1333333 L7.74193548,25.1333333 L7.74193548,28.0333333 L0.967741935,28.0333333 L0.967741935,25.1333333 Z M8.70967742,28.0333333 L8.70967742,26.1 L14.0322581,26.1 L14.0322581,28.0333333 L8.70967742,28.0333333 Z" id="Shape"></path>
                    <path d="M28.9834601,26.4757252 L22.7765755,4.35956462 C22.7419749,4.23561195 22.6555998,4.1297357 22.5363921,4.06517707 C22.4174369,4.00085312 22.2757514,3.98324619 22.1426529,4.01634723 L14.3840471,5.93949163 C14.1092631,6.00757166 13.9451,6.26909297 14.0168266,6.52498014 L20.2237112,28.6411407 C20.2583118,28.7650933 20.3449395,28.8709696 20.4641472,28.9352935 C20.5831024,28.9993826 20.7247879,29.0167548 20.8576338,28.9834191 L28.6162396,27.0602747 C28.8905185,26.9921946 29.0544291,26.7311428 28.9834601,26.4757252 L28.9834601,26.4757252 Z M15.9718842,9.68178223 L22.7311148,8.00677792 L22.974329,8.87209896 L16.2156034,10.5496856 L15.9718842,9.68178223 Z M23.2354748,9.80503061 L26.235368,20.5013475 L19.4786629,22.1770561 L16.4787697,11.4800349 L23.2354748,9.80503061 Z M26.4987868,21.4321663 L27.0284025,23.3189231 L20.2691719,24.9939274 L19.7415765,23.1078748 L26.4987868,21.4321663 Z M21.906763,5.06971009 L22.4699691,7.07689818 L15.7107384,8.75143295 L15.1480374,6.74518395 L21.906763,5.06971009 Z M21.0935238,27.9309952 L20.5303176,25.9238071 L27.2895483,24.2483333 L27.8522493,26.2545824 L21.0935238,27.9309952 Z" id="Shape"></path>
                    <path d="M6.5,8 L2.5,8 C2.22387694,8 2,8.22387694 2,8.5 L2,12.5 C2,12.7761231 2.22387694,13 2.5,13 L6.5,13 C6.77612306,13 7,12.7761231 7,12.5 L7,8.5 C7,8.22387694 6.77612306,8 6.5,8 Z M6,12 L3,12 L3,9 L6,9 L6,12 Z" id="Shape"></path>
                </g>
            </g>
        </g>
    </g>
</svg>