<?xml version="1.0" encoding="UTF-8"?>
<svg width="51px" height="51px" viewBox="0 0 51 51" version="1.1" xmlns="http://www.w3.org/2000/svg" xmlns:xlink="http://www.w3.org/1999/xlink">
    <!-- Generator: Sketch 53.2 (72643) - https://sketchapp.com -->
    <title>chat</title>
    <desc>Created with Sketch.</desc>
    <g id="Hive" stroke="none" stroke-width="1" fill="none" fill-rule="evenodd">
        <g id="Hive-Profile" transform="translate(-612.000000, -474.000000)" fill-rule="nonzero">
            <g id="Badge-2" transform="translate(599.000000, 457.000000)">
                <g id="chat" transform="translate(13.000000, 17.000000)">
                    <path d="M43.532141,7.47643979 C48.3504592,12.2934031 51,18.7017801 51,25.5053403 C51,32.3089005 48.3504592,38.7172775 43.532141,43.5342408 C38.7138227,48.3512042 32.3143269,51 25.4981695,51 C21.267451,51 17.111518,49.9532984 13.4149812,47.9667016 C10.6692877,49.8571728 7.3787289,50.9359162 4.24842461,50.9359162 C3.6180903,50.9359162 3.00912325,50.8825131 2.44289073,50.7970681 C1.40657839,50.6368586 0.615989593,49.8358115 0.455735107,48.7997906 C0.306164254,47.7744503 0.829662241,46.7704712 1.75913826,46.3112042 C3.27621406,45.5635602 4.63303538,44.0041885 5.77618404,41.6651309 C-2.50363107,31.6039791 -1.83056223,16.7579058 7.46419796,7.46575916 C12.2825162,2.64879581 18.682012,0 25.4981695,0 C32.3143269,0 38.7138227,2.65947644 43.532141,7.47643979 Z" id="Shape" fill="#E7277E"></path>
                    <path d="M31.9953483,13.3043478 C34.3016897,13.3043478 36.4793051,14.1994742 38.120562,15.8298828 C39.7510917,17.4602915 40.6521739,19.6235134 40.6521739,21.9252668 C40.6521739,24.216364 39.7510917,26.3795859 38.1098348,28.0099946 L26.5030377,39.4974491 C26.2241313,39.774512 25.8486803,39.9130435 25.4839566,39.9130435 C25.1192328,39.9130435 24.7437819,39.7638558 24.4648755,39.4867928 L12.8902599,27.9886821 C11.2597302,26.3582734 10.3479208,24.2057077 10.3479208,21.9039543 C10.3371936,19.6128572 11.2382758,17.4496352 12.8795327,15.8192266 C14.5100624,14.1994742 16.6876778,13.3043478 18.9940192,13.3043478 C21.3110877,13.3043478 23.4887031,14.1994742 25.12996,15.8298828 L25.4946838,16.1921959 L25.8594075,15.8298828 C27.5006644,14.1994742 29.6782798,13.3043478 31.9953483,13.3043478 Z" id="Shape" fill="#F8A2C9"></path>
                </g>
            </g>
        </g>
    </g>
</svg>