<?xml version="1.0" encoding="UTF-8"?>
<svg width="30px" height="30px" viewBox="0 0 30 30" version="1.1" xmlns="http://www.w3.org/2000/svg" xmlns:xlink="http://www.w3.org/1999/xlink">
    <!-- Generator: Sketch 53.2 (72643) - https://sketchapp.com -->
    <title>Editor</title>
    <desc>Created with Sketch.</desc>
    <g id="Hive" stroke="none" stroke-width="1" fill="none" fill-rule="evenodd">
        <g id="Hive-Central-de-Compartilhamento---Open" transform="translate(-32.000000, -187.000000)" fill="#F6BD60" fill-rule="nonzero">
            <g id="Editor" transform="translate(32.000000, 187.000000)">
                <g id="contract">
                    <path d="M28.7041523,6.45458204 L27.9763154,6.22729102 C27.7943411,6.18183282 27.6123668,6.13637461 27.3849593,6.13637461 C26.5661353,6.13637461 25.8382985,6.68181269 25.565337,7.4545418 L25.1559552,8.68179257 L25.1559552,7.77268886 L25.1559552,7.72729102 C25.1559552,7.59091641 25.0649681,7.4545418 24.9739809,7.36362539 L17.5136382,0.136374613 C17.422651,0.0454582042 17.2861703,0 17.1951831,0 L2.59289232,0 C2.31993084,0 2.13801695,0.181832817 2.13801695,0.454521673 L2.13801695,1.86360526 L0.45487537,1.86360526 C0.181913898,1.86360526 0,2.04543808 0,2.31812694 L0,29.5454783 C0,29.8182276 0.181974314,30 0.45487537,30 L22.5630025,30 C22.835964,30 23.0178779,29.8181672 23.0178779,29.5454783 L23.0178779,28.1363947 L24.7010194,28.1363947 C24.9739809,28.1363947 25.1558948,27.9545619 25.1558948,27.6818731 L25.1558948,21.5454985 L26.4295942,19.8182074 L26.4750878,19.6818328 L29.8868645,8.81816718 C30.2508131,7.81820743 29.7049506,6.7727291 28.7041523,6.45458204 Z M17.6500585,1.5454582 L23.609234,7.27276935 L17.6500585,7.27276935 L17.6500585,1.5454582 Z M22.1081271,29.0909567 L0.90975074,29.0909567 L0.90975074,2.77270898 L2.13795653,2.77270898 L2.13795653,27.6818731 C2.13795653,27.9546223 2.31993084,28.1363947 2.5928319,28.1363947 L22.1080667,28.1363947 L22.1081271,29.0909567 L22.1081271,29.0909567 Z M24.2916377,27.2273514 L24.2461441,27.2273514 L3.04776769,27.2273514 L3.04776769,0.909103715 L16.7402474,0.909103715 L16.7402474,7.72729102 C16.7402474,8.00004025 16.9222217,8.18181269 17.1951227,8.18181269 L24.2915772,8.18181269 L24.2915772,11.5909365 L22.1535603,18.3182074 L22.1535603,18.454582 L22.2445475,24.2273514 C22.2445475,24.4091842 22.3810282,24.591017 22.5630025,24.6364149 C22.7449768,24.6818731 22.9723843,24.6364149 23.0633715,24.454582 L24.2915772,22.8182074 L24.2916377,27.2273514 L24.2916377,27.2273514 Z M23.108865,22.8182074 L23.0178779,19.0454783 L25.2923756,19.7727492 L23.108865,22.8182074 Z M29.0681009,8.54547833 L25.7928049,18.9546223 L23.1543586,18.0909768 L26.4296546,7.72729102 C26.6116289,7.22731114 27.1574914,6.90910371 27.6578604,7.09093653 L28.3856972,7.31822755 C28.9316202,7.4545418 29.2500148,8.04549845 29.0681009,8.54547833 Z" id="Shape"></path>
                    <path d="M6.4877796,8 L13.5122204,8 C13.804927,8 14,7.80326156 14,7.50821921 L14,2.49178079 C14,2.19667313 13.8048622,2 13.5122204,2 L6.4877796,2 C6.19507297,2 6,2.19673844 6,2.49178079 L6,7.50821921 C6,7.75414226 6.24392219,8 6.4877796,8 Z M6.97562398,2.98356158 L13.0244408,2.98356158 L13.0244408,7.0163731 L6.97562398,7.0163731 L6.97562398,2.98356158 Z" id="Shape"></path>
                    <path d="M5.43207682,12 L18.5679232,12 C18.8272037,12 19,11.7999734 19,11.5 C19,11.1999602 18.8271463,11 18.5679232,11 L5.43207682,11 C5.1727963,11 5.00000001,11.2000266 5.00000001,11.5 C4.99994263,11.7999734 5.1727963,12 5.43207682,12 Z" id="Path"></path>
                    <path d="M5.4320768,16 L18.5679232,16 C18.8272037,16 19,15.7999734 19,15.5 C19,15.2000266 18.8271463,15 18.5679232,15 L5.4320768,15 C5.17279629,15 5,15.2000266 5,15.5 C5,15.7999734 5.17279629,16 5.4320768,16 Z" id="Path"></path>
                    <path d="M5.4320768,19 L18.5679232,19 C18.8272037,19 19,18.7999734 19,18.5 C19,18.2000266 18.8271463,18 18.5679232,18 L5.4320768,18 C5.17279629,18 5,18.2000266 5,18.5 C5,18.7999734 5.17279629,19 5.4320768,19 Z" id="Path"></path>
                    <path d="M19,21.5 C19,21.1999602 18.8266111,21 18.5665854,21 L5.43341461,21 C5.1733313,21 5,21.2000266 5,21.5 C5,21.7999734 5.17338887,22 5.43341461,22 L18.6099326,22 C18.8266111,22 19,21.7499668 19,21.5 Z" id="Path"></path>
                    <path d="M20.6294346,25 L14.4117454,25 C14.1646653,25 14,25.2000266 14,25.5 C14,25.7999734 14.16472,26 14.4117454,26 L20.5882546,26 C20.8353347,26 21,25.7999734 21,25.5 C21,25.2000266 20.8353347,25 20.6294346,25 Z" id="Path"></path>
                </g>
            </g>
        </g>
    </g>
</svg>