<?xml version="1.0" encoding="UTF-8"?>
<svg width="78px" height="85px" viewBox="0 0 78 85" version="1.1" xmlns="http://www.w3.org/2000/svg" xmlns:xlink="http://www.w3.org/1999/xlink">
    <!-- Generator: Sketch 53.2 (72643) - https://sketchapp.com -->
    <title>Group 2</title>
    <desc>Created with Sketch.</desc>
    <g id="Hive" stroke="none" stroke-width="1" fill="none" fill-rule="evenodd">
        <g id="Hive-Subject" transform="translate(-263.000000, -197.000000)" fill-rule="nonzero">
            <g id="Card" transform="translate(247.000000, 181.000000)">
                <g id="Group-2" transform="translate(16.000000, 16.000000)">
                    <g id="Icon">
                        <path d="M39.2734559,84.9999932 C37.0701601,85.0131822 2.08800371,65.8121113 0.974514661,63.9784019 C-0.138974388,62.1446926 -0.3887475,23.3253023 0.701059609,21.4784079 C1.79086713,19.6315096 36.5232492,0.0131933889 38.726545,6.79132745e-06 C40.9298407,-0.0131821898 75.9119943,19.1878911 77.0254841,21.0216004 C78.138974,22.8553098 78.3887475,61.6746961 77.2989417,63.5215944 C76.2091317,65.3684928 41.4767516,84.9868082 39.2734559,84.9999932 Z" id="path830" fill="#E9724C"></path>
                        <path d="M39.343944,81.3043353 C37.3930307,81.3214363 6.37152213,63.870123 5.38117274,62.1984 C4.39082336,60.5266726 4.07666688,25.0828923 5.03723035,23.3940639 C5.99779338,21.7052354 36.7051432,3.71276753 38.6560565,3.69566473 C40.6069698,3.67856375 71.6284789,21.1298752 72.618826,22.8016027 C73.6091776,24.4733302 73.9233337,59.9171104 72.9627675,61.6059388 C72.0022058,63.2947673 41.2948528,81.2872343 39.343944,81.3043353 Z" id="path846" fill="#F6BD60"></path>
                    </g>
                    <g id="download" transform="translate(19.000000, 25.000000)" fill="#000000">
                        <path d="M38.8539898,18.1594331 C38.2173175,18.1594331 37.7079796,18.6377325 37.7079796,19.2356067 L37.7079796,29.0248007 C37.7079796,31.6873339 35.3989813,33.8476528 32.5721562,33.8476528 L7.4278438,33.8476528 C4.59252971,33.8476528 2.29202037,31.6793623 2.29202037,29.0248007 L2.29202037,19.0761736 C2.29202037,18.4782994 1.78268251,18 1.14601019,18 C0.509337861,18 0,18.4782994 0,19.0761736 L0,29.0248007 C0,32.8751107 3.33616299,36 7.4278438,36 L32.5721562,36 C36.672326,36 40,32.8671391 40,29.0248007 L40,19.2356067 C40,18.6457042 39.4906621,18.1594331 38.8539898,18.1594331 Z" id="Path"></path>
                        <path d="M19.6912912,27.6641679 C19.9137931,27.8824588 20.2133149,28 20.5042789,28 C20.7952429,28 21.0947647,27.8908546 21.3172665,27.6641679 L28.6598288,20.4605697 C29.1133904,20.0155922 29.1133904,19.301949 28.6598288,18.8569715 C28.2062673,18.411994 27.4788573,18.411994 27.0252957,18.8569715 L21.6595771,24.1295352 L21.6595771,1.13343328 C21.6595771,0.503748126 21.1461113,0 20.5042789,0 C19.8624465,0 19.3489806,0.503748126 19.3489806,1.13343328 L19.3489806,24.1295352 L13.9747043,18.8569715 C13.5211427,18.411994 12.7937327,18.411994 12.3401712,18.8569715 C11.8866096,19.301949 11.8866096,20.0155922 12.3401712,20.4605697 L19.6912912,27.6641679 Z" id="Path"></path>
                    </g>
                </g>
            </g>
        </g>
    </g>
</svg>