<?xml version="1.0" encoding="UTF-8"?>
<svg width="40px" height="36px" viewBox="0 0 40 36" version="1.1" xmlns="http://www.w3.org/2000/svg" xmlns:xlink="http://www.w3.org/1999/xlink">
    <!-- Generator: Sketch 53.2 (72643) - https://sketchapp.com -->
    <title>download</title>
    <desc>Created with Sketch.</desc>
    <g id="Hive" stroke="none" stroke-width="1" fill="none" fill-rule="evenodd">
        <g id="Hive-Subject" transform="translate(-282.000000, -222.000000)" fill="#000000" fill-rule="nonzero">
            <g id="Card" transform="translate(247.000000, 181.000000)">
                <g id="Group-2" transform="translate(16.000000, 16.000000)">
                    <g id="download" transform="translate(19.000000, 25.000000)">
                        <path d="M38.8539898,18.1594331 C38.2173175,18.1594331 37.7079796,18.6377325 37.7079796,19.2356067 L37.7079796,29.0248007 C37.7079796,31.6873339 35.3989813,33.8476528 32.5721562,33.8476528 L7.4278438,33.8476528 C4.59252971,33.8476528 2.29202037,31.6793623 2.29202037,29.0248007 L2.29202037,19.0761736 C2.29202037,18.4782994 1.78268251,18 1.14601019,18 C0.509337861,18 0,18.4782994 0,19.0761736 L0,29.0248007 C0,32.8751107 3.33616299,36 7.4278438,36 L32.5721562,36 C36.672326,36 40,32.8671391 40,29.0248007 L40,19.2356067 C40,18.6457042 39.4906621,18.1594331 38.8539898,18.1594331 Z" id="Path"></path>
                        <path d="M19.6912912,27.6641679 C19.9137931,27.8824588 20.2133149,28 20.5042789,28 C20.7952429,28 21.0947647,27.8908546 21.3172665,27.6641679 L28.6598288,20.4605697 C29.1133904,20.0155922 29.1133904,19.301949 28.6598288,18.8569715 C28.2062673,18.411994 27.4788573,18.411994 27.0252957,18.8569715 L21.6595771,24.1295352 L21.6595771,1.13343328 C21.6595771,0.503748126 21.1461113,0 20.5042789,0 C19.8624465,0 19.3489806,0.503748126 19.3489806,1.13343328 L19.3489806,24.1295352 L13.9747043,18.8569715 C13.5211427,18.411994 12.7937327,18.411994 12.3401712,18.8569715 C11.8866096,19.301949 11.8866096,20.0155922 12.3401712,20.4605697 L19.6912912,27.6641679 Z" id="Path"></path>
                    </g>
                </g>
            </g>
        </g>
    </g>
</svg>