<?xml version="1.0" encoding="UTF-8"?>
<svg width="23px" height="27px" viewBox="0 0 23 27" version="1.1" xmlns="http://www.w3.org/2000/svg" xmlns:xlink="http://www.w3.org/1999/xlink">
    <!-- Generator: Sketch 53.2 (72643) - https://sketchapp.com -->
    <title>down-arrow</title>
    <desc>Created with Sketch.</desc>
    <g id="Hive" stroke="none" stroke-width="1" fill="none" fill-rule="evenodd">
        <g id="Hive-Forum---Aberto" transform="translate(-531.000000, -104.000000)" fill="#F6BD60" fill-rule="nonzero">
            <g id="Group-5" transform="translate(531.000000, 104.000000)">
                <g id="down-arrow">
                    <path d="M22.9578484,14.9675793 C22.8723363,14.7572925 22.6727908,14.620071 22.4513534,14.620071 L16.4446903,14.620071 L16.4446903,0.562328671 C16.4446903,0.251932944 16.1990998,0 15.8965184,0 L7.12602452,0 C6.82344308,0 6.5778526,0.251932944 6.5778526,0.562328671 L6.5778526,14.6201237 L0.548166997,14.6201237 C0.32672959,14.6201237 0.127184115,14.7573452 0.0416719675,14.9665249 C-0.0427610006,15.1768117 0.00328400207,15.418623 0.160073403,15.5794616 L11.0957615,26.8346805 C11.1987975,26.9403775 11.3380631,27 11.4838551,27 C11.6296472,27 11.7689128,26.9403775 11.8719487,26.8357876 L22.839447,15.5805686 C22.9962364,15.4196774 23.0433606,15.1779187 22.9578484,14.9675793 Z" id="Path"></path>
                </g>
            </g>
        </g>
    </g>
</svg>