<?xml version="1.0" encoding="UTF-8"?>
<svg width="16px" height="15px" viewBox="0 0 16 15" version="1.1" xmlns="http://www.w3.org/2000/svg" xmlns:xlink="http://www.w3.org/1999/xlink">
    <!-- Generator: Sketch 53.2 (72643) - https://sketchapp.com -->
    <title>exclamation-mark</title>
    <desc>Created with Sketch.</desc>
    <g id="Hive" stroke="none" stroke-width="1" fill="none" fill-rule="evenodd">
        <g id="Hive-Forum" transform="translate(-519.000000, -304.000000)" fill="#E9724C" fill-rule="nonzero">
            <g id="Card" transform="translate(247.000000, 138.000000)">
                <g id="exclamation-mark" transform="translate(272.500000, 166.000000)">
                    <path d="M7.5,0 C3.35810721,0 0,3.35810721 0,7.5 C0,11.6423647 3.35810721,15 7.5,15 C11.6423647,15 15,11.6428367 15,7.5 C15,3.35810721 11.6423123,0 7.5,0 Z M7.5,13.5937271 C4.13439421,13.5937271 1.40627294,10.8656058 1.40627294,7.5 C1.40627294,4.13439421 4.13439421,1.40627294 7.5,1.40627294 C10.8656058,1.40627294 13.5937271,4.13439421 13.5937271,7.5 C13.5937271,10.8656058 10.8656058,13.5937271 7.5,13.5937271 Z M7.50047194,3.28920414 C6.96330064,3.28920414 6.5568564,3.56953582 6.5568564,4.02233494 L6.5568564,8.17544939 C6.5568564,8.62872045 6.9632482,8.90810826 7.50047194,8.90810826 C8.02453383,8.90810826 8.44408748,8.61702686 8.44408748,8.17544939 L8.44408748,4.02233494 C8.44403504,3.58028554 8.02453383,3.28920414 7.50047194,3.28920414 Z M7.50047194,9.84375328 C6.98438057,9.84375328 6.56435498,10.2637789 6.56435498,10.7802897 C6.56435498,11.2959092 6.98438057,11.7159348 7.50047194,11.7159348 C8.01656331,11.7159348 8.43611696,11.2959092 8.43611696,10.7802897 C8.43606452,10.2637264 8.01656331,9.84375328 7.50047194,9.84375328 Z" id="Shape"></path>
                </g>
            </g>
        </g>
    </g>
</svg>