<?xml version="1.0" encoding="UTF-8"?>
<svg width="32px" height="26px" viewBox="0 0 32 26" version="1.1" xmlns="http://www.w3.org/2000/svg" xmlns:xlink="http://www.w3.org/1999/xlink">
    <!-- Generator: Sketch 53.2 (72643) - https://sketchapp.com -->
    <title>folder</title>
    <desc>Created with Sketch.</desc>
    <g id="Hive" stroke="none" stroke-width="1" fill="none" fill-rule="evenodd">
        <g id="Hive-Empty" transform="translate(-137.000000, -136.000000)" fill-rule="nonzero">
            <g id="Folder" transform="translate(137.500000, 136.000000)">
                <g id="folder">
                    <path d="M24.759395,26 L0.836541453,26 C0.286025597,26 -0.114300981,25.4952258 0.0294745188,24.9816774 L5.46301256,10.5966452 C5.56135714,10.2446452 5.89220114,10 6.2700795,10 L30.1929331,10 C30.7434489,10 31,10.507871 31,11.0183226 L25.566462,25.4033548 C25.4681174,25.7553548 25.1372734,26 24.759395,26 Z" id="Path" fill="#F6BD60"></path>
                    <path d="M27.0673846,3.77782775 L13.4615385,3.77782775 L10.7692308,0 L0.932615385,0 C0.417846154,0 0,0.418259501 0,0.934742523 L0,23.9946031 C0.0371538462,23.9956825 0.0743076923,23.9978412 0.110384615,24 L5.50307692,9.25891612 C5.60215385,8.89030807 5.93546154,8.63503485 6.31615385,8.63503485 L28,8.63503485 L28,4.71257027 C28,4.19608725 27.5821538,3.77782775 27.0673846,3.77782775 Z" id="Path" fill="#E9724C"></path>
                </g>
            </g>
        </g>
    </g>
</svg>