<?xml version="1.0" encoding="UTF-8"?>
<svg width="41px" height="40px" viewBox="0 0 41 40" version="1.1" xmlns="http://www.w3.org/2000/svg" xmlns:xlink="http://www.w3.org/1999/xlink">
    <!-- Generator: Sketch 53.2 (72643) - https://sketchapp.com -->
    <title>github-logo</title>
    <desc>Created with Sketch.</desc>
    <g id="Hive" stroke="none" stroke-width="1" fill="none" fill-rule="evenodd">
        <g id="Hive-Profile" transform="translate(-912.000000, -224.000000)" fill="#000000" fill-rule="nonzero">
            <g id="github-logo" transform="translate(912.000000, 224.000000)">
                <path d="M38.2500627,10.2106855 C36.4168958,7.06954026 33.930322,4.58269119 30.7896868,2.74957732 C27.6485842,0.916369942 24.2194365,0 20.499813,0 C16.780657,0 13.3503874,0.916650435 10.2099392,2.74957732 C7.06902355,4.58259769 4.58254322,7.06954026 2.74937635,10.2106855 C0.916489946,13.3517373 0,16.7817901 0,20.5007505 C0,24.9680656 1.30326123,28.9851899 3.91043813,32.5531516 C6.51733456,36.1213939 9.88505881,38.5904784 14.0133304,39.9606857 C14.4938729,40.0498824 14.8496053,39.9871455 15.0809014,39.7740645 C15.3122911,39.560703 15.4278457,39.2934869 15.4278457,38.9735381 C15.4278457,38.920151 15.4232646,38.4398538 15.414383,37.5320856 C15.4052209,36.6243175 15.4009203,35.8323928 15.4009203,35.1566857 L14.7869665,35.262899 C14.3955207,35.3346116 13.9017024,35.3649984 13.3055119,35.3563966 C12.7096017,35.3480753 12.0909734,35.2856189 11.4504681,35.1694949 C10.8096825,35.0543993 10.2136788,34.7874637 9.66198985,34.369249 C9.11058133,33.9510342 8.71913551,33.4036058 8.48774587,32.7278051 L8.22082974,32.1135259 C8.04291682,31.7045675 7.7628185,31.2502626 7.3801608,30.7522944 C6.99750311,30.2538587 6.61054485,29.9159584 6.21909902,29.7380325 L6.03221099,29.6042374 C5.90768129,29.5153212 5.79212671,29.4080795 5.68526677,29.2836342 C5.57850032,29.1591889 5.49856571,29.0346501 5.44518249,28.9099243 C5.39170577,28.785105 5.43602039,28.6827251 5.57859381,28.6024107 C5.72116722,28.5220963 5.97882776,28.4831078 6.35269732,28.4831078 L6.8863426,28.5628612 C7.24226193,28.6341999 7.68250993,28.8472809 8.20764754,29.2034133 C8.73250469,29.5592651 9.16396456,30.0218912 9.50212064,30.5911046 C9.91161018,31.3209468 10.4049609,31.8770705 10.9835753,32.2597562 C11.5617221,32.6424418 12.1446371,32.8334574 12.731759,32.8334574 C13.318881,32.8334574 13.8259749,32.7889526 14.2532277,32.7004104 C14.680013,32.6114006 15.080434,32.4776056 15.4543035,32.2997732 C15.6144532,31.1069308 16.0504941,30.1905609 16.7620523,29.5500088 C15.7478645,29.4434216 14.8360491,29.2828862 14.0261386,29.0694312 C13.2166956,28.8556957 12.3802338,28.5088196 11.517314,28.027868 C10.6539268,27.5475708 9.93769411,26.9511497 9.36842885,26.2396329 C8.79907011,25.5277422 8.33180328,24.5931403 7.96728279,23.4366685 C7.60257533,22.2797292 7.42017485,20.9451446 7.42017485,19.4325404 C7.42017485,17.2788233 8.12322539,15.4460834 9.52904598,13.9332923 C8.87049705,12.3141009 8.93266841,10.4989386 9.71574704,8.48799229 C10.231816,8.32764392 10.9971314,8.44797532 12.0113192,8.84823853 C13.025694,9.24868874 13.7683846,9.59173142 14.240139,9.87615111 C14.7118934,10.1604773 15.0898765,10.4014206 15.3746494,10.5968306 C17.0299034,10.134298 18.7380731,9.90298492 20.499626,9.90298492 C22.261179,9.90298492 23.9697227,10.134298 25.6250701,10.5968306 L26.6393514,9.95646554 C27.3329594,9.52918153 28.1520319,9.13761359 29.0946058,8.78166824 C30.0377406,8.42590989 30.7589284,8.32792441 31.2574211,8.48827279 C32.057889,10.4993126 32.1292225,12.3143814 31.4704866,13.9335728 C32.8762137,15.4463639 33.5795447,17.2795713 33.5795447,19.4328209 C33.5795447,20.945425 33.3964898,22.2842171 33.0323432,23.4500387 C32.6677293,24.6160472 32.1964423,25.5497142 31.6182955,26.2530031 C31.0394941,26.9561985 30.3186804,27.5479448 29.4557606,28.0281485 C28.5926539,28.5087261 27.7559116,28.8556022 26.9464686,29.0693377 C26.1366516,29.2830732 25.2248362,29.4437021 24.2106484,29.5504763 C25.135646,30.3510028 25.5982383,31.6146228 25.5982383,33.3407754 L25.5982383,38.9727901 C25.5982383,39.2927389 25.7094923,39.5598615 25.9321873,39.7733165 C26.1546018,39.9863975 26.5058466,40.0491344 26.9863891,39.9598442 C31.1152217,38.589824 34.4829459,36.1206459 37.0897489,32.5524037 C39.6962713,28.9844419 41,24.9673177 41,20.5000025 C40.9990651,16.7815096 40.0821077,13.3517373 38.2500627,10.2106855 Z" id="Path"></path>
            </g>
        </g>
    </g>
</svg>