<?xml version="1.0" encoding="UTF-8"?>
<svg width="78px" height="85px" viewBox="0 0 78 85" version="1.1" xmlns="http://www.w3.org/2000/svg" xmlns:xlink="http://www.w3.org/1999/xlink">
    <!-- Generator: Sketch 53.2 (72643) - https://sketchapp.com -->
    <title>Group 3</title>
    <desc>Created with Sketch.</desc>
    <g id="Hive" stroke="none" stroke-width="1" fill="none" fill-rule="evenodd">
        <g id="Hive-Subject" transform="translate(-263.000000, -358.000000)" fill-rule="nonzero">
            <g id="Card" transform="translate(247.000000, 342.000000)">
                <g id="Group-3" transform="translate(16.000000, 16.000000)">
                    <g id="Icon">
                        <path d="M39.2734559,84.9999932 C37.0701601,85.0131822 2.08800371,65.8121113 0.974514661,63.9784019 C-0.138974388,62.1446926 -0.3887475,23.3253023 0.701059609,21.4784079 C1.79086713,19.6315096 36.5232492,0.0131933889 38.726545,6.79132745e-06 C40.9298407,-0.0131821898 75.9119943,19.1878911 77.0254841,21.0216004 C78.138974,22.8553098 78.3887475,61.6746961 77.2989417,63.5215944 C76.2091317,65.3684928 41.4767516,84.9868082 39.2734559,84.9999932 Z" id="path830" fill="#E9724C"></path>
                        <path d="M39.343944,81.3043353 C37.3930307,81.3214363 6.37152213,63.870123 5.38117274,62.1984 C4.39082336,60.5266726 4.07666688,25.0828923 5.03723035,23.3940639 C5.99779338,21.7052354 36.7051432,3.71276753 38.6560565,3.69566473 C40.6069698,3.67856375 71.6284789,21.1298752 72.618826,22.8016027 C73.6091776,24.4733302 73.9233337,59.9171104 72.9627675,61.6059388 C72.0022058,63.2947673 41.2948528,81.2872343 39.343944,81.3043353 Z" id="path846" fill="#F6BD60"></path>
                    </g>
                    <g id="file" transform="translate(23.000000, 22.000000)" fill="#313638">
                        <path d="M25.2962963,15 L7.7037037,15 C7.31525926,15 7,15.447 7,16 C7,16.553 7.31525926,17 7.7037037,17 L25.2962963,17 C25.6847407,17 26,16.553 26,16 C26,15.447 25.6847407,15 25.2962963,15 Z" id="Path"></path>
                        <path d="M7.75,11 L15.25,11 C15.664,11 16,10.553 16,10 C16,9.447 15.664,9 15.25,9 L7.75,9 C7.336,9 7,9.447 7,10 C7,10.553 7.336,11 7.75,11 Z" id="Path"></path>
                        <path d="M25.2962963,20 L7.7037037,20 C7.31525926,20 7,20.447 7,21 C7,21.553 7.31525926,22 7.7037037,22 L25.2962963,22 C25.6847407,22 26,21.553 26,21 C26,20.447 25.6847407,20 25.2962963,20 Z" id="Path"></path>
                        <path d="M25.2962963,26 L7.7037037,26 C7.31525926,26 7,26.447 7,27 C7,27.553 7.31525926,28 7.7037037,28 L25.2962963,28 C25.6847407,28 26,27.553 26,27 C26,26.447 25.6847407,26 25.2962963,26 Z" id="Path"></path>
                        <path d="M25.2962963,32 L7.7037037,32 C7.31525926,32 7,32.447 7,33 C7,33.553 7.31525926,34 7.7037037,34 L25.2962963,34 C25.6847407,34 26,33.553 26,33 C26,32.447 25.6847407,32 25.2962963,32 Z" id="Path"></path>
                        <path d="M22.758766,0 L0,0 L0,42 L33,42 L33,10.2102 L22.758766,0 Z M23.1702128,2.3898 L30.6029362,9.8 L23.1702128,9.8 L23.1702128,2.3898 Z M1.40425532,40.6 L1.40425532,1.4 L21.7659574,1.4 L21.7659574,11.2 L31.5957447,11.2 L31.5957447,40.6 L1.40425532,40.6 Z" id="Shape"></path>
                    </g>
                </g>
            </g>
        </g>
    </g>
</svg>