<?xml version="1.0" encoding="UTF-8"?>
<svg width="78px" height="85px" viewBox="0 0 78 85" version="1.1" xmlns="http://www.w3.org/2000/svg" xmlns:xlink="http://www.w3.org/1999/xlink">
    <!-- Generator: Sketch 53.2 (72643) - https://sketchapp.com -->
    <title>Group 4</title>
    <desc>Created with Sketch.</desc>
    <g id="Hive" stroke="none" stroke-width="1" fill="none" fill-rule="evenodd">
        <g id="Hive-Subject" transform="translate(-263.000000, -519.000000)" fill-rule="nonzero">
            <g id="Card" transform="translate(247.000000, 503.000000)">
                <g id="Group-4" transform="translate(16.000000, 16.000000)">
                    <g id="Icon">
                        <path d="M39.2734559,84.9999932 C37.0701601,85.0131822 2.08800371,65.8121113 0.974514661,63.9784019 C-0.138974388,62.1446926 -0.3887475,23.3253023 0.701059609,21.4784079 C1.79086713,19.6315096 36.5232492,0.0131933889 38.726545,6.79132745e-06 C40.9298407,-0.0131821898 75.9119943,19.1878911 77.0254841,21.0216004 C78.138974,22.8553098 78.3887475,61.6746961 77.2989417,63.5215944 C76.2091317,65.3684928 41.4767516,84.9868082 39.2734559,84.9999932 Z" id="path830" fill="#E9724C"></path>
                        <path d="M39.343944,81.3043353 C37.3930307,81.3214363 6.37152213,63.870123 5.38117274,62.1984 C4.39082336,60.5266726 4.07666688,25.0828923 5.03723035,23.3940639 C5.99779338,21.7052354 36.7051432,3.71276753 38.6560565,3.69566473 C40.6069698,3.67856375 71.6284789,21.1298752 72.618826,22.8016027 C73.6091776,24.4733302 73.9233337,59.9171104 72.9627675,61.6059388 C72.0022058,63.2947673 41.2948528,81.2872343 39.343944,81.3043353 Z" id="path846" fill="#F6BD60"></path>
                    </g>
                    <g id="upload" transform="translate(19.000000, 24.000000)" fill="#000000">
                        <path d="M38.8539898,17.1771479 C38.2173175,17.1771479 37.7079796,17.7085917 37.7079796,18.3728964 L37.7079796,29.2497786 C37.7079796,32.2081488 35.3989813,34.6085031 32.5721562,34.6085031 L7.4278438,34.6085031 C4.59252971,34.6085031 2.29202037,32.1992914 2.29202037,29.2497786 L2.29202037,18.1957484 C2.29202037,17.5314438 1.78268251,17 1.14601019,17 C0.509337861,17 0,17.5314438 0,18.1957484 L0,29.2497786 C0,33.5279008 3.33616299,37 7.4278438,37 L32.5721562,37 C36.672326,37 40,33.5190434 40,29.2497786 L40,18.3728964 C40,17.7174491 39.4906621,17.1771479 38.8539898,17.1771479 Z" id="Path"></path>
                        <path d="M12.8514228,9.14302849 L17.9121128,3.87046477 L17.9121128,26.8665667 C17.9121128,27.4962519 18.3956182,28 19,28 C19.6043818,28 20.0878872,27.4962519 20.0878872,26.8665667 L20.0878872,3.87046477 L25.1485772,9.14302849 C25.3580962,9.36131934 25.640141,9.47886057 25.9141274,9.47886057 C26.1961722,9.47886057 26.4701587,9.36971514 26.6796777,9.14302849 C27.1067741,8.69805097 27.1067741,7.9844078 26.6796777,7.53943028 L19.7655502,0.335832084 C19.5640896,0.125937031 19.2820448,0 19,0 C18.7098968,0 18.4359104,0.117541229 18.2344498,0.335832084 L11.3203223,7.53943028 C10.8932259,7.9844078 10.8932259,8.69805097 11.3203223,9.14302849 C11.7393604,9.57961019 12.4323848,9.57961019 12.8514228,9.14302849 Z" id="Path"></path>
                    </g>
                </g>
            </g>
        </g>
    </g>
</svg>