<?xml version="1.0" encoding="UTF-8"?>
<svg width="67px" height="74px" viewBox="0 0 67 74" version="1.1" xmlns="http://www.w3.org/2000/svg" xmlns:xlink="http://www.w3.org/1999/xlink">
    <!-- Generator: Sketch 53.2 (72643) - https://sketchapp.com -->
    <title>Group 6</title>
    <desc>Created with Sketch.</desc>
    <g id="Hive" stroke="none" stroke-width="1" fill="none" fill-rule="evenodd">
        <g id="Hive-Central-de-Compartilhamento---Open" transform="translate(-304.000000, -1310.000000)">
            <g id="XP" transform="translate(306.000000, 1312.000000)">
                <g id="Group-6">
                    <path d="M62.4337606,52.3119013 C61.5535294,53.8328764 33.5004532,69.9891362 31.7208682,69.9999944 C29.9412832,70.0108559 1.68646453,54.1982093 0.787107995,52.6880957 C-0.112248544,51.1779822 -0.313988365,19.2090725 0.566240453,17.6881007 C1.4464696,16.1671256 29.4995474,0.0108651438 31.2791325,5.59285791e-06 C33.0587175,-0.010855921 61.3135338,15.8017927 62.212891,17.3119062 C63.1122482,18.8220198 63.3139884,50.7909262 62.4337606,52.3119013 L62.4337606,52.3119013 Z" id="path830" stroke="#F6BD60" stroke-width="3" fill-rule="nonzero"></path>
                    <g id="xp-arrow" transform="translate(13.000000, 11.000000)" fill="#F6BD60">
                        <g id="down-arrow" transform="translate(18.500000, 15.500000) rotate(-180.000000) translate(-18.500000, -15.500000) " fill-rule="nonzero">
                            <path d="M36.9321909,10.9459654 C36.7946279,10.5954875 36.47362,10.366785 36.1173946,10.366785 L26.4545017,10.366785 L26.4545017,0.937214451 C26.4545017,0.419888241 26.0594214,0 25.57266,0 L11.4636047,0 C10.9768432,0 10.5817629,0.419888241 10.5817629,0.937214451 L10.5817629,10.3668728 L0.881833865,10.3668728 C0.525608471,10.3668728 0.204600533,10.5955753 0.0670375129,10.9442082 C-0.0687894358,11.2946862 0.00528295985,11.6977051 0.257509387,11.9657693 L17.8497033,30.7244676 C18.0154569,30.9006291 18.2394928,31 18.4740278,31 C18.7085628,31 18.9325988,30.9006291 19.0983523,30.7263126 L36.741719,11.9676144 C36.9939455,11.6994623 37.0697539,11.2965312 36.9321909,10.9459654 Z" id="Path"></path>
                        </g>
                        <path d="M12,33 L25,33 C25.5522847,33 26,33.4477153 26,34 L26,36.5 C26,37.0522847 25.5522847,37.5 25,37.5 L12,37.5 C11.4477153,37.5 11,37.0522847 11,36.5 L11,34 C11,33.4477153 11.4477153,33 12,33 Z" id="Rectangle"></path>
                        <path d="M12,40 L25,40 C25.5522847,40 26,40.4477153 26,41 L26,43.5 C26,44.0522847 25.5522847,44.5 25,44.5 L12,44.5 C11.4477153,44.5 11,44.0522847 11,43.5 L11,41 C11,40.4477153 11.4477153,40 12,40 Z" id="Rectangle"></path>
                    </g>
                </g>
            </g>
        </g>
    </g>
</svg>