<?xml version="1.0" encoding="UTF-8"?>
<svg width="29px" height="26px" viewBox="0 0 29 26" version="1.1" xmlns="http://www.w3.org/2000/svg" xmlns:xlink="http://www.w3.org/1999/xlink">
    <!-- Generator: Sketch 53.2 (72643) - https://sketchapp.com -->
    <title>HiveShare Logo</title>
    <desc>Created with Sketch.</desc>
    <g id="Hive" stroke="none" stroke-width="1" fill="none" fill-rule="evenodd">
        <g id="Hive-Central-de-Compartilhamento---Open" transform="translate(-32.000000, -502.000000)" stroke="#F6BD60">
            <g id="HiveShare" transform="translate(32.000000, 502.000000)">
                <g id="HiveShare-Logo">
                    <g id="Notepad-Bottom" transform="translate(15.000000, 10.000000)">
                        <path d="M0.5,0.5 L0.5,15.5 L13.5,15.5 L13.5,3.08495834 L12.5320501,1.86553436 L11.4116769,0.5 L0.5,0.5 Z" id="Rectangle"></path>
                        <path d="M2.33333333,4.77419355 L8.37254902,4.77419355" id="Line-3" stroke-linecap="square"></path>
                        <path d="M2.33333333,7.35483871 L8.37254902,7.35483871" id="Line-3" stroke-linecap="square"></path>
                        <path d="M2.33333333,9.93548387 L8.37254902,9.93548387" id="Line-3" stroke-linecap="square"></path>
                        <path d="M2.33333333,12.516129 L8.37254902,12.516129" id="Line-3" stroke-linecap="square"></path>
                    </g>
                    <g id="Notepad-Top">
                        <path d="M0.5,0.5 L0.5,15.5 L13.5,15.5 L13.5,3.08495834 L12.5320501,1.86553436 L11.4116769,0.5 L0.5,0.5 Z" id="Rectangle"></path>
                        <path d="M2.33333333,4.77419355 L8.37254902,4.77419355" id="Line-3" stroke-linecap="square"></path>
                        <path d="M2.33333333,7.35483871 L8.37254902,7.35483871" id="Line-3" stroke-linecap="square"></path>
                        <path d="M2.33333333,9.93548387 L8.37254902,9.93548387" id="Line-3" stroke-linecap="square"></path>
                        <path d="M2.33333333,12.516129 L8.37254902,12.516129" id="Line-3" stroke-linecap="square"></path>
                    </g>
                    <g id="Arrow-Bottom" transform="translate(10.000000, 21.000000) rotate(-180.000000) translate(-10.000000, -21.000000) translate(8.000000, 18.000000)" stroke-linecap="square">
                        <path d="M3.89473684,6 L3.89473684,1.00279858" id="Line-4"></path>
                        <path d="M3.89473684,1.00279858 L0.105263158,1.00279858" id="Line-5"></path>
                        <path d="M0,1.00279858 L0.526315789,0.130434783" id="Line-6"></path>
                        <path d="M0,1.04347826 L0.526315789,1.95652174" id="Line-7"></path>
                    </g>
                    <g id="Arrow-Top" transform="translate(17.000000, 2.000000)" stroke-linecap="square">
                        <path d="M3.89473684,6 L3.89473684,1.00279858" id="Line-4"></path>
                        <path d="M3.89473684,1.00279858 L0.105263158,1.00279858" id="Line-5"></path>
                        <path d="M0,1.00279858 L0.526315789,0.130434783" id="Line-6"></path>
                        <path d="M0,1.04347826 L0.526315789,1.95652174" id="Line-7"></path>
                    </g>
                </g>
            </g>
        </g>
    </g>
</svg>