<?xml version="1.0" encoding="UTF-8"?>
<svg width="50xp" height="50px" viewBox="0 0 29 32" version="1.1" xmlns="http://www.w3.org/2000/svg" xmlns:xlink="http://www.w3.org/1999/xlink">
    <!-- Generator: Sketch 53.2 (72643) - https://sketchapp.com -->
    <title>Hive Isologo</title>
    <desc>Created with Sketch.</desc>
    <g id="Hive" stroke="none" stroke-width="1" fill="none" fill-rule="evenodd">
        <g id="Hive-Notification" transform="translate(-56.000000, -712.000000)" fill-rule="nonzero">
            <g id="Logo" transform="translate(56.000000, 712.000000)">
                <g id="Hive-Isologo">
                    <path d="M28.7393501,23.914012 C28.3341643,24.6093149 15.4208436,31.9950337 14.6016695,31.9999974 C13.7824954,32.0049627 0.776309071,24.7763242 0.362319553,24.0859866 C-0.0516699649,23.395649 -0.144534327,8.78129027 0.260650367,8.08598887 C0.665835215,7.39068598 13.5791568,0.00496692288 14.3983308,2.55673504e-06 C15.2175049,-0.00496270675 28.2236902,7.22367665 28.63768,7.91401428 C29.0516698,8.60435191 29.1445343,23.2187091 28.7393501,23.914012 L28.7393501,23.914012 Z" id="path830" fill="#313638"></path>
                    <path d="M18.7312676,21.1766598 C18.4059928,21.4012665 11.0992187,22.1337713 10.7317115,21.9786171 C10.3642043,21.8234629 6.04267631,16.1817173 6.0004438,15.8019565 C5.95821113,15.4221972 8.94345756,9.0479453 9.26873223,8.82334016 C9.5940069,8.59873354 16.9007805,7.86622872 17.268289,8.02138291 C17.6357959,8.17653709 21.9573242,13.8182827 21.9995562,14.1980435 C22.0417883,14.5778028 19.0565425,20.9520547 18.7312676,21.1766598 L18.7312676,21.1766598 Z" id="path844" fill="#313638"></path>
                    <path d="M25.8068767,22.4007571 C25.4870867,22.9665383 15.2640019,28.9942667 14.6145058,28.9999958 C13.9650082,29.0057249 3.6373347,23.1592905 3.30762782,22.5992399 C2.97792093,22.0391878 2.87333202,10.165025 3.1931226,9.59924381 C3.51291302,9.03346262 13.7359968,3.00573388 14.3854944,3.00000421 C15.034992,2.99427514 25.3626656,8.84070889 25.6923718,9.40076101 C26.0220794,9.96081313 26.1266682,21.8349759 25.8068767,22.4007571 L25.8068767,22.4007571 Z" id="path846" fill="#F6BD60"></path>
                    <polygon id="rect850" fill="#313638" transform="translate(18.190626, 13.909620) rotate(-31.170366) translate(-18.190626, -13.909620) " points="15.6788523 0.301010412 20.45438 0.344183894 20.7023992 27.5182293 15.9268714 27.4750559"></polygon>
                    <polygon id="rect850-0" fill="#313638" transform="translate(10.273843, 18.138764) rotate(-30.250276) translate(-10.273843, -18.138764) " points="7.85382123 4.87690477 12.4562788 4.9177801 12.6938657 31.4006239 8.09140816 31.3597485"></polygon>
                    <circle id="path869" fill="#313638" cx="22.5" cy="11.5" r="1.5"></circle>
                </g>
            </g>
        </g>
    </g>
</svg>