<?xml version="1.0" encoding="UTF-8"?>
<svg width="40px" height="40px" viewBox="0 0 40 40" version="1.1" xmlns="http://www.w3.org/2000/svg" xmlns:xlink="http://www.w3.org/1999/xlink">
    <!-- Generator: Sketch 53.2 (72643) - https://sketchapp.com -->
    <title>linkedin (1)</title>
    <desc>Created with Sketch.</desc>
    <g id="Hive" stroke="none" stroke-width="1" fill="none" fill-rule="evenodd">
        <g id="Hive-Profile" transform="translate(-969.000000, -224.000000)" fill-rule="nonzero">
            <g id="linkedin-(1)" transform="translate(969.000000, 224.000000)">
                <circle id="Oval" fill="#007AB9" cx="20" cy="20" r="20"></circle>
                <path d="M31,21.8740505 L31,30 L26.2836542,30 L26.2836542,22.4186381 C26.2836542,20.515041 25.6027051,19.2150577 23.8950566,19.2150577 C22.5918974,19.2150577 21.81774,20.0902627 21.4758585,20.9377112 C21.3516979,21.2405722 21.3196905,21.6611343 21.3196905,22.0859127 L21.3196905,29.9996487 L16.6029929,29.9996487 C16.6029929,29.9996487 16.6663043,17.1593274 16.6029929,15.8301824 L21.3200422,15.8301824 L21.3200422,17.8381295 C21.3105455,17.8539401 21.2971798,17.8693994 21.2887382,17.8845073 L21.3200422,17.8845073 L21.3200422,17.8381295 C21.9468248,16.8747365 23.0646224,15.4974569 25.5706977,15.4974569 C28.6736586,15.4974569 31,17.52262 31,21.8740505 L31,21.8740505 Z M11.6689263,9 C10.0555413,9 9,10.0579053 9,11.4478334 C9,12.8082483 10.0249408,13.8967208 11.6070218,13.8967208 L11.6376223,13.8967208 C13.2826629,13.8967208 14.3054934,12.8082483 14.3054934,11.4478334 C14.2741894,10.0579053 13.2826629,9 11.6689263,9 L11.6689263,9 Z M9.28032871,30 L13.9952676,30 L13.9952676,15.8301824 L9.28032871,15.8301824 L9.28032871,30 Z" id="Shape" fill="#F1F2F2"></path>
            </g>
        </g>
    </g>
</svg>