<?xml version="1.0" encoding="UTF-8"?>
<svg width="27px" height="28px" viewBox="0 0 27 28" version="1.1" xmlns="http://www.w3.org/2000/svg" xmlns:xlink="http://www.w3.org/1999/xlink">
    <!-- Generator: Sketch 53.2 (72643) - https://sketchapp.com -->
    <title>Feedback</title>
    <desc>Created with Sketch.</desc>
    <g id="Hive" stroke="none" stroke-width="1" fill="none" fill-rule="evenodd">
        <g id="Hive-Central-de-Compartilhamento---Open" transform="translate(-32.000000, -401.000000)" fill="#F6BD60" fill-rule="nonzero">
            <g id="Feedback" transform="translate(32.000000, 398.000000)">
                <g id="love" transform="translate(0.000000, 3.000000)">
                    <path d="M21.6709152,0 L5.32908475,0 C4.17838049,0 3.08278947,0.366789062 2.16061141,1.06060937 C1.98079369,1.19590625 1.94295715,1.45370312 2.07611161,1.63641406 C2.20926607,1.819125 2.46298076,1.85746094 2.64279848,1.72227344 C3.42439471,1.13416406 4.35330046,0.823265625 5.32908475,0.823265625 L21.6708614,0.823265625 C24.1625829,0.823265625 26.1897169,2.88307031 26.1897169,5.41482812 L26.1897169,16.3055156 C26.1897169,18.8373281 24.1625291,20.8970781 21.6708614,20.8970781 L14.7637295,20.8970781 C14.5968289,20.8970781 14.4355796,20.9679531 14.321478,21.0913828 L8.77420075,27.0845859 C8.65444785,27.2138672 8.51558831,27.1771719 8.46149767,27.1554609 C8.40735322,27.1336953 8.28146466,27.0638047 8.28146466,26.8861797 L8.28146466,21.5140625 C8.28146466,21.1739062 8.00912773,20.8971875 7.67435783,20.8971875 L5.32908475,20.8971875 C2.8373633,20.8971875 0.810175458,18.8373828 0.810175458,16.305625 L0.810175458,5.41482812 C0.810175458,4.48339063 1.08299678,3.58667969 1.59919906,2.82171094 C1.72567965,2.6341875 1.67869345,2.37803125 1.49419326,2.24946094 C1.30974688,2.12089062 1.05748538,2.16874219 0.931004788,2.35615625 C0.321960379,3.25882812 0,4.31648437 0,5.41482812 L0,16.3055156 C0,19.2912344 2.39064462,21.7203438 5.32913858,21.7203438 L7.4712892,21.7203438 L7.4712892,26.8861797 C7.4712892,27.3454453 7.74276499,27.7515547 8.16294966,27.9207578 C8.29540444,27.9740781 8.43297226,28 8.56892544,28 C8.86435181,28 9.1523508,27.8776641 9.36440762,27.6486328 L14.8515124,21.7203984 L21.6709152,21.7203984 C24.6093554,21.7203984 27,19.2912891 27,16.3055703 L27,5.41482812 C27,2.42910937 24.6094092,0 21.6709152,0 Z" id="Path"></path>
                    <path d="M18.9260462,6.08774462 C17.4941717,4.63736294 15.1641145,4.63747398 13.7321304,6.08774462 L13.0130689,6.81612769 C13.0111505,6.81807078 13.005231,6.82406662 12.994214,6.82406662 C12.9832519,6.82406662 12.9773872,6.81818182 12.9754688,6.81612769 L12.267808,6.09940319 C10.8358787,4.64902151 8.50587624,4.64907703 7.07394696,6.09940319 C5.64201768,7.54978487 5.64201768,9.90986815 7.07394696,11.3602498 L12.3925023,16.7473421 C12.5533717,16.9102845 12.767243,17 12.9947073,17 C13.2221717,17 13.4360978,16.910229 13.5969124,16.7472866 L16.5196925,13.7863428 C16.6808359,13.6231228 16.6808359,13.3585288 16.5196376,13.1954198 C16.3584942,13.0322554 16.0972117,13.0321999 15.9362327,13.1954754 L13.0134526,16.1564192 C13.0115342,16.1583622 13.0056147,16.1642471 12.9947073,16.1642471 C12.9836904,16.1642471 12.9778257,16.1583622 12.9759073,16.1563081 L7.65735195,10.7692158 C6.54710661,9.64460791 6.54710661,7.81487856 7.65735195,6.69027065 C8.76759729,5.56566273 10.5741028,5.56577377 11.6843482,6.69027065 L12.3919542,7.40699514 C12.5528236,7.56993754 12.7666949,7.65970854 12.9941592,7.65970854 C13.2216784,7.65970854 13.4354949,7.56999306 13.5964191,7.40705066 L14.3155354,6.67866759 C15.4259999,5.55417072 17.232341,5.55417072 18.3425864,6.67866759 C19.4528317,7.80321999 19.4528317,9.63294934 18.3425864,10.7576128 L17.1108806,12.0054684 C16.9497371,12.1686884 16.9497371,12.4332824 17.1109354,12.5963914 C17.2720788,12.7595559 17.5333065,12.7596114 17.6943404,12.5963359 L18.926101,11.3485357 C20.3579755,9.89815406 20.3579755,7.5381263 18.9260462,6.08774462 Z" id="Path"></path>
                </g>
            </g>
        </g>
    </g>
</svg>