<svg width="28" height="28" viewBox="0 0 32 32" fill="none" xmlns="http://www.w3.org/2000/svg">
<path d="M31.3049 21.9121C31.2564 21.6339 31.1344 21.3976 30.9401 21.2029C30.5093 20.7719 30.009 20.6815 29.4394 20.9316C27.9107 21.6404 26.326 21.9945 24.6864 21.9945C22.6296 21.9945 20.7326 21.4878 18.9956 20.4731C17.2585 19.4586 15.8829 18.0829 14.8685 16.3457C13.8537 14.6085 13.3466 12.7116 13.3466 10.6546C13.3466 9.05653 13.663 7.53822 14.2951 6.09979C14.9274 4.66143 15.8412 3.40027 17.0363 2.31625C17.495 1.88562 17.5994 1.38518 17.3493 0.815317C17.113 0.245741 16.6891 -0.025138 16.0777 0.00253398C13.9515 0.085842 11.9364 0.562107 10.0325 1.43038C8.12857 2.29887 6.49212 3.44167 5.1232 4.85944C3.75442 6.27692 2.67032 7.95513 1.87119 9.8937C1.07228 11.8324 0.672607 13.8649 0.672607 15.9911C0.672607 18.1592 1.09652 20.2298 1.94421 22.2032C2.79211 24.1766 3.93148 25.879 5.36298 27.3104C6.79433 28.7414 8.4967 29.881 10.4703 30.729C12.4437 31.5765 14.5141 32.0006 16.6819 32.0006C19.7952 32.0006 22.6681 31.1563 25.3014 29.4677C27.9349 27.7794 29.9049 25.5246 31.2114 22.7034C31.3227 22.4535 31.3538 22.1897 31.3049 21.9121ZM22.3833 28.0499C20.5838 28.9049 18.6833 29.3321 16.6819 29.3321C14.8754 29.3321 13.1488 28.9778 11.5019 28.2692C9.85511 27.5606 8.43741 26.6122 7.24913 25.4238C6.06113 24.2357 5.11283 22.8182 4.4038 21.1714C3.69506 19.5245 3.34066 17.798 3.34066 15.9913C3.34066 13.0034 4.22667 10.3352 5.99855 7.98638C7.77029 5.63791 10.0531 4.04666 12.8463 3.21285C11.401 5.50583 10.6783 7.98638 10.6783 10.6548C10.6783 13.1843 11.3035 15.5259 12.5545 17.6803C13.8051 19.8342 15.5076 21.5362 17.6618 22.7875C19.8156 24.0381 22.1568 24.6635 24.6864 24.6635C25.4645 24.6635 26.2291 24.601 26.9796 24.4758C25.7152 26.0046 24.1827 27.1959 22.3833 28.0499Z" fill="#F6BD60"/>
</svg>
