<?xml version="1.0" encoding="UTF-8"?>
<svg width="30px" height="30px" viewBox="0 0 51 43" version="1.1" xmlns="http://www.w3.org/2000/svg" xmlns:xlink="http://www.w3.org/1999/xlink">
    <!-- Generator: Sketch 53.2 (72643) - https://sketchapp.com -->
    <title>multiple-users-silhouette</title>
    <desc>Created with Sketch.</desc>
    <g id="Hive" stroke="none" stroke-width="1" fill="none" fill-rule="evenodd">
        <g id="Hive-Profile" transform="translate(-510.000000, -462.000000)" fill="#F6BD60" fill-rule="nonzero">
            <g id="Badge-1" transform="translate(497.000000, 441.000000)">
                <g id="multiple-users-silhouette" transform="translate(13.000000, 21.000000)">
                    <path d="M30.776301,7.38039239 C33.1344066,8.86169976 34.7879446,11.3683805 35.0889929,14.2780686 C36.0506926,14.7282636 37.1180457,14.9871576 38.2496818,14.9871576 C42.3809809,14.9871576 45.7294272,11.6323758 45.7294272,7.49389765 C45.7294272,3.35478178 42.3809809,0 38.2496818,0 C34.1578435,0.00127533997 30.8386747,3.29611614 30.776301,7.38039239 Z M25.8761513,22.7240075 C30.0074504,22.7240075 33.3558967,19.3685881 33.3558967,15.2301099 C33.3558967,11.0916317 30.0068139,7.73684991 25.8761513,7.73684991 C21.7454886,7.73684991 18.3951329,11.0922694 18.3951329,15.2307476 C18.3951329,19.3692258 21.7454886,22.7240075 25.8761513,22.7240075 Z M29.048933,23.2347812 L22.7020966,23.2347812 C17.4213403,23.2347812 13.1251966,27.5396912 13.1251966,32.8304391 L13.1251966,40.6068246 L13.144927,40.7286195 L13.6795582,40.8963267 C18.719094,42.4739223 23.0973418,43 26.7010109,43 C33.7396855,43 37.8194309,40.9894265 38.0708349,40.8612549 L38.5704605,40.6080999 L38.6239236,40.6080999 L38.6239236,32.8304391 C38.625833,27.5396912 34.3296893,23.2347812 29.048933,23.2347812 Z M41.4237364,15.4985689 L35.1259079,15.4985689 C35.0578061,18.0231044 33.982179,20.2963979 32.280906,21.9313837 C36.9748409,23.329794 40.40921,27.690819 40.40921,32.8419172 L40.40921,35.238281 C46.6274803,35.0099951 50.2107825,33.2442869 50.4469113,33.1256803 L50.9465369,32.8718877 L51,32.8718877 L51,25.0929515 C51,19.8028413 46.7038562,15.4985689 41.4237364,15.4985689 Z M12.7515912,14.988433 C14.2148259,14.988433 15.5762261,14.5605564 16.7295021,13.8316996 C17.0961063,11.4359735 18.3779483,9.34250293 20.2090603,7.91667285 C20.2166979,7.77638545 20.2300636,7.63737339 20.2300636,7.49581066 C20.2300636,3.35669479 16.8809809,0.00191300995 12.7515912,0.00191300995 C8.61965556,0.00191300995 5.27184575,3.35669479 5.27184575,7.49581066 C5.27184575,11.6330135 8.61965556,14.988433 12.7515912,14.988433 Z M19.4688506,21.9313837 C17.7758517,20.3046876 16.7040434,18.0435099 16.6257581,15.5342785 C16.3921752,15.5170614 16.1611382,15.4985689 15.9231,15.4985689 L9.57690004,15.4985689 C4.29614377,15.4985689 0,19.8028413 0,25.0929515 L0,32.8706123 L0.019730438,32.9904943 L0.554361662,33.1594768 C4.59719206,34.4239764 8.20531636,35.0068068 11.3392737,35.1904557 L11.3392737,32.8419172 C11.3405466,27.690819 14.7736428,23.3310694 19.4688506,21.9313837 Z" id="Shape"></path>
                </g>
            </g>
        </g>
    </g>
</svg>