<?xml version="1.0" encoding="UTF-8"?>
<svg width="36px" height="36px" viewBox="0 0 36 36" version="1.1" xmlns="http://www.w3.org/2000/svg" xmlns:xlink="http://www.w3.org/1999/xlink">
    <!-- Generator: Sketch 53.2 (72643) - https://sketchapp.com -->
    <title>settings</title>
    <desc>Created with Sketch.</desc>
    <g id="Hive" stroke="none" stroke-width="1" fill="none" fill-rule="evenodd">
        <g id="Hive-Central-de-Compartilhamento---Open" transform="translate(-1255.000000, -16.000000)" fill="#F6BD60" fill-rule="nonzero">
            <g id="settings" transform="translate(1255.000000, 16.000000)">
                <path d="M34.1573076,14.2210152 L31.630479,13.7923543 C31.3672677,12.9425527 31.0288532,12.1228327 30.6152354,11.3407144 L32.1042594,9.25757259 C32.7359665,8.37016921 32.6382023,7.15939001 31.863609,6.39231251 L29.6225527,4.15124295 C29.2014146,3.73010236 28.6449107,3.49697096 28.0508052,3.49697096 C27.5845452,3.49697096 27.1408461,3.63985795 26.76483,3.91059118 L24.6741801,5.39962398 C23.8619852,4.97096302 23.0121887,4.61750574 22.1323109,4.35429288 L21.7111728,1.85753081 C21.5306851,0.782118237 20.6056853,0 19.5152385,0 L16.3491824,0 C15.2587356,0 14.3337359,0.782118237 14.1532481,1.85753081 L13.7170694,4.41445582 C12.8747932,4.67766869 12.0550779,5.0236056 11.2729643,5.44474619 L9.20487549,3.95571339 C8.82885933,3.68498015 8.37763995,3.54209317 7.91137991,3.54209317 C7.31727439,3.54209317 6.75325015,3.77522457 6.33963238,4.19636516 L4.09105577,6.43743472 C3.32398282,7.20451222 3.21869829,8.41529141 3.85040543,9.3026948 L5.35447006,11.4159181 C4.94085228,12.2055567 4.60995807,13.0252768 4.35426708,13.8750783 L1.85751981,14.2962189 C0.782113604,14.4767078 0,15.401713 0,16.4921663 L0,19.6582411 C0,20.7486944 0.782113604,21.6736996 1.85751981,21.8541884 L4.41442967,22.2903698 C4.67764098,23.1326509 5.02357584,23.952371 5.44471393,24.7344892 L3.96321028,26.79507 C3.33150314,27.6824734 3.42926734,28.8932526 4.20386062,29.6603301 L6.44491691,31.9013996 C6.866055,32.3225402 7.42255891,32.5556716 8.01666444,32.5556716 C8.48292447,32.5556716 8.92662353,32.4127846 9.30263969,32.1420514 L11.4158505,30.6379779 C12.1754031,31.0365573 12.9725574,31.3599332 13.7922726,31.6156257 L14.2134107,34.1424692 C14.3938984,35.2178818 15.3188982,36 16.409345,36 L19.5829214,36 C20.6733682,36 21.598368,35.2178818 21.7788557,34.1424692 L22.2075141,31.6156257 C23.0573107,31.3524128 23.8770259,31.0139962 24.6591395,30.600376 L26.742269,32.0894088 C27.1182851,32.3601421 27.5695045,32.503029 28.0357646,32.503029 L28.0357646,32.503029 C28.6298701,32.503029 29.186374,32.2698976 29.6075121,31.8487571 L31.8485684,29.6076875 C32.6156413,28.84061 32.7209259,27.6298308 32.0892187,26.7424274 L30.6001947,24.6517652 C31.0138125,23.8621266 31.3597474,23.0424065 31.6154384,22.2001253 L34.1422669,21.7789848 C35.2176731,21.5984959 35.9997867,20.6734907 35.9997867,19.5830374 L35.9997867,16.4169626 C36.0148274,15.3265093 35.2327138,14.4015041 34.1573076,14.2210152 Z M33.9843401,19.5830374 C33.9843401,19.6808022 33.9166572,19.7635262 33.818893,19.778567 L30.6603573,20.3049927 C30.2617802,20.372676 29.9459266,20.6659703 29.8481624,21.0495091 C29.5623902,22.1550031 29.1262114,23.215375 28.5396262,24.2005431 C28.3365775,24.5464801 28.3516181,24.975141 28.5847481,25.3060372 L30.442268,27.9231251 C30.4949102,27.9983288 30.4873899,28.1111343 30.419707,28.1788176 L28.1786507,30.4198872 C28.1260084,30.4725298 28.0733662,30.4800501 28.0357646,30.4800501 C27.9906426,30.4800501 27.953041,30.4650094 27.9229597,30.4424483 L25.3134076,28.5849175 C24.9900337,28.3517861 24.553855,28.3367454 24.2079201,28.5397953 C23.2227578,29.126384 22.1623922,29.5625653 21.0569047,29.8483393 C20.6658479,29.946104 20.3725553,30.2694798 20.3123927,30.660539 L19.7784498,33.8190934 C19.7634091,33.9168582 19.6806856,33.9845415 19.5829214,33.9845415 L16.4168654,33.9845415 C16.3191012,33.9845415 16.2363776,33.9168582 16.221337,33.8190934 L15.6949143,30.660539 C15.6272314,30.2619595 15.3339388,29.946104 14.9504023,29.8483393 C13.8749961,29.5700856 12.8371916,29.1414247 11.8670699,28.5849175 C11.7091431,28.4946731 11.5286553,28.4495509 11.3556879,28.4495509 C11.1526392,28.4495509 10.9420701,28.5097138 10.7691027,28.6375601 L8.13698961,30.5101316 C8.09938799,30.5326927 8.06178638,30.5477334 8.02418476,30.5477334 C7.99410347,30.5477334 7.93394088,30.5402131 7.88129862,30.4875705 L5.64024233,28.2465009 C5.57255943,28.1788176 5.5650391,28.0735325 5.61768136,27.9908084 L7.46768085,25.3962816 C7.70081087,25.0653854 7.71585151,24.6292041 7.51280279,24.2832672 C6.92621759,23.3056194 6.4749982,22.2452475 6.18922592,21.1397535 C6.0839414,20.7562147 5.76808783,20.4629204 5.37703102,20.3952371 L2.19593435,19.8537706 C2.09817015,19.8387299 2.03048724,19.7560058 2.03048724,19.6582411 L2.03048724,16.4921663 C2.03048724,16.3944015 2.09817015,16.3116775 2.19593435,16.2966367 L5.33190909,15.770211 C5.73048621,15.7025277 6.0538601,15.4092333 6.15162431,15.0181742 C6.42987626,13.9126802 6.85853468,12.844788 7.43759956,11.8596198 C7.64064828,11.5136829 7.61808731,11.0850219 7.3849573,10.7616461 L5.51239684,8.12951744 C5.45975458,8.05431377 5.4672749,7.94150825 5.53495781,7.87382494 L7.7760141,5.63275538 C7.82865636,5.58011281 7.88129862,5.57259244 7.91890024,5.57259244 C7.96402218,5.57259244 8.00162379,5.58763317 8.03170508,5.61019428 L10.6262166,7.46020472 C10.9571108,7.69333612 11.3932895,7.70837685 11.7392244,7.50532693 C12.7168664,6.91873825 13.7772319,6.46751619 14.8827194,6.18174222 C15.2662559,6.07645707 15.5595485,5.76060163 15.6272314,5.36954251 L16.1686947,2.18842699 C16.1837353,2.09066221 16.2664589,2.0229789 16.3642231,2.0229789 L19.5302791,2.0229789 C19.6280433,2.0229789 19.7107669,2.09066221 19.7258075,2.18842699 L20.2522301,5.3244203 C20.319913,5.72299979 20.6132056,6.0463756 21.0042625,6.14414038 C22.1398312,6.42991435 23.2227578,6.87361604 24.2304811,7.46772509 C24.5764159,7.67077502 25.0050743,7.65573428 25.3359686,7.42260288 L27.93048,5.5575517 C27.9680817,5.5349906 28.0056833,5.51994986 28.0432849,5.51994986 C28.0733662,5.51994986 28.1335288,5.52747023 28.186171,5.58011281 L30.4272273,7.82118237 C30.4949102,7.88886568 30.5024305,7.99415083 30.4497883,8.07687487 L28.5922685,10.6864424 C28.3591385,11.0098183 28.3440978,11.4459996 28.5471465,11.7919365 C29.1337317,12.7771047 29.5699105,13.8374765 29.8556828,14.9429705 C29.953447,15.3340297 30.2768208,15.627324 30.6678776,15.6874869 L33.8264134,16.221433 C33.9241776,16.2364738 33.9918605,16.3191978 33.9918605,16.4169626 L33.9918605,19.5830374 L33.9843401,19.5830374 L33.9843401,19.5830374 Z" id="Shape"></path>
                <path d="M17.5,10 C13.3615682,10 10,13.3615682 10,17.5 C10,21.6384318 13.3615682,25 17.5,25 C21.6384318,25 25,21.6384318 25,17.5 C25,13.3615682 21.6384318,10 17.5,10 Z M17.5,23.0396902 C14.4433688,23.0396902 11.9603098,20.5566312 11.9603098,17.5 C11.9603098,14.4433688 14.4433688,11.9603098 17.5,11.9603098 C20.5566312,11.9603098 23.0396902,14.4433688 23.0396902,17.5 C23.0396902,20.5566312 20.5566312,23.0396902 17.5,23.0396902 Z" id="Shape"></path>
            </g>
        </g>
    </g>
</svg>