<?xml version="1.0" encoding="UTF-8"?>
<svg width="33px" height="34px" viewBox="0 0 33 34" version="1.1" xmlns="http://www.w3.org/2000/svg" xmlns:xlink="http://www.w3.org/1999/xlink">
    <!-- Generator: Sketch 53.2 (72643) - https://sketchapp.com -->
    <title>share</title>
    <desc>Created with Sketch.</desc>
    <g id="Hive" stroke="none" stroke-width="1" fill="none" fill-rule="evenodd">
        <g id="Hive-Empty" transform="translate(-1035.000000, -32.000000)" fill="#E9724C" fill-rule="nonzero">
            <g id="share" transform="translate(1035.000000, 32.000000)">
                <path d="M26.7343612,21.8430233 C24.7209251,21.8430233 22.9255507,22.7749169 21.7770925,24.2151163 L12.1605727,18.9979236 C12.3859031,18.3696013 12.5094714,17.6918605 12.5094714,16.9929402 C12.5094714,16.2869601 12.3859031,15.6162791 12.153304,14.980897 L21.7625551,9.77076412 C22.9037445,11.2180233 24.7063877,12.1569767 26.7270925,12.1569767 C30.172467,12.1569767 32.9854626,9.43189369 32.9854626,6.07848837 C32.9854626,2.72508306 30.1797357,0 26.7270925,0 C23.2744493,0 20.4687225,2.72508306 20.4687225,6.07848837 C20.4687225,6.78446844 20.5922907,7.4622093 20.8248899,8.09053156 L11.2229075,13.3006645 C10.0817181,11.8463455 8.27907489,10.9144518 6.25837004,10.9144518 C2.81299559,10.9144518 0,13.6395349 0,16.9929402 C0,20.3463455 2.81299559,23.0714286 6.26563877,23.0714286 C8.28634361,23.0714286 10.0889868,22.1324751 11.2374449,20.6781561 L20.846696,25.8953488 C20.6140969,26.5307309 20.4832599,27.2155316 20.4832599,27.9215116 C20.4832599,31.2678571 23.2889868,34 26.74163,34 C30.1942731,34 33,31.2749169 33,27.9215116 C33,24.5681063 30.1870044,21.8430233 26.7343612,21.8430233 Z" id="Path"></path>
                <path d="M26.7343612,1.91320598 C29.1039648,1.91320598 31.0301762,3.78405316 31.0301762,6.08554817 C31.0301762,8.38704319 29.1039648,10.2578904 26.7343612,10.2578904 C24.3647577,10.2578904 22.4385463,8.38704319 22.4385463,6.08554817 C22.4385463,3.78405316 24.3720264,1.91320598 26.7343612,1.91320598 Z" id="Path"></path>
                <path d="M6.26563877,21.1652824 C3.89603524,21.1652824 1.96982379,19.2944352 1.96982379,16.9929402 C1.96982379,14.6914452 3.89603524,12.820598 6.26563877,12.820598 C8.63524229,12.820598 10.5614537,14.6914452 10.5614537,16.9929402 C10.5614537,19.2944352 8.62797357,21.1652824 6.26563877,21.1652824 Z" id="Path"></path>
                <path d="M26.7343612,32.086794 C24.3647577,32.086794 22.4385463,30.2159468 22.4385463,27.9144518 C22.4385463,25.6129568 24.3647577,23.7421096 26.7343612,23.7421096 C29.1039648,23.7421096 31.0301762,25.6129568 31.0301762,27.9144518 C31.0301762,30.2159468 29.1039648,32.086794 26.7343612,32.086794 Z" id="Path"></path>
            </g>
        </g>
    </g>
</svg>