<svg width="36" height="36" viewBox="0 0 36 36" fill="none" xmlns="http://www.w3.org/2000/svg">
<path d="M18 25.8419C22.3256 25.8419 25.8139 22.3256 25.8139 18.0279C25.8139 13.7303 22.2977 10.214 18 10.214C13.7023 10.214 10.186 13.7303 10.186 18.0279C10.186 22.3256 13.6744 25.8419 18 25.8419ZM18 12.4745C21.0698 12.4745 23.5535 14.9582 23.5535 18.0279C23.5535 21.0977 21.0698 23.5814 18 23.5814C14.9302 23.5814 12.4465 21.0977 12.4465 18.0279C12.4465 14.9582 14.9302 12.4745 18 12.4745Z" fill="#F6BD60"/>
<path d="M19.1441 6.5861V2.9861C19.1441 2.34424 18.6418 1.84192 17.9999 1.84192C17.358 1.84192 16.8557 2.34424 16.8557 2.9861V6.5861C16.8557 7.22797 17.358 7.73029 17.9999 7.73029C18.6418 7.73029 19.1441 7.22797 19.1441 6.5861Z" fill="#F6BD60"/>
<path d="M16.8557 29.4699V33.0699C16.8557 33.7117 17.358 34.2141 17.9999 34.2141C18.6418 34.2141 19.1441 33.7117 19.1441 33.0699V29.4699C19.1441 28.828 18.6418 28.3257 17.9999 28.3257C17.358 28.3257 16.8557 28.828 16.8557 29.4699Z" fill="#F6BD60"/>
<path d="M26.9025 10.7442L29.442 8.20471C29.8885 7.7582 29.8885 7.03262 29.442 6.5861C28.9955 6.13959 28.2699 6.13959 27.8234 6.5861L25.2839 9.12564C24.8373 9.57215 24.8373 10.2977 25.2839 10.7442C25.5071 10.9675 25.7862 11.0791 26.0932 11.0791C26.4001 11.0791 26.6792 10.9675 26.9025 10.7442V10.7442Z" fill="#F6BD60"/>
<path d="M6.55815 29.4698C6.78141 29.6931 7.06048 29.8047 7.36745 29.8047C7.64652 29.8047 7.9535 29.6931 8.17676 29.4698L10.7163 26.9303C11.1628 26.4838 11.1628 25.7582 10.7163 25.3117C10.2698 24.8652 9.5442 24.8652 9.09769 25.3117L6.55815 27.8512C6.11164 28.2977 6.11164 29.0233 6.55815 29.4698Z" fill="#F6BD60"/>
<path d="M34.1862 18.028C34.1862 17.3861 33.6839 16.8838 33.042 16.8838H29.442C28.8002 16.8838 28.2979 17.3861 28.2979 18.028C28.2979 18.6698 28.8002 19.1722 29.442 19.1722H33.042C33.656 19.1722 34.1862 18.6698 34.1862 18.028Z" fill="#F6BD60"/>
<path d="M2.95815 19.1722H6.55815C7.20001 19.1722 7.70234 18.6698 7.70234 18.028C7.70234 17.3861 7.20001 16.8838 6.55815 16.8838H2.95815C2.31629 16.8838 1.81396 17.3861 1.81396 18.028C1.81396 18.6698 2.3442 19.1722 2.95815 19.1722Z" fill="#F6BD60"/>
<path d="M28.6327 29.8047C28.9118 29.8047 29.2187 29.6931 29.442 29.4698C29.8885 29.0233 29.8885 28.2977 29.442 27.8512L26.9025 25.3117C26.456 24.8652 25.7304 24.8652 25.2839 25.3117C24.8373 25.7582 24.8373 26.4838 25.2839 26.9303L27.8234 29.4698C28.0466 29.6931 28.3536 29.8047 28.6327 29.8047V29.8047Z" fill="#F6BD60"/>
<path d="M10.7163 10.7442C11.1628 10.2977 11.1628 9.57215 10.7163 9.12564L8.17676 6.5861C7.73024 6.13959 7.00466 6.13959 6.55815 6.5861C6.11164 7.03262 6.11164 7.7582 6.55815 8.20471L9.09769 10.7442C9.32094 10.9675 9.60001 11.0791 9.90699 11.0791C10.214 11.0791 10.493 10.9675 10.7163 10.7442V10.7442Z" fill="#F6BD60"/>
</svg>
