<?xml version="1.0" encoding="UTF-8"?>
<svg width="16px" height="15px" viewBox="0 0 16 15" version="1.1" xmlns="http://www.w3.org/2000/svg" xmlns:xlink="http://www.w3.org/1999/xlink">
    <!-- Generator: Sketch 53.2 (72643) - https://sketchapp.com -->
    <title>tick-inside-circle</title>
    <desc>Created with Sketch.</desc>
    <g id="Hive" stroke="none" stroke-width="1" fill="none" fill-rule="evenodd">
        <g id="Hive-Forum" transform="translate(-519.000000, -520.000000)" fill="#1EA628" fill-rule="nonzero">
            <g id="Card" transform="translate(247.000000, 354.000000)">
                <g id="tick-inside-circle" transform="translate(272.500000, 166.000000)">
                    <path d="M4.425,6.075 L3.375,7.125 L6.75,10.5 L14.25,3 L13.2,1.95 L6.75,8.4 L4.425,6.075 Z M13.5,7.5 C13.5,10.8 10.8,13.5 7.5,13.5 C4.2,13.5 1.5,10.8 1.5,7.5 C1.5,4.2 4.2,1.5 7.5,1.5 C8.1,1.5 8.625,1.575 9.15,1.725 L10.3500294,0.525 C9.45,0.225 8.475,0 7.5,0 C3.375,0 0,3.375 0,7.5 C0,11.625 3.375,15 7.5,15 C11.625,15 15,11.625 15,7.5 L13.5,7.5 Z" id="Shape"></path>
                </g>
            </g>
        </g>
    </g>
</svg>