<?xml version="1.0" encoding="UTF-8"?>
<svg width="40px" height="40px" viewBox="0 0 40 40" version="1.1" xmlns="http://www.w3.org/2000/svg" xmlns:xlink="http://www.w3.org/1999/xlink">
    <!-- Generator: Sketch 53.2 (72643) - https://sketchapp.com -->
    <title>twitter</title>
    <desc>Created with Sketch.</desc>
    <g id="Hive" stroke="none" stroke-width="1" fill="none" fill-rule="evenodd">
        <g id="Hive-Profile" transform="translate(-1025.000000, -224.000000)" fill-rule="nonzero">
            <g id="twitter" transform="translate(1025.000000, 224.000000)">
                <circle id="Oval" fill="#55ACEE" cx="20" cy="20" r="20"></circle>
                <path d="M32,14.2493081 C31.1540133,14.6306316 30.2439793,14.8885437 29.2896049,15.0037278 C30.2640381,14.4102796 31.0118425,13.4712793 31.3648061,12.3505601 C30.4530126,12.9003671 29.4426849,13.2992187 28.3683099,13.514205 C27.5075431,12.582359 26.2811439,12 24.9231311,12 C22.3176046,12 20.2043973,14.1480749 20.2043973,16.7965923 C20.2043973,17.1725501 20.2462744,17.538492 20.3272132,17.8897675 C16.405551,17.6898051 12.9283485,15.7803257 10.6008293,12.8774734 C10.1947275,13.5857479 9.96176444,14.4102796 9.96176444,15.2891838 C9.96176444,16.9529135 10.7954344,18.4216888 12.0608954,19.2816342 C11.2877536,19.2569519 10.559656,19.0412501 9.92375838,18.6810317 C9.92340647,18.7014214 9.92340647,18.7218112 9.92340647,18.7418432 C9.92340647,21.0659136 11.5506288,23.0043679 13.7088803,23.4447143 C13.3133358,23.5548903 12.895621,23.6131978 12.4659414,23.6131978 C12.1611891,23.6131978 11.8659384,23.5835075 11.5780777,23.527704 C12.1784326,25.4328909 13.9207289,26.8197496 15.9860767,26.8587405 C14.3708192,28.1454391 12.3364393,28.9120211 10.1250497,28.9120211 C9.74498914,28.9120211 9.36844763,28.8894851 9,28.8447708 C11.0871661,30.2062318 13.5681171,31 16.2327642,31 C24.9122219,31 29.6587564,23.6911795 29.6587564,17.3521228 C29.6587564,17.1442907 29.6541816,16.9371741 29.645032,16.731846 C30.5677346,16.0557658 31.3676214,15.2112021 32,14.2493081 L32,14.2493081 Z" id="Path" fill="#F1F2F2"></path>
            </g>
        </g>
    </g>
</svg>