<?xml version="1.0" encoding="UTF-8"?>
<svg width="265px" height="184px" viewBox="0 0 265 184" version="1.1" xmlns="http://www.w3.org/2000/svg" xmlns:xlink="http://www.w3.org/1999/xlink">
    <!-- Generator: Sketch 53.2 (72643) - https://sketchapp.com -->
    <title>undraw_authentication_fsn5 (1)</title>
    <desc>Created with Sketch.</desc>
    <defs>
        <linearGradient x1="0.0425262609%" y1="49.9960599%" x2="99.9912109%" y2="49.9960599%" id="linearGradient-1">
            <stop stop-color="#808080" stop-opacity="0.25" offset="0%"></stop>
            <stop stop-color="#808080" stop-opacity="0.12" offset="54%"></stop>
            <stop stop-color="#808080" stop-opacity="0.1" offset="100%"></stop>
        </linearGradient>
    </defs>
    <g id="Hive-LP" stroke="none" stroke-width="1" fill="none" fill-rule="evenodd">
        <g id="Cadastro-1" transform="translate(-84.000000, -532.000000)" fill-rule="nonzero">
            <g id="Logo" transform="translate(84.000000, 49.000000)">
                <g id="Group">
                    <g id="undraw_authentication_fsn5-(1)" transform="translate(0.000000, 483.000000)">
                        <path d="M149.891107,25.0391266 C132.905021,25.0619692 116.555204,20.2216224 100.916643,14.8444746 C85.2780823,9.46732674 69.759958,3.4460176 53.0897341,0.894499278 C42.3686168,-0.745599342 30.1772657,-0.594838187 21.796706,5.36022741 C13.7297356,11.0891513 11.3937228,20.5711142 10.2666193,29.331251 C9.41901933,35.9213408 9.02816893,42.8380799 12.2026922,48.8662418 C14.4069067,53.0510059 18.1790675,56.5002384 20.8377591,60.4885562 C30.1181837,74.363151 24.5372036,92.0867236 15.5181034,106.283399 C11.289193,112.944301 6.33539148,119.328807 3.13814433,126.371181 C-0.0591028181,133.413554 -1.37026956,141.399327 1.8906044,148.35033 C5.12193734,155.239658 12.4208413,160.239902 20.2537559,163.654871 C36.1604582,170.60359 54.6804043,172.092927 72.702698,172.666276 C112.596707,173.938609 152.567977,171.34369 192.432446,168.748771 C207.184776,167.789382 222.003005,166.82314 236.450835,164.043195 C244.472358,162.50132 252.732481,160.212491 258.420264,155.196257 C265.639634,148.82774 267.116685,138.429789 261.862928,130.95569 C253.052888,118.419672 229.822285,116.055463 223.505052,102.491528 C220.021484,95.0242819 223.025579,86.4605915 227.449914,79.2628885 C236.939398,63.8190072 253.273309,49.9855291 253.548268,32.7119556 C253.736876,20.8497939 245.242697,9.27773317 232.555966,4.12215854 C219.257963,-1.2778319 201.126595,0.110998127 191.809812,10.1754473 C182.229432,20.5437031 164.888855,25.0231368 149.891107,25.0391266 Z" id="Path" fill="#F6BD60" opacity="0.1"></path>
                        <path d="M226,148.019311 C226,148.019311 222.986514,146.145803 220,147.478743 C220,147.478743 220.919493,149.14665 224.70045,148.989562 L226,148.019311 Z" id="Path" fill="#F6BD60"></path>
                        <path d="M225.834255,147 C225.834255,147 226.676332,150.570414 224.564386,153 C224.564386,153 223.294517,151.528207 224.564386,147.922691 L225.834255,147 Z" id="Path" fill="#F6BD60"></path>
                        <path d="M229,144.911557 C229,144.911557 228.806795,142.312784 223.000019,143.175465 C223.000019,143.175465 222.972418,144.85147 225.010628,145.64548 C227.048839,146.43949 227.983018,145.769946 229,144.911557 Z" id="Path" fill="#F6BD60"></path>
                        <path d="M229.775654,144 C229.775654,144 232.335426,144.884537 230.052446,151 C230.052446,151 228.362908,150.594687 228.059544,148.160422 C227.75618,145.726158 228.6552,144.886921 229.775654,144 Z" id="Path" fill="#F6BD60"></path>
                        <path d="M232.996366,140.740941 C232.996366,140.740941 233.352664,135.502308 227.009638,136.038525 C227.009638,136.038525 226.555754,140.769854 231.877542,142 L232.996366,140.740941 Z" id="Path" fill="#F6BD60"></path>
                        <path d="M237,134.804031 C237,134.804031 236.156122,129.782297 230.000001,131.27837 C230.000001,131.27837 229.977968,135.619869 235.995279,136 L237,134.804031 Z" id="Path" fill="#F6BD60"></path>
                        <path d="M240,130.019018 C240,130.019018 238.493842,124.708068 232,126.296525 C232,126.296525 233.546041,131.073966 239.568328,130.99913 L240,130.019018 Z" id="Path" fill="#F6BD60"></path>
                        <path d="M244,125.065748 C244,125.065748 242.48,119.692687 236,121.300133 C236,121.300133 238.162424,126.404895 243.570909,125.974203 L244,125.065748 Z" id="Path" fill="#F6BD60"></path>
                        <path d="M245,120.085497 C245,120.085497 243.865501,113.812052 238,115.200658 C238,115.200658 239.704102,120.907876 244.569267,121 L245,120.085497 Z" id="Path" fill="#F6BD60"></path>
                        <path d="M247,114.048212 C247,114.048212 245.692581,107.434111 240,109.347358 C240,109.347358 242.230968,115.599494 246.595806,114.953126 L247,114.048212 Z" id="Path" fill="#F6BD60"></path>
                        <path d="M248,108.640623 C248,108.640623 246.077406,101.819505 242,102.003663 C242,102.003663 243.964435,109.207636 247.658996,110 L248,108.640623 Z" id="Path" fill="#F6BD60"></path>
                        <path d="M249,102.84884 C249,102.84884 246.679814,95.4622273 243,96.0312668 C243,96.0312668 244.605568,101.678057 248.87007,104 L249,102.84884 Z" id="Path" fill="#F6BD60"></path>
                        <path d="M249,96.4 C249,96.4 246.7488,90.2463215 243,90 C243,90 244.5312,96.0555858 248.9256,98 L249,96.4 Z" id="Path" fill="#F6BD60"></path>
                        <path d="M249,90.8932618 C249,90.8932618 246.343182,84.1526535 244,84 C244,84 245.154545,90.6380441 248.772727,92 L249,90.8932618 Z" id="Path" fill="#F6BD60"></path>
                        <path d="M250,85.4822735 C250,85.4822735 248.358447,78.5740011 246,78 C246,78 246.321918,83.6522228 249.762557,86 L250,85.4822735 Z" id="Path" fill="#F6BD60"></path>
                        <path d="M250,77.6003511 C250,77.6003511 248.576271,71.8730252 247,71 C247,71 247.310734,77.7524868 249.636535,79 L250,77.6003511 Z" id="Path" fill="#F6BD60"></path>
                        <path d="M251.610885,73.2086373 L252,63 C252,63 247.993651,70.6955236 251.321609,75 L251.610885,73.2086373 Z" id="Path" fill="#F6BD60"></path>
                        <path d="M253.515439,63.1174834 C253.515439,63.1174834 256.320511,56.3766317 257,56 C257,56 251.499371,60.3740638 252.036989,66 L253.515439,63.1174834 Z" id="Path" fill="#F6BD60"></path>
                        <path d="M233.143318,140.014785 C233.143318,140.014785 238.145649,139.407788 237.99674,145.972267 C237.99674,145.972267 233.47647,146.656604 232,141.226437 L233.143318,140.014785 Z" id="Path" fill="#F6BD60"></path>
                        <path d="M237.067673,136 C237.067673,136 242.417721,135.985389 241.97383,141.969715 C241.97383,141.969715 237.481192,142.68775 236,137.131324 L237.067673,136 Z" id="Path" fill="#F6BD60"></path>
                        <path d="M240.409685,130.392034 C240.409685,130.392034 245.038686,128.334786 248,133.645652 C248,133.645652 243.725021,135.35897 240,131.250804 L240.409685,130.392034 Z" id="Path" fill="#F6BD60"></path>
                        <path d="M243.396062,125.48272 C243.396062,125.48272 248.18706,123.17779 251,128.641163 C251,128.641163 246.00872,130.339299 243,126.347347 L243.396062,125.48272 Z" id="Path" fill="#F6BD60"></path>
                        <path d="M245.199047,119.982606 C245.199047,119.982606 249.537851,115.488248 253,120.033131 C253,120.033131 248.568025,123.732881 245,120.983905 L245.199047,119.982606 Z" id="Path" fill="#F6BD60"></path>
                        <path d="M247.157573,113.92434 C247.157573,113.92434 251.54618,109.460778 255,114.129663 C255,114.129663 250.074794,117.796479 247,114.861688 L247.157573,113.92434 Z" id="Path" fill="#F6BD60"></path>
                        <path d="M248,108.643872 C248,108.643872 251.6738,102.90565 256,104.186421 C256,104.186421 252.187392,110.26205 248.041643,109.991206 L248,108.643872 Z" id="Path" fill="#F6BD60"></path>
                        <path d="M248.090967,103.670448 C248.090967,103.670448 251.640887,95.7882822 255,97.1604 C255,97.1604 252.43962,103.219752 248,105 L248.090967,103.670448 Z" id="Path" fill="#F6BD60"></path>
                        <path d="M248.382546,96.2797996 C248.382546,96.2797996 252.315601,90.3346719 256,91.0616185 C256,91.0616185 252.78422,97.090717 248,98 L248.382546,96.2797996 Z" id="Path" fill="#F6BD60"></path>
                        <path d="M249,90.8459658 C249,90.8459658 252.310255,84.0464548 255,84 C255,84 253.411077,90.7506112 249.22328,92 L249,90.8459658 Z" id="Path" fill="#F6BD60"></path>
                        <path d="M250,84.4366243 C250,84.4366243 253.425463,78.0136852 256,78 C256,78 254.247381,83.4923428 250.113618,85 L250,84.4366243 Z" id="Path" fill="#F6BD60"></path>
                        <path d="M251,78.4607721 C251,78.4607721 253.187822,72.6575342 255,72 C255,72 253.906089,79.0734745 251.241486,80 L251,78.4607721 Z" id="Path" fill="#F6BD60"></path>
                        <path d="M251.764641,72.3930233 L257,64 C257,64 255.658564,72.2790698 251,74 L251.764641,72.3930233 Z" id="Path" fill="#F6BD60"></path>
                        <path d="M255.58075,63.9342063 C255.58075,63.9342063 261.775,59.6863622 262,59 C262,59 258.85,64.9492175 253,66 L255.58075,63.9342063 Z" id="Path" fill="#F6BD60"></path>
                        <path d="M256.169139,62 C256.169139,62 263.204006,54.9930881 265,55 C265,55 259.198071,55.2743791 256,61.6264825 L256.169139,62 Z" id="Path" fill="#F6BD60"></path>
                        <path d="M250,78.9655919 L250.27027,79 C251.666275,68.3357971 253.701528,62.02536 256,61.2523257 L255.910693,61 C253.473561,61.8257933 251.424207,68.0398879 250,78.9655919 Z" id="Path" fill="#444053"></path>
                        <path d="M248,103.968284 L248.341511,104 C248.414132,103.016816 248.469087,102.010978 248.506379,101.007406 C248.832188,92.2901455 249.336605,84.2842206 250,78.283175 L249.803729,78 C249.138371,84.014638 248.490677,92.2606953 248.164868,100.991548 C248.127576,101.988324 248.07262,102.989631 248,103.968284 Z" id="Path" fill="#444053"></path>
                        <path d="M218.213997,152 C218.282294,151.970823 225.255416,148.900547 232.49262,141.579464 C236.732768,137.291599 240.255924,132.367611 242.930675,126.991163 C246.277227,120.273811 248.31703,112.019077 249,104 L248.587942,104.19077 C247.051259,122.19049 238.739517,134.48955 232.130646,141.188947 C224.964016,148.444943 218.068297,151.483799 218,151.512975 L218.213997,152 Z" id="Path" fill="#444053"></path>
                        <path d="M236.056933,19 L17.9430675,19 C16.8699409,19 16,19.9152102 16,21.0441791 L16,27 L238,27 L238,21.0441791 C238,20.5020291 237.795285,19.9820841 237.430889,19.5987262 C237.066493,19.2153683 236.572266,19 236.056933,19 Z" id="Path" fill="#3F3D56"></path>
                        <path d="M16,27 L16,155.061677 C16,157.236753 17.7541099,159 19.9179141,159 L234.082086,159 C236.24589,159 238,157.236753 238,155.061677 L238,27 L16,27 Z" id="Path" fill="#FFFFFF"></path>
                        <circle id="Oval" fill="#FA5959" opacity="0.8" cx="20" cy="23" r="1"></circle>
                        <circle id="Oval" fill="#FED253" opacity="0.8" cx="22" cy="23" r="1"></circle>
                        <circle id="Oval" fill="#8CCF4D" opacity="0.8" cx="24" cy="23" r="1"></circle>
                        <rect id="Rectangle" fill="#000000" opacity="0.05" x="36" y="48" width="179" height="79"></rect>
                        <rect id="Rectangle" fill="#3F3D56" x="38" y="49" width="176" height="77"></rect>
                        <path d="M85.5,69 C75.8350169,69 68,76.8350169 68,86.5 C68,96.1649831 75.8350169,104 85.5,104 C95.1649831,104 103,96.1649831 103,86.5 C103,81.8587114 101.156255,77.407518 97.8743687,74.1256313 C94.592482,70.8437447 90.1412886,69 85.5,69 L85.5,69 Z M88.6386364,86.9204545 L88.6386364,95.2068182 L82.4522727,95.2068182 L82.4522727,86.9204545 C80.6967447,85.5915832 79.9861668,83.2899203 80.6870641,81.2026923 C81.3879614,79.1154643 83.3436876,77.7091541 85.5454545,77.7091541 C87.7472215,77.7091541 89.7029476,79.1154643 90.403845,81.2026923 C91.1047423,83.2899203 90.3941644,85.5915832 88.6386364,86.9204545 L88.6386364,86.9204545 Z" id="Shape" fill="#F6BD60"></path>
                        <path d="M85.5,69 C75.8350169,69 68,76.8350169 68,86.5 C68,96.1649831 75.8350169,104 85.5,104 C95.1649831,104 103,96.1649831 103,86.5 C103,81.8587114 101.156255,77.407518 97.8743687,74.1256313 C94.592482,70.8437447 90.1412886,69 85.5,69 L85.5,69 Z M88.6386364,86.9204545 L88.6386364,95.2068182 L82.4522727,95.2068182 L82.4522727,86.9204545 C80.6967447,85.5915832 79.9861668,83.2899203 80.6870641,81.2026923 C81.3879614,79.1154643 83.3436876,77.7091541 85.5454545,77.7091541 C87.7472215,77.7091541 89.7029476,79.1154643 90.403845,81.2026923 C91.1047423,83.2899203 90.3941644,85.5915832 88.6386364,86.9204545 L88.6386364,86.9204545 Z" id="Shape" fill="#000000" opacity="0.05"></path>
                        <path d="M85.5,64 C73.0735931,64 63,74.0735931 63,86.5 C63,98.9264069 73.0735931,109 85.5,109 C97.9264069,109 108,98.9264069 108,86.5 C108,80.532629 105.629471,74.8096659 101.409903,70.5900974 C97.1903341,66.3705289 91.467371,64 85.5,64 L85.5,64 Z M89.5340909,87.0409091 L89.5340909,97.6931818 L81.5795455,97.6931818 L81.5795455,87.0409091 C79.3215483,85.3321295 78.40739,82.3720224 79.3086465,79.687583 C80.209903,77.0031435 82.7251264,75.194395 85.5568182,75.194395 C88.38851,75.194395 90.9037333,77.0031435 91.8049898,79.687583 C92.7062463,82.3720224 91.792088,85.3321295 89.5340909,87.0409091 Z" id="Shape" fill="#F6BD60"></path>
                        <rect id="Rectangle" fill="#FFFFFF" x="118" y="84" width="72" height="8"></rect>
                        <rect id="Rectangle" fill="#F6BD60" x="175" y="97" width="16" height="8"></rect>
                        <path d="M124.9,87.4028056 L123.742,87.4028056 L124.772,86.3727455 C124.810357,86.3331035 124.810357,86.2701029 124.772,86.2304609 C124.753223,86.2114917 124.727664,86.2008218 124.701,86.2008218 C124.674336,86.2008218 124.648777,86.2114917 124.63,86.2304609 L123.6,87.2625251 L123.6,86.1002004 C123.6,86.0448612 123.555228,86 123.5,86 C123.445218,86.0010662 123.401064,86.0453089 123.4,86.1002004 L123.4,87.2625251 L122.372,86.2244489 C122.353223,86.2054797 122.327664,86.1948098 122.301,86.1948098 C122.274336,86.1948098 122.248777,86.2054797 122.23,86.2244489 C122.191643,86.2640909 122.191643,86.3270914 122.23,86.3667335 L123.26,87.3967936 L122.1,87.3967936 C122.045218,87.3978597 122.001064,87.4421025 122,87.496994 C122,87.5523331 122.044772,87.5971944 122.1,87.5971944 L123.26,87.5971944 L122.23,88.6292585 C122.191643,88.6689005 122.191643,88.7319011 122.23,88.7715431 C122.269968,88.80896 122.332032,88.80896 122.372,88.7715431 L123.4,87.739479 L123.4,88.8997996 C123.4,88.9551388 123.444772,89 123.5,89 C123.555228,89 123.6,88.9551388 123.6,88.8997996 L123.6,87.739479 L124.63,88.7715431 C124.669968,88.80896 124.732032,88.80896 124.772,88.7715431 C124.810357,88.7319011 124.810357,88.6689005 124.772,88.6292585 L123.742,87.5971944 L124.9,87.5971944 C124.955228,87.5971944 125,87.5523331 125,87.496994 C124.996822,87.4440156 124.952968,87.40271 124.9,87.4028056 L124.9,87.4028056 Z" id="Path" fill="#F6BD60"></path>
                        <path d="M129.9,87.4028056 L128.742,87.4028056 L129.772,86.3727455 C129.810357,86.3331035 129.810357,86.2701029 129.772,86.2304609 C129.753223,86.2114917 129.727664,86.2008218 129.701,86.2008218 C129.674336,86.2008218 129.648777,86.2114917 129.63,86.2304609 L128.6,87.2625251 L128.6,86.1002004 C128.6,86.0448612 128.555228,86 128.5,86 C128.445218,86.0010662 128.401064,86.0453089 128.4,86.1002004 L128.4,87.2625251 L127.372,86.2244489 C127.353223,86.2054797 127.327664,86.1948098 127.301,86.1948098 C127.274336,86.1948098 127.248777,86.2054797 127.23,86.2244489 C127.191643,86.2640909 127.191643,86.3270914 127.23,86.3667335 L128.26,87.3967936 L127.1,87.3967936 C127.045218,87.3978597 127.001064,87.4421025 127,87.496994 C127,87.5523331 127.044772,87.5971944 127.1,87.5971944 L128.26,87.5971944 L127.23,88.6292585 C127.191643,88.6689005 127.191643,88.7319011 127.23,88.7715431 C127.269968,88.80896 127.332032,88.80896 127.372,88.7715431 L128.4,87.739479 L128.4,88.8997996 C128.4,88.9551388 128.444772,89 128.5,89 C128.555228,89 128.6,88.9551388 128.6,88.8997996 L128.6,87.739479 L129.63,88.7715431 C129.669968,88.80896 129.732032,88.80896 129.772,88.7715431 C129.810357,88.7319011 129.810357,88.6689005 129.772,88.6292585 L128.742,87.5971944 L129.9,87.5971944 C129.955228,87.5971944 130,87.5523331 130,87.496994 C129.996822,87.4440156 129.952968,87.40271 129.9,87.4028056 Z" id="Path" fill="#F6BD60"></path>
                        <path d="M133.9,87.4028056 L132.742,87.4028056 L133.772,86.3727455 C133.810357,86.3331035 133.810357,86.2701029 133.772,86.2304609 C133.753223,86.2114917 133.727664,86.2008218 133.701,86.2008218 C133.674336,86.2008218 133.648777,86.2114917 133.63,86.2304609 L132.6,87.2625251 L132.6,86.1002004 C132.6,86.0448612 132.555228,86 132.5,86 C132.445218,86.0010662 132.401064,86.0453089 132.4,86.1002004 L132.4,87.2625251 L131.372,86.2244489 C131.353223,86.2054797 131.327664,86.1948098 131.301,86.1948098 C131.274336,86.1948098 131.248777,86.2054797 131.23,86.2244489 C131.191643,86.2640909 131.191643,86.3270914 131.23,86.3667335 L132.26,87.3967936 L131.1,87.3967936 C131.045218,87.3978597 131.001064,87.4421025 131,87.496994 C131,87.5523331 131.044772,87.5971944 131.1,87.5971944 L132.26,87.5971944 L131.23,88.6292585 C131.191643,88.6689005 131.191643,88.7319011 131.23,88.7715431 C131.269968,88.80896 131.332032,88.80896 131.372,88.7715431 L132.4,87.739479 L132.4,88.8997996 C132.4,88.9551388 132.444772,89 132.5,89 C132.555228,89 132.6,88.9551388 132.6,88.8997996 L132.6,87.739479 L133.63,88.7715431 C133.669968,88.80896 133.732032,88.80896 133.772,88.7715431 C133.810357,88.7319011 133.810357,88.6689005 133.772,88.6292585 L132.742,87.5971944 L133.9,87.5971944 C133.955228,87.5971944 134,87.5523331 134,87.496994 C133.996822,87.4440156 133.952968,87.40271 133.9,87.4028056 L133.9,87.4028056 Z" id="Path" fill="#F6BD60"></path>
                        <path d="M138.9,87.4028056 L137.742,87.4028056 L138.772,86.3727455 C138.810357,86.3331035 138.810357,86.2701029 138.772,86.2304609 C138.753223,86.2114917 138.727664,86.2008218 138.701,86.2008218 C138.674336,86.2008218 138.648777,86.2114917 138.63,86.2304609 L137.6,87.2625251 L137.6,86.1002004 C137.6,86.0448612 137.555228,86 137.5,86 C137.445218,86.0010662 137.401064,86.0453089 137.4,86.1002004 L137.4,87.2625251 L136.372,86.2244489 C136.353223,86.2054797 136.327664,86.1948098 136.301,86.1948098 C136.274336,86.1948098 136.248777,86.2054797 136.23,86.2244489 C136.191643,86.2640909 136.191643,86.3270914 136.23,86.3667335 L137.26,87.3967936 L136.1,87.3967936 C136.045218,87.3978597 136.001064,87.4421025 136,87.496994 C136,87.5523331 136.044772,87.5971944 136.1,87.5971944 L137.26,87.5971944 L136.23,88.6292585 C136.191643,88.6689005 136.191643,88.7319011 136.23,88.7715431 C136.269968,88.80896 136.332032,88.80896 136.372,88.7715431 L137.4,87.739479 L137.4,88.8997996 C137.4,88.9551388 137.444772,89 137.5,89 C137.555228,89 137.6,88.9551388 137.6,88.8997996 L137.6,87.739479 L138.63,88.7715431 C138.669968,88.80896 138.732032,88.80896 138.772,88.7715431 C138.810357,88.7319011 138.810357,88.6689005 138.772,88.6292585 L137.742,87.5971944 L138.9,87.5971944 C138.955228,87.5971944 139,87.5523331 139,87.496994 C138.996822,87.4440156 138.952968,87.40271 138.9,87.4028056 L138.9,87.4028056 Z" id="Path" fill="#F6BD60"></path>
                        <path d="M143.9,87.4028056 L142.742,87.4028056 L143.772,86.3727455 C143.810357,86.3331035 143.810357,86.2701029 143.772,86.2304609 C143.753223,86.2114917 143.727664,86.2008218 143.701,86.2008218 C143.674336,86.2008218 143.648777,86.2114917 143.63,86.2304609 L142.6,87.2625251 L142.6,86.1002004 C142.6,86.0448612 142.555228,86 142.5,86 C142.445218,86.0010662 142.401064,86.0453089 142.4,86.1002004 L142.4,87.2625251 L141.372,86.2244489 C141.353223,86.2054797 141.327664,86.1948098 141.301,86.1948098 C141.274336,86.1948098 141.248777,86.2054797 141.23,86.2244489 C141.191643,86.2640909 141.191643,86.3270914 141.23,86.3667335 L142.26,87.3967936 L141.1,87.3967936 C141.045218,87.3978597 141.001064,87.4421025 141,87.496994 C141,87.5523331 141.044772,87.5971944 141.1,87.5971944 L142.26,87.5971944 L141.23,88.6292585 C141.191643,88.6689005 141.191643,88.7319011 141.23,88.7715431 C141.269968,88.80896 141.332032,88.80896 141.372,88.7715431 L142.4,87.739479 L142.4,88.8997996 C142.4,88.9551388 142.444772,89 142.5,89 C142.555228,89 142.6,88.9551388 142.6,88.8997996 L142.6,87.739479 L143.63,88.7715431 C143.669968,88.80896 143.732032,88.80896 143.772,88.7715431 C143.810357,88.7319011 143.810357,88.6689005 143.772,88.6292585 L142.742,87.5971944 L143.9,87.5971944 C143.955228,87.5971944 144,87.5523331 144,87.496994 C143.996822,87.4440156 143.952968,87.40271 143.9,87.4028056 L143.9,87.4028056 Z" id="Path" fill="#F6BD60"></path>
                        <path d="M148.9,87.4028056 L147.742,87.4028056 L148.772,86.3727455 C148.810357,86.3331035 148.810357,86.2701029 148.772,86.2304609 C148.753223,86.2114917 148.727664,86.2008218 148.701,86.2008218 C148.674336,86.2008218 148.648777,86.2114917 148.63,86.2304609 L147.6,87.2625251 L147.6,86.1002004 C147.6,86.0448612 147.555228,86 147.5,86 C147.445218,86.0010662 147.401064,86.0453089 147.4,86.1002004 L147.4,87.2625251 L146.372,86.2244489 C146.353223,86.2054797 146.327664,86.1948098 146.301,86.1948098 C146.274336,86.1948098 146.248777,86.2054797 146.23,86.2244489 C146.191643,86.2640909 146.191643,86.3270914 146.23,86.3667335 L147.26,87.3967936 L146.1,87.3967936 C146.045218,87.3978597 146.001064,87.4421025 146,87.496994 C146,87.5523331 146.044772,87.5971944 146.1,87.5971944 L147.26,87.5971944 L146.23,88.6292585 C146.191643,88.6689005 146.191643,88.7319011 146.23,88.7715431 C146.269968,88.80896 146.332032,88.80896 146.372,88.7715431 L147.4,87.739479 L147.4,88.8997996 C147.4,88.9551388 147.444772,89 147.5,89 C147.555228,89 147.6,88.9551388 147.6,88.8997996 L147.6,87.739479 L148.63,88.7715431 C148.669968,88.80896 148.732032,88.80896 148.772,88.7715431 C148.810357,88.7319011 148.810357,88.6689005 148.772,88.6292585 L147.742,87.5971944 L148.9,87.5971944 C148.955228,87.5971944 149,87.5523331 149,87.496994 C148.996822,87.4440156 148.952968,87.40271 148.9,87.4028056 L148.9,87.4028056 Z" id="Path" fill="#F6BD60"></path>
                        <path d="M152.9,87.4028056 L151.742,87.4028056 L152.772,86.3727455 C152.810357,86.3331035 152.810357,86.2701029 152.772,86.2304609 C152.753223,86.2114917 152.727664,86.2008218 152.701,86.2008218 C152.674336,86.2008218 152.648777,86.2114917 152.63,86.2304609 L151.6,87.2625251 L151.6,86.1002004 C151.6,86.0448612 151.555228,86 151.5,86 C151.445218,86.0010662 151.401064,86.0453089 151.4,86.1002004 L151.4,87.2625251 L150.372,86.2244489 C150.353223,86.2054797 150.327664,86.1948098 150.301,86.1948098 C150.274336,86.1948098 150.248777,86.2054797 150.23,86.2244489 C150.191643,86.2640909 150.191643,86.3270914 150.23,86.3667335 L151.26,87.3967936 L150.1,87.3967936 C150.045218,87.3978597 150.001064,87.4421025 150,87.496994 C150,87.5523331 150.044772,87.5971944 150.1,87.5971944 L151.26,87.5971944 L150.23,88.6292585 C150.191643,88.6689005 150.191643,88.7319011 150.23,88.7715431 C150.269968,88.80896 150.332032,88.80896 150.372,88.7715431 L151.4,87.739479 L151.4,88.8997996 C151.4,88.9551388 151.444772,89 151.5,89 C151.555228,89 151.6,88.9551388 151.6,88.8997996 L151.6,87.739479 L152.63,88.7715431 C152.669968,88.80896 152.732032,88.80896 152.772,88.7715431 C152.810357,88.7319011 152.810357,88.6689005 152.772,88.6292585 L151.742,87.5971944 L152.9,87.5971944 C152.955228,87.5971944 153,87.5523331 153,87.496994 C152.996822,87.4440156 152.952968,87.40271 152.9,87.4028056 L152.9,87.4028056 Z" id="Path" fill="#F6BD60"></path>
                        <path d="M157.9,87.4028056 L156.742,87.4028056 L157.772,86.3727455 C157.810357,86.3331035 157.810357,86.2701029 157.772,86.2304609 C157.753223,86.2114917 157.727664,86.2008218 157.701,86.2008218 C157.674336,86.2008218 157.648777,86.2114917 157.63,86.2304609 L156.6,87.2625251 L156.6,86.1002004 C156.6,86.0448612 156.555228,86 156.5,86 C156.445218,86.0010662 156.401064,86.0453089 156.4,86.1002004 L156.4,87.2625251 L155.372,86.2244489 C155.353223,86.2054797 155.327664,86.1948098 155.301,86.1948098 C155.274336,86.1948098 155.248777,86.2054797 155.23,86.2244489 C155.191643,86.2640909 155.191643,86.3270914 155.23,86.3667335 L156.26,87.3967936 L155.1,87.3967936 C155.045218,87.3978597 155.001064,87.4421025 155,87.496994 C155,87.5523331 155.044772,87.5971944 155.1,87.5971944 L156.26,87.5971944 L155.23,88.6292585 C155.191643,88.6689005 155.191643,88.7319011 155.23,88.7715431 C155.269968,88.80896 155.332032,88.80896 155.372,88.7715431 L156.4,87.739479 L156.4,88.8997996 C156.4,88.9551388 156.444772,89 156.5,89 C156.555228,89 156.6,88.9551388 156.6,88.8997996 L156.6,87.739479 L157.63,88.7715431 C157.669968,88.80896 157.732032,88.80896 157.772,88.7715431 C157.810357,88.7319011 157.810357,88.6689005 157.772,88.6292585 L156.742,87.5971944 L157.9,87.5971944 C157.955228,87.5971944 158,87.5523331 158,87.496994 C157.996822,87.4440156 157.952968,87.40271 157.9,87.4028056 L157.9,87.4028056 Z" id="Path" fill="#F6BD60"></path>
                        <path d="M162.9,87.4028056 L161.742,87.4028056 L162.772,86.3727455 C162.810357,86.3331035 162.810357,86.2701029 162.772,86.2304609 C162.753223,86.2114917 162.727664,86.2008218 162.701,86.2008218 C162.674336,86.2008218 162.648777,86.2114917 162.63,86.2304609 L161.6,87.2625251 L161.6,86.1002004 C161.6,86.0448612 161.555228,86 161.5,86 C161.445218,86.0010662 161.401064,86.0453089 161.4,86.1002004 L161.4,87.2625251 L160.372,86.2244489 C160.353223,86.2054797 160.327664,86.1948098 160.301,86.1948098 C160.274336,86.1948098 160.248777,86.2054797 160.23,86.2244489 C160.191643,86.2640909 160.191643,86.3270914 160.23,86.3667335 L161.26,87.3967936 L160.1,87.3967936 C160.045218,87.3978597 160.001064,87.4421025 160,87.496994 C160,87.5523331 160.044772,87.5971944 160.1,87.5971944 L161.26,87.5971944 L160.23,88.6292585 C160.191643,88.6689005 160.191643,88.7319011 160.23,88.7715431 C160.269968,88.80896 160.332032,88.80896 160.372,88.7715431 L161.4,87.739479 L161.4,88.8997996 C161.4,88.9551388 161.444772,89 161.5,89 C161.555228,89 161.6,88.9551388 161.6,88.8997996 L161.6,87.739479 L162.63,88.7715431 C162.669968,88.80896 162.732032,88.80896 162.772,88.7715431 C162.810357,88.7319011 162.810357,88.6689005 162.772,88.6292585 L161.742,87.5971944 L162.9,87.5971944 C162.955228,87.5971944 163,87.5523331 163,87.496994 C162.996822,87.4440156 162.952968,87.40271 162.9,87.4028056 L162.9,87.4028056 Z" id="Path" fill="#F6BD60"></path>
                        <path d="M166.9,87.4028056 L165.742,87.4028056 L166.772,86.3727455 C166.810357,86.3331035 166.810357,86.2701029 166.772,86.2304609 C166.753223,86.2114917 166.727664,86.2008218 166.701,86.2008218 C166.674336,86.2008218 166.648777,86.2114917 166.63,86.2304609 L165.6,87.2625251 L165.6,86.1002004 C165.6,86.0448612 165.555228,86 165.5,86 C165.445218,86.0010662 165.401064,86.0453089 165.4,86.1002004 L165.4,87.2625251 L164.372,86.2244489 C164.353223,86.2054797 164.327664,86.1948098 164.301,86.1948098 C164.274336,86.1948098 164.248777,86.2054797 164.23,86.2244489 C164.191643,86.2640909 164.191643,86.3270914 164.23,86.3667335 L165.26,87.3967936 L164.1,87.3967936 C164.045218,87.3978597 164.001064,87.4421025 164,87.496994 C164,87.5523331 164.044772,87.5971944 164.1,87.5971944 L165.26,87.5971944 L164.23,88.6292585 C164.191643,88.6689005 164.191643,88.7319011 164.23,88.7715431 C164.269968,88.80896 164.332032,88.80896 164.372,88.7715431 L165.4,87.739479 L165.4,88.8997996 C165.4,88.9551388 165.444772,89 165.5,89 C165.555228,89 165.6,88.9551388 165.6,88.8997996 L165.6,87.739479 L166.63,88.7715431 C166.669968,88.80896 166.732032,88.80896 166.772,88.7715431 C166.810357,88.7319011 166.810357,88.6689005 166.772,88.6292585 L165.742,87.5971944 L166.9,87.5971944 C166.955228,87.5971944 167,87.5523331 167,87.496994 C166.996822,87.4440156 166.952968,87.40271 166.9,87.4028056 L166.9,87.4028056 Z" id="Path" fill="#F6BD60"></path>
                        <path d="M171.9,87.4028056 L170.742,87.4028056 L171.772,86.3727455 C171.810357,86.3331035 171.810357,86.2701029 171.772,86.2304609 C171.753223,86.2114917 171.727664,86.2008218 171.701,86.2008218 C171.674336,86.2008218 171.648777,86.2114917 171.63,86.2304609 L170.6,87.2625251 L170.6,86.1002004 C170.6,86.0448612 170.555228,86 170.5,86 C170.445218,86.0010662 170.401064,86.0453089 170.4,86.1002004 L170.4,87.2625251 L169.372,86.2244489 C169.353223,86.2054797 169.327664,86.1948098 169.301,86.1948098 C169.274336,86.1948098 169.248777,86.2054797 169.23,86.2244489 C169.191643,86.2640909 169.191643,86.3270914 169.23,86.3667335 L170.26,87.3967936 L169.1,87.3967936 C169.045218,87.3978597 169.001064,87.4421025 169,87.496994 C169,87.5523331 169.044772,87.5971944 169.1,87.5971944 L170.26,87.5971944 L169.23,88.6292585 C169.191643,88.6689005 169.191643,88.7319011 169.23,88.7715431 C169.269968,88.80896 169.332032,88.80896 169.372,88.7715431 L170.4,87.739479 L170.4,88.8997996 C170.4,88.9551388 170.444772,89 170.5,89 C170.555228,89 170.6,88.9551388 170.6,88.8997996 L170.6,87.739479 L171.63,88.7715431 C171.669968,88.80896 171.732032,88.80896 171.772,88.7715431 C171.810357,88.7319011 171.810357,88.6689005 171.772,88.6292585 L170.742,87.5971944 L171.9,87.5971944 C171.955228,87.5971944 172,87.5523331 172,87.496994 C171.996822,87.4440156 171.952968,87.40271 171.9,87.4028056 L171.9,87.4028056 Z" id="Path" fill="#F6BD60"></path>
                        <path d="M208.713409,115.236112 C208.706924,114.959875 208.672452,114.685006 208.610521,114.415716 C208.404744,113.64331 207.940603,112.708652 207.176943,112.475559 C206.388485,112.234285 205.626921,111.912664 204.904254,111.515765 C204.767069,109.066003 205.329526,106.55911 204.716768,104.18476 C204.488128,103.316375 204.11087,102.484552 204.010268,101.5956 C203.884516,100.48955 204.186322,99.3103739 203.745045,98.2911632 C203.397511,97.4867638 202.633851,96.9200278 201.81303,96.6229485 C200.99221,96.3258691 200.10737,96.2458862 199.236249,96.1659033 C198.138773,96.0767795 194.585695,95.656298 193.346462,96.6366598 L193.346462,96.6366598 C193.26099,96.7029805 193.184177,96.7797539 193.117822,96.8651824 L193.117822,96.8651824 C193.09044,96.902872 193.06598,96.9425983 193.044656,96.9840141 L193.033224,97.0022959 C193.008383,97.0499297 192.987728,97.0996296 192.971491,97.1508356 L192.971491,97.1508356 C192.954204,97.2068981 192.94121,97.2641941 192.932622,97.3222275 C192.932622,97.3405093 192.932622,97.3587912 192.932622,97.377073 C192.932622,97.3953548 192.932622,97.4570559 192.932622,97.4981899 L192.932622,97.559891 C192.932622,97.6010251 192.932622,97.6421591 192.932622,97.6855784 C192.932622,97.7289977 192.932622,97.7175716 192.932622,97.7335682 C192.948627,97.9392385 192.978351,98.1449088 192.978351,98.3482939 C192.980788,98.449562 192.971582,98.550775 192.950914,98.6499437 C192.874777,98.9194625 192.745759,99.1711511 192.57137,99.3903568 L192.57137,99.3903568 L192.530215,99.4497727 C192.505064,99.4863363 192.479914,99.5206147 192.45705,99.5571783 C192.434186,99.5937419 192.415894,99.6211646 192.397603,99.6531578 C192.379312,99.6851509 192.361021,99.705718 192.345016,99.7354259 C192.32294,99.7730812 192.303091,99.8119967 192.285569,99.8519724 C192.285569,99.8748247 192.260419,99.8953917 192.251273,99.918244 C192.222664,99.9800321 192.199707,100.04428 192.182681,100.110203 C192.129135,100.308757 192.124428,100.517308 192.168962,100.718073 C192.23061,100.974432 192.336618,101.218047 192.4822,101.437919 C192.53936,101.531613 192.601093,101.623022 192.665113,101.714431 L192.825161,101.931528 C192.795276,102.143548 192.779237,102.357288 192.777147,102.571391 C192.777372,104.021271 193.443153,105.390892 194.583409,106.287168 C194.673992,107.25224 194.664031,108.224105 194.553686,109.187119 C194.533108,109.388219 194.507957,109.591604 194.480521,109.792704 C194.453084,109.993804 194.432506,110.126347 194.405069,110.293169 C194.070495,110.341052 193.729494,110.315315 193.405909,110.217756 C193.256641,110.151208 193.104007,110.092474 192.948627,110.041794 C192.283283,109.874972 191.60422,110.537688 190.945734,110.336588 C190.945734,110.368581 190.927443,110.398289 190.916011,110.427997 C190.778558,110.342615 190.62054,110.296024 190.458729,110.293169 C190.067753,110.274887 189.749943,109.991519 189.466428,109.724148 L188.595307,108.903752 C188.538517,108.853521 188.487864,108.796758 188.444404,108.734645 C188.39758,108.645779 188.362239,108.551329 188.339229,108.453562 C188.192899,107.98052 187.838506,107.603458 187.495545,107.244678 C187.43055,107.162857 187.344352,107.100415 187.246326,107.064145 C187.208433,107.058445 187.169899,107.058445 187.132006,107.064145 C187.108679,107.032216 187.083485,107.001693 187.056554,106.972736 C186.99738,106.904842 186.933998,106.840729 186.866783,106.780777 C186.450656,106.396859 186.409501,106.067786 186.048249,105.638164 C185.733166,105.228428 185.447417,104.796971 185.193132,104.347011 C185.163409,104.107063 185.122253,103.860258 185.071952,103.611169 C184.956682,103.040902 184.789065,102.482468 184.571229,101.942954 L184.113948,100.930599 L184.06136,100.983159 C183.729831,100.48955 183.375438,100.219894 183.057627,100.28388 C182.524894,100.393571 182.261957,101.426493 182.346554,102.777061 L182.529467,104.148197 C182.529467,104.182475 182.545472,104.216754 182.554617,104.251032 C182.521708,104.413523 182.50486,104.578855 182.504316,104.744641 C182.504316,104.9366 182.682656,105.078284 182.776399,105.249676 C182.926447,105.481846 183.005871,105.752544 183.00504,106.028938 C182.993608,106.127202 182.963884,106.220897 182.959312,106.316876 C182.97176,106.531575 183.046436,106.738017 183.174234,106.911035 L184.317438,108.830624 L184.546079,109.232824 L184.559797,109.251106 C184.631953,109.391447 184.737083,109.512206 184.866176,109.603031 C184.910973,110.083689 185.038606,110.552982 185.243433,110.990163 C185.282302,111.077001 185.325744,111.159269 185.371472,111.241537 C185.678869,111.746521 186.040762,112.216278 186.450656,112.642381 L186.994821,113.252536 C187.532127,113.851265 188.069433,114.45228 188.652467,115.005304 C188.861166,115.227197 189.113331,115.403777 189.393263,115.52405 C189.672361,115.635575 189.989825,115.589375 190.225516,115.402933 C190.225516,115.686301 190.225516,115.969669 190.225516,116.253037 C190.398374,116.263671 190.551946,116.36695 190.62692,116.522985 C190.701893,116.67902 190.686532,116.863386 190.586768,117.004877 C190.106622,118.236613 189.621904,119.479776 188.894826,120.58354 C189.40804,120.887163 189.88382,121.249949 190.312399,121.664452 C190.590517,121.972504 190.837862,122.306973 191.050909,122.663096 C191.071487,122.832202 191.087491,122.999024 191.096637,123.165845 C191.265831,125.889834 190.211797,128.593256 189.267511,131.189273 C188.995428,131.925115 188.698195,132.695237 188.721059,133.460787 C188.541869,133.571196 188.370723,133.694144 188.208904,133.828708 C188.396389,134.317747 188.323224,134.754225 188.302647,135.277542 C188.295837,135.591272 188.231516,135.901094 188.112875,136.191632 C188.01347,136.393015 187.903571,136.589051 187.783632,136.778935 C187.191452,137.823283 187.061127,139.064161 186.942234,140.257048 C186.871355,140.976895 187.150297,141.856706 186.823341,142.50114 C186.258598,143.607189 185.757875,144.786366 185.680137,146.015817 C185.677422,146.292461 185.64212,146.567823 185.574962,146.836213 C185.504083,147.064736 185.378331,147.25898 185.314312,147.482932 C185.248415,147.78298 185.232961,148.091901 185.268583,148.397022 C185.312093,149.492415 185.149217,150.586222 184.788438,151.621476 C184.502637,152.437302 184.187113,153.310258 184.411181,154.148936 C183.859571,154.728067 183.518919,155.475827 183.44403,156.27191 C183.43813,156.475577 183.41364,156.678279 183.370865,156.877495 C183.300993,157.081178 183.208987,157.27659 183.096496,157.460228 C182.636224,158.298025 182.420734,159.248225 182.474593,160.202499 C181.788671,161.132585 181.44571,162.279769 181.242219,163.420096 C181.038729,164.560424 180.949559,165.721319 180.688909,166.847935 C180.341375,168.337902 179.712612,169.843866 179.589146,171.370397 C178.84835,171.843438 178.528253,172.759814 178.386496,173.625914 C178.244739,174.492015 178.221875,175.401535 177.858336,176.201364 C177.67085,176.617275 177.401054,176.989767 177.222714,177.414819 C177.097644,177.753235 177.005756,178.102993 176.948345,178.459167 C176.838598,179.016762 176.742569,179.638343 176.877467,180.173086 C176.683511,180.378389 176.457207,180.550538 176.207549,180.682691 C176.244132,180.541007 176.273855,180.399323 176.299006,180.255354 C175.709112,180.790097 174.639074,180.602709 174.168074,181.244857 C173.874112,181.675211 173.975358,182.261128 174.396714,182.568003 C174.544086,182.657775 174.703429,182.726249 174.870001,182.771388 C176.013205,183.137024 177.188418,183.504945 178.363632,183.310701 C178.502577,183.295725 178.637091,183.252982 178.75918,183.185014 C178.912046,183.072521 179.037817,182.927296 179.127292,182.759962 C179.303345,182.481164 179.479399,182.202367 179.653166,181.923569 C180.074272,182.049198 180.502617,182.14917 180.935841,182.222934 C180.979282,182.58857 181.011292,182.954206 181.027297,183.319842 C181.255938,183.365546 181.562316,183.379258 181.669778,183.166732 C181.702371,183.086371 181.715683,182.999499 181.708646,182.913072 C181.708646,182.750821 181.731511,182.53601 181.745229,182.316628 L181.790957,182.316628 C182.488535,182.344767 183.182623,182.204454 183.814428,181.907572 C183.569782,179.882862 184.376884,177.903857 185.076525,175.988838 C185.815035,173.973269 186.44837,171.921136 187.086278,169.869003 C187.543559,168.424741 188.048855,167.026183 188.496991,165.579635 C189.060972,163.751454 189.627239,161.923274 190.195792,160.095093 C190.442724,159.290693 190.691943,158.495435 190.975457,157.695606 C191.57228,156.077137 192.280472,154.501899 193.094957,152.981185 C193.323598,152.549278 193.552239,152.12194 193.739724,151.674036 C193.968365,151.127867 194.1307,150.556561 194.313613,149.99211 C194.712201,148.83392 195.192013,147.705266 195.749477,146.614546 C195.765482,146.584838 195.776914,146.557416 195.792919,146.529993 C195.978118,147.286403 196.163317,148.054239 196.286783,148.815219 C196.453893,149.748301 196.467023,150.702435 196.325652,151.639758 C196.215904,152.277336 196.007841,152.908058 196.032991,153.554777 C196.067288,154.4483 196.545147,155.259555 196.780647,156.121085 C196.932457,156.765811 197.018257,157.424298 197.036725,158.08638 C197.100744,159.114731 197.658627,160.26877 197.265365,161.221709 C196.042137,164.240492 196.634317,167.650049 195.936962,170.819657 C195.577996,172.446738 194.478234,173.975554 194.565118,175.639198 C194.626089,176.819898 194.729739,177.997551 194.876069,179.172157 C194.911301,179.542767 195.007883,179.904953 195.16187,180.243928 C195.253096,180.422278 195.357813,180.593405 195.475108,180.755819 C195.374506,180.794668 195.289909,180.897503 195.216744,181.114599 C195.029258,181.685906 195.216744,182.394326 195.724326,182.714257 C195.93114,182.824802 196.154156,182.901931 196.385098,182.94278 C196.695968,183.031103 197.017632,183.075713 197.340817,183.075323 C197.441368,183.069903 197.541436,183.057687 197.640336,183.038759 C197.993736,183.187185 198.354728,183.316862 198.721807,183.427248 C198.721807,183.520942 198.740098,183.614636 198.75153,183.70833 C198.752785,183.807352 198.795992,183.901197 198.870424,183.966561 C198.927499,183.993179 198.990609,184.004218 199.053336,183.998554 L200.294856,183.998554 C200.294856,183.895719 200.294856,183.790598 200.294856,183.687763 C200.582166,183.7177 200.868734,183.624718 201.083666,183.431818 C201.193635,183.291928 201.271671,183.129697 201.312307,182.956491 C201.650695,181.809308 201.986797,180.661363 202.320613,179.512656 C202.720872,178.242937 202.887426,176.911193 202.812191,175.582068 C202.370914,171.370397 203.340351,167.145014 203.024827,162.921917 C202.834939,160.383617 202.965529,157.831521 203.413516,155.325827 C203.516404,154.759091 203.642157,154.183214 203.687885,153.618763 C203.788487,152.553848 203.665021,151.477507 203.740472,150.419447 C203.765623,150.049241 203.815924,149.681319 203.861652,149.313398 C204.174908,147.029839 204.339114,144.728322 204.35323,142.423442 C204.346227,141.659739 204.298909,140.896936 204.211472,140.138217 C204.449844,140.077544 204.666216,139.950798 204.835662,139.772581 C205.039152,139.507494 204.986564,139.135003 204.984278,138.796789 C204.984278,137.987819 205.324953,137.224554 205.599322,136.461289 C205.951442,135.408519 206.240048,134.335582 206.463584,133.248261 C206.699813,132.372037 206.828794,131.470401 206.8477,130.563121 C206.8477,130.471712 206.843128,130.380303 206.833982,130.288894 C206.920145,130.229205 206.991987,130.151156 207.044332,130.060371 C207.104013,129.92647 207.141097,129.783616 207.154079,129.637604 C207.23639,129.054872 207.320987,128.469854 207.403298,127.884836 C207.464268,127.465878 207.524477,127.047682 207.583924,126.630247 L208.311001,121.559332 C208.372734,121.118283 208.436754,120.67952 208.498487,120.240756 L208.688259,118.929037 C208.708836,118.773641 208.731701,118.618246 208.747705,118.471992 C209.305589,117.53962 208.772856,116.296457 208.713409,115.236112 Z M202.647569,134.221767 C202.377773,133.581904 202.126268,132.926044 202.190288,132.235906 L202.165137,132.235906 C202.225303,132.023545 202.214873,131.797401 202.135414,131.591472 C202.064535,131.424651 201.941069,131.282967 201.865618,131.116146 C201.784544,130.912523 201.742655,130.695435 201.742152,130.476282 C201.685369,129.086395 201.795135,127.694709 202.069108,126.330883 C202.098831,126.170917 202.130841,126.008666 202.160564,125.8487 C202.256469,125.793322 202.344194,125.72487 202.421215,125.645315 C202.541483,125.508292 202.640868,125.354286 202.716162,125.18827 C202.974526,124.669524 203.210026,124.141637 203.427234,123.604609 C203.498113,123.430931 203.601001,123.229832 203.777055,123.186412 C203.740472,124.523269 203.877657,125.887549 203.333492,127.094148 C203.230117,127.28872 203.153223,127.496227 203.104851,127.711159 C203.05455,128.051658 203.196307,128.396727 203.146006,128.73494 C203.120856,128.910903 203.045404,129.073154 203.015681,129.246831 C202.969737,129.420404 203.020341,129.605276 203.148293,129.731299 C203.178582,129.752519 203.211669,129.769438 203.246608,129.781574 C203.23289,129.872983 203.221458,129.966677 203.212312,130.055801 C203.194021,130.243189 203.184875,130.419152 203.173443,130.528843 C203.120831,131.087852 203.10022,131.649409 203.11171,132.210769 C203.11171,132.816353 203.134574,133.421938 203.125429,134.038949 C203.133887,134.216083 203.10426,134.392972 203.038545,134.557695 C202.993222,134.642667 202.934554,134.719821 202.864778,134.786218 C202.798472,134.580548 202.725307,134.400015 202.647569,134.221767 Z" id="Shape" fill="url(#linearGradient-1)"></path>
                        <ellipse id="Oval" fill="#FBBEBE" transform="translate(184.316136, 104.078476) rotate(-11.580000) translate(-184.316136, -104.078476) " cx="184.316136" cy="104.078476" rx="1.28093384" ry="3.64064279"></ellipse>
                        <path d="M196.069255,181.040196 C195.886862,181.627593 196.069255,182.361841 196.563051,182.681593 C196.763098,182.795132 196.978437,182.875028 197.201427,182.918447 C197.503195,183.009214 197.815389,183.054655 198.128963,183.053454 C198.513768,183.034506 198.883003,182.873445 199.267808,182.8166 C199.312213,182.804701 199.359216,182.811488 199.399042,182.835548 C199.438068,182.880085 199.45606,182.941043 199.447977,183.001346 C199.452108,183.234252 199.468445,183.46673 199.496911,183.697697 C199.497564,183.800464 199.539699,183.897966 199.612575,183.965342 C199.6681,183.992931 199.729496,184.004372 199.79052,183.998501 L200.996094,183.998501 C201.023402,182.870688 200.90743,181.744118 200.651326,180.649387 C200.634616,180.565596 200.604521,180.485481 200.562354,180.412533 C200.460063,180.293254 200.325669,180.210532 200.177549,180.175679 C199.882787,180.045108 199.564427,179.986046 199.245565,180.002775 C198.856311,180.057252 198.531562,180.324897 198.200141,180.547539 C197.868719,180.770182 197.417185,180.966771 197.014585,180.853081 C196.611986,180.739391 196.276116,180.381742 196.069255,181.040196 Z" id="Path" fill="#3F3D56"></path>
                        <path d="M177.279027,180.416352 C176.988713,180.746864 176.632672,181.004308 176.236874,181.169906 L176.061594,181.259036 C176.037343,181.268809 176.016654,181.286548 176.002533,181.309678 C175.995754,181.341564 176.002742,181.375002 176.021585,181.400834 C176.321261,181.893678 176.892553,182.114632 177.420013,181.941691 C177.533454,181.911496 177.638564,181.853188 177.726753,181.771533 C177.871984,181.588376 177.955177,181.358682 177.962999,181.119264 C178.020673,180.872301 178.010757,180.612958 177.934421,180.371787 C177.669596,179.737749 177.57243,180.025396 177.279027,180.416352 Z" id="Path" fill="#FBBEBE"></path>
                        <path d="M181.943229,182.624372 C181.950501,182.696301 181.936744,182.768601 181.90306,182.835481 C181.792005,183.010454 181.482469,183.000945 181.241456,182.962907 C181.204936,182.317622 181.107781,181.675487 180.950823,181.042006 C180.492426,181.024889 180.161624,181.374836 179.915886,181.688646 L179.282636,182.496946 C179.191048,182.636124 179.06186,182.757005 178.904577,182.850696 C178.777963,182.906436 178.639159,182.941956 178.4958,182.9553 C177.28601,183.11696 176.064406,182.810757 174.897147,182.506456 C174.725202,182.469319 174.560565,182.412983 174.408033,182.33909 C173.975149,182.083262 173.870806,181.59782 174.171746,181.239802 C174.66086,180.707275 175.759595,180.859426 176.369216,180.418189 C176.305595,180.72865 176.201038,181.032767 176.057317,181.325387 C176.872508,181.226489 177.420694,180.625494 178.077572,180.224197 C178.24261,180.111508 178.441346,180.03546 178.654112,180.003579 C178.813356,179.99282 178.973692,180.006371 179.126687,180.043518 C179.884138,180.197041 180.592729,180.477678 181.206013,180.867033 C181.454115,181.024889 181.841625,181.24741 181.950318,181.490851 C182.066098,181.781839 181.943229,182.314366 181.943229,182.624372 Z" id="Path" fill="#3F3D56"></path>
                        <circle id="Oval" fill="#FBBEBE" cx="198" cy="103" r="5"></circle>
                        <path d="M207,130.546532 C206.98054,131.484694 206.849665,132.417017 206.610226,133.323197 C206.381932,134.448647 206.087318,135.559102 205.727982,136.648545 C205.450238,137.439503 205.102476,138.232836 205.104809,139.071298 C205.104809,139.42046 205.160825,139.807625 204.950767,140.083154 C204.763704,140.276568 204.527906,140.413809 204.269245,140.479821 C204.007496,140.550488 203.794354,140.743592 203.695086,141 C203.475956,140.666802 203.31196,140.299312 203.209619,139.912136 C202.791059,138.607333 202.402062,137.295404 202.04263,135.97635 C201.975866,135.822207 201.988091,135.644474 202.075305,135.5013 C202.134537,135.448896 202.203623,135.409297 202.278362,135.384913 C202.517579,135.28564 202.73675,135.14231 202.924874,134.962119 C203.013164,134.882372 203.085995,134.786501 203.1396,134.679464 C203.20743,134.509246 203.238474,134.326167 203.230625,134.142658 C203.230625,133.513217 203.230625,132.886152 203.214287,132.256711 C203.204502,131.675576 203.226319,131.094336 203.279638,130.515654 C203.279638,130.401642 203.300644,130.218748 203.319316,130.023978 C203.354326,129.651064 203.424345,129.218768 203.622733,129.073878 C203.919148,128.871982 204.80606,129.14276 205.142153,129.190265 C205.72098,129.271024 206.309142,129.366034 206.873965,129.47767 C206.956019,129.827877 206.998308,130.186511 207,130.546532 L207,130.546532 Z" id="Path" fill="#3F3D56"></path>
                        <path d="M187.98779,108.36859 C187.811425,108.706309 187.388148,108.868837 187.061872,109.082022 L185.944157,109.816561 C185.793259,109.946751 185.593391,110.012317 185.390811,109.998085 C185.207058,109.933117 185.058433,109.799948 184.978557,109.628705 C184.979231,109.623095 184.979231,109.617429 184.978557,109.611819 L184.747077,109.240328 L183.644794,107.471523 C183.522248,107.313129 183.450959,107.123777 183.439769,106.926951 C183.439769,106.836189 183.472838,106.751759 183.481656,106.660997 C183.484638,106.406073 183.407858,106.156129 183.261199,105.943343 C183.173017,105.785038 182.996651,105.654171 183.001061,105.476869 C182.992618,105.243889 183.034653,105.011759 183.124516,104.795098 C183.240173,104.594669 183.406088,104.424934 183.607316,104.301183 C183.710931,104.229418 183.81675,104.161874 183.926979,104.090109 C183.985501,104.051846 184.050342,104.023303 184.118776,104.005679 C184.301755,103.969796 184.482529,104.115438 184.667713,104.12177 C185.463561,104.632571 185.769996,105.599292 186.396093,106.295838 C186.748824,106.692658 186.784097,106.996605 187.183124,107.351211 C187.247056,107.40609 187.308784,107.465191 187.368307,107.526402 C187.447195,107.608784 187.51395,107.701105 187.566718,107.800799 C187.639469,107.982324 188.078178,108.195509 187.98779,108.36859 Z" id="Path" fill="#3F3D56"></path>
                        <path d="M195.999281,107.414531 C196.31914,108.121956 196.568157,108.899002 196.475849,109.676047 C196.456951,109.886548 196.393128,110.089926 196.289086,110.271183 C195.979961,110.767504 195.331658,110.857336 194.767075,110.886531 C194.52679,110.865411 194.28849,110.946353 194.105892,111.111111 C193.950759,111.346989 193.967526,111.662723 194.146679,111.879173 C194.328112,112.081751 194.553391,112.235789 194.803569,112.328332 C195.696597,112.739313 196.660465,113.078428 197.630773,112.984105 C198.08158,112.939189 198.519507,112.802195 198.968168,112.732575 C199.457278,112.677159 199.948835,112.648673 200.440804,112.647235 C201.024706,112.624777 201.606462,112.564141 202.188218,112.503504 L203.729549,112.344053 C203.813791,112.345317 203.895539,112.314146 203.959246,112.256467 C204.073021,112.117227 203.927045,111.91286 203.785363,111.807307 C202.96747,111.173993 201.926321,110.738309 201.460487,109.786091 C201.245817,109.336932 201.179269,108.802433 201.020413,108.317341 C200.861557,107.832249 200.608247,107.394319 200.509498,106.900243 C200.456846,106.466814 200.433174,106.030068 200.438657,105.59319 C200.444054,105.152659 200.290783,104.726137 200.009317,104.398427 C199.702339,104.099736 199.257972,104.023379 198.841512,104.005413 C197.81539,103.958251 196.722719,104.214272 195.994988,104.971105 C195.799638,105.175472 195.632196,105.420264 195.430406,105.604419 C195.228616,105.788575 194.953838,105.842474 195.086934,106.08502 C195.220029,106.327566 195.481927,106.478034 195.623609,106.691384 C195.76702,106.921596 195.892643,107.163412 195.999281,107.414531 L195.999281,107.414531 Z" id="Path" fill="#FBBEBE"></path>
                        <path d="M205.897213,113.888104 C205.60002,115.651851 205.11667,117.381155 204.454815,119.048635 C204.122095,119.801621 203.838706,120.574304 203.606345,121.362055 C203.424866,122.072115 203.460219,122.832566 203.292882,123.544916 C203.085479,124.431345 202.878075,125.320065 202.710738,126.213366 C202.429995,127.577467 202.317644,128.969238 202.376063,130.359198 C202.376596,130.578114 202.41978,130.794952 202.503334,130.998252 C202.58111,131.163169 202.706024,131.305181 202.779087,131.474679 C202.889578,131.775654 202.865654,132.107806 202.713095,132.390885 C202.592155,132.653084 202.42818,132.894443 202.227581,133.105526 C200.030987,133.742289 197.681197,133.533852 195.392685,133.668993 C193.283294,133.792681 191.150335,134.214135 189.071584,133.863687 C188.835898,132.947481 189.229494,131.987755 189.566525,131.094454 C190.544622,128.4993 191.626421,125.796492 191.452013,123.077651 C191.433732,122.760524 191.396747,122.444678 191.341241,122.131668 C190.999496,120.205345 191.37188,118.210306 191.968166,116.343536 C192.338193,115.179955 192.321695,113.940786 192.236848,112.729103 C192.194852,112.335649 192.18933,111.939322 192.22035,111.544907 C192.254445,111.142159 192.408401,110.757758 192.66344,110.438588 C192.66344,110.422555 192.684652,110.406521 192.696436,110.390487 C192.70822,110.374454 192.800138,110.376744 192.873201,110.390487 L192.873201,110.390487 C192.910857,110.406016 192.953388,110.406016 192.991044,110.390487 L193.016969,110.374454 C193.037424,110.3603 193.064863,110.3603 193.085318,110.374454 C193.139526,110.406521 193.170165,110.516466 193.288008,110.53708 C193.462134,110.562681 193.637605,110.57874 193.813588,110.585181 C194.025257,110.591293 194.23555,110.620489 194.440513,110.672221 L194.468795,110.672221 C194.775294,110.722465 195.089893,110.696461 195.383257,110.596634 C195.578492,110.549235 195.766912,110.478451 195.94419,110.385906 C195.996041,110.330934 196.321288,110.280543 196.38728,110.241604 C196.601754,110.115626 196.554617,109.524673 196.599398,109.281878 C196.624157,109.038371 196.683649,108.799395 196.776162,108.571818 C196.994149,108.230764 197.372085,108.017079 197.784899,108.00148 C198.190724,107.992086 198.596337,108.027433 198.993968,108.106844 C199.873077,108.228241 200.773398,108.207626 201.636009,108.404611 C202.069671,108.503103 202.543401,108.651986 202.94171,108.459583 C203.050126,108.484779 203.066624,108.576399 203.066624,108.688635 C203.056467,108.795261 203.034338,108.900487 203.000632,109.002435 C202.849792,109.634617 203.361231,110.216408 203.832603,110.674511 C204.031758,110.890458 204.266778,111.072407 204.527877,111.212782 C204.763563,111.318146 204.99925,111.361666 205.234936,111.476192 C205.425819,111.575181 205.58794,111.719345 205.706308,111.895356 C205.842172,112.097169 205.933646,112.324096 205.97499,112.561896 C206.025585,113.005081 205.999295,113.453376 205.897213,113.888104 L205.897213,113.888104 Z" id="Path" fill="#3F3D56"></path>
                        <path d="M204.904425,114.46994 C204.622919,116.206087 204.165082,117.90833 203.538163,119.549716 C203.223006,120.29092 202.954576,121.051511 202.73448,121.826935 C202.562581,122.525883 202.596068,123.274434 202.437563,123.975637 C202.241108,124.848195 202.044652,125.723008 201.886147,126.60233 C201.839266,126.629386 201.790152,126.654188 201.741038,126.676734 C201.463287,126.810694 201.168932,126.906249 200.865916,126.960823 C200.321664,127.027328 199.770529,127.009078 199.231759,126.906711 L196.046048,126.476069 C194.773549,126.302459 193.418449,126.092774 192.474121,125.222471 C191.949494,124.744481 191.605696,124.113172 191.228412,123.504411 C191.211096,123.192247 191.176063,122.881343 191.123486,122.573231 C190.799781,120.677052 191.152508,118.713233 191.717319,116.875675 C192.067814,115.730302 192.052187,114.510524 191.971819,113.317803 C191.93204,112.930505 191.92681,112.540381 191.956192,112.152137 C191.988487,111.755692 192.134316,111.377306 192.375893,111.063131 C192.441099,111.04382 192.507465,111.028758 192.574582,111.018037 L192.574582,111.018037 C192.619507,111.008852 192.66501,111.002825 192.710761,111 L192.775502,111 C192.850703,111.000279 192.925617,111.009358 192.998748,111.027056 C193.150844,111.075964 193.299936,111.133935 193.445239,111.200666 L193.472028,111.200666 C193.663428,111.264339 193.864464,111.293344 194.065861,111.286343 C194.360545,111.286343 194.664159,111.238995 194.958842,111.218703 C195.322865,111.161293 195.695438,111.228769 196.017026,111.41035 C196.224573,111.578811 196.421418,111.760294 196.606394,111.953726 C196.829773,112.130914 197.081085,112.268872 197.349801,112.361822 C199.271479,113.102633 201.403463,113.057336 203.292593,112.23556 C203.474059,112.131359 203.679948,112.078402 203.888659,112.082243 C204.042825,112.112722 204.188886,112.175723 204.31729,112.267126 C204.451237,112.346039 204.582952,112.422698 204.719132,112.492593 C204.847824,112.691248 204.93447,112.914624 204.973631,113.148702 C205.024793,113.589896 205.001391,114.036661 204.904425,114.46994 L204.904425,114.46994 Z" id="Path" fill="#000000" opacity="0.1"></path>
                        <path d="M207.198216,113.409649 C206.288185,113.135464 205.413807,112.757174 204.592921,112.282498 C204.461114,112.19175 204.311734,112.128819 204.154134,112.097645 C203.939912,112.095133 203.728755,112.147983 203.541661,112.250938 C201.60854,113.072445 199.426801,113.117735 197.460354,112.377179 C197.185667,112.283357 196.928545,112.145499 196.699333,111.96915 C196.509387,111.776348 196.307916,111.594928 196.096002,111.425863 C195.344122,110.945697 194.30429,111.509272 193.463282,111.200433 C193.314113,111.134717 193.161546,111.076776 193.006213,111.026852 C192.341177,110.862287 191.664714,111.516035 191.011105,111.317657 C190.767925,111.969644 190.588098,112.642949 190.474049,113.328495 C190.3811,114.115773 190.331512,114.907444 190.325501,115.700021 C190.325501,116.175679 190.302648,116.651337 190.325501,117.126995 C190.488348,117.153278 190.632577,117.245672 190.723151,117.381731 C190.783886,117.540722 190.770509,117.718034 190.686586,117.866406 C190.208948,119.076966 189.724455,120.301053 189,121.385372 C189.510576,121.685469 189.984471,122.042492 190.412344,122.449403 C191.212216,123.283495 191.605295,124.453478 192.469156,125.22445 C193.442714,126.092356 194.829919,126.304261 196.125711,126.475588 L199.386901,126.90616 C199.939215,127.008127 200.503986,127.027127 201.06206,126.962517 C201.371529,126.906828 201.672053,126.810542 201.955631,126.676221 C202.14088,126.599815 202.309892,126.48969 202.453836,126.351601 C202.574346,126.216654 202.673715,126.064686 202.748646,125.900741 C203.00689,125.391268 203.242281,124.870524 203.459389,124.343018 C203.534805,124.15591 203.649072,123.937243 203.854754,123.921463 C205.065987,122.843906 206.208661,121.739298 207.419895,120.661741 C207.906649,120.263825 208.343225,119.809716 208.720257,119.30916 C209.321303,118.432236 208.775105,117.190115 208.720257,116.130593 C208.713623,115.859593 208.679167,115.589954 208.617416,115.325807 C208.420876,114.55709 207.959236,113.637334 207.198216,113.409649 Z" id="Path" fill="#F6BD60"></path>
                        <path d="M187.987896,108.051844 C187.812878,108.455133 187.392836,108.649216 187.069054,108.903792 L185.959881,109.780946 C185.810136,109.936412 185.611796,110.014709 185.410764,109.997714 C185.228415,109.920132 185.080926,109.761108 185.00166,109.556616 C185.00166,109.498644 185.00166,109.43563 185.00166,109.375136 C184.993231,109.171109 185.01695,108.96701 185.071667,108.772723 C185.180269,108.487693 185.348669,108.238239 185.561716,108.046803 C185.973583,107.59745 186.463466,107.253819 186.999047,107.038581 C187.082537,107.001163 187.173306,106.990705 187.261573,107.008334 C187.295587,107.018565 187.328047,107.034714 187.357833,107.056225 C187.436118,107.154601 187.502363,107.264846 187.554728,107.383897 C187.642236,107.590582 188.077592,107.845159 187.987896,108.051844 Z" id="Path" fill="#000000" opacity="0.1"></path>
                        <path d="M191.271979,110.031969 C190.904037,110.014725 190.603189,109.749602 190.334808,109.497411 L189.514512,108.738683 C189.459618,108.692452 189.41153,108.638757 189.371664,108.579178 C189.327339,108.495358 189.293884,108.406271 189.272103,108.314054 C189.098187,107.87865 188.825601,107.489155 188.475615,107.175963 C188.414605,107.098745 188.332775,107.040429 188.239699,107.007836 C188.151702,106.991666 188.060905,107.000634 187.977811,107.033701 C187.447805,107.217467 186.963091,107.511362 186.555821,107.895892 C186.345176,108.059728 186.178602,108.273016 186.071002,108.516669 C186.016586,108.682751 185.993113,108.85734 186.001743,109.031828 C186.006825,109.601349 186.135283,110.163068 186.378343,110.678612 C186.415137,110.758365 186.45626,110.838118 186.499547,110.915715 C186.78836,111.391047 187.129558,111.832782 187.5168,112.232711 L188.03192,112.806068 C188.538382,113.370802 189.044844,113.935537 189.594594,114.455007 C189.791658,114.664333 190.03053,114.830269 190.295849,114.942145 C190.567384,115.052502 190.878069,115.002598 191.100994,114.812816 C191.204677,114.693288 191.282747,114.553925 191.330417,114.403276 C191.66373,113.541085 191.979728,112.644407 191.999207,111.715396 C192.003869,111.343347 191.987973,110.971325 191.951591,110.601015 C191.919125,110.208718 191.639922,110.05568 191.271979,110.031969 Z" id="Path" fill="#F6BD60"></path>
                        <path d="M204,141.592644 C203.986946,143.904947 203.826158,146.213911 203.518662,148.504799 C203.473678,148.874888 203.424194,149.244976 203.399453,149.615065 C203.325228,150.688552 203.446687,151.766637 203.34772,152.833228 C203.295988,153.410199 203.179027,153.982572 203.08006,154.545751 C202.640486,157.05937 202.512021,159.619514 202.697689,162.165902 C203.008085,166.402384 202.056656,170.641165 202.48851,174.866153 C202.540851,175.687727 202.496296,176.512753 202.355805,177.323451 C202.275313,177.826488 202.158789,178.322807 202.007172,178.808403 C201.678783,179.95928 201.348894,181.108624 201.017506,182.256435 C200.978522,182.431017 200.901654,182.594417 200.792582,182.734562 C200.560462,182.93971 200.253101,183.032689 199.949117,182.989717 C198.651304,182.94834 197.429967,182.375967 196.251364,181.817386 C196.115832,181.762752 195.990345,181.685027 195.880239,181.587517 C195.635072,181.327765 195.655315,180.918599 195.547352,180.576094 C195.439388,180.23359 195.146987,179.911773 194.980543,179.560074 C194.843692,179.227391 194.760881,178.874114 194.735376,178.514171 C194.585426,177.337243 194.483461,176.155717 194.429479,174.969594 C194.344008,173.300747 195.423643,171.765223 195.779024,170.142349 C196.453796,166.95177 195.882489,163.531322 197.081334,160.50395 C197.459207,159.547696 196.910392,158.389157 196.85641,157.359345 C196.83698,156.694982 196.752588,156.03427 196.604495,155.387071 C196.379571,154.522764 195.904981,153.709028 195.871242,152.81254 C195.846501,152.16431 196.051182,151.532171 196.156896,150.893136 C196.297147,149.952682 196.284227,148.994997 196.118659,148.058853 C195.999449,147.286494 195.817261,146.514135 195.635072,145.760165 L195.594586,145.845217 C195.046562,146.939867 194.575286,148.072904 194.184312,149.235782 C194.004372,149.79896 193.846925,150.373632 193.622001,150.92072 C193.437563,151.380457 193.21039,151.801117 192.987715,152.233271 C192.189036,153.757255 191.493879,155.335582 190.907167,156.957075 C190.628261,157.752421 190.383094,158.566156 190.140176,159.363801 L188.473488,164.880652 C188.02364,166.331124 187.531056,167.733324 187.090205,169.181498 C186.467165,171.250317 185.844125,173.300747 185.11987,175.323592 C184.445097,177.242997 183.642118,179.231362 183.882787,181.258805 C183.262615,181.55671 182.581438,181.697832 181.896707,181.67027 C180.737454,181.565472 179.600161,181.283422 178.522845,180.833547 C178.09324,180.67034 177.64789,180.486445 177.357738,180.125551 C176.858407,179.502607 176.982115,178.590028 177.132814,177.79698 C177.189585,177.439521 177.279973,177.088494 177.402723,176.748779 C177.573665,176.32582 177.852571,175.951134 178.028012,175.532773 C178.381143,174.730531 178.403635,173.822549 178.543088,172.951346 C178.682541,172.080143 178.992937,171.160668 179.721691,170.687138 C179.845399,169.156212 180.461691,167.645974 180.801327,166.149528 C181.05774,165.016275 181.143211,163.85084 181.345643,162.701496 C181.548075,161.552152 181.874215,160.402808 182.553485,159.471839 C182.499892,158.511892 182.711917,157.555925 183.165279,156.713414 C183.274803,156.528397 183.364539,156.331878 183.432939,156.127248 C183.474883,155.927612 183.498974,155.724491 183.504914,155.520395 C183.579286,154.72162 183.913478,153.971369 184.454094,153.389511 C184.22917,152.55049 184.541815,151.67469 184.82297,150.860954 C185.17708,149.822579 185.337302,148.725494 185.29531,147.6267 C185.260435,147.319876 185.27487,147.009289 185.338046,146.707225 C185.401025,146.477356 185.524733,146.281967 185.596709,146.061293 C185.660869,145.791013 185.694825,145.514167 185.697925,145.236064 C185.785645,143.992474 186.278229,142.820143 186.822545,141.709877 C187.146436,141.061647 186.872028,140.181249 186.939506,139.459461 C187.056466,138.259546 187.184673,137.018255 187.767226,135.972352 C187.87519,135.774664 187.992151,135.586172 188.088868,135.381589 C188.206073,135.089493 188.269368,134.777752 188.275555,134.462113 C188.295798,133.935714 188.367774,133.498963 188.183336,133.009343 C189.38668,131.986426 191.028626,131.69909 192.594098,131.63013 C194.15957,131.561169 195.743036,131.705987 197.274769,131.365781 C197.724617,131.26234 198.174465,131.119821 198.649055,131.05086 C199.726442,130.889952 200.819573,131.140509 201.883464,131.388768 C201.809239,132.078374 202.056656,132.740396 202.333312,133.38173 C203.413439,135.979538 203.979881,138.770107 204,141.592644 L204,141.592644 Z" id="Path" fill="#33313F"></path>
                        <path d="M199,143 L196.505789,149 C196.390738,148.219814 196.214906,147.439628 196.039074,146.678019 L196,146.763932 L196,146.638545 L197.3589,143.441176 L199,143 Z" id="Path" fill="#000000" opacity="0.1"></path>
                        <path d="M207,130.883689 C206.874459,130.950999 206.724573,130.991042 206.568182,130.999052 C206.328286,131.005155 206.088705,130.981744 205.859848,130.929834 L204.155303,130.62446 C204.101856,130.615031 204.049836,130.601848 204,130.585101 C204.028409,130.372018 204.085227,130.125004 204.246212,130.042214 C204.486742,129.926851 205.206439,130.081573 205.479167,130.108718 C205.948864,130.154863 206.426136,130.209152 206.88447,130.272941 C206.955522,130.472677 206.994287,130.677606 207,130.883689 Z" id="Path" fill="#000000" opacity="0.1"></path>
                        <path d="M208.814049,116.768643 C208.859353,116.968489 208.923734,117.165927 208.961885,117.36818 C209.026035,117.864407 209.009119,118.367901 208.911812,118.858597 L208.716286,120.235848 L208.52076,121.620322 L207.764887,126.948742 L207.578899,128.268206 L207.316609,130.110159 C207.304221,130.263426 207.265491,130.413344 207.202155,130.55319 C207.043474,130.819045 206.762985,130.986451 206.45582,130.99863 C206.153851,131.008293 205.852414,130.966786 205.564032,130.875833 L203.41802,130.331675 C203.32396,130.314783 203.234545,130.277846 203.15573,130.223324 C203.022256,130.091563 202.969407,129.897423 203.017431,129.715283 C203.048429,129.532291 203.127116,129.361339 203.153345,129.178347 C203.205803,128.821996 203.057967,128.456013 203.110425,128.102069 C203.161868,127.876678 203.242017,127.658967 203.348871,127.454376 C204.064208,125.858017 203.649313,123.994394 203.892527,122.260792 C204.111417,120.896397 204.682146,119.614229 205.547341,118.543178 C206.081275,117.86713 206.694604,117.259122 207.373836,116.732526 C207.640895,116.523049 208.065329,116.092056 208.401537,116.010192 C208.833124,115.918696 208.742515,116.465262 208.814049,116.768643 Z" id="Path" fill="#F6BD60"></path>
                        <path d="M193.195396,97.159834 C193.040094,97.639642 193.282459,98.1674308 193.171865,98.656378 C193.05186,99.1955908 192.529483,99.5702979 192.38124,100.111796 C192.145935,100.936608 192.865969,101.688307 193.393052,102.373747 C195.346083,104.919015 195.089601,108.442176 194.421335,111.547219 C193.88364,114.038393 193.140021,116.48343 192.197702,118.858579 C191.903571,119.596569 191.57885,120.345983 191,120.898905 C192.082403,120.597311 193.233044,120.293433 194.317801,120.585887 C195.691982,120.956025 196.877919,122.251507 198.270925,121.956767 C199.10861,121.776268 199.696873,121.054271 200.449849,120.654431 C201.861679,119.916441 203.562934,120.380255 205.137124,120.617875 C205.476334,120.695581 205.831296,120.67815 206.160701,120.567609 C206.412526,120.436165 206.626174,120.245216 206.781906,120.012403 C207.484437,119.137217 207.905184,118.08009 207.991374,116.973619 C208.066696,115.859094 207.646006,114.766742 206.836027,113.973677 C206.501893,113.667513 206.101875,113.420755 205.845393,113.059757 C205.595947,112.638147 205.462255,112.161373 205.457139,111.675168 C205.271248,109.161888 205.901866,106.596058 205.252424,104.165031 C205.017119,103.299091 204.633572,102.469709 204.530038,101.583207 C204.40062,100.479648 204.708869,99.2984067 204.257084,98.2885252 C203.901773,97.4865604 203.118208,96.9176453 202.273463,96.6251909 C201.428718,96.3327365 200.525146,96.2504837 199.628634,96.1682309 C198.339163,96.0631301 193.734244,95.5262021 193.195396,97.159834 Z" id="Path" fill="#33313F"></path>
                        <g id="Group" opacity="0.1" transform="translate(191.000000, 97.000000)" fill="#000000">
                            <path d="M3.51569444,15.3632143 C2.97881242,17.8838589 2.2366048,20.3579661 1.29625,22.7616071 C1.45916667,22.4435714 1.59611111,22.1092857 1.72597222,21.7773214 C2.67259246,19.3644539 3.41878452,16.880133 3.95722222,14.34875 C4.63013889,11.1916071 4.8875,7.61660714 2.92777778,5.02821429 C2.45555556,4.41071429 1.84875,3.74214286 1.87,3.01785714 C1.69547185,3.23691698 1.55977232,3.48334948 1.46861111,3.74678571 C1.2325,4.58482143 1.955,5.34857143 2.48388889,6.045 C4.44361111,8.62875 4.18625,12.2083929 3.51569444,15.3632143 Z" id="Path"></path>
                            <path d="M2.29027778,2.03125 C2.47977117,1.7998797 2.62098497,1.53403177 2.70583333,1.24892857 C2.74233722,0.904070882 2.732812,0.556000254 2.6775,0.213571429 C2.49561697,0.348149652 2.359064,0.533360938 2.28555556,0.745178571 C2.14625,1.15607143 2.30680556,1.60178571 2.29027778,2.03125 Z" id="Path"></path>
                            <path d="M16.3625,22.9426786 C16.2061636,23.1785692 15.9917531,23.3718089 15.7391667,23.5044643 C15.4090979,23.6191098 15.0522323,23.6368548 14.7120833,23.5555357 C13.1325,23.3233929 11.4065278,22.8451786 10.00875,23.595 C9.25083333,23.9989286 8.66291667,24.7325 7.82,24.9182143 C6.42458333,25.2246429 5.23458333,23.9083929 3.85569444,23.5253571 C2.87819444,23.2583929 1.84875,23.4789286 0.864166667,23.7575 C0.668527576,24.1677048 0.4043607,24.542779 0.0826388889,24.8671429 C1.16875,24.5607143 2.32333333,24.2519643 3.41180556,24.5491071 C4.79069444,24.9251786 5.98069444,26.2414286 7.37847222,25.9419643 C8.21902778,25.7585714 8.80930556,25.025 9.56486111,24.61875 C10.9815278,23.8689286 12.6886111,24.3401786 14.2681944,24.5816071 C14.6085662,24.6605597 14.9647446,24.6428488 15.2952778,24.5305357 C15.5479654,24.396984 15.7623449,24.2029739 15.9186111,23.9664286 C16.3465073,23.4114924 16.676906,22.7900484 16.8961111,22.1278571 C16.7383249,22.4116825 16.5599951,22.6839911 16.3625,22.9426786 L16.3625,22.9426786 Z" id="Path"></path>
                        </g>
                    </g>
                </g>
            </g>
        </g>
    </g>
</svg>