<?xml version="1.0" encoding="UTF-8"?>
<svg width="264px" height="181px" viewBox="0 0 264 181" version="1.1" xmlns="http://www.w3.org/2000/svg" xmlns:xlink="http://www.w3.org/1999/xlink">
    <!-- Generator: Sketch 53.2 (72643) - https://sketchapp.com -->
    <title>undraw_to_do_list_a49b</title>
    <desc>Created with Sketch.</desc>
    <defs>
        <linearGradient x1="50.0191515%" y1="99.9884545%" x2="50.0191515%" y2="-0.00658305107%" id="linearGradient-1">
            <stop stop-color="#808080" stop-opacity="0.25" offset="0%"></stop>
            <stop stop-color="#808080" stop-opacity="0.12" offset="54%"></stop>
            <stop stop-color="#808080" stop-opacity="0.1" offset="100%"></stop>
        </linearGradient>
    </defs>
    <g id="Hive-LP" stroke="none" stroke-width="1" fill="none" fill-rule="evenodd">
        <g id="Cadastro-4" transform="translate(-71.000000, -544.000000)">
            <g id="undraw_to_do_list_a49b" transform="translate(66.000000, 532.000000)">
                <path d="M86.515012,21.1279981 C95.4716246,13.1182469 109.532593,11.487261 122.330038,12.1246839 C162.527407,14.1276888 198.813113,33.5815619 230.2001,55.5873948 C241.56266,63.5540462 252.749286,72.1467784 260.131637,83.1099977 C275.147672,105.442481 270.692215,136.381308 249.815539,154.778103 C242.711939,161.038911 234.100339,165.836595 225.260254,170.09213 C209.542769,177.655004 192.586896,183.725266 174.744501,185.453794 C162.022456,186.68554 149.154179,185.680634 136.496109,183.965717 C101.160902,179.161228 66.476876,168.540538 37.4044424,150.361511 C24.6481239,142.390323 12.629812,132.479645 7.37465658,119.576936 C2.11950119,106.674227 5.48280064,90.3394163 18.5018769,82.706221 C23.8872688,79.548596 30.3236917,78.1240354 36.6275933,76.7834058 C45.9063699,74.8144271 55.3313768,72.8704008 63.7053527,68.864391 C72.3535106,64.7268135 82.5919242,56.7238676 80.8805714,47.5640332 C79.0435519,37.7440919 77.5698235,29.1127967 86.515012,21.1279981 Z" id="Path" fill="#F6BD60" fill-rule="nonzero" opacity="0.1"></path>
                <path d="M64,113.11237 C64,113.11237 66.457346,111.206686 69,112.383953 C69,112.383953 68.2890995,114.020327 65.1208531,113.999809 L64,113.11237 Z" id="Path" fill="#F6BD60" fill-rule="nonzero"></path>
                <path d="M63.1086459,113 C63.1086459,113 62.416802,116.032148 64.5248029,118 C64.5248029,118 65.6936944,116.716512 64.3649545,113.730638 L63.1086459,113 Z" id="Path" fill="#F6BD60" fill-rule="nonzero"></path>
                <path d="M60,111.021598 C60,111.021598 60.0785691,108.47544 64.9994735,109.09805 C64.9994735,109.09805 65.0759749,110.735731 63.3846725,111.588488 C61.6933701,112.441245 60.8828681,111.828326 60,111.021598 Z" id="Path" fill="#F6BD60" fill-rule="nonzero"></path>
                <path d="M60.1251281,111 C60.1251281,111 57.6123261,111.84839 60.0971799,117 C60.0971799,117 61.7588306,116.592302 61.9697129,114.501964 C62.1805951,112.411626 61.2608435,111.721131 60.1251281,111 Z" id="Path" fill="#F6BD60" fill-rule="nonzero"></path>
                <path d="M57.0089723,108.023063 C57.0089723,108.023063 56.5617588,103.801126 61.9819872,104.007314 C61.9819872,104.007314 62.4985189,107.82424 57.9995504,109 L57.0089723,108.023063 Z" id="Path" fill="#F6BD60" fill-rule="nonzero"></path>
                <path d="M53,103.876492 C53,103.876492 53.5710565,98.976402 58.9994265,100.194574 C58.9994265,100.194574 59.1638552,104.404615 53.9243561,105 L53,103.876492 Z" id="Path" fill="#F6BD60" fill-rule="nonzero"></path>
                <path d="M50,99.2600212 C50,99.2600212 51.1634483,95.1345322 57,96.1653698 C57,96.1653698 55.7931034,99.8759573 50.4175862,100 L50,99.2600212 Z" id="Path" fill="#F6BD60" fill-rule="nonzero"></path>
                <path d="M47,94.3005525 C47,94.3005525 48.0007143,90.1084251 53,91.1732254 C53,91.1732254 51.5,95.1704189 47.3492857,94.9943496 L47,94.3005525 Z" id="Path" fill="#F6BD60" fill-rule="nonzero"></path>
                <path d="M46,90.2758167 C46,90.2758167 46.78,85.1687499 52,86.117535 C52,86.117535 50.6992,90.7837945 46.408,91 L46,90.2758167 Z" id="Path" fill="#F6BD60" fill-rule="nonzero"></path>
                <path d="M44,85.2512275 C44,85.2512275 44.9338432,79.8488291 50,81.2241851 C50,81.2241851 48.2378585,86.3625151 44.3785851,85.979616 L44,85.2512275 Z" id="Path" fill="#F6BD60" fill-rule="nonzero"></path>
                <path d="M43,80.8531209 C43,80.8531209 44.4632107,74.9976262 48,75 C48,75 46.5054348,81.1736772 43.3344482,82 L43,80.8531209 Z" id="Path" fill="#F6BD60" fill-rule="nonzero"></path>
                <path d="M42,75.8815029 C42,75.8815029 43.763466,68.5903767 47,69.0181097 C47,69.0181097 45.7985948,74.5835546 42.1545667,77 L42,75.8815029 Z" id="Path" fill="#F6BD60" fill-rule="nonzero"></path>
                <path d="M42,70.4432167 C42,70.4432167 43.7327211,64.3683241 47,64 C47,64 45.8883519,69.9545734 42.1304978,72 L42,70.4432167 Z" id="Path" fill="#F6BD60" fill-rule="nonzero"></path>
                <path d="M41,65.0628994 C41,65.0628994 43.0264901,59.2119072 45,59 C45,59 44.2339956,64.7097208 41.2317881,66 L41,65.0628994 Z" id="Path" fill="#F6BD60" fill-rule="nonzero"></path>
                <path d="M40,60.5015974 C40,60.5015974 41.1095306,53.6492013 43,53 C43,53 42.9167852,58.5642173 40.2069701,61 L40,60.5015974 Z" id="Path" fill="#F6BD60" fill-rule="nonzero"></path>
                <path d="M39,53.817 C39,53.817 40.3377432,48.819 42,48 C42,48 41.8879377,53.8333333 39.4319066,55 L39,53.817 Z" id="Path" fill="#F6BD60" fill-rule="nonzero"></path>
                <path d="M38.6998586,50.5055898 L38,42 C38,42 41.7156127,48.3107461 39.0179761,52 L38.6998586,50.5055898 Z" id="Path" fill="#F6BD60" fill-rule="nonzero"></path>
                <path d="M35.8009238,41.4072398 C35.8009238,41.4072398 33.509645,35.3235294 33,35 C33,35 37.204571,38.8461538 36.9922189,44 L35.8009238,41.4072398 Z" id="Path" fill="#F6BD60" fill-rule="nonzero"></path>
                <path d="M56.9762995,108.004717 C56.9762995,108.004717 52.6587365,107.654511 53.021662,112.989095 C53.021662,112.989095 56.9262408,113.414188 58,108.95622 L56.9762995,108.004717 Z" id="Path" fill="#F6BD60" fill-rule="nonzero"></path>
                <path d="M52.0504088,103 C52.0504088,103 47.459946,103.162317 48.0528615,108.984545 C48.0528615,108.984545 51.9322889,109.53501 53,104.065644 L52.0504088,103 Z" id="Path" fill="#F6BD60" fill-rule="nonzero"></path>
                <path d="M49.6080729,100.231957 C49.6080729,100.231957 45.4335938,98.8582696 43,102.796765 C43,102.796765 46.8486328,103.929393 50,100.847015 L49.6080729,100.231957 Z" id="Path" fill="#F6BD60" fill-rule="nonzero"></path>
                <path d="M47.6203156,95.2904222 C47.6203156,95.2904222 43.3034188,93.7401816 41,97.8030104 C41,97.8030104 45.4756739,98.9020337 48,95.9082718 L47.6203156,95.2904222 Z" id="Path" fill="#F6BD60" fill-rule="nonzero"></path>
                <path d="M46.7660676,90.3756588 C46.7660676,90.3756588 42.2872373,87.0975974 39,90.6619348 C39,90.6619348 43.5446238,93.3311558 47,91.1296532 L46.7660676,90.3756588 Z" id="Path" fill="#F6BD60" fill-rule="nonzero"></path>
                <path d="M44.8087649,85.3392257 C44.8087649,85.3392257 40.2730616,82.0796843 37,85.7309975 C37,85.7309975 42.0432118,88.3656628 45,86.0424561 L44.8087649,85.3392257 Z" id="Path" fill="#F6BD60" fill-rule="nonzero"></path>
                <path d="M42.9908527,79.8096815 C42.9908527,79.8096815 39.658935,74.9544798 36,76.2062475 C36,76.2062475 39.4622672,81.3513807 43,80.9809127 L42.9908527,79.8096815 Z" id="Path" fill="#F6BD60" fill-rule="nonzero"></path>
                <path d="M41.8898694,75.9763752 C41.8898694,75.9763752 38.7320861,69.9782933 36,71.152319 C36,71.152319 38.2830921,75.7676097 42,77 L41.8898694,75.9763752 Z" id="Path" fill="#F6BD60" fill-rule="nonzero"></path>
                <path d="M41.6208626,69.7298695 C41.6208626,69.7298695 38.0962889,65.4204982 35,66.065873 C35,66.065873 37.9184219,70.4577203 42,71 L41.6208626,69.7298695 Z" id="Path" fill="#F6BD60" fill-rule="nonzero"></path>
                <path d="M42,65.1145929 C42,65.1145929 39.1452461,59.9718354 37,60.0001162 C37,60.0001162 38.4835165,65.1559264 41.859054,66 L42,65.1145929 Z" id="Path" fill="#F6BD60" fill-rule="nonzero"></path>
                <path d="M41,60.4969491 C41,60.4969491 38.0561998,54.9307841 36,55.0006523 C36,55.0006523 37.5789474,59.7982673 40.926405,61 L41,60.4969491 Z" id="Path" fill="#F6BD60" fill-rule="nonzero"></path>
                <path d="M40,54.8110294 C40,54.8110294 37.7424844,50.4389706 36,50 C36,50 37.2546795,55.3823529 39.8162223,56 L40,54.8110294 Z" id="Path" fill="#F6BD60" fill-rule="nonzero"></path>
                <path d="M38.2244079,49.7122381 L33,43 C33,43 34.5487756,49.7519294 39,51 L38.2244079,49.7122381 Z" id="Path" fill="#F6BD60" fill-rule="nonzero"></path>
                <path d="M35.7005048,42.2265322 C35.7005048,42.2265322 30.224341,38.6121024 30,38 C30,38 32.916433,43.2552366 38,44 L35.7005048,42.2265322 Z" id="Path" fill="#F6BD60" fill-rule="nonzero"></path>
                <path d="M34.8533333,42 C34.8533333,42 28.5511111,35.9285011 27,36.0006377 C27,36.0006377 32.0222222,36.0391106 35,41.6585533 L34.8533333,42 Z" id="Path" fill="#F6BD60" fill-rule="nonzero"></path>
                <path d="M40,55.962031 L39.7567896,56 C38.1321443,47.0549434 36.086745,41.808517 34,41.2233472 L34.070531,41 C36.2788812,41.6164384 38.336441,46.7869267 40,55.962031 Z" id="Path" fill="#444053" fill-rule="nonzero"></path>
                <path d="M43,76.9582156 L42.6422893,77 C42.5325914,76.1318127 42.4372019,75.2404118 42.363275,74.3536536 C41.7170111,66.6351433 40.9062003,59.5550061 40,54.2576706 L40.1979332,54 C41.1065183,59.3066209 42.0747218,66.5956803 42.7233704,74.3257973 C42.7972973,75.2079128 42.8903021,76.0923496 43,76.9582156 Z" id="Path" fill="#444053" fill-rule="nonzero"></path>
                <path d="M70.8350821,118 C70.7723668,117.975025 64.5101322,115.518385 57.8669604,109.34727 C53.976596,105.735283 50.696401,101.543487 48.1484181,96.9278436 C44.9638767,91.1586001 42.8803364,83.9975634 42,77 L42.371646,77.1543914 C44.3460152,92.8614465 52.1087705,103.360062 58.1665999,109.00216 C64.7447337,115.118784 70.9419303,117.550449 71,117.573153 L70.8350821,118 Z" id="Path" fill="#444053" fill-rule="nonzero"></path>
                <g id="Group" opacity="0.7" transform="translate(56.000000, 13.000000)" fill-rule="nonzero">
                    <path d="M17.6042,85.9688889 C17.6042,85.9688889 20.3895,85.0602469 22.4342,86.7798519 C22.4342,86.7798519 21.3371,87.9610864 18.4069,87.0388148 L17.6042,85.9688889 Z" id="Path" fill="#F6BD60"></path>
                    <path d="M17.2914,85.9734321 C17.2914,85.9734321 15.8332,88.4880988 17.1327,90.8074074 C17.1327,90.8074074 18.5127,89.9828148 18.193,86.9638519 L17.2914,85.9734321 Z" id="Path" fill="#F6BD60"></path>
                    <path d="M15.0535,82.5910123 C15.0535,82.5910123 15.8585,80.3375802 20.907,82.5024198 C20.907,82.5024198 20.5275,83.9948642 18.4874,84.2038519 C16.4473,84.4128395 15.7665,83.5973333 15.0535,82.5910123 Z" id="Path" fill="#F6BD60"></path>
                    <path d="M14.7338,82.4887901 C14.7338,82.4887901 12.3188,82.6023704 12.9674,88.0019753 C12.9674,88.0019753 14.5245,88.0701235 15.3134,86.2005926 C16.1023,84.3310617 15.5066,83.4519506 14.7338,82.4887901 Z" id="Path" fill="#F6BD60"></path>
                    <path d="M12.65,78.4248889 C12.65,78.4248889 13.3837,74.5631605 18.6507,76.3804444 C18.6507,76.3804444 18.0964,79.9082469 13.3492,79.5879506 L12.65,78.4248889 Z" id="Path" fill="#F6BD60"></path>
                    <path d="M10.2672,73.2001975 C10.2672,73.2001975 12.1762,69.1113086 17.1994,71.8190617 C17.1994,71.8190617 16.2058,75.5331358 10.8629,74.4586667 L10.2672,73.2001975 Z" id="Path" fill="#F6BD60"></path>
                    <path d="M8.878,68.1004444 C8.878,68.1004444 11.2585,64.238716 16.238,66.9214815 C16.238,66.9214815 13.938,70.3425185 9.0229,68.9659259 L8.878,68.1004444 Z" id="Path" fill="#F6BD60"></path>
                    <path d="M7.5923,63.1279012 C7.5923,63.1279012 9.9843,59.1117037 14.766,61.7853827 C14.766,61.7853827 11.9255,65.4472099 7.7303,63.957037 L7.5923,63.1279012 Z" id="Path" fill="#F6BD60"></path>
                    <path d="M7.1231,58.6051358 C7.1231,58.6051358 9.5013,53.5485432 13.9725,56.0018765 C13.9725,56.0018765 11.2608,60.4542222 7.2657,59.4706173 L7.1231,58.6051358 Z" id="Path" fill="#F6BD60"></path>
                    <path d="M6.9897,53.2555062 C6.9897,53.2555062 9.5634,48.2057284 13.9817,51.054321 C13.9817,51.054321 10.6996,55.5975309 7.1254,54.084642 L6.9897,53.2555062 Z" id="Path" fill="#F6BD60"></path>
                    <path d="M7.3278,48.4010864 C7.3278,48.4010864 10.5478,43.5262222 14.2646,44.6711111 C14.2646,44.6711111 10.9135,49.8344691 7.3462,49.5573333 L7.3278,48.4010864 Z" id="Path" fill="#F6BD60"></path>
                    <path d="M7.981,43.7465679 C7.981,43.7465679 11.661,37.8244938 14.5797,39.1352099 C14.5797,39.1352099 11.9025,43.6988642 7.8154,44.7778765 L7.981,43.7465679 Z" id="Path" fill="#F6BD60"></path>
                    <path d="M9.1057,38.2879012 C9.1057,38.2879012 12.3763,33.4062222 15.4445,33.9945679 C15.4445,33.9945679 12.7765,38.9443951 8.7929,39.6985679 L9.1057,38.2879012 Z" id="Path" fill="#F6BD60"></path>
                    <path d="M10.1108,33.1881481 C10.1108,33.1881481 13.8253,28.4177778 15.8493,28.8312099 C15.8493,28.8312099 13.4274,33.856 10.0671,34.1217778 L10.1108,33.1881481 Z" id="Path" fill="#F6BD60"></path>
                    <path d="M11.1343,28.4654815 C11.1343,28.4654815 14.1105,23.0136296 16.2311,23.0499753 C16.2311,23.0499753 14.6533,27.7453827 11.2148,28.9561481 L11.1343,28.4654815 Z" id="Path" fill="#F6BD60"></path>
                    <path d="M12.052,22.1708642 C12.052,22.1708642 14.7775,17.9138765 16.5807,17.6276543 C16.5807,17.6276543 14.7637,23.0204444 12.1141,23.3998025 L12.052,22.1708642 Z" id="Path" fill="#F6BD60"></path>
                    <path d="M12.5258,18.0001975 L14.4739,9.72701235 C14.4739,9.72701235 15.7872,16.7121975 12.351,19.4949136 L12.5258,18.0001975 Z" id="Path" fill="#F6BD60"></path>
                    <path d="M12.4292,9.23861728 C12.4292,9.23861728 11.8979,2.67822222 11.4701,2.19664198 C11.4701,2.19664198 14.6579,7.21234568 12.8777,12.0962963 L12.4292,9.23861728 Z" id="Path" fill="#F6BD60"></path>
                    <path d="M12.5097,78.3635556 C12.5097,78.3635556 8.8297,76.8552099 7.4934,82.2071111 C7.4934,82.2071111 10.7847,83.6791111 13.1123,79.5788642 L12.5097,78.3635556 Z" id="Path" fill="#F6BD60"></path>
                    <path d="M10.1246,73.0184691 C10.1246,73.0184691 5.7247,71.8304198 4.5931,77.3708642 C4.5931,77.3708642 8.1121,79.010963 10.7157,74.2792099 L10.1246,73.0184691 Z" id="Path" fill="#F6BD60"></path>
                    <path d="M8.74,68.4411852 C8.74,68.4411852 5.2486,65.5221728 1.38,69.6201481 C1.38,69.6201481 4.6506,72.1484444 8.8803,69.3066667 L8.74,68.4411852 Z" id="Path" fill="#F6BD60"></path>
                    <path d="M7.4934,63.1438025 C7.4934,63.1438025 3.9376,60.081679 0.2576,64.1092346 C0.2576,64.1092346 4.1262,66.6988642 7.6291,63.9729383 L7.4934,63.1438025 Z" id="Path" fill="#F6BD60"></path>
                    <path d="M7.1461,58.7346173 C7.1461,58.7346173 4.2205,53.9642469 0.0483,56.8855309 C0.0483,56.8855309 3.2384,61.0198519 7.1001,59.6114568 L7.1461,58.7346173 Z" id="Path" fill="#F6BD60"></path>
                    <path d="M7.2473,53.187358 C7.2473,53.187358 4.3217,48.3283951 0.1173,51.4722963 C0.1173,51.4722963 3.7145,55.7883457 7.1714,54.0233086 L7.2473,53.187358 Z" id="Path" fill="#F6BD60"></path>
                    <path d="M7.7717,48.3556543 C7.7717,48.3556543 6.0168,42.797037 2.1321,42.9038025 C2.1321,42.9038025 3.9261,48.7781728 7.4336,49.473284 L7.7717,48.3556543 Z" id="Path" fill="#F6BD60"></path>
                    <path d="M8.0684,43.7420247 C8.0684,43.7420247 6.624,36.9385679 3.4339,37.2020741 C3.4339,37.2020741 4.3953,42.3904198 7.8729,44.7687901 L8.0684,43.7420247 Z" id="Path" fill="#F6BD60"></path>
                    <path d="M9.4024,38.0380247 C9.4024,38.0380247 7.5256,32.4862222 4.4045,32.2704198 C4.4045,32.2704198 5.6856,37.7336296 9.3357,39.4827654 L9.4024,38.0380247 Z" id="Path" fill="#F6BD60"></path>
                    <path d="M10.4742,33.1722469 C10.4742,33.1722469 9.4668,27.2388148 7.4842,26.6595556 C7.4842,26.6595556 7.2289,32.2181728 10.0648,34.017284 L10.4742,33.1722469 Z" id="Path" fill="#F6BD60"></path>
                    <path d="M11.2631,28.3768889 C11.2631,28.3768889 10.0004,22.3003457 7.9557,21.7438025 C7.9557,21.7438025 8.1006,26.6890864 11.0446,28.8221235 L11.2631,28.3768889 Z" id="Path" fill="#F6BD60"></path>
                    <path d="M12.3993,22.6160988 C12.3993,22.6160988 11.5713,17.6458272 10.0211,16.6940247 C10.0211,16.6940247 9.5611,22.3594074 11.8611,23.736 L12.3993,22.6160988 Z" id="Path" fill="#F6BD60"></path>
                    <path d="M12.3257,17.773037 L9.6439,9.7042963 C9.6439,9.7042963 8.9539,16.7780741 12.6339,19.2563951 L12.3257,17.773037 Z" id="Path" fill="#F6BD60"></path>
                    <path d="M11.2332,9.51120988 C11.2332,9.51120988 6.9253,4.48869136 6.8931,3.85491358 C6.8931,3.85491358 8.211,9.63160494 12.9582,11.8555062 L11.2332,9.51120988 Z" id="Path" fill="#F6BD60"></path>
                    <path d="M11.3597,7.80523457 C11.3597,7.80523457 6.8586,0.411160494 5.3061,0.00227160494 C5.3061,0.00227160494 10.2557,1.56740741 11.5897,7.53491358 L11.3597,7.80523457 Z" id="Path" fill="#F6BD60"></path>
                    <path d="M12.1049,23.4520494 L11.8749,23.4202469 C13.1468,14.2861235 12.9099,8.62074074 11.2033,7.47358025 L11.3344,7.28503704 C13.1445,8.50488889 13.409,14.0953086 12.1049,23.4520494 Z" id="Path" fill="#444053"></path>
                    <path d="M8.0109,45.0322963 L7.6682,44.970963 C7.8246,44.1281975 7.9994,43.2695309 8.1926,42.417679 C9.8739,35.0236049 11.2148,28.1815309 11.9393,22.9750123 L12.1992,22.7887407 C11.4724,28.0134321 10.2143,35.0894815 8.533,42.4949136 C8.3398,43.3285926 8.165,44.182716 8.0109,45.0322963 Z" id="Path" fill="#444053"></path>
                    <path d="M22.701,91.838716 C22.6504,91.7978272 17.4708,87.6294321 13.041,79.7992099 C10.4521678,75.2173012 8.61542291,70.2588971 7.5992,65.1087407 C6.3273,58.6710123 6.5136,51.2246914 7.7924,44.2849383 L8.096,44.539358 C5.2325,60.1180247 9.407,72.4074074 13.4412,79.5606914 C17.8112,87.3159506 22.9356,91.4411852 22.9885,91.4820741 L22.701,91.838716 Z" id="Path" fill="#444053"></path>
                </g>
                <path d="M236.812157,183.012661 C236.812157,183.012661 226.929279,182.425526 228.095683,189.247805 C228.095683,189.247805 227.861934,190.452007 228.972239,191 C228.972239,191 228.990938,190.493452 229.986706,190.666139 C230.341031,190.724921 230.701203,190.741925 231.059611,190.716794 C231.544611,190.683307 232.005528,190.495883 232.373276,190.182616 L232.373276,190.182616 C232.373276,190.182616 235.150206,189.052093 236.230123,184.580657 C236.230123,184.580657 237.029542,183.604401 236.999155,183.35343 L235.330192,184.044177 C235.330192,184.044177 235.900538,185.229959 235.451741,186.213123 C235.451741,186.213123 235.397979,184.087924 235.077744,184.140881 C235.012295,184.152394 234.210538,184.553027 234.210538,184.553027 C234.210538,184.553027 235.192281,186.625268 234.444286,188.117282 C234.444286,188.117282 234.724784,185.57303 233.897315,184.700386 L232.728574,185.377319 C232.728574,185.377319 233.87394,187.509425 233.097896,189.247805 C233.097896,189.247805 233.296582,186.579219 232.480801,185.540795 L231.417246,186.358179 C231.417246,186.358179 232.494825,188.460353 231.837993,189.901712 C231.837993,189.901712 231.751506,186.795653 231.188172,186.560799 C231.188172,186.560799 230.253179,187.368973 230.115268,187.712044 C230.115268,187.712044 230.851575,189.236292 230.395766,190.042164 C230.395766,190.042164 230.115268,187.969923 229.883857,187.969923 C229.883857,187.969923 228.948864,189.339904 228.860039,190.272413 C228.860039,190.272413 228.899777,188.874801 229.659459,187.831773 C229.124873,187.930804 228.63154,188.182184 228.240606,188.554755 C228.240606,188.554755 228.38553,187.585407 229.876845,187.500215 C229.876845,187.500215 230.643539,186.461792 230.849237,186.397322 C230.849237,186.397322 229.350911,186.27529 228.443967,186.671318 C228.443967,186.671318 229.243387,185.750322 231.122723,186.171678 L232.172253,185.326664 C232.172253,185.326664 230.201755,185.061877 229.367273,185.354294 C229.367273,185.354294 230.327979,184.54612 232.455088,185.135557 L233.598117,184.46323 C233.598117,184.46323 231.919805,184.106344 230.919362,184.232981 C230.919362,184.232981 231.975904,183.671173 233.934715,184.279031 L234.752834,183.91754 C234.752834,183.91754 233.52098,183.687291 233.161008,183.641241 C232.801036,183.595191 232.782336,183.505394 232.782336,183.505394 C233.561098,183.377322 234.360674,183.465011 235.091769,183.758668 C235.091769,183.758668 236.842544,183.120878 236.812157,183.012661 Z" id="Path" fill="#F6BD60" fill-rule="nonzero"></path>
                <ellipse id="Oval" fill="#F6BD60" fill-rule="nonzero" opacity="0.1" cx="230" cy="192" rx="7" ry="1"></ellipse>
                <path d="M254.891177,166.006242 C254.891177,166.006242 249.401889,165.714265 250.053785,169.124068 C249.984876,169.478511 250.181033,169.832019 250.539828,170 C250.539828,170 250.551345,169.746817 251.10419,169.832573 C251.301091,169.86299 251.501455,169.871904 251.700802,169.859116 C251.969925,169.84297 252.225639,169.749006 252.428714,169.59164 L252.428714,169.59164 C252.428714,169.59164 253.972073,169.026062 254.573291,166.790293 C254.573291,166.790293 255.017871,166.302303 254.999443,166.177753 L254.078034,166.528943 C254.078034,166.528943 254.393617,167.121064 254.144837,167.613138 C254.144837,167.613138 254.114891,166.549361 253.93752,166.575904 C253.900663,166.575904 253.456084,166.780084 253.456084,166.780084 C253.456084,166.780084 253.999715,167.813234 253.589688,168.562574 C253.589688,168.562574 253.746328,167.290533 253.285624,166.85563 L252.633727,167.192527 C252.633727,167.192527 253.269499,168.258346 252.838741,169.128152 C252.838741,169.128152 252.94931,167.794858 252.495516,167.274199 L251.905815,167.682559 C251.905815,167.682559 252.502427,168.734085 252.136167,169.45484 C252.136167,169.45484 252.087793,167.903073 251.774514,167.784649 C251.550776,167.952814 251.350488,168.144055 251.177903,168.35431 C251.177903,168.35431 251.587929,169.117943 251.334542,169.520177 C251.334542,169.520177 251.177903,168.484986 251.051209,168.480902 C251.051209,168.480902 250.535221,169.166946 250.48224,169.63656 C250.50703,169.200768 250.660322,168.778358 250.926819,168.411481 C250.629334,168.461099 250.354702,168.586716 250.136712,168.772879 C250.136712,168.772879 250.217335,168.288973 251.05812,168.246095 C251.05812,168.246095 251.484271,167.725437 251.597143,167.69481 C251.597143,167.69481 250.765573,167.633556 250.261102,167.83161 C250.261102,167.83161 250.705681,167.374247 251.749176,167.580469 L252.33427,167.159858 C252.33427,167.159858 251.237794,167.027141 250.774787,167.174151 C250.774787,167.174151 251.309203,166.765791 252.490909,167.063894 L253.126681,166.726997 C252.637524,166.632111 252.136579,166.593679 251.636303,166.612656 C251.636303,166.612656 252.223701,166.33293 253.310962,166.637158 L253.771666,166.455438 C253.771666,166.455438 253.08061,166.337014 252.887115,166.318637 C252.693619,166.300261 252.675191,166.249216 252.675191,166.249216 C253.108611,166.185314 253.553531,166.229133 253.960555,166.375808 C253.960555,166.375808 254.907302,166.061371 254.891177,166.006242 Z" id="Path" fill="#F6BD60" fill-rule="nonzero"></path>
                <ellipse id="Oval" fill="#F6BD60" fill-rule="nonzero" opacity="0.1" cx="252" cy="170.5" rx="4" ry="1"></ellipse>
                <path d="M222.87563,169.007966 C222.87563,169.007966 216.285366,168.640065 217.063924,172.904755 C216.980977,173.348098 217.216742,173.790317 217.647843,174 C217.647843,174 217.647843,173.684958 218.323356,173.788563 C218.560085,173.825063 218.800562,173.836413 219.040087,173.822393 C219.362961,173.800695 219.669681,173.683555 219.91482,173.488322 L219.91482,173.488322 C219.91482,173.488322 221.76733,172.782121 222.488641,169.984806 C222.488641,169.984806 223.022182,169.375867 222.999283,169.219403 L221.888693,169.657078 C221.888693,169.657078 222.268813,170.399223 221.968839,171.014506 C221.968839,171.014506 221.934491,169.684565 221.719243,169.716281 C221.675735,169.716281 221.142194,169.97212 221.142194,169.97212 C221.142194,169.97212 221.794809,171.264002 221.302485,172.200669 C221.302485,172.200669 221.490255,170.61066 220.938395,170.065152 L220.155257,170.488027 C220.155257,170.488027 220.917786,171.820082 220.400274,172.908984 C220.400274,172.908984 220.533087,171.240743 219.990386,170.583174 L219.280524,171.092737 C219.280524,171.092737 219.999546,172.405763 219.562179,173.3086 C219.562179,173.3086 219.504932,171.367606 219.127103,171.2196 C219.127103,171.2196 218.506546,171.724935 218.412661,171.932143 C218.412661,171.932143 218.902695,172.885726 218.598141,173.388946 C218.598141,173.388946 218.412661,172.097064 218.25924,172.090721 C218.25924,172.090721 217.640973,172.947042 217.572277,173.534838 C217.60314,172.991764 217.787054,172.465546 218.105818,172.008261 C217.749581,172.070821 217.420886,172.228084 217.160099,172.460737 C217.160099,172.460737 217.256274,171.853912 218.25924,171.801052 C218.25924,171.801052 218.769882,171.15194 218.907275,171.111767 C218.907275,171.111767 217.908889,171.035649 217.304361,171.283031 C217.304361,171.283031 217.835613,170.710036 219.088175,170.970104 L219.788877,170.443625 C219.788877,170.443625 218.476778,170.276589 217.918048,170.46054 C217.918048,170.46054 218.559213,169.955205 219.978937,170.323106 L220.741466,169.900231 C220.741466,169.900231 219.621716,169.676108 218.953072,169.756454 C218.953072,169.756454 219.658354,169.407582 220.963583,169.786055 L221.510864,169.578846 C221.510864,169.578846 220.691088,169.43084 220.450651,169.407582 C220.210214,169.384324 220.198765,169.323007 220.198765,169.323007 C220.718455,169.243156 221.25195,169.298053 221.739852,169.481585 C221.739852,169.481585 222.896239,169.075626 222.87563,169.007966 Z" id="Path" fill="#F6BD60" fill-rule="nonzero"></path>
                <ellipse id="Oval" fill="#F6BD60" fill-rule="nonzero" opacity="0.1" cx="218.5" cy="174" rx="4.5" ry="1"></ellipse>
                <path d="M168,171.385451 L145.10081,180.171172 L111.629777,193 C110.367365,190.6751 108.504566,187.494493 106.198895,183.718512 C98.2728668,170.690471 85.1556553,150.427397 73.4812001,132.620522 C60.3228975,112.556661 49,95.6145491 49,95.6145491 L57.1976865,93.2579565 L124.158015,74 L168,171.385451 Z" id="Path" fill="#000000" fill-rule="nonzero" opacity="0.1"></path>
                <path d="M169,169.385451 L146.10081,178.171172 L112.629777,191 C111.367365,188.6751 109.504566,185.494493 107.198895,181.718512 C99.2728668,168.690471 86.1556553,148.427397 74.4812001,130.620522 C61.3228975,110.556661 50,93.6145491 50,93.6145491 L58.1976865,91.2579565 L125.158015,72 L169,169.385451 Z" id="Path" fill="#FFFFFF" fill-rule="nonzero"></path>
                <path d="M169,169.598642 L146.059954,178.403596 C133.247486,181.051196 120.172948,182.243903 107.088633,181.958701 C99.1484641,168.902141 86.0078497,148.594708 74.3125657,130.748851 L58,91.300115 L125.079795,72 L169,169.598642 Z" id="Path" fill="#000000" fill-rule="nonzero" opacity="0.1"></path>
                <path d="M185,164.072519 C185,164.072519 149.433728,185.035079 96.3353659,180.304972 L54,77.4729068 L74.2867422,74.0003717 L144.415105,62 L184.205784,162.084965 L185,164.072519 Z" id="Path" fill="#F6BD60" fill-rule="nonzero"></path>
                <path d="M185,162.761797 C176.693557,163.173901 167.087959,163.13498 157.418987,161.969641 C146.957848,160.728749 136.446915,158.159965 127.416205,153.457397 C119.874769,149.52638 113.426525,145.256521 107.802135,140.130401 C93.1787205,126.82401 84.1276397,107.78937 76,74.0815251 L145.54779,62 L185,162.761797 Z" id="Path" fill="#000000" fill-rule="nonzero" opacity="0.1"></path>
                <path d="M211,156.012912 C211,156.012912 184.727248,161.123011 158.010977,157.975717 C147.444264,156.739037 136.815825,154.199871 127.705407,149.539063 C120.087864,145.642953 113.574544,141.411011 107.893393,136.330412 C89.6039724,119.992621 79.954017,94.9821854 70,44.4507584 C70,44.4507584 113.665991,54.909214 156.808448,32 C156.808448,32 171.359968,122.146033 211,156.012912 Z" id="Path" fill="#FFFFFF" fill-rule="nonzero"></path>
                <path d="M158,158 C147.458079,156.777054 136.854575,154.266088 127.765532,149.657039 C120.165861,145.804198 113.667822,141.619254 108,136.595078 C123.530061,135.35418 125.762978,127 125.762978,127 C137.276526,144.978429 158,158 158,158 Z" id="Path" fill="#000000" fill-rule="nonzero" opacity="0.1"></path>
                <path d="M92,62.4674335 C92,62.4674335 115.498855,65.0914252 137.492958,53 L139,57.7348372 C139,57.7348372 117.958676,68 92,68 L92,62.4674335 Z" id="Path" fill="#F6BD60" fill-rule="nonzero" opacity="0.3"></path>
                <path d="M93,87.2839835 C93,87.2839835 116.246274,85.4212488 142.124846,73 L143,74.9872187 C143,74.9872187 133.475865,86.8901611 93,90 L93,87.2839835 Z" id="Path" fill="#000000" fill-rule="nonzero" opacity="0.3"></path>
                <path d="M96,96.2703206 C96,96.2703206 119.246274,94.4090728 145.124846,82 L146,83.9856326 C146,83.9856326 136.478144,95.8903818 96,99 L96,96.2703206 Z" id="Path" fill="#000000" fill-rule="nonzero" opacity="0.3"></path>
                <path d="M98,106.270321 C98,106.270321 121.246274,104.409073 147.124846,92 L148,93.9856326 C148,93.9856326 138.46447,105.883597 98,109 L98,106.270321 Z" id="Path" fill="#000000" fill-rule="nonzero" opacity="0.3"></path>
                <path d="M101,115.268422 C101,115.268422 124.246274,113.407422 150.124846,101 L151,102.985368 C151,102.985368 141.478144,114.884012 101,118 L101,115.268422 Z" id="Path" fill="#000000" fill-rule="nonzero" opacity="0.3"></path>
                <path d="M104,124.270321 C104,124.270321 127.246274,122.409073 153.124846,110 L154,111.985633 C154,111.985633 144.475865,123.885859 104,127 L104,124.270321 Z" id="Path" fill="#000000" fill-rule="nonzero" opacity="0.1"></path>
                <polygon id="Rectangle" fill="#F6BD60" fill-rule="nonzero" opacity="0.3" transform="translate(150.146644, 70.670079) rotate(-18.800000) translate(-150.146644, -70.670079) " points="146.704613 67.2379995 153.581012 67.2456632 153.588675 74.102159 146.712277 74.0944954"></polygon>
                <polygon id="Rectangle" fill="#F6BD60" fill-rule="nonzero" opacity="0.3" transform="translate(153.851266, 80.322610) rotate(-18.800000) translate(-153.851266, -80.322610) " points="150.409235 76.8905303 157.285633 76.8981939 157.293297 83.7546898 150.416898 83.7470261"></polygon>
                <polygon id="Rectangle" fill="#F6BD60" fill-rule="nonzero" opacity="0.3" transform="translate(159.790223, 98.895040) rotate(-18.800000) translate(-159.790223, -98.895040) " points="156.348192 95.4629603 163.224591 95.4706239 163.232255 102.32712 156.355856 102.319456"></polygon>
                <polygon id="Rectangle" fill="#F6BD60" fill-rule="nonzero" opacity="0.3" transform="translate(163.197745, 108.863102) rotate(-18.800000) translate(-163.197745, -108.863102) " points="159.755714 105.431022 166.632112 105.438686 166.639776 112.295182 159.763377 112.287518"></polygon>
                <polygon id="Rectangle" fill="#F6BD60" fill-rule="nonzero" opacity="0.3" transform="translate(156.871818, 90.349949) rotate(-18.800000) translate(-156.871818, -90.349949) " points="153.429787 86.9178694 160.306185 86.925533 160.313849 93.7820289 153.43745 93.7743652"></polygon>
                <path d="M227.025783,114.604337 L226.782797,114.376421 C227.409566,114.248788 228,114.191809 228,114.191809 C228,114.191809 225.849457,106.383407 222.222828,103.778327 C220.428816,102.490602 218.934563,100.345912 217.878594,98.5066299 C215.953696,95.1807597 213.791447,91.9990954 211.408797,88.9865786 L210.754778,88.1592435 L210.473186,87.7991362 C210.866052,87.2019963 211.347483,86.6344854 211.292981,85.9416208 C211.291919,85.9371248 211.291919,85.9324418 211.292981,85.9279458 C211.295255,85.891515 211.295255,85.854977 211.292981,85.8185462 C211.286379,85.7328961 211.271162,85.6481359 211.247563,85.5655594 L211.222584,85.6043051 C210.916012,84.7108744 209.737414,84.3165797 208.863117,83.8242811 C206.819307,82.668747 205.94501,80.1434377 205.508997,77.7959029 C205.168361,75.9725749 204.88677,73.9213309 203.465186,72.7475635 C202.556825,71.9931615 201.321455,71.7447331 200.406282,70.9948894 C199.538798,70.2837915 199.055096,69.2057488 198.51008,68.2143142 C197.601719,66.5619232 196.402684,65.0234902 194.819866,64.0366139 C193.237048,63.0497376 191.2273,62.6691179 189.490061,63.3300743 C188.824687,63.5853402 188.220627,63.9819141 187.562066,64.2576925 C185.927017,64.9414405 184.053524,64.8502741 182.434372,65.5727678 C180.440521,66.4616402 179.143836,68.4262761 177.958426,70.290629 C177.345283,71.2547137 176.382421,72.6655137 175.835133,74.0854304 C175.835133,74.0352889 175.835133,73.9874265 175.835133,73.937285 C175.572624,74.5629125 175.429351,75.2324025 175.412746,75.9110376 C175.40199,76.1997203 175.433357,76.48843 175.505853,76.7680018 C175.75111,77.6796658 176.48234,78.1833601 177.349824,78.5343508 C177.400051,78.8243569 177.466773,79.1112403 177.549664,79.3935941 C178.346466,82.0254849 180.372169,84.1019387 182.977117,84.9570237 C183.052057,84.9843736 183.129267,85.0026069 183.204207,85.0253985 C183.267326,85.2058164 183.358536,85.3750541 183.474444,85.5268137 C184.198862,86.4384777 185.652238,86.1786534 186.596933,85.5154179 C186.635539,85.4903471 186.671873,85.4584389 186.708207,85.431089 C186.714569,85.5601538 186.728216,85.6887528 186.749084,85.816267 C186.769522,85.9256667 186.785418,86.044183 186.808127,86.1421869 C187.659715,90.7483693 189.83978,93.2349328 189.83978,93.2349328 C189.83978,93.2349328 190.04189,93.5403403 190.371171,94.0463138 C190.198582,96.5875772 191.354471,98.9032038 192.689761,100.692344 C191.538414,101.360138 189.056319,102.668376 187.52119,102.558976 C187.52119,102.558976 181.880272,103.290587 181.226252,102.923642 C181.135416,102.873501 181.049122,102.941875 180.96737,103.096858 C179.414073,102.146448 174.447613,99.4068981 174.022954,102.923642 C173.639172,106.114466 178.165078,106.522436 180.320163,106.53839 C180.222514,107.472845 180.168013,108.22041 180.168013,108.22041 L189.435559,107.584524 L194.261224,106.871147 C193.727562,107.579966 193.125774,108.211293 192.53761,108.51898 C192.53761,108.51898 188.175209,112.063074 187.42127,112.094982 C187.314538,112.094982 187.280474,112.202102 187.296371,112.373039 C185.461483,112.373039 179.754709,112.639701 181.337527,115.830525 C182.775007,118.722779 186.821752,116.721677 188.652099,115.616284 C189.08357,116.457294 189.451456,117.115971 189.451456,117.115971 L196.929533,111.771341 L198.548685,110.403845 C199.09746,110.377315 199.639636,110.272169 200.158754,110.0916 C200.158754,110.112113 200.17465,110.132625 200.181463,110.150858 C200.239292,110.318499 200.2826,110.490835 200.310904,110.665949 C200.765084,113.284703 199.239039,119.392852 199.239039,119.392852 C199.239039,119.392852 195.882647,127.983006 197.494987,129.154495 C199.107327,130.325983 197.915104,135.269481 197.915104,135.269481 C198.196528,135.744639 198.520323,136.193192 198.882508,136.609627 L198.882508,136.609627 C199.053249,136.807509 199.24261,136.988401 199.447962,137.149788 C199.373036,137.354645 199.310845,137.56397 199.261748,137.776557 C199.015388,138.829728 199.108418,139.934198 199.527443,140.930914 C200.635643,143.62944 199.961186,147.540478 199.961186,147.540478 L197.785662,162.291202 C196.741048,162.131661 195.392133,161.99947 194.890264,162.291202 C194.120428,162.726522 194.372498,164.921353 196.159697,165.864925 C195.617074,166.281894 194.988711,166.572304 194.320267,166.715052 C192.730637,167.079717 191.613354,167.312192 190.877582,167.453499 C190.829893,167.453499 187.062468,166.619327 186.095064,167.170884 C185.12766,167.72244 185.593195,170.781073 188.345527,171.530917 C191.038816,172.262527 201.083011,173.336011 203.976138,172.898413 L204.160081,172.866504 C206.619467,172.378764 204.45984,169.13552 204.187332,168.741225 C204.169165,168.609034 204.153269,168.470005 204.135102,168.31958 C204.096496,167.982265 204.062433,167.594807 204.037453,167.18 C206.780701,167.432987 209.487615,167.556062 210.729798,167.369171 C210.788841,167.369171 210.843343,167.350937 210.893303,167.339541 C213.071097,166.906501 211.16354,164.039318 210.918283,163.692885 C210.907685,163.604758 210.896331,163.511312 210.884219,163.412549 L210.884219,163.387478 C210.884219,163.321382 210.868323,163.250728 210.86151,163.182354 C210.854698,163.113979 210.86151,163.066116 210.843343,163.004579 C210.825176,162.943042 210.843343,162.895179 210.827447,162.8382 C210.818363,162.725762 210.80928,162.609525 210.800196,162.489489 C210.800196,162.441627 210.800196,162.391485 210.800196,162.341344 C210.800196,162.250177 210.788841,162.159011 210.7843,162.065565 C210.7843,162.015424 210.7843,161.965282 210.7843,161.912861 C210.7843,161.776112 210.7843,161.634804 210.770674,161.493496 C210.770674,161.45475 210.770674,161.416005 210.770674,161.377259 C210.770674,161.263301 210.770674,161.149343 210.770674,161.030827 C210.770674,160.976127 210.770674,160.921427 210.770674,160.864448 C210.770674,160.743652 210.770674,160.622857 210.770674,160.499782 C210.770674,160.458757 210.770674,160.420012 210.770674,160.378987 C210.770674,160.226283 210.7843,160.069021 210.793383,159.911759 L210.807009,159.743101 C210.807009,159.626864 210.825176,159.515185 210.83653,159.396669 C210.83653,159.33969 210.83653,159.282711 210.854698,159.225732 C210.872865,159.066191 210.893303,158.906649 210.916012,158.744829 C210.916012,158.696967 210.931908,158.649104 210.938721,158.601242 C210.959159,158.480446 210.979597,158.357372 211.002306,158.234297 C211.002306,158.175039 211.025015,158.113502 211.038641,158.051964 C211.065891,157.919773 211.095413,157.787582 211.127206,157.655391 C211.127206,157.618924 211.143102,157.582457 211.152186,157.545991 C211.193062,157.38645 211.23848,157.229188 211.286169,157.071926 C211.302065,157.017226 211.320232,156.962526 211.338399,156.907826 C211.377005,156.78931 211.417881,156.67991 211.461028,156.556835 L211.51553,156.410969 C211.576844,156.255986 211.6427,156.103283 211.710827,155.955137 C211.728994,155.916391 211.749433,155.877646 211.769871,155.8389 C211.826643,155.720384 211.887958,155.610984 211.951543,155.487909 L212.028753,155.353439 C212.115048,155.207573 212.203613,155.061706 212.301261,154.922678 C214.799253,151.348955 215.457814,144.456775 215.3965,142.957088 C215.335185,141.4574 215.693988,138.346347 216.141355,137.885957 C216.441114,137.57827 218.185166,135.150965 219.227509,133.304845 C219.415994,132.967529 219.579499,132.650726 219.708941,132.36811 C220.449254,132.110565 220.939769,131.912278 220.939769,131.912278 L220.939769,131.912278 L220.939769,131.912278 C220.678853,130.955397 220.55348,129.96641 220.567341,128.974441 C220.585508,127.034876 221.116899,124.479937 223.310589,122.405902 C226.548894,119.342711 227.000804,116.30687 227.043951,115.13994 C227.043951,115.05789 227.043951,114.984957 227.043951,114.92342 C227.037138,114.709178 227.025783,114.604337 227.025783,114.604337 Z" id="Path" fill="url(#linearGradient-1)" fill-rule="nonzero"></path>
                <path d="M218.262328,132.542382 C217.378254,134.123554 216.385995,135.641636 215.292652,137.085762 C214.863191,137.543073 214.518252,140.632206 214.577645,142.116179 C214.637039,143.600152 214.008838,150.441518 211.607969,153.985675 C209.2071,157.529832 210.440658,163.655507 210.440658,163.655507 L206.609776,165 L202.006778,165 L198.836078,164.051081 L198,161.741662 C198,161.741662 199.114771,161.570171 201.883423,160.911643 C203.461596,160.590007 204.633197,159.256561 204.750302,157.648732 L206.694298,144.059749 C206.694298,144.059749 207.267674,140.629919 206.321946,138.256478 C205.78211,136.902821 205.896759,135.375528 206.63262,134.117817 L206.694298,134.021782 C206.694298,134.021782 209.69367,131.650626 212.750152,130.166653 C215.457126,128.858745 218.202934,128.236803 218.981903,130.557654 C219.082415,130.857192 218.753467,131.627761 218.262328,132.542382 Z" id="Path" fill="#A5636D" fill-rule="nonzero"></path>
                <path d="M218.262328,132.543057 C217.378254,134.124531 216.385995,135.642902 215.292652,137.087303 C214.863191,137.544701 214.518252,140.634423 214.577645,142.118679 C214.637039,143.602934 214.008838,150.445604 211.607969,153.990437 C209.917538,156.490115 210.029472,160.26822 210.23735,162.283057 C210.32644,163.126956 210.436089,163.655251 210.436089,163.655251 L206.605207,165 L202.006778,165 L198.836078,164.057761 L198,161.747902 C198,161.747902 198.278693,161.704449 198.913746,161.580952 C199.5488,161.457455 200.512803,161.247052 201.897129,160.917725 C203.469903,160.59064 204.634782,159.258222 204.750302,157.654192 L206.694298,144.062619 C206.694298,144.062619 207.267674,140.632136 206.321946,138.258242 C205.78211,136.904327 205.896759,135.376743 206.63262,134.118792 L206.694298,134.022739 C206.694298,134.022739 209.69367,131.651131 212.750152,130.166876 C215.457126,128.858718 218.202934,128.236657 218.981903,130.557951 C219.082415,130.857546 218.753467,131.628262 218.262328,132.543057 Z" id="Path" fill="#000000" fill-rule="nonzero" opacity="0.05"></path>
                <path d="M211,163.823215 L206.996878,165 L202.186926,165 L198.873669,164.167445 L198,162.146097 C198,162.146097 198.291223,162.108072 198.954829,162 C198.857824,162.760127 199.453245,163.461246 200.341719,163.633089 L202.222732,163.687125 C202.487697,163.687125 202.75505,163.699133 203.017628,163.699133 C205.663473,163.700329 208.291323,163.334481 210.794712,162.616411 C210.890195,163.354903 211,163.823215 211,163.823215 Z" id="Path" fill="#000000" fill-rule="nonzero" opacity="0.1"></path>
                <path d="M202.64893,164.593466 L200.820783,164.535105 C200.820783,164.535105 199.11544,164.197907 199.532508,162.393031 C199.532508,162.393031 196.242307,161.697019 195.40122,162.157424 C194.560134,162.61783 194.965616,165.157625 197.342902,165.780145 C199.659945,166.387534 208.339587,167.280245 210.835042,166.914947 L210.994918,166.889008 C213.256352,166.456703 210.994918,163.430564 210.994918,163.430564 L210.994918,163.430564 C208.311588,164.287339 205.483514,164.681393 202.64893,164.593466 L202.64893,164.593466 Z" id="Path" fill="#BEBED0" fill-rule="nonzero"></path>
                <path d="M213.468246,133.412817 C213.345642,133.657399 213.213785,133.911211 213.063421,134.176559 C211.918347,136.253199 210.081601,138.867458 209.760055,139.206643 C209.269639,139.72811 208.878694,143.244554 208.941153,144.942784 C209.003612,146.641014 208.291121,154.421491 205.547568,158.459402 C204.143406,160.536042 203.826486,163.36258 203.849619,165.637654 C203.856532,166.408568 203.902083,167.178656 203.986103,167.945032 C204.087887,168.884135 204.217431,169.470209 204.217431,169.470209 L199.840702,171 L194.573358,171 L190.948446,169.924762 L190,167.285122 C190,167.285122 190.31692,167.23436 191.02941,167.09361 C191.741901,166.95286 192.852277,166.717507 194.439188,166.343712 C196.238247,165.972524 197.572353,164.456297 197.707856,162.628834 L199.926293,147.153251 C199.926293,147.153251 200.580952,143.242246 199.502962,140.542614 C199.096044,139.540583 199.005649,138.438491 199.243875,137.383814 C199.372857,136.791389 199.607952,136.227039 199.937859,135.717888 C199.937859,135.717888 200.784521,135.053363 202.061452,134.174252 C202.625893,133.786612 203.280552,133.35744 203.98379,132.923653 C207.074334,131.015452 211.138771,129.068025 213.086554,130.487062 C213.516183,130.810339 213.830728,131.262355 213.984108,131.776886 C214.062759,132.044542 213.842997,132.651383 213.468246,133.412817 Z" id="Path" fill="#A5636D" fill-rule="nonzero"></path>
                <path d="M204,168.825162 L199.686696,170 L194.507084,170 L190.934701,169.174247 L190,167.147076 C190,167.147076 190.312327,167.108092 191.014493,167 C190.923414,167.487764 191.150785,167.978757 191.620909,168.30951 C191.980374,168.546989 192.434978,168.67981 192.906693,168.685174 L194.54128,168.72593 C194.82625,168.72593 195.113499,168.738334 195.398469,168.738334 C198.251169,168.737784 201.084205,168.371374 203.783423,167.653869 C203.883732,168.375074 204,168.825162 204,168.825162 Z" id="Path" fill="#000000" fill-rule="nonzero" opacity="0.1"></path>
                <path d="M194.552206,169.111349 L192.909518,169.056201 C192.434334,169.048069 191.976498,168.876011 191.613262,168.56906 C191.195708,168.19681 190.835509,167.553416 191.069523,166.471134 C191.069523,166.471134 187.398711,165.63702 186.451183,166.1885 C185.503655,166.739981 185.967095,169.789211 188.621551,170.536008 C191.220944,171.264423 200.911888,172.335215 203.701705,171.898626 L203.878363,171.866456 C206.402046,171.347145 203.878363,167.711967 203.878363,167.711967 L203.878363,167.711967 C200.880636,168.743224 197.720064,169.217466 194.552206,169.111349 L194.552206,169.111349 Z" id="Path" fill="#BEBED0" fill-rule="nonzero"></path>
                <path d="M218.261871,132.793418 C216.709344,133.379388 214.429282,134.156595 213.178194,134.188468 C213.048726,134.193854 212.919068,134.187292 212.790629,134.168854 L212.790629,134.168854 C211.915775,134.038911 209.211885,134.24731 206.732374,134.487583 C205.737397,134.583201 204.78095,134.683723 203.989954,134.771987 C202.811394,134.904381 202,135 202,135 L202,134.168854 C202.553017,133.756959 203.194426,133.300932 203.883431,132.840001 C206.911425,130.812398 210.8936,128.743114 212.801962,130.250945 C215.48772,128.848539 218.212008,128.181661 218.984872,130.670196 C219.075531,130.986472 218.74916,131.812715 218.261871,132.793418 Z" id="Path" fill="#000000" fill-rule="nonzero" opacity="0.1"></path>
                <path d="M225.998286,115.382307 C225.954736,116.499633 225.519237,119.399832 222.397397,122.330885 C218.418311,126.066324 220.105297,131.43037 220.105297,131.43037 C220.105297,131.43037 215.36065,133.222059 213.313805,133.270543 C213.182872,133.275384 213.051747,133.269486 212.921856,133.252912 C211.69329,133.087627 206.815702,133.521776 204.012464,133.795047 C202.820572,133.914052 202,134 202,134 L202,118.132648 L223.988114,113 L225.979949,114.906286 C225.997214,115.064381 226.00334,115.223417 225.998286,115.382307 Z" id="Path" fill="#5C5C8E" fill-rule="nonzero"></path>
                <g id="Group"></g>
                <g id="Group" opacity="0.1" transform="translate(202.000000, 113.000000)" fill="#000000" fill-rule="nonzero">
                    <path d="M0.516509434,21.5826804 L0.143867925,21.6212371 L0.143867925,21.7936082 C0.143867925,21.7936082 0.988207547,21.7051546 2.21462264,21.5826804 C4.28537736,21.3808247 7.44811321,21.0973196 9.54009434,21.0134021 C8.09198113,20.8863918 3.30896226,21.3105155 0.516509434,21.5826804 Z" id="Path"></path>
                    <path d="M24.8183962,2.14329897 L22.7688679,0.179175258 L21.4033019,0.508041237 L23.120283,2.15237113 C23.131865,2.31623708 23.131865,2.48067014 23.120283,2.64453608 C23.0754717,3.79216495 22.6273585,6.77917526 19.4150943,9.7956701 C15.3207547,13.637732 17.0566038,19.1604124 17.0566038,19.1604124 C17.0566038,19.1604124 13.0165094,20.6845361 10.7028302,20.9997938 C10.9234479,20.9991143 11.143928,21.0104728 11.3632075,21.0338144 C11.4967873,21.051695 11.6317158,21.0585242 11.7665094,21.0542268 C13.8726415,21.0043299 18.754717,19.1604124 18.754717,19.1604124 C18.754717,19.1604124 17.009434,13.637732 21.1132075,9.7956701 C24.3254717,6.77917526 24.7735849,3.79216495 24.8183962,2.64453608 C24.8304096,2.47765675 24.8304096,2.3101783 24.8183962,2.14329897 Z" id="Path"></path>
                </g>
                <path d="M183,104.059459 C183,104.059459 175.570795,99.7276653 175.025133,103.628863 C174.47947,107.530061 183,106.972439 183,106.972439 L183,104.059459 Z" id="Path" fill="#A5636D" fill-rule="nonzero"></path>
                <path d="M194.009412,101 C194.009412,101 190.317647,103.418876 188.275294,103.269735 C188.275294,103.269735 182.694118,104.010778 182.044706,103.640256 C181.395294,103.269735 181,109 181,109 L190.176471,108.359161 L196.058824,107.468978 C196.058824,107.468978 199,105.693271 199,104.162249 C199,102.631226 194.009412,101 194.009412,101 Z" id="Path" fill="#F7CDDD" fill-rule="nonzero"></path>
                <path d="M194.009412,101 C194.009412,101 190.317647,103.418876 188.275294,103.269735 C188.275294,103.269735 182.694118,104.010778 182.044706,103.640256 C181.395294,103.269735 181,109 181,109 L190.176471,108.359161 L196.058824,107.468978 C196.058824,107.468978 199,105.693271 199,104.162249 C199,102.631226 194.009412,101 194.009412,101 Z" id="Path" fill="#000000" fill-rule="nonzero" opacity="0.05"></path>
                <path d="M188.376901,113.007695 C188.376901,113.007695 180.491679,112.668724 182.257861,116.490278 C184.024044,120.311832 190,115.673032 190,115.673032 L188.376901,113.007695 Z" id="Path" fill="#A5636D" fill-rule="nonzero"></path>
                <path d="M197,105 C197,105 190.124446,99.9833703 191.093613,93.8738236 C192.06278,87.7642769 197,98.5503826 197,98.5503826 L197,105 Z" id="Path" fill="#5C5C8E" fill-rule="nonzero"></path>
                <path d="M193.999999,76.9981077 C193.997761,79.0729945 193.190769,81.0660704 191.748923,82.5577175 C191.397972,82.924264 191.010862,83.2543686 190.593503,83.5429929 C189.796653,84.0988144 188.907967,84.5095598 187.968355,84.7563207 C187.594956,84.8496084 187.21555,84.9169304 186.832856,84.957804 C186.558389,84.9843732 186.281708,84.9998719 186.0006,84.9998719 C185.102942,85.0050148 184.211125,84.8552112 183.364384,84.5570516 C179.519145,83.2144708 177.29619,79.1963165 178.201198,75.224212 C179.106205,71.2521076 182.850222,68.5942776 186.897307,69.0509545 C190.944392,69.5076315 194.00238,72.9330063 193.999999,77.0069641 L193.999999,76.9981077 Z" id="Path" fill="#A5636D" fill-rule="nonzero"></path>
                <path d="M225.990371,115.426697 C225.241602,115.561388 224.317195,115.803834 224.317195,116.18097 C224.317195,116.816267 213.876019,120.239682 213.876019,120.239682 C213.876019,120.239682 214.266581,121.124158 213.224312,122.646175 C212.182043,124.168192 203.695987,132.914177 203.695987,132.914177 L203.723719,133.174581 L203.832337,134.182525 L204.350005,139 C204.350005,139 201.086849,137.85961 200.042269,137.985322 C199.70486,138.027974 199.348964,137.816957 199,137.513901 C199.128856,136.937527 199.363721,136.388467 199.693305,135.89311 C199.693305,135.89311 200.539138,135.24659 201.814819,134.391297 L201.814819,118.228285 L223.984408,113 L225.992683,114.941806 C226.003158,115.103302 226.002385,115.265302 225.990371,115.426697 Z" id="Path" fill="#000000" fill-rule="nonzero" opacity="0.1"></path>
                <path d="M227,114.787926 C227,114.787926 224.455884,115.04472 224.455884,115.693586 C224.455884,116.342451 214.283924,119.838986 214.283924,119.838986 C214.283924,119.838986 214.664415,120.742353 213.64902,122.296879 C212.633625,123.851404 204.366375,132.786485 204.366375,132.786485 L205.003529,139 C205.003529,139 201.82451,137.835252 200.806864,137.96365 C200.356578,138.02097 199.850006,137.594507 199.433492,137.096968 C199.089279,136.681935 198.782588,136.236082 198.51716,135.764845 C198.51716,135.764845 199.663137,130.842182 198.136668,129.677434 C196.610198,128.512687 199.789217,119.967384 199.789217,119.967384 C199.789217,119.967384 201.22563,113.891437 200.802361,111.284512 C200.776132,111.11013 200.735461,110.93832 200.680784,110.770922 C200.680784,110.75258 200.669527,110.731945 200.662772,110.713602 C199.7622,108.22361 190,87.3269395 190,87.3269395 C190.006135,86.7342326 190.046732,86.1424159 190.121577,85.5545973 C190.14184,85.3918078 190.168857,85.2221398 190.198126,85.0501791 C190.247616,84.7410048 190.313757,84.4348349 190.396252,84.133055 C190.447944,83.9395947 190.509568,83.7490295 190.580869,83.5621453 C190.882561,82.7734187 191.344104,82.165824 192.033041,82.1520671 C192.033041,82.1520671 192.796276,81.2922634 194.586163,81.0583967 C195.896495,80.8841432 197.767433,81.0583967 200.300292,82.1520671 C206.273336,84.7383569 207.673725,84.8713399 207.673725,84.8713399 L210.674881,88.8837575 L211.291773,89.7068763 C213.55308,92.7104009 215.600359,95.8749235 217.417914,99.1761819 C218.417549,101.01043 219.833698,103.140451 221.531277,104.422131 C224.964707,107.019885 227,114.787926 227,114.787926 Z" id="Path" fill="#F7CDDD" fill-rule="nonzero"></path>
                <path d="M204,99 C204,99 212.648442,101.271785 216,107 L204,99 Z" id="Path" fill="#000000" fill-rule="nonzero" opacity="0.1"></path>
                <path d="M207,108 C207,108 208.296979,119.124126 207.936808,119.960701 C207.576637,120.797276 207,108 207,108 Z" id="Path" fill="#000000" fill-rule="nonzero" opacity="0.1"></path>
                <path d="M205.784859,114.78897 C205.129745,115.616442 202.468643,122.012634 202.468643,122.012634 L203.236131,132.753628 L203.912763,139 C203.912763,139 200.539165,137.829093 199.458466,137.95817 C198.98028,138.015793 198.439931,137.587075 198,137.086905 C198.700542,133.428974 200.199653,125.774287 200.469828,125.626771 C200.826076,125.430852 202.650354,119.281287 202.745991,117.559501 C202.841628,115.837716 205.376011,112 205.376011,112 C205.376011,112 206.444755,113.961499 205.784859,114.78897 Z" id="Path" fill="#000000" fill-rule="nonzero" opacity="0.1"></path>
                <path d="M202.96252,104.235435 C202.809351,104.712801 202.573032,107.493286 202.573032,107.493286 C202.402357,109.941199 200.603706,110.742087 199.498695,111 C199.473203,110.827931 199.433676,110.658401 199.380535,110.493223 C198.638756,108.323585 189,87.3692702 189,87.3692702 C189.010159,86.3061615 189.139391,85.2478479 189.385113,84.2154896 C191.483539,83.5774939 194.805135,84.5593739 194.805135,84.5593739 C195.765728,84.4281549 198.899145,90.8691973 198.899145,90.8691973 C198.899145,90.8691973 200.98663,95.8012213 201.216385,96.4731531 C201.446139,97.1450848 201.216385,98.2468718 201.308287,98.6314792 C201.400189,99.0160865 202.376099,99.3463964 202.513952,99.8757972 C202.651805,100.405198 202.562091,101.459475 202.653993,101.647254 C202.745895,101.835032 203.117878,103.755807 202.96252,104.235435 Z" id="Path" fill="#000000" fill-rule="nonzero" opacity="0.1"></path>
                <path d="M203.961107,104.414939 C203.800748,104.898734 203.553336,107.701095 203.553336,107.701095 C203.406721,109.754943 202.078027,110.667764 200.969254,111.057995 C200.469473,111.23595 199.946147,111.339752 199.416056,111.366072 L197.855986,112.717047 L190.651256,118 C190.651256,118 187.966377,113.054791 188.694868,113.027407 C189.423359,113.000022 193.624782,109.48566 193.624782,109.48566 C194.90995,108.801044 196.197409,106.518991 196.795321,105.346016 C196.760902,105.206199 196.734893,105.06446 196.717432,104.921554 C196.458566,102.733066 191.024665,94.3533671 191.024665,94.3533671 C191.024665,94.3533671 188.923953,91.8910319 188.106119,87.3292081 C188.08321,87.2242336 188.067174,87.1169771 188.046557,87.0074386 C188.023363,86.8654879 188.009588,86.7221685 188.005321,86.5784126 C187.906815,84.8235139 189.189692,84.1845391 190.710818,84.0339236 L190.710818,84.0339236 C191.505264,83.9710989 192.304238,83.9955883 193.093304,84.1069493 C193.879506,84.2055924 194.657949,84.3580905 195.423101,84.5633598 C196.073703,84.4766418 197.6773,87.1717464 198.728801,89.0818247 L198.728801,89.0818247 C199.294641,90.1178768 199.702413,90.9257235 199.702413,90.9257235 C199.702413,90.9257235 201.887886,95.9028811 202.128426,96.5783687 C202.368965,97.2538564 202.128426,98.3697803 202.224641,98.7554473 C202.320857,99.1411142 203.342577,99.4788581 203.486901,100.012858 C203.631225,100.546859 203.5373,101.610296 203.633515,101.799706 C203.729731,101.989116 204.123758,103.931143 203.961107,104.414939 Z" id="Path" fill="#F7CDDD" fill-rule="nonzero"></path>
                <path d="M211,92.8077651 C209.644649,94.2481886 207.455757,94.2528882 205.698318,93.5127032 C203.94088,92.7725182 202.452252,91.4472346 200.823572,90.4156753 C199.766398,89.7436343 198.645975,89.1937826 197.604613,88.5005935 L197.604613,88.5005935 C197.451007,88.3972025 197.301918,88.2938116 197.152829,88.1857211 C195.951085,87.3021987 194.909723,86.1672484 193.665059,85.3659688 C192.832555,84.7899761 191.863143,84.4646821 190.864,84.4260514 C190.403987,84.4217469 189.948536,84.5211511 189.528979,84.7174258 C189.451202,84.750301 189.375722,84.7887742 189.303088,84.8325657 C188.893291,85.077003 188.513956,85.3729495 188.173628,85.7137383 C187.821237,86.0427094 187.484658,86.3928286 187.114196,86.7006516 C187.091606,86.5925611 187.075794,86.4821208 187.055464,86.3693307 C187.032593,86.2231663 187.01901,86.0755926 187.014803,85.9275695 C186.734697,85.955767 186.452332,85.9722156 186.16545,85.9722156 C185.249351,85.9776736 184.339213,85.8186892 183.475078,85.5022568 C183.475078,85.4670099 183.475078,85.431763 183.454748,85.3965161 C183.149794,83.7234631 182.598617,81.9517187 181.304257,81.0118013 C180.554296,80.4666491 179.357069,80.2434188 178.317967,79.8369045 C177.328745,76.2548513 178.700336,72.4204655 181.699935,70.3823569 C184.699535,68.3442482 188.626078,68.5787625 191.381718,70.9606048 C194.137358,73.3424472 195.078048,77.3149348 193.701202,80.7556738 C195.015893,80.5770894 196.893054,80.7556738 199.434337,81.8765253 C205.427248,84.5270925 206.832295,84.6633805 206.832295,84.6633805 L209.843434,88.7755193 C209.518149,89.2924739 209.149946,89.8023791 209.116062,90.4062761 C209.059589,91.5130289 210.096433,92.286111 211,92.8077651 Z" id="Path" fill="#000000" fill-rule="nonzero" opacity="0.1"></path>
                <path d="M181.055334,79.4803117 C182.361041,80.3859776 182.917048,82.0908937 183.226954,83.7007149 C183.322661,84.2033595 183.413809,84.7331741 183.723715,85.1316671 C184.407332,86.0237481 185.811023,85.7724258 186.715675,85.1316671 C187.620327,84.4909085 188.333567,83.5195817 189.34304,83.0667488 C190.682928,82.4644809 192.259802,82.9037289 193.515377,83.6848658 C194.770952,84.4660027 195.821443,85.5595943 197.033722,86.4018636 C198.207263,87.2237554 199.515249,87.8101741 200.736643,88.550556 C202.3796,89.5445244 203.881277,90.8283059 205.654122,91.5347253 C207.426966,92.2411447 209.641883,92.2388806 211,90.8554759 C210.088512,90.3528313 209.042579,89.6101852 209.113219,88.5324427 C209.18386,87.4547003 210.446271,86.6509217 210.361958,85.5460093 C210.277646,84.4410968 208.96966,84.0086414 208.030827,83.4652418 C206.071128,82.3331594 205.234837,79.842578 204.815553,77.5444507 C204.489695,75.7467038 204.220806,73.7383896 202.869525,72.5836655 C201.996775,71.8410195 200.818677,71.5987538 199.939091,70.8629002 C199.107358,70.1632733 198.644777,69.1059083 198.116114,68.1300533 C197.243364,66.5066471 196.097168,64.9964491 194.581819,64.0251224 C193.06647,63.0537957 191.138672,62.6666235 189.475206,63.332288 C188.837164,63.5836103 188.256091,63.9730466 187.627164,64.2379539 C186.059404,64.9172034 184.266051,64.8198443 182.714242,65.5285279 C180.802396,66.4024955 179.560493,68.3315639 178.423411,70.1632733 C177.461791,71.7323395 175.554502,74.499149 176.094559,76.5368974 C176.632337,78.6086082 179.63797,78.4976641 181.055334,79.4803117 Z" id="Path" fill="#4C3E42" fill-rule="nonzero"></path>
                <g id="Group" opacity="0.1" transform="translate(176.000000, 73.000000)" fill="#000000" fill-rule="nonzero">
                    <path d="M35.3150649,12.3101235 C35.3078855,12.2229675 35.2930221,12.1366215 35.2706494,12.0520988 C34.9153247,12.612716 34.4735065,13.1569136 34.4314286,13.8137037 C34.4223394,13.9656264 34.4349343,14.1180729 34.4688312,14.2664198 C34.8638961,13.6354321 35.3711688,13.0419753 35.3150649,12.3101235 Z" id="Path"></path>
                    <path d="M30.8828571,16.9311111 C29.0641558,16.1992593 27.525974,14.8692593 25.8405195,13.8395062 C24.5851948,13.0724691 23.2433766,12.4649383 22.0394805,11.6134568 C20.7958442,10.7314815 19.7181818,9.59851852 18.4301299,8.79864198 C17.1420779,7.99876543 15.5267532,7.53432099 14.1498701,8.15592593 C13.1142857,8.62506173 12.3849351,9.62197531 11.4545455,10.2975309 C10.5241558,10.9730864 9.09818182,11.2358025 8.38519481,10.2975309 C8.06727273,9.88469136 7.97376623,9.33580247 7.87558442,8.81506173 C7.56,7.14728395 6.98727273,5.38098765 5.65012987,4.44271605 C4.19376623,3.42234568 1.11038961,3.53728395 0.551688312,1.39333333 C0.458455185,1.00978551 0.433917574,0.612660358 0.479220779,0.220493827 C0.121558442,1.17753086 -0.0631168831,2.13925926 0.154285714,2.97666667 C0.715324675,5.13 3.7987013,5.01506173 5.25272727,6.02604938 C6.59220779,6.96432099 7.1625974,8.73296296 7.48051948,10.4007407 C7.5787013,10.9214815 7.67220779,11.4703704 7.98779221,11.8832099 C8.68909091,12.8074074 10.1290909,12.547037 11.0594805,11.8714815 C11.9898701,11.1959259 12.7168831,10.201358 13.7548052,9.73222222 C15.1293506,9.11061728 16.747013,9.56567901 18.0350649,10.3749383 C19.3231169,11.1841975 20.4007792,12.3171605 21.6444156,13.1897531 C22.8483117,14.0435802 24.1901299,14.6487654 25.4431169,15.4158025 C27.1285714,16.4479012 28.6690909,17.7779012 30.4877922,18.5097531 C32.3064935,19.2416049 34.5787013,19.2369136 35.9719481,17.8060494 C35.6115566,17.6117851 35.2696147,17.3848741 34.9503896,17.1281481 C33.6833766,17.5949383 32.1709091,17.4495062 30.8828571,16.9311111 Z" id="Path"></path>
                </g>
                <path d="M166.662944,105.80442 L184.68625,99.1084913 C185.111949,98.9496605 185.583678,98.9657648 185.997427,99.1532534 C186.411176,99.3407421 186.732968,99.6842184 186.891852,100.107951 L186.891852,100.107951 C187.050791,100.531711 187.033983,101.000918 186.845123,101.41235 C186.656264,101.823783 186.310825,102.143739 185.8848,102.301831 L167.861493,109 L164,108.614558 L166.662944,105.80442 Z" id="Path" fill="#5C5C8E" fill-rule="nonzero"></path>
                <path d="M186.3489,99.3150874 L186.3489,99.3150874 C186.680016,100.221361 186.229295,101.230132 185.341848,101.568997 L167.318541,108.441122 L164.416789,108.144434 L164,108.604416 L167.861493,109 L185.8848,102.125575 C186.310825,101.963323 186.656264,101.634948 186.845123,101.212689 C187.033983,100.79043 187.050791,100.308876 186.891852,99.873965 L186.891852,99.873965 C186.759763,99.5113474 186.513271,99.2038854 186.191196,99 C186.253229,99.0998051 186.306025,99.2052895 186.3489,99.3150874 Z" id="Path" fill="#FFFFFF" fill-rule="nonzero" opacity="0.1"></path>
                <polygon id="Path" fill="#EFC8C4" fill-rule="nonzero" points="166.067638 106 167 109 164.538776 108.703366 164 108.638149 164.736443 107.69986"></polygon>
                <path d="M163.803348,108 C163.86697,108.0507 163.920569,108.114872 163.960942,108.188679 C164.013019,108.277509 164.013019,108.391255 163.960942,108.480084 C163.91667,108.526652 163.866114,108.565538 163.811035,108.595388 C163.684663,108.686137 163.603801,108.835469 163.59194,109 L163,108.93501 L163.803348,108 Z" id="Path" fill="#727A9C" fill-rule="nonzero"></path>
                <path d="M150.044015,70.9652953 L147.1934,69.5832122 C147.111289,69.543389 147.048459,69.4727705 147.018737,69.3868961 C146.989014,69.3010216 146.994834,69.2069274 147.034915,69.1253184 L147.337092,68.5077919 C147.376723,68.4257733 147.447749,68.3629476 147.534308,68.3333473 C147.620867,68.3037469 147.715746,68.3098379 147.797755,68.3502597 L149.718593,69.2807502 L151.723955,65.193313 C151.807441,65.0234872 152.013009,64.9522524 152.184618,65.0336803 L152.805879,65.3361423 C152.888393,65.3755343 152.951599,65.4461339 152.981378,65.5321723 C153.011158,65.6182107 153.00503,65.71252 152.964364,65.7940361 L150.504678,70.807763 C150.464614,70.8893803 150.393568,70.951832 150.307174,70.9813759 C150.220781,71.0109199 150.126117,71.0051354 150.044015,70.9652953 L150.044015,70.9652953 Z" id="Path" fill="#3ACC6C" fill-rule="nonzero"></path>
                <path d="M157.045659,90.9699953 L154.193504,89.5877967 C154.111349,89.5479701 154.048485,89.4773458 154.018747,89.3914641 C153.989008,89.3055825 153.994831,89.2114805 154.034933,89.1298646 L154.337275,88.5122865 C154.421609,88.3420421 154.628627,88.2716041 154.8003,88.354741 L156.72006,89.2853094 L158.724392,85.1933292 C158.807923,85.0234892 159.013601,84.9522484 159.185303,85.0336831 L159.804785,85.3361704 C159.887313,85.3756191 159.950643,85.4460822 159.980791,85.5320014 C160.01094,85.6179205 160.005427,85.7122286 159.96547,85.7941025 L157.504456,90.8082487 C157.419302,90.9775658 157.213179,91.0476999 157.04143,90.9657941 L157.045659,90.9699953 Z" id="Path" fill="#3ACC6C" fill-rule="nonzero"></path>
                <path d="M154.045171,79.9653255 L151.194487,78.584445 C151.02363,78.5015325 150.951963,78.2973789 151.033885,78.1269496 L151.338183,77.5099604 C151.377814,77.4280132 151.448843,77.3652422 151.535403,77.3356676 C151.621964,77.306093 151.716846,77.3121786 151.798857,77.3525652 L153.71974,78.2822462 L155.725151,74.1920697 C155.765216,74.1105235 155.836263,74.0481261 155.922659,74.0186079 C156.009055,73.9890896 156.10372,73.9948691 156.185825,74.0346745 L156.807101,74.3347747 C156.977432,74.4192971 157.047985,74.6238931 156.965589,74.7943687 L154.503731,79.8079303 C154.463666,79.8894765 154.392619,79.9518739 154.306223,79.9813921 C154.219827,80.0109104 154.125162,80.0051309 154.043057,79.9653255 L154.045171,79.9653255 Z" id="Path" fill="#3ACC6C" fill-rule="nonzero"></path>
                <path d="M160.044015,98.9657948 L157.1934,97.5836241 C157.111289,97.5437984 157.048459,97.4731755 157.018737,97.3872956 C156.989014,97.3014156 156.994834,97.2073155 157.034915,97.1257013 L157.337092,96.5081357 C157.377157,96.4265132 157.448202,96.3640576 157.534596,96.3345117 C157.62099,96.3049659 157.715653,96.3107508 157.797755,96.3505934 L159.718593,97.281143 L161.723955,93.1934467 C161.808296,93.0233372 162.014514,92.9521988 162.186731,93.0338038 L162.805879,93.336285 C162.888393,93.3756795 162.951599,93.4462835 162.981378,93.5323274 C163.011158,93.6183712 163.00503,93.7126866 162.964364,93.7942078 L160.506791,98.8082526 C160.421683,98.9775663 160.215671,99.0476989 160.044015,98.9657948 L160.044015,98.9657948 Z" id="Path" fill="#3ACC6C" fill-rule="nonzero"></path>
                <path d="M44.8607769,157 C44.8607769,157 46.2630129,158.763809 44.2150414,161.425392 C42.1670699,164.086974 40.4749599,166.335944 41.1513326,168 C41.1513326,168 44.2433217,163.055441 46.7579197,162.987428 C49.2725176,162.919415 47.6275416,159.974444 44.8607769,157 Z" id="Path" fill="#3ACC6C" fill-rule="nonzero"></path>
                <path d="M44.8192031,157 C44.9433777,157.170024 45.0413186,157.356031 45.1100538,157.552377 C47.5918206,160.323318 48.9244888,162.908623 46.5285468,162.985594 C44.3042544,163.044454 41.6365338,166.820539 41,167.773616 C41.0191834,167.850586 41.0438756,167.926223 41.0739047,168 C41.0739047,168 44.2017414,163.062564 46.7454928,162.994649 C49.2892442,162.926734 47.6180448,159.970158 44.8192031,157 Z" id="Path" fill="#000000" fill-rule="nonzero" opacity="0.1"></path>
                <path d="M48,159.522457 C48,160.329195 47.7737226,161 47.4963504,161 C47.2189781,161 47,160.343971 47,159.522457 C47,158.700943 47.2773723,159.09397 47.5547445,159.09397 C47.8321168,159.09397 48,158.712763 48,159.522457 Z" id="Path" fill="#FFD037" fill-rule="nonzero"></path>
                <path d="M48.5278602,161.508721 C47.7464139,161.856923 47.0626484,162.069565 47.0040399,161.979192 C46.9454314,161.888819 47.5315161,161.537959 48.3064504,161.181783 C49.0813846,160.825607 48.7785742,161.086094 48.8371826,161.181783 C48.8957911,161.277472 49.3125625,161.160519 48.5278602,161.508721 Z" id="Path" fill="#FFD037" fill-rule="nonzero"></path>
                <path d="M38.1381502,157 C38.1381502,157 36.7384555,158.763809 38.786157,161.425392 C40.8338585,164.086974 42.523389,166.335944 41.8494619,168 C41.8494619,168 38.7602368,163.055441 36.243614,162.987428 C33.7269912,162.919415 35.3717503,159.974444 38.1381502,157 Z" id="Path" fill="#3ACC6C" fill-rule="nonzero"></path>
                <path d="M38.1833282,157 C38.0607511,157.170493 37.9637849,157.35641 37.8952326,157.552377 C35.4142769,160.323318 34.0857037,162.908623 36.478564,162.985594 C38.6976146,163.044454 41.3619039,166.820539 42,167.773616 C41.9800358,167.850634 41.9545801,167.92627 41.9238094,168 C41.9238094,168 38.8023767,163.04219 36.2547542,162.974275 C33.7071317,162.906359 35.3880864,159.970158 38.1833282,157 Z" id="Path" fill="#000000" fill-rule="nonzero" opacity="0.1"></path>
                <path d="M35,159.522457 C35,160.329195 35.2189781,161 35.4963504,161 C35.7737226,161 36,160.343971 36,159.522457 C36,158.700943 35.7226277,159.09397 35.4452555,159.09397 C35.1678832,159.09397 35,158.712763 35,159.522457 Z" id="Path" fill="#FFD037" fill-rule="nonzero"></path>
                <path d="M34.4722923,161.508721 C35.2569163,161.856923 35.9373579,162.069565 35.9959605,161.979192 C36.0545631,161.888819 35.4685369,161.537959 34.69368,161.181783 C33.9188231,160.825607 34.2183476,161.086094 34.159745,161.181783 C34.1011424,161.277472 33.690924,161.160519 34.4722923,161.508721 Z" id="Path" fill="#FFD037" fill-rule="nonzero"></path>
                <ellipse id="Oval" fill="#F6BD60" fill-rule="nonzero" opacity="0.1" cx="41.5" cy="180" rx="14.5" ry="2"></ellipse>
                <path d="M47.996885,166.791059 L47.931328,167.319156 L47.8417334,168.064576 L47.8023992,168.375349 L47.7128047,169.12077 L47.6712852,169.431543 L47.5816907,170.176964 L46.5415196,178.652592 C46.4475546,179.408879 45.2041568,180 43.7007162,180 L38.3010046,180 C36.7997493,180 35.5585368,179.408879 35.4602013,178.652592 L34.4200302,170.176964 L34.3282504,169.431543 L34.2911014,169.12077 L34.1971364,168.375349 L34.1599874,168.064576 L34.0682076,167.319156 L34.0026506,166.791059 C33.9523903,166.356411 34.6232569,166 35.4733127,166 L46.5284082,166 C47.3806492,166 48.0515158,166.362931 47.996885,166.791059 Z" id="Path" fill="#65617D" fill-rule="nonzero"></path>
                <polygon id="Path" fill="#9D9CB5" fill-rule="nonzero" points="48 167 47.9072848 168 34.0905077 168 34 167"></polygon>
                <polygon id="Path" fill="#9D9CB5" fill-rule="nonzero" points="48 168 47.905527 169 34.094473 169 34 168"></polygon>
                <polygon id="Path" fill="#9D9CB5" fill-rule="nonzero" points="49 169 48.9036855 170 35.0963145 170 35 169"></polygon>
            </g>
        </g>
    </g>
</svg>