<?xml version="1.0" encoding="UTF-8"?>
<svg width="146px" height="110px" viewBox="0 0 146 110" version="1.1" xmlns="http://www.w3.org/2000/svg" xmlns:xlink="http://www.w3.org/1999/xlink">
    <!-- Generator: Sketch 53.2 (72643) - https://sketchapp.com -->
    <title>undraw_old_day_6x25</title>
    <desc>Created with Sketch.</desc>
    <defs>
        <linearGradient x1="49.998857%" y1="100.004054%" x2="49.998857%" y2="0%" id="linearGradient-1">
            <stop stop-color="#808080" stop-opacity="0.25" offset="0%"></stop>
            <stop stop-color="#808080" stop-opacity="0.12" offset="54%"></stop>
            <stop stop-color="#808080" stop-opacity="0.1" offset="100%"></stop>
        </linearGradient>
        <linearGradient x1="49.999029%" y1="100.00847%" x2="49.999029%" y2="0.00100022097%" id="linearGradient-2">
            <stop stop-color="#808080" stop-opacity="0.25" offset="0%"></stop>
            <stop stop-color="#808080" stop-opacity="0.12" offset="54%"></stop>
            <stop stop-color="#808080" stop-opacity="0.1" offset="100%"></stop>
        </linearGradient>
        <linearGradient x1="49.999029%" y1="100.00847%" x2="49.999029%" y2="0.00100022097%" id="linearGradient-3">
            <stop stop-color="#808080" stop-opacity="0.25" offset="0%"></stop>
            <stop stop-color="#808080" stop-opacity="0.12" offset="54%"></stop>
            <stop stop-color="#808080" stop-opacity="0.1" offset="100%"></stop>
        </linearGradient>
        <linearGradient x1="50.0723589%" y1="99.9461787%" x2="50.0723589%" y2="-0.0538213132%" id="linearGradient-4">
            <stop stop-color="#808080" stop-opacity="0.25" offset="0%"></stop>
            <stop stop-color="#808080" stop-opacity="0.12" offset="54%"></stop>
            <stop stop-color="#808080" stop-opacity="0.1" offset="100%"></stop>
        </linearGradient>
        <linearGradient x1="50.0127603%" y1="99.9912538%" x2="50.0127603%" y2="0.0511486427%" id="linearGradient-5">
            <stop stop-color="#808080" stop-opacity="0.25" offset="0%"></stop>
            <stop stop-color="#808080" stop-opacity="0.12" offset="54%"></stop>
            <stop stop-color="#808080" stop-opacity="0.1" offset="100%"></stop>
        </linearGradient>
        <linearGradient x1="50.0127603%" y1="99.9912538%" x2="50.0127603%" y2="0.0511486427%" id="linearGradient-6">
            <stop stop-color="#808080" stop-opacity="0.25" offset="0%"></stop>
            <stop stop-color="#808080" stop-opacity="0.12" offset="54%"></stop>
            <stop stop-color="#808080" stop-opacity="0.1" offset="100%"></stop>
        </linearGradient>
        <linearGradient x1="49.9972315%" y1="100.020498%" x2="49.9972315%" y2="0.0105640193%" id="linearGradient-7">
            <stop stop-color="#808080" stop-opacity="0.25" offset="0%"></stop>
            <stop stop-color="#808080" stop-opacity="0.12" offset="54%"></stop>
            <stop stop-color="#808080" stop-opacity="0.1" offset="100%"></stop>
        </linearGradient>
        <linearGradient x1="49.9972315%" y1="100.020498%" x2="49.9972315%" y2="0.0105640193%" id="linearGradient-8">
            <stop stop-color="#808080" stop-opacity="0.25" offset="0%"></stop>
            <stop stop-color="#808080" stop-opacity="0.12" offset="54%"></stop>
            <stop stop-color="#808080" stop-opacity="0.1" offset="100%"></stop>
        </linearGradient>
        <linearGradient x1="49.9928806%" y1="100.022374%" x2="49.9928806%" y2="-0.0587198234%" id="linearGradient-9">
            <stop stop-color="#808080" stop-opacity="0.25" offset="0%"></stop>
            <stop stop-color="#808080" stop-opacity="0.12" offset="54%"></stop>
            <stop stop-color="#808080" stop-opacity="0.1" offset="100%"></stop>
        </linearGradient>
        <linearGradient x1="50.0049169%" y1="100.000692%" x2="50.0049169%" y2="0.00906871248%" id="linearGradient-10">
            <stop stop-color="#808080" stop-opacity="0.25" offset="0%"></stop>
            <stop stop-color="#808080" stop-opacity="0.12" offset="54%"></stop>
            <stop stop-color="#808080" stop-opacity="0.1" offset="100%"></stop>
        </linearGradient>
        <linearGradient x1="50.0049169%" y1="100.000692%" x2="50.0049169%" y2="0.00906871248%" id="linearGradient-11">
            <stop stop-color="#808080" stop-opacity="0.25" offset="0%"></stop>
            <stop stop-color="#808080" stop-opacity="0.12" offset="54%"></stop>
            <stop stop-color="#808080" stop-opacity="0.1" offset="100%"></stop>
        </linearGradient>
        <linearGradient x1="50.0048511%" y1="100.000608%" x2="50.0048511%" y2="0.0126611095%" id="linearGradient-12">
            <stop stop-color="#808080" stop-opacity="0.25" offset="0%"></stop>
            <stop stop-color="#808080" stop-opacity="0.12" offset="54%"></stop>
            <stop stop-color="#808080" stop-opacity="0.1" offset="100%"></stop>
        </linearGradient>
        <linearGradient x1="50.002324%" y1="100%" x2="50.002324%" y2="0%" id="linearGradient-13">
            <stop stop-color="#808080" stop-opacity="0.25" offset="0%"></stop>
            <stop stop-color="#808080" stop-opacity="0.12" offset="54%"></stop>
            <stop stop-color="#808080" stop-opacity="0.1" offset="100%"></stop>
        </linearGradient>
        <linearGradient x1="49.9958708%" y1="100.004423%" x2="49.9958708%" y2="0.0832676291%" id="linearGradient-14">
            <stop stop-color="#808080" stop-opacity="0.25" offset="0%"></stop>
            <stop stop-color="#808080" stop-opacity="0.12" offset="54%"></stop>
            <stop stop-color="#808080" stop-opacity="0.1" offset="100%"></stop>
        </linearGradient>
        <linearGradient x1="50.0017437%" y1="99.9990923%" x2="50.0017437%" y2="-0.00329148392%" id="linearGradient-15">
            <stop stop-color="#808080" stop-opacity="0.25" offset="0%"></stop>
            <stop stop-color="#808080" stop-opacity="0.12" offset="54%"></stop>
            <stop stop-color="#808080" stop-opacity="0.1" offset="100%"></stop>
        </linearGradient>
        <linearGradient x1="50.0106205%" y1="100%" x2="50.0106205%" y2="0.00734683498%" id="linearGradient-16">
            <stop stop-color="#808080" stop-opacity="0.25" offset="0%"></stop>
            <stop stop-color="#808080" stop-opacity="0.12" offset="54%"></stop>
            <stop stop-color="#808080" stop-opacity="0.1" offset="100%"></stop>
        </linearGradient>
        <linearGradient x1="50.0099701%" y1="99.977314%" x2="50.0099701%" y2="1.93432687e-13%" id="linearGradient-17">
            <stop stop-color="#808080" stop-opacity="0.25" offset="0%"></stop>
            <stop stop-color="#808080" stop-opacity="0.12" offset="54%"></stop>
            <stop stop-color="#808080" stop-opacity="0.1" offset="100%"></stop>
        </linearGradient>
        <linearGradient x1="50%" y1="100.011228%" x2="50%" y2="0%" id="linearGradient-18">
            <stop stop-color="#808080" stop-opacity="0.25" offset="0%"></stop>
            <stop stop-color="#808080" stop-opacity="0.12" offset="54%"></stop>
            <stop stop-color="#808080" stop-opacity="0.1" offset="100%"></stop>
        </linearGradient>
        <linearGradient x1="50.0266186%" y1="99.9845934%" x2="50.0266186%" y2="0.00377160416%" id="linearGradient-19">
            <stop stop-color="#808080" stop-opacity="0.25" offset="0%"></stop>
            <stop stop-color="#808080" stop-opacity="0.12" offset="54%"></stop>
            <stop stop-color="#808080" stop-opacity="0.1" offset="100%"></stop>
        </linearGradient>
        <linearGradient x1="50.0177431%" y1="99.9945905%" x2="50.0177431%" y2="0.0137686866%" id="linearGradient-20">
            <stop stop-color="#808080" stop-opacity="0.25" offset="0%"></stop>
            <stop stop-color="#808080" stop-opacity="0.12" offset="54%"></stop>
            <stop stop-color="#808080" stop-opacity="0.1" offset="100%"></stop>
        </linearGradient>
        <linearGradient x1="50.0359856%" y1="100.002236%" x2="50.0359856%" y2="-0.0175855634%" id="linearGradient-21">
            <stop stop-color="#808080" stop-opacity="0.25" offset="0%"></stop>
            <stop stop-color="#808080" stop-opacity="0.12" offset="54%"></stop>
            <stop stop-color="#808080" stop-opacity="0.1" offset="100%"></stop>
        </linearGradient>
        <linearGradient x1="49.9948914%" y1="99.9836826%" x2="49.9948914%" y2="0%" id="linearGradient-22">
            <stop stop-color="#808080" stop-opacity="0.25" offset="0%"></stop>
            <stop stop-color="#808080" stop-opacity="0.12" offset="54%"></stop>
            <stop stop-color="#808080" stop-opacity="0.1" offset="100%"></stop>
        </linearGradient>
        <linearGradient x1="50%" y1="100%" x2="50%" y2="0%" id="linearGradient-23">
            <stop stop-color="#808080" stop-opacity="0.25" offset="0%"></stop>
            <stop stop-color="#808080" stop-opacity="0.12" offset="54%"></stop>
            <stop stop-color="#808080" stop-opacity="0.1" offset="100%"></stop>
        </linearGradient>
        <linearGradient x1="49.9969003%" y1="100%" x2="49.9969003%" y2="0.00393502668%" id="linearGradient-24">
            <stop stop-color="#808080" stop-opacity="0.25" offset="0%"></stop>
            <stop stop-color="#808080" stop-opacity="0.12" offset="54%"></stop>
            <stop stop-color="#808080" stop-opacity="0.1" offset="100%"></stop>
        </linearGradient>
        <linearGradient x1="50%" y1="99.929473%" x2="50%" y2="-0.00734935512%" id="linearGradient-25">
            <stop stop-color="#808080" stop-opacity="0.25" offset="0%"></stop>
            <stop stop-color="#808080" stop-opacity="0.12" offset="54%"></stop>
            <stop stop-color="#808080" stop-opacity="0.1" offset="100%"></stop>
        </linearGradient>
    </defs>
    <g id="Hive-LP" stroke="none" stroke-width="1" fill="none" fill-rule="evenodd">
        <g id="Desktop" transform="translate(-834.000000, -846.000000)" fill-rule="nonzero">
            <g id="Group-5" transform="translate(-540.000000, -170.000000)">
                <g id="Group-3" transform="translate(760.000000, 890.000000)">
                    <g id="O-que-é-3" transform="translate(559.000000, 103.000000)">
                        <g id="undraw_old_day_6x25" transform="translate(55.000000, 23.000000)">
                            <path d="M122.885736,21.5325386 C123.84241,30.6538021 131.296058,38.2991033 138.334446,43.4248854 C140.689336,45.1413652 143.232144,46.9104172 144.717092,49.7335403 C146.531882,53.1783287 146.212552,57.2408396 145.049562,60.3241947 C142.931213,65.945469 138.191208,69.5243164 132.708729,69.6347178 C127.977923,69.7319763 122.90939,67.4161742 118.20618,67.6803491 C110.334645,68.1166978 105.154412,75.5898252 101.808681,83.5045585 C99.4432777,89.1034897 97.1501509,95.6460905 91.8871291,97.0418804 C88.1839593,98.0276077 83.7921943,96.0929536 80.083768,93.1568004 C78.2926322,91.7386674 76.5264646,90.0432164 74.5644942,89.4241796 C73.4001903,89.0561748 72.2477133,89.1008611 71.1478009,89.2598918 C61.0935239,90.7174539 54.4519978,101.218736 44.2190014,101.958688 C37.3080822,102.463381 29.7387925,98.2904684 23.5309236,92.3642757 C17.3230547,86.438083 12.2637204,78.8558684 7.46720872,71.252625 C4.05840011,65.8495249 0.581257643,59.9285894 0.0648113126,53.7802795 C-0.488430176,47.2744792 2.56162563,41.8122355 6.86797328,39.1034568 C11.1743209,36.3946781 16.592408,36.0805597 21.9447894,36.6641102 C28.63888,37.3909198 35.7876537,39.4070608 41.5723782,36.8205123 C45.5147166,35.0593461 48.3518862,31.3411827 51.4190254,28.1001112 C56.5440654,22.6825538 62.5088234,18.4531265 68.4946072,14.3327862 C74.224139,10.3898769 80.0587998,6.49428253 86.6293638,4.34408266 C91.2865796,2.81817676 96.2355284,3.33338357 101.020213,2.44754328 C104.139917,1.87056422 106.733976,0.0817976974 110.011373,0.00425381437 C114.048327,-0.0982618276 119.030129,1.63793257 121.56111,6.75977176 C123.971193,11.6240075 122.377174,16.6919603 122.885736,21.5325386 Z" id="Path" fill="#F6BD60" opacity="0.1"></path>
                            <path d="M104,1.92153736 L95.1004686,1.37883968 L89.9509887,1.00917605 L89.9509887,1 L89.8871414,1 L89.8154761,1 L89.8154761,1.01048691 L62.1252943,3.23895563 L59.8293976,3.23895563 L59.5596754,12.8541427 L64.0172591,14.4350447 L66.7183907,28.2646594 L54.4271345,52.7607741 L47,58.4237064 L47,63.823155 L51.4575837,68.1699799 L51.727306,88.0584078 L53.0785233,88.3205806 L53.0785233,88.1095315 L53.7573894,88.2406179 L53.7573894,88.3192697 L80.1367471,97.2436315 L81.2456052,98 L83.564956,96.5462519 L102.250063,85.685744 L104,1.92153736 Z M75.6400732,63.7051772 L75.6400732,63.7051772 L82.8665447,57.5441167 L82.8665447,57.5441167 L75.6400732,63.7051772 Z M50.5767516,66.2613619 L52.5312607,68.1712907 L52.5312607,68.2892685 L50.5767516,66.2613619 Z" id="Shape" fill="url(#linearGradient-1)"></path>
                            <polygon id="Path" fill="#535461" points="54.0086207 68.7666667 81 75 76.9913793 70.8444444 74.7198276 68.2777778 51.0689655 64 50 64.8555556"></polygon>
                            <polygon id="Path" fill="#D6D6E3" points="49.5294118 64.3146067 75.8676471 70 76 64.0674157 68.4558824 61.3483146 53.3676471 59 49 59"></polygon>
                            <polygon id="Path" fill="#D6D6E3" points="68.71875 28.2868217 95 30 95 24.9922481 93.1875 13.7906977 92.28125 13 66 13.7906977"></polygon>
                            <polygon id="Path" fill="#D6D6E3" points="62.5483871 3 61.2580645 3 61 12.6052632 65.2580645 14.1842105 67.8387097 28 56.0967742 52.4736842 49 58.1315789 49 63.5263158 53.2580645 67.8684211 53.516129 87.7368421 54.8064516 88 54.5483871 68.2631579 50.2903226 63.6578947 50.1612903 58.1315789 57 52.6052632 69 28.1315789 66.4193548 14.1842105 62.1612903 12.3421053 62.5483871 3"></polygon>
                            <polygon id="Path" fill="#535461" points="61.5483871 3 60.2580645 3 60 12.6052632 64.2580645 14.1842105 66.8387097 28 55.0967742 52.4736842 48 58.1315789 48 63.5263158 52.2580645 67.8684211 52.516129 87.7368421 53.8064516 88 53.5483871 68.2631579 49.2903226 63.6578947 49.1612903 58.1315789 56.2580645 52.6052632 68 28.1315789 65.4193548 14.1842105 61.1612903 12.3421053 61.5483871 3"></polygon>
                            <polygon id="Path" fill="#A8A8A8" points="61 12.3770492 61.6470588 13.295082 65.2705882 15 94 14.2131148 91.2176471 13.3606557 88.2411765 12.0491803 88.6294118 11"></polygon>
                            <polygon id="Path" fill="#F6BD60" points="56 53.6891892 83.0666667 58 88.5333333 46.6351351 96 30.3063063 68.5333333 29"></polygon>
                            <g id="Group" opacity="0.1" transform="translate(61.000000, 34.000000)" fill="#FFFFFF">
                                <polygon id="Path" points="8.8704878 0.0105263158 26.9143902 1.45789474 17.5631707 19.8789474 0.046097561 17.2473684"></polygon>
                            </g>
                            <g id="Group" opacity="0.1" transform="translate(71.000000, 35.000000)" fill="#FFFFFF">
                                <polygon id="Path" points="0.38 0.0357142857 0.985 0.105714286 0.672 0.987142857 0.085 0.861428571"></polygon>
                            </g>
                            <g id="Group" opacity="0.1" transform="translate(71.000000, 42.000000)" fill="#FFFFFF">
                                <polygon id="Path" points="0.38 0.0357142857 0.985 0.105714286 0.672 0.987142857 0.085 0.861428571"></polygon>
                            </g>
                            <g id="Group" opacity="0.1" transform="translate(75.000000, 36.000000)" fill="#FFFFFF">
                                <polygon id="Path" points="0.38 0.0357142857 0.985 0.105714286 0.672 0.987142857 0.085 0.861428571"></polygon>
                            </g>
                            <g id="Group" opacity="0.1" transform="translate(84.000000, 36.000000)" fill="#FFFFFF">
                                <polygon id="Path" points="0.38 0.0357142857 0.985 0.105714286 0.672 0.987142857 0.085 0.861428571"></polygon>
                            </g>
                            <g id="Group" opacity="0.1" transform="translate(73.000000, 37.000000)" fill="#FFFFFF">
                                <polygon id="Path" points="0.38 0.0357142857 0.985 0.105714286 0.672 0.987142857 0.085 0.861428571"></polygon>
                            </g>
                            <g id="Group" opacity="0.1" transform="translate(75.000000, 46.000000)" fill="#FFFFFF">
                                <polygon id="Path" points="0.38 0.0357142857 0.985 0.105714286 0.672 0.987142857 0.085 0.861428571"></polygon>
                            </g>
                            <g id="Group" opacity="0.1" transform="translate(69.000000, 41.000000)" fill="#FFFFFF">
                                <polygon id="Path" points="0.38 0.0357142857 0.985 0.105714286 0.672 0.987142857 0.085 0.861428571"></polygon>
                            </g>
                            <g id="Group" opacity="0.1" transform="translate(81.000000, 36.000000)" fill="#FFFFFF">
                                <polygon id="Path" points="0.38 0.0357142857 0.985 0.105714286 0.672 0.987142857 0.085 0.861428571"></polygon>
                            </g>
                            <g id="Group" opacity="0.1" transform="translate(74.000000, 41.000000)" fill="#FFFFFF">
                                <polygon id="Path" points="0.38 0.0357142857 0.985 0.105714286 0.672 0.987142857 0.085 0.861428571"></polygon>
                            </g>
                            <g id="Group" opacity="0.1" transform="translate(73.000000, 35.000000)" fill="#FFFFFF">
                                <polygon id="Path" points="0.38 0.0357142857 0.985 0.105714286 0.672 0.987142857 0.085 0.861428571"></polygon>
                            </g>
                            <g id="Group" opacity="0.1" transform="translate(77.000000, 40.000000)" fill="#FFFFFF">
                                <polygon id="Path" points="0.38 0.0357142857 0.985 0.105714286 0.672 0.987142857 0.085 0.861428571"></polygon>
                            </g>
                            <g id="Group" opacity="0.1" transform="translate(78.000000, 36.000000)" fill="#FFFFFF">
                                <polygon id="Path" points="0.38 0.0357142857 0.985 0.105714286 0.672 0.987142857 0.085 0.861428571"></polygon>
                            </g>
                            <g id="Group" opacity="0.1" transform="translate(70.000000, 37.000000)" fill="#FFFFFF">
                                <polygon id="Path" points="0.38 0.0357142857 0.985 0.105714286 0.672 0.987142857 0.085 0.861428571"></polygon>
                            </g>
                            <polygon id="Path" fill="#D6D6E3" points="49 59.601227 74.873129 65 82 58.5592638 56.1216441 54"></polygon>
                            <polygon id="Path" fill="#535461" points="54 69 54 89.1964286 79.6080402 98 80 77.0267857 78.9547739 75.0757589 74.2512563 73.9196429"></polygon>
                            <ellipse id="Oval" fill="#575988" cx="58" cy="55.5" rx="1" ry="1"></ellipse>
                            <ellipse id="Oval" fill="#FA595F" cx="58" cy="56.5" rx="1" ry="1"></ellipse>
                            <ellipse id="Oval" fill="#FFD037" cx="55" cy="56.5" rx="1" ry="1"></ellipse>
                            <ellipse id="Oval" fill="#575988" cx="69" cy="57.5" rx="1" ry="1"></ellipse>
                            <ellipse id="Oval" fill="#FFD037" cx="66" cy="58.5" rx="1" ry="1"></ellipse>
                            <ellipse id="Oval" fill="#A8A8A8" cx="62.5" cy="57" rx="1.5" ry="1"></ellipse>
                            <ellipse id="Oval" fill="#FA595F" cx="71" cy="59.5" rx="1" ry="1"></ellipse>
                            <path d="M64,56 L62.9418683,56 L62.031875,53.7874861 C61.9543964,53.5988524 62.0199157,53.3982547 62.2093238,53.2441979 C62.398732,53.0901412 62.6906967,52.9999762 63.0000655,53 L63.0000655,53 C63.5523141,53 64,53.2819562 64,53.6297668 L64,56 Z" id="Path" fill="#A8A8A8"></path>
                            <ellipse id="Oval" fill="#A8A8A8" cx="75.5" cy="59" rx="1.5" ry="1"></ellipse>
                            <path d="M75,59 L73.9418683,59 L73.031875,56.7874861 C72.9543964,56.5988524 73.0199157,56.3982547 73.2093238,56.2441979 C73.398732,56.0901412 73.6906967,55.9999762 74.0000655,56 L74.0000655,56 C74.5523141,56 75,56.2819562 75,56.6297668 L75,59 Z" id="Path" fill="#A8A8A8"></path>
                            <polygon id="Path" fill="#535461" points="61.6635071 3.2 89 1 88.3364929 10.7058824 61 12"></polygon>
                            <polygon id="Path" fill="#D6D6E3" points="88.7114428 2 101 2.92192804 99.318408 86.6856755 80.4975124 99 79.2039801 98.078072 79.1393035 76.1493551 75 71.4080109 75 64.8228106 82.2437811 58.3693143 94.5323383 30.5797692 92.7860697 14.7094365 93.6915423 14.7094365 87.9353234 12.6680244"></polygon>
                            <polygon id="Path" fill="#535461" points="90.5820896 2 103 2.79183673 101.318408 86.7265306 81.1393035 99 81.1393035 76.1687075 77 71.4176871 77 64.8190476 84.2437811 58.352381 96.5323383 30.5061224 94.3333333 14.537415 89.9353234 12.5578231"></polygon>
                            <path d="M67.7116647,52.4417953 C65.8267564,55.760121 61.1871892,54.8996448 61.1871892,54.8996448 C60.9475366,54.7108435 59.4476881,54.3950304 58.3100113,54.1764786 C57.5802825,54.0357359 57,53.9373304 57,53.9373304 L58.5927475,52.0504617 L59.7869716,52.2587153 L61.5682099,52.5699513 C61.5682099,52.5699513 69.6033048,49.1246139 67.7116647,52.4417953 Z" id="Path" fill="url(#linearGradient-2)"></path>
                            <g id="Group" opacity="0.08" transform="translate(57.000000, 51.000000)" fill="url(#linearGradient-3)">
                                <path d="M10.6633735,1.48666667 C8.80795181,4.70888889 4.24096386,3.87333333 4.24096386,3.87333333 C4.00506024,3.69 2.5286747,3.38333333 1.40879518,3.17111111 C0.690481928,3.03444444 0.119277108,2.93888889 0.119277108,2.93888889 L1.68710843,1.10666667 L2.8626506,1.30888889 L4.6160241,1.61111111 C4.6160241,1.61111111 12.5254217,-1.73444444 10.6633735,1.48666667 Z" id="Path"></path>
                            </g>
                            <g id="Group" opacity="0.1" transform="translate(58.000000, 52.000000)" fill="url(#linearGradient-4)">
                                <path d="M1.96454545,0.278 L0.964545455,1.955 C0.471818182,1.832 0.08,1.746 0.08,1.746 L1.15545455,0.097 L1.96454545,0.278 Z" id="Path"></path>
                            </g>
                            <path d="M44.2587048,43.7943887 C44.2587048,43.7943887 50.9241009,54.0240751 58.0612577,53.9999574 L60,51.0804539 C60,51.0804539 53.4677308,46.4981028 52.5991743,44.1091873 C52.2786356,43.2206428 51.6168782,42.0033368 50.911176,40.808879 C48.743662,37.1493449 42.8977077,39.5395297 44.1824476,43.5608284 C44.2074358,43.6403743 44.2328549,43.7182277 44.2587048,43.7943887 Z" id="Path" fill="url(#linearGradient-5)"></path>
                            <g id="Group" opacity="0.05" transform="translate(44.000000, 39.000000)" fill="url(#linearGradient-6)">
                                <path d="M0.33664,4.7697479 C0.33664,4.7697479 6.9376,14.9281513 14.00576,14.9042017 L15.92576,12.005042 C15.92576,12.005042 9.45664,7.45462185 8.59648,5.08235294 C8.27904,4.2 7.62368,2.99117647 6.9248,1.80504202 C4.77824,-1.8289916 -1.0112,0.544537815 0.26112,4.53781513 C0.285866667,4.61680672 0.31104,4.69411765 0.33664,4.7697479 Z" id="Path"></path>
                            </g>
                            <path d="M39,104.982384 L39.3288674,109 C39.3288674,109 50.0931589,107.111721 49.9993909,103.336597 C49.905623,99.5614728 39,104.982384 39,104.982384 Z" id="Path" fill="url(#linearGradient-7)"></path>
                            <g id="Group" opacity="0.1" transform="translate(39.000000, 102.000000)" fill="url(#linearGradient-8)">
                                <path d="M0.00804878049,2.9778 L0.332682927,6.8978 C0.332682927,6.8978 10.9584146,5.0554 10.8658537,1.372 C10.7732927,-2.3114 0.00804878049,2.9778 0.00804878049,2.9778 Z" id="Path"></path>
                            </g>
                            <path d="M52.1823414,106.195665 L52,110 C52,110 66.5344603,108.731366 65.9847934,105.144736 C65.4351266,101.558105 57.7582889,103.553462 57.7582889,103.553462 L52.1823414,106.195665 Z" id="Path" fill="url(#linearGradient-9)"></path>
                            <path d="M51,76.2835711 C51,76.2835711 50.1690432,78.6232989 49.1079752,81.3035871 C48.0929295,83.8694886 46.868227,86.753853 45.959288,88.2109835 C44.1017799,91.1928367 43.8371521,100.402265 43.8371521,100.402265 C43.4830367,101.893192 45.2523355,104.787955 45.2523355,104.787955 C41.7150162,108.557517 38.4423247,106.367271 38.4423247,106.367271 C39.061068,105.227304 38,101.981582 38,101.981582 C38,101.981582 39.4151834,86.9839263 40.3011112,86.2820079 C41.187039,85.5800896 41.8927131,82.0717977 41.8927131,82.0717977 L41.1013866,70.1495846 L40.9198545,67.4199022 L48.525027,64 L49.0734586,66.7192837 L49.6167765,69.4112705 L51,76.2835711 Z" id="Path" fill="url(#linearGradient-10)"></path>
                            <g id="Group" opacity="0.1" transform="translate(38.000000, 64.000000)" fill="url(#linearGradient-11)">
                                <path d="M12.8914563,12.2816314 C12.8914563,12.2816314 12.071068,14.62 11.0234951,17.2987311 C10.0213592,19.863142 8.81223301,22.7458308 7.91485437,24.2021148 C6.08097087,27.1822356 5.81970874,36.3863142 5.81970874,36.3863142 C5.47009709,37.8763746 7.2168932,40.7694562 7.2168932,40.7694562 C3.72456311,44.5368278 0.493495146,42.347855 0.493495146,42.347855 C1.10436893,41.2085498 0.0567961165,37.964713 0.0567961165,37.964713 C0.0567961165,37.964713 1.45398058,22.9757704 2.32864078,22.2742598 C3.20330097,21.5727492 3.9,18.0664955 3.9,18.0664955 L3.11873786,6.15120846 L2.93951456,3.42311178 L10.4479612,0.00519637462 L10.9894175,2.7229003 L11.5258252,5.41332326 L12.8914563,12.2816314 Z" id="Path"></path>
                            </g>
                            <path d="M59,105.474364 C57.429708,108.344574 51.936839,107.985632 51.936839,107.985632 L51.936839,99.5531428 C51.936839,99.5531428 50.366547,90.134227 51.2393519,87.9872194 C52.1121568,85.8402117 50.8899777,81.8878565 50.8899777,81.8878565 L50.5897933,80.9187119 L47.031726,69.3527884 L46,66 L57.7790822,66 C57.7790822,66 57.7790822,66.5743079 57.7790822,67.5075583 C57.7942175,71.0969828 57.8648491,79.9921086 58.2117008,82.0566924 C58.6481032,84.6583605 57.4259241,86.3626724 57.4259241,86.3626724 C57.4259241,86.3626724 58.1234113,96.9474865 57.5129524,100.26571 C56.9024935,103.583934 59,105.474364 59,105.474364 Z" id="Path" fill="url(#linearGradient-12)"></path>
                            <path d="M49.3270776,27 C49.3270776,27 47.4937243,32.4711969 43.8282795,34.4524609 C40.1628348,36.4337248 49.8507125,37 49.8507125,37 C49.8507125,37 51.4216174,32.8487136 55,29.9236577 L49.3270776,27 Z" id="Path" fill="url(#linearGradient-13)"></path>
                            <g id="Group" opacity="0.1" transform="translate(42.000000, 63.000000)" fill="url(#linearGradient-14)">
                                <path d="M15.917377,4.61857143 C14.3986885,4.93714286 11.7114754,5.48285714 8.95868852,5.95714286 C7.51606557,6.20571429 6.05770492,6.43428571 4.73836066,6.6 C2.70819672,6.85571429 1.00983607,6.96285714 0.22295082,6.76285714 L0.0367213115,3.76285714 L7.83868852,0.00428571429 L8.40131148,2.99285714 L15.9134426,2.99285714 C15.9134426,2.99285714 15.9134426,3.61571429 15.917377,4.61857143 Z" id="Path"></path>
                            </g>
                            <path d="M59,66.6411487 C59,66.6411487 43.799646,69.7992062 41.9117909,68.8071323 C40.0239357,67.8150583 39.5714746,65.2894146 40.1123477,62.4923543 C40.6532208,59.6952941 40.1123477,52.7494394 39.122914,43.9076806 C38.6249467,39.4553811 39.722295,36.467126 40.9366591,34.5979624 C42.0190515,32.9617569 43.8229779,31.9876021 45.7473092,32.0001192 C47.3913537,31.9932239 48.9892754,32.5587113 50.2810218,33.6045514 C50.6606731,33.9160787 51.0442249,34.1714508 51.3575673,34.2583576 C51.6046007,34.326546 51.9764509,34.5966254 52.3977078,34.9643078 C54.2735134,36.6255885 55.4509956,38.969196 55.6832518,41.5037063 C55.8392729,43.1843491 56.0043952,45.3008626 56.0850061,47.4401056 C56.1678098,49.2669639 56.1495779,51.0971853 56.0303987,52.9219159 C55.9468628,54.257842 56.0087889,55.5991842 56.2150237,56.9209633 C56.9158184,61.7957633 59,66.6411487 59,66.6411487 Z" id="Path" fill="url(#linearGradient-15)"></path>
                            <g id="Group" opacity="0.1" transform="translate(47.000000, 40.000000)" fill="url(#linearGradient-16)">
                                <path d="M7.952,16.9683721 C2.72984615,13.5657364 0.0295384615,4.04573643 0.0295384615,4.04573643 C0.0295384615,3.96271318 0.0295384615,3.88100775 0.0209230769,3.80062016 C-0.096,-0.565348837 5.90769231,-1.40612403 6.92676923,2.83069767 C7.25784615,4.21046512 7.54215385,5.61 7.60123077,6.57728682 C7.63343541,6.93320579 7.71001355,7.28290341 7.82892308,7.61705426 C7.90730652,9.41768199 7.89004792,11.2216245 7.77723077,13.020155 C7.69769375,14.3390869 7.75631528,15.6634075 7.952,16.9683721 L7.952,16.9683721 Z" id="Path"></path>
                            </g>
                            <g id="Group" opacity="0.1" transform="translate(48.000000, 27.000000)" fill="url(#linearGradient-17)">
                                <path d="M0.130576923,3.12044444 C1.05942308,4.89533333 1.79442308,6.68266667 3.68038462,6.986 C4.60632597,5.62832664 5.68258265,4.41707775 6.88153846,3.38333333 L0.823846154,0.129111111 C0.823846154,0.129111111 1.17923077,1.23977778 0.130576923,3.12044444 Z" id="Path"></path>
                            </g>
                            <ellipse id="Oval" fill="url(#linearGradient-18)" cx="53" cy="26.5" rx="6" ry="5.5"></ellipse>
                            <g id="Group" opacity="0.1" transform="translate(45.000000, 18.000000)" fill="url(#linearGradient-19)">
                                <path d="M13.5578947,10.3922772 C13.8064849,10.4026758 14.0524371,10.3389361 14.2631579,10.209505 C14.5513158,10.0048515 14.6434211,9.6380198 14.7092105,9.30079208 C14.8657895,8.50405941 14.9881579,7.66485149 14.7092105,6.89772277 C14.5289474,6.39059406 14.1828947,5.95168317 13.9407895,5.47029703 C13.4013158,4.41871287 13.3052632,3.15346535 12.5355263,2.24089109 C12.0552632,1.66940594 10.3671053,2.24089109 9.66184211,1.95257426 C8.14605263,1.32960396 7.48815789,0.0656435644 5.83684211,0.0669306931 C5.23168496,0.0524994851 4.62770135,0.126244478 4.04473684,0.285742574 C3.30657895,0.508415842 2.65394737,0.929306931 2.04736842,1.39138614 C0.994736842,2.1919802 -0.0368421053,3.29118812 0.0565789474,4.57574257 C0.117105263,5.39564356 0.628947368,6.12029703 0.930263158,6.88485149 C1.43552632,8.1719802 1.34342105,9.61871287 0.978947368,10.9521782 C0.823684211,11.519802 0.646052632,12.1981188 1.05789474,12.6318812 C1.32105263,12.9034653 1.73815789,12.9806931 2.11052632,12.9214851 C2.4819264,12.8409754 2.8374527,12.7018626 3.16315789,12.509604 C3.75526316,12.2019802 4.35526316,11.8892079 4.83421053,11.4374257 C5.15131579,11.1388119 5.40657895,10.7861386 5.70789474,10.4733663 C6.29784045,9.87526612 6.96588732,9.35593206 7.69473684,8.92881188 C8.27763158,8.58643564 8.87894737,8.80009901 9.49078947,9.02277228 C10.8355263,9.50544554 12.0789474,10.4180198 13.5578947,10.3922772 Z" id="Path"></path>
                            </g>
                            <path d="M58.6666969,28.4273474 C58.9182222,28.4378468 59.1670784,28.3734885 59.3802872,28.2428012 C59.6718474,28.0361615 59.7650402,27.6657696 59.8316064,27.325269 C59.9900341,26.5208038 60.1138474,25.673451 59.8316064,24.8988771 C59.6492149,24.3868265 59.2990764,23.9436559 59.0541125,23.4575977 C58.5082692,22.3958076 58.4110825,21.1182804 57.6322573,20.1968493 C57.1463236,19.6198177 55.5300949,20.2852235 54.8165046,19.9928089 C53.282818,19.3637924 52.525294,18.0004903 50.8544809,18.0017899 C50.2421786,17.9872187 49.6310637,18.0616794 49.0412161,18.2227255 C48.2943427,18.4475598 47.6340054,18.8725358 47.0202645,19.3390997 C45.9552044,20.1474637 44.9114454,21.2573398 45.0059695,22.5543613 C45.0672105,23.3822197 45.585096,24.1139062 45.8899694,24.8858809 C46.4011983,26.1855016 46.3080055,27.6462753 45.9392285,28.9926824 C45.7821321,29.5658151 45.6024032,30.2507152 46.019108,30.6886874 C46.285373,30.9629074 46.7074031,31.0408846 47.0841681,30.9811021 C47.4599533,30.899811 47.8196774,30.759348 48.1492282,30.5652234 C48.7483245,30.2546141 49.3554088,29.9388063 49.8400112,29.4826394 C50.1608605,29.1811274 50.4191376,28.8250313 50.7240111,28.5092235 C51.3209223,27.9053185 51.9968569,27.3809441 52.734312,26.9496786 C53.3240891,26.6039795 53.9325047,26.8197165 54.5515709,27.0445509 C55.9121852,27.5319087 57.1702875,28.4533398 58.6666969,28.4273474 Z" id="Path" fill="url(#linearGradient-20)"></path>
                            <g id="Group" opacity="0.05" transform="translate(43.000000, 34.000000)" fill="url(#linearGradient-21)">
                                <path d="M13.2838095,23.0843284 C13.0823864,21.7932518 13.0219051,20.4830666 13.1034921,19.1781716 C13.2198907,17.3958263 13.2376972,15.6081177 13.1568254,13.823694 C13.0780952,11.7341418 12.9180952,9.66679104 12.7644444,8.02518657 C12.5365933,5.54699514 11.3836812,3.25608118 9.54793651,1.63376866 C9.14031746,1.27462687 8.77714286,1.00951493 8.53206349,0.944216418 C8.22603175,0.860634328 7.85142857,0.60988806 7.48063492,0.305597015 C6.23365079,-0.716977612 7.8184127,1.27462687 8.22603175,1.63376866 C10.0617764,3.25608118 11.2146885,5.54699514 11.4425397,8.02518657 C11.5949206,9.66679104 11.7561905,11.7341418 11.8349206,13.823694 C11.9157924,15.6081177 11.897986,17.3958263 11.7815873,19.1781716 C11.7000004,20.4830666 11.7604816,21.7932518 11.9619048,23.0843284 C12.6450794,27.8419776 14.6806349,32.5722015 14.6806349,32.5722015 C14.6806349,32.5722015 4.74285714,34.6369403 0.118095238,34.8563433 C3.74222222,35.1175373 15.9974603,32.5722015 15.9974603,32.5722015 C15.9974603,32.5722015 13.9669841,27.8393657 13.2838095,23.0843284 Z" id="Path"></path>
                            </g>
                            <path d="M68.4394348,57.4392521 C65.6487335,60.2714429 61.5999397,58.3837043 61.5999397,58.3837043 C61.4347094,58.1435103 60.1362851,57.4963856 59.1462041,57.0253254 C58.5100023,56.7233339 58,56.4947998 58,56.4947998 L60.0699328,55 L61.117259,55.4733921 L62.6784905,56.1799824 C62.6784905,56.1799824 71.2327382,54.6070612 68.4394348,57.4392521 Z" id="Path" fill="url(#linearGradient-22)"></path>
                            <g id="Group" opacity="0.1" transform="translate(58.000000, 56.000000)" fill="url(#linearGradient-23)">
                                <path d="M2.9712,0.492222222 L1.1532,1.97111111 C0.5664,1.68333333 0.096,1.46555556 0.096,1.46555556 L2.0052,0.0411111111 L2.9712,0.492222222 Z" id="Path"></path>
                            </g>
                            <path d="M48.0106902,44.0217984 C48.0106902,44.0217984 51.5451007,56.1182679 58.3495115,58 L61,55.5804405 C61,55.5804405 56.0426284,49.2141572 55.8689097,46.5728268 C55.8063198,45.5967696 55.5125307,44.1824827 55.1689252,42.797411 C54.1112845,38.5293187 47.8804011,39.3752349 48.0017488,43.7747962 C48.0043035,43.8562449 48.0072839,43.938579 48.0106902,44.0217984 Z" id="Path" fill="url(#linearGradient-24)"></path>
                            <path d="M41,55.0478849 C41,55.0478849 43.5107786,53.0491485 45.8248795,54.5725326 C48.1389805,56.0959168 51.5173726,55.9054938 52,56" id="Path" fill="url(#linearGradient-25)" opacity="0.05"></path>
                            <path d="M67.7385062,52.4391757 C66.0213082,55.754975 61.8061339,54.9014029 61.8061339,54.9014029 C61.5874645,54.7126322 60.2239965,54.3972326 59.1911051,54.1791496 C58.5273791,54.0384509 58,53.9446518 58,53.9446518 L59.4483632,52.0581168 L60.5339925,52.2668198 L62.1534324,52.5775295 C62.1534324,52.5775295 69.4557041,49.122204 67.7385062,52.4391757 Z" id="Path" fill="#F7C4A7"></path>
                            <path d="M67.7385062,52.4391757 C66.0213082,55.754975 61.8061339,54.9014029 61.8061339,54.9014029 C61.5874645,54.7126322 60.2239965,54.3972326 59.1911051,54.1791496 C58.5273791,54.0384509 58,53.9446518 58,53.9446518 L59.4483632,52.0581168 L60.5339925,52.2668198 L62.1534324,52.5775295 C62.1534324,52.5775295 69.4557041,49.122204 67.7385062,52.4391757 Z" id="Path" fill="#000000" opacity="0.08"></path>
                            <path d="M60,52.1912659 L58.9401015,54 C58.4162437,53.86733 58,53.7788834 58,53.7788834 L59.1431472,52 L60,52.1912659 Z" id="Path" fill="#000000" opacity="0.1"></path>
                            <path d="M44.2409082,43.788928 C44.2409082,43.788928 50.4903796,54.0259857 57.1804208,53.9999504 L59,51.0840032 C59,51.0840032 52.8765877,46.4991968 52.0616607,44.1078597 C51.7611563,43.225265 51.1410478,42.0016086 50.480193,40.8091944 C48.4428755,37.1486392 42.9675848,39.5399763 44.1708754,43.5637232 C44.1937952,43.6374897 44.2171395,43.712558 44.2409082,43.788928 Z" id="Path" fill="#575988"></path>
                            <path d="M44.2409082,43.788928 C44.2409082,43.788928 50.4903796,54.0259857 57.1804208,53.9999504 L59,51.0840032 C59,51.0840032 52.8765877,46.4991968 52.0616607,44.1078597 C51.7611563,43.225265 51.1410478,42.0016086 50.480193,40.8091944 C48.4428755,37.1486392 42.9675848,39.5399763 44.1708754,43.5637232 C44.1937952,43.6374897 44.2171395,43.712558 44.2409082,43.788928 Z" id="Path" fill="#000000" opacity="0.05"></path>
                            <path d="M40,103.982245 L40.298607,108 C40.298607,108 50.0851278,106.111714 49.9994406,102.336613 C49.9137533,98.5615115 40,103.982245 40,103.982245 Z" id="Path" fill="#535461"></path>
                            <path d="M40,103.982245 L40.298607,108 C40.298607,108 50.0851278,106.111714 49.9994406,102.336613 C49.9137533,98.5615115 40,103.982245 40,103.982245 Z" id="Path" fill="#000000" opacity="0.1"></path>
                            <path d="M52.1701722,105.740159 L52,109 C52,109 65.4951701,107.913845 64.9859428,104.836863 C64.4767154,101.759881 57.3475321,103.478481 57.3475321,103.478481 L52.1701722,105.740159 Z" id="Path" fill="#535461"></path>
                            <path d="M52,74.9946844 C52,74.9946844 51.1683547,77.2772792 50.1069657,79.898229 C49.0912567,82.4046587 47.865957,85.2221147 46.9577305,86.6458084 C45.1063456,89.5595654 44.8376395,98.5546027 44.8376395,98.5546027 C44.484291,100.01083 46.252377,102.838697 46.252377,102.838697 C42.7148615,106.522863 39.4420215,104.380815 39.4420215,104.380815 C40.061389,103.266847 39,100.096721 39,100.096721 C39,100.096721 40.4147375,85.4459495 41.300124,84.7614313 C42.1855105,84.0769132 42.890864,80.6491168 42.890864,80.6491168 L42.0995246,69.0031983 L41.918148,66.3419062 L49.525217,63 L50.077408,65.6560867 L50.6148202,68.286146 L52,74.9946844 Z" id="Path" fill="#6A5C99"></path>
                            <path d="M52,74.9946844 C52,74.9946844 51.1683547,77.2772792 50.1069657,79.898229 C49.0912567,82.4046587 47.865957,85.2221147 46.9577305,86.6458084 C45.1063456,89.5595654 44.8376395,98.5546027 44.8376395,98.5546027 C44.484291,100.01083 46.252377,102.838697 46.252377,102.838697 C42.7148615,106.522863 39.4420215,104.380815 39.4420215,104.380815 C40.061389,103.266847 39,100.096721 39,100.096721 C39,100.096721 40.4147375,85.4459495 41.300124,84.7614313 C42.1855105,84.0769132 42.890864,80.6491168 42.890864,80.6491168 L42.0995246,69.0031983 L41.918148,66.3419062 L49.525217,63 L50.077408,65.6560867 L50.6148202,68.286146 L52,74.9946844 Z" id="Path" fill="#000000" opacity="0.1"></path>
                            <path d="M59,103.534275 C57.4296636,106.337082 51.9328236,105.985899 51.9328236,105.985899 L51.9328236,97.7530692 C51.9328236,97.7530692 50.3624873,88.5571481 51.2344546,86.4553754 C52.106422,84.3536026 50.8859327,80.4999091 50.8859327,80.4999091 L50.5890928,79.5581021 L47.0309888,68.2723804 L46,65 L57.7781855,65 C57.7781855,65 57.7781855,65.5600293 57.7781855,66.4725712 C57.7927625,69.9750824 57.8643221,78.661523 58.2115189,80.6768305 C58.6475025,83.2162509 57.4256881,84.880376 57.4256881,84.880376 C57.4256881,84.880376 58.1240571,95.2136488 57.5131498,98.4487825 C56.9022426,101.683916 59,103.534275 59,103.534275 Z" id="Path" fill="#6A5C99"></path>
                            <path d="M48.8000424,28 C48.8000424,28 47.1193831,32.9243336 43.7592797,34.7067928 C40.3991762,36.4892519 49.2800572,37 49.2800572,37 C49.2800572,37 50.7201016,33.2596733 54,30.6311264 L48.8000424,28 Z" id="Path" fill="#F7C4A7"></path>
                            <path d="M56.9986986,67.7059167 C55.5645497,68.0257218 53.0294118,68.5876223 50.4266007,69.0718132 C49.0653306,69.3258639 47.6871421,69.5589929 46.4403956,69.7278619 C44.5234253,69.9878903 42.9187923,70.0984771 42.1756897,69.8937421 L42,66.8376609 L49.368558,63 L49.9060385,66.051598 L57,66.051598 C57,66.051598 56.9947944,66.6807472 56.9986986,67.7059167 Z" id="Path" fill="#000000" opacity="0.1"></path>
                            <path d="M59,66.707544 C59,66.707544 44.5596602,69.7738014 42.7659743,68.8139295 C40.9722884,67.8540576 40.5439842,65.3903865 41.0566513,62.6707495 C41.5693184,59.9511125 41.0566513,53.1920147 40.116978,44.5904962 C39.6432476,40.2590743 40.6867523,37.3527956 41.8392798,35.5330385 C42.8478015,33.9502083 44.566208,32.9974576 46.4078576,33.0000432 C47.9752579,32.9943816 49.4964703,33.5448982 50.7142613,34.5585019 C51.0750751,34.8611282 51.4397826,35.1104282 51.7369997,35.194417 C51.971918,35.2597416 52.3249445,35.5237064 52.7208014,35.880992 C54.5158015,37.5155757 55.6351577,39.7927009 55.8500176,42.246809 C55.9992751,43.8812575 56.155022,45.9409826 56.2315976,48.0233713 C56.3106554,49.8005072 56.2937569,51.5807781 56.1809799,53.3559928 C56.101583,54.655396 56.1603352,55.9598177 56.3561952,57.2461402 C57.0194177,62.0001723 59,66.707544 59,66.707544 Z" id="Path" fill="#575988"></path>
                            <path d="M56,57 C50.733866,53.7815195 48.010813,44.7751405 48.010813,44.7751405 C48.010813,44.6972019 48.010813,44.6192633 48.001684,44.5438801 C47.8843111,40.4144125 53.9381481,39.6184167 54.9658137,43.6265046 C55.2996746,44.9322954 55.5852822,46.254696 55.6452728,47.1707939 C55.6776097,47.5071439 55.7547758,47.8378955 55.8748022,48.1546089 C55.9542408,49.8577968 55.9372609,51.5639894 55.8239405,53.2653361 C55.7436853,54.5127913 55.8027218,55.7651027 56,57 L56,57 Z" id="Path" fill="#000000" opacity="0.1"></path>
                            <path d="M48,30.6184608 C48.9620784,32.171123 49.7247014,33.7363404 51.681123,34 C52.6374862,32.8153608 53.7533266,31.7553723 55,30.8472448 L48.7244919,28 C48.7244919,28 49.0867379,28.973727 48,30.6184608 Z" id="Path" fill="#000000" opacity="0.1"></path>
                            <circle id="Oval" fill="#F7C4A7" cx="52.5" cy="27.5" r="5.5"></circle>
                            <path d="M57.7578562,29.4298449 C57.9933376,29.4395069 58.2259529,29.374351 58.4235971,29.2433697 C58.695115,29.036915 58.7825751,28.6652965 58.8439277,28.3256452 C58.991435,27.5264657 59.1050026,26.6740076 58.8439277,25.8988035 C58.674229,25.3859967 58.3518015,24.943784 58.1181395,24.4576165 C57.6077381,23.3920439 57.5176673,22.1186845 56.7918791,21.1969642 C56.3376088,20.620223 54.745052,21.1969642 54.0780057,20.9052637 C52.6420938,20.2765758 52.0259571,19.0005526 50.4673401,19.0018845 C49.8939391,18.9868894 49.3216625,19.0614533 48.7703533,19.2229909 C48.0732834,19.4467611 47.4571466,19.8756541 46.8853927,20.3391782 C45.8880866,21.1476815 44.916888,22.257209 45.0056535,23.5545437 C45.06309,24.3830264 45.5460785,25.1076158 45.8306501,25.8854839 C46.3084172,27.1881464 46.2222625,28.646649 45.8763382,29.9919345 C45.7301363,30.5646798 45.561743,31.2493102 45.9507446,31.6888589 C46.1935442,31.9619119 46.5929888,32.0418299 46.949356,31.9805594 C47.3025103,31.8995045 47.639988,31.7590627 47.9479674,31.5649861 C48.5066677,31.2546381 49.0732002,30.9389622 49.5248597,30.4834299 C49.8237905,30.1810736 50.0652847,29.8254387 50.3498564,29.5097628 C50.9047811,28.9074964 51.5355581,28.3830103 52.2256794,27.9500309 C52.7765474,27.6050517 53.3417745,27.8168343 53.9226661,28.0446004 C55.187574,28.5347639 56.3611056,29.4564842 57.7578562,29.4298449 Z" id="Path" fill="#000000" opacity="0.1"></path>
                            <path d="M57.7578562,29.4338408 C57.9930591,29.4442929 58.225652,29.380074 58.4235971,29.2500295 C58.695115,29.0435748 58.7825751,28.6719563 58.8439277,28.3323051 C58.991435,27.5331256 59.1050026,26.6806675 58.8439277,25.9054633 C58.674229,25.3926565 58.3518015,24.9504439 58.1181395,24.4642763 C57.6077381,23.3987037 57.5176673,22.1253444 56.7918791,21.203624 C56.3376088,20.6268828 54.8338175,21.2928657 54.1641604,20.9998333 C52.7282485,20.3711454 52.0259571,19.0018845 50.4673401,19.0018845 C49.8939391,18.9868894 49.3216625,19.0614533 48.7703533,19.2229909 C48.0732834,19.4467611 47.4571466,19.8756541 46.8853927,20.3391782 C45.8880866,21.1476815 44.916888,22.257209 45.0056535,23.5545437 C45.06309,24.3830264 45.5460785,25.1076158 45.8306501,25.8854839 C46.3084172,27.1881464 46.2222625,28.646649 45.8763382,29.9919345 C45.7301363,30.5646798 45.561743,31.2493102 45.9507446,31.6888589 C46.1935442,31.9619119 46.5929888,32.0418299 46.949356,31.9805594 C47.3025103,31.8995045 47.639988,31.7590627 47.9479674,31.5649861 C48.5066677,31.2546381 49.0732002,30.9389622 49.5248597,30.4834299 C49.8237905,30.1810736 50.0652847,29.8254387 50.3498564,29.5097628 C50.9107449,28.9080716 51.5477179,28.3853355 52.2439546,27.9553587 C52.7948226,27.6103796 53.3600498,27.8221622 53.9409414,28.0499283 C55.187574,28.5360958 56.3611056,29.4604801 57.7578562,29.4338408 Z" id="Path" fill="#632652"></path>
                            <path d="M55.4260504,56.4950103 C55.2377913,55.2364673 55.1824229,53.9604335 55.2609244,52.6894743 C55.3704528,50.9510836 55.3868645,49.2077416 55.310084,47.4674695 C55.2357143,45.4282767 55.0844538,43.4125828 54.9394958,41.8107328 C54.7308252,39.4075313 53.6437133,37.1776415 51.9004202,35.5769646 C51.5159664,35.2257848 51.1731092,34.9686011 50.944958,34.9046315 C50.6563025,34.8223849 50.3021008,34.5782562 49.9516807,34.2819074 C48.7731092,33.2845045 50.2705882,35.2270903 50.6563025,35.5769646 C52.3995956,37.1776415 53.4867076,39.4075313 53.6953782,41.8107328 C53.8403361,43.4112773 53.9915966,45.4282767 54.0659664,47.4674695 C54.1427469,49.2077416 54.1263351,50.9510836 54.0168067,52.6894743 C53.939697,53.9619234 53.9967567,55.239287 54.1869748,56.4989268 C54.8323529,61.1386781 56.7558824,65.7523193 56.7558824,65.7523193 C56.7558824,65.7523193 47.3676471,67.7654022 43,67.9808099 C46.4235294,68.2419101 58,65.7523193 58,65.7523193 C58,65.7523193 56.0714286,61.1347616 55.4260504,56.4950103 Z" id="Path" fill="#000000" opacity="0.05"></path>
                            <path d="M68.4403933,57.4392588 C65.6505474,60.2717151 61.605886,58.3834109 61.605886,58.3834109 C61.4418579,58.144385 60.1433015,57.4954299 59.1454634,57.0257441 C58.5098542,56.7233764 58,56.4951067 58,56.4951067 L60.0694888,55 L61.1165353,55.4780517 L62.6816375,56.1819828 C62.6816375,56.1819828 71.2302392,54.6068025 68.4403933,57.4392588 Z" id="Path" fill="#F7C4A7"></path>
                            <path d="M60,56.4660767 L58.7350877,58 C58.327193,57.7014749 58,57.4761062 58,57.4761062 L59.3280702,56 L60,56.4660767 Z" id="Path" fill="#000000" opacity="0.1"></path>
                            <path d="M48.0138518,43.7987573 C48.0138518,43.7987573 51.5479633,55.2235524 58.3490809,57 L61,54.7145268 C61,54.7145268 56.0337211,48.7026269 55.8686259,46.2076306 C55.8055407,45.2859859 55.5129329,43.9542929 55.1679779,42.6418812 C54.1102947,38.6108104 47.8796281,39.4103403 48.0017717,43.5648113 C48.0062458,43.6419363 48.0102725,43.7199184 48.0138518,43.7987573 Z" id="Path" fill="#575988"></path>
                            <path d="M41,55.0477588 C41,55.0477588 43.2811459,53.0493529 45.3864091,54.5723608 C47.4916722,56.0953686 50.5616256,55.9046314 51,56" id="Path" fill="#000000" opacity="0.05"></path>
                        </g>
                    </g>
                </g>
            </g>
        </g>
    </g>
</svg>