<?xml version="1.0" encoding="UTF-8"?>
<svg width="266px" height="156px" viewBox="0 0 266 156" version="1.1" xmlns="http://www.w3.org/2000/svg" xmlns:xlink="http://www.w3.org/1999/xlink">
    <!-- Generator: Sketch 53.2 (72643) - https://sketchapp.com -->
    <title>undraw_accept_request_vdsd</title>
    <desc>Created with Sketch.</desc>
    <defs>
        <linearGradient x1="50.0000256%" y1="100.000014%" x2="50.0000256%" y2="5.31044307e-06%" id="linearGradient-1">
            <stop stop-color="#808080" stop-opacity="0.25" offset="0%"></stop>
            <stop stop-color="#808080" stop-opacity="0.12" offset="53.514%"></stop>
            <stop stop-color="#808080" stop-opacity="0.1" offset="100%"></stop>
        </linearGradient>
    </defs>
    <g id="Hive-LP" stroke="none" stroke-width="1" fill="none" fill-rule="evenodd">
        <g id="Cadastro-2" transform="translate(-84.000000, -532.000000)">
            <g id="undraw_accept_request_vdsd" transform="translate(84.000000, 532.000000)">
                <circle id="Oval" stroke="#3F3D56" cx="160" cy="20" r="7"></circle>
                <path d="M173.745769,7.92682085 L172.099613,6.26410721 C171.936655,6.09670893 171.713909,6.00163861 171.480868,6.00002098 C171.247827,5.99840336 171.023795,6.09037241 170.858552,6.25549252 L160.525017,16.5519078 L156.155451,12.1267818 C155.99319,11.9613712 155.772164,11.8675249 155.541022,11.865899 C155.30988,11.8642731 155.087568,11.9550009 154.923018,12.1181127 L153.25966,13.7721572 C152.916838,14.1150752 152.912988,14.6714913 153.251033,15.0191653 L159.887273,21.7390978 C160.228557,22.0835608 160.782318,22.0874278 161.128334,21.7477642 L173.737149,9.17382889 C173.903744,9.01009034 173.99836,8.78628249 173.999979,8.55212899 C174.001597,8.31797548 173.910084,8.09286869 173.745769,7.92682085 Z" id="Path" fill="#F6BD60" fill-rule="nonzero"></path>
                <rect id="Rectangle" fill="#F2F2F2" fill-rule="nonzero" x="0" y="17" width="123" height="14" rx="7"></rect>
                <rect id="Rectangle" fill="#F2F2F2" fill-rule="nonzero" x="0" y="42" width="123" height="14" rx="7"></rect>
                <rect id="Rectangle" fill="#F2F2F2" fill-rule="nonzero" x="0" y="66" width="123" height="14" rx="7"></rect>
                <rect id="Rectangle" fill="#F2F2F2" fill-rule="nonzero" x="0" y="89" width="123" height="14" rx="7"></rect>
                <rect id="Rectangle" stroke="#3F3D56" x="3" y="14" width="123" height="14" rx="7"></rect>
                <rect id="Rectangle" stroke="#3F3D56" x="3" y="39" width="123" height="14" rx="7"></rect>
                <rect id="Rectangle" stroke="#3F3D56" x="3" y="62" width="123" height="14" rx="7"></rect>
                <rect id="Rectangle" stroke="#3F3D56" x="4" y="87" width="123" height="14" rx="7"></rect>
                <circle id="Oval" stroke="#3F3D56" cx="160" cy="46" r="7"></circle>
                <circle id="Oval" stroke="#3F3D56" cx="160" cy="69" r="7"></circle>
                <circle id="Oval" stroke="#3F3D56" cx="160" cy="93" r="7"></circle>
                <path d="M173.745769,31.9268198 L172.099613,30.2641061 C171.936655,30.0967085 171.713909,30.0016386 171.480868,30.000021 C171.247828,29.9984034 171.023796,30.090372 170.858552,30.2554914 L160.525017,40.5519074 L156.155451,36.1267811 C155.99319,35.9613705 155.772164,35.8675242 155.541022,35.8658983 C155.30988,35.8642724 155.087568,35.9550002 154.923018,36.118112 L153.25966,37.7721566 C152.916838,38.1150746 152.912988,38.6714908 153.251033,39.0191648 L159.887273,45.7390978 C160.228557,46.0835608 160.782318,46.0874278 161.128334,45.7477642 L173.737149,33.173828 C173.903744,33.0100894 173.99836,32.7862815 173.999979,32.552128 C174.001597,32.3179745 173.910084,32.0928677 173.745769,31.9268198 Z" id="Path" fill="#F6BD60" fill-rule="nonzero"></path>
                <path d="M173.745776,80.9268215 L172.099619,79.2641063 C171.936661,79.0967085 171.713915,79.0016386 171.480874,79.000021 C171.247834,78.9984034 171.023801,79.090372 170.858558,79.2554916 L160.525019,89.5519162 L156.155452,85.1267862 C155.993191,84.9613754 155.772165,84.867529 155.541023,84.8659032 C155.309881,84.8642773 155.087569,84.9550052 154.923019,85.1181171 L153.25966,86.7721631 C152.916838,87.1150814 152.912988,87.671498 153.251033,88.0191723 L159.887275,94.7390973 C160.228559,95.0835599 160.782319,95.0874281 161.128337,94.7477664 L173.737156,82.173817 C173.903746,82.0100788 173.99836,81.7862737 173.999979,81.5521233 C174.001597,81.317973 173.910086,81.0928689 173.745776,80.9268215 Z" id="Path" fill="#F6BD60" fill-rule="nonzero"></path>
                <ellipse id="Oval" fill="#F2F2F2" fill-rule="nonzero" cx="217" cy="149.5" rx="41" ry="6.5"></ellipse>
                <ellipse id="Oval" stroke="#3F3D56" cx="224" cy="146.5" rx="41" ry="6.5"></ellipse>
                <path d="M244.154527,29.6964217 C244.035788,29.5594523 243.913653,29.4261985 243.788123,29.2966602 C244.751791,28.1897534 245.749204,27.0546605 245.74033,25.6320745 C245.729534,23.9032587 244.214582,22.5768723 243.648727,20.9425829 C242.878612,18.7183522 243.947284,16.3355628 244.386833,14.0237981 C245.079219,10.2209448 244.060237,6.30359808 241.607584,3.3393221 C241.16245,2.80679601 240.645646,2.29173346 239.983313,2.08036531 C238.97548,1.75871814 237.90358,2.20559689 236.853566,2.33687218 C233.387452,2.77023094 230.233971,-0.253514722 226.751265,0.0171824626 C226.520457,0.0256711885 226.293174,0.0771835604 226.08082,0.169135077 C225.630152,0.387336198 225.385829,0.868806886 225.107252,1.28384257 C224.025602,2.89538683 222.208849,3.69633966 220.401448,4.52410002 C220.174344,4.59166835 219.958062,4.69207571 219.759296,4.8222156 C219.216476,5.07809269 218.682075,5.34485443 218.17777,5.64705682 C214.765304,7.69198416 215.260298,10.5531223 217.272349,12.3204195 C216.879194,14.3043609 214.875918,16.0514051 215.221045,18.0911267 C215.491608,19.690151 217.13627,20.7784104 217.453077,22.3689639 C217.637083,23.2927616 217.347261,24.1730829 216.944871,25.0469037 C213.126241,25.9416099 208.812431,27.58933 208.475767,30.4971259 C207.890068,35.5558765 206.127189,49.5271947 206.127189,49.5271947 C206.127189,49.5271947 204.084949,60.7213517 211.845464,55.4295556 L211.745834,55.7274468 C210.347215,60.0138866 209.392634,64.4359534 208.89749,68.9223087 C208.818798,69.5896077 208.660846,70.1155279 208.373653,70.287255 C208.269535,70.3495167 208.475492,70.4481894 208.923741,70.5716019 C208.873017,70.7598899 208.818424,70.9470966 208.769849,71.1359711 C207.917089,74.4076254 207.372101,77.7536548 207.142177,81.1292949 C206.923685,84.1193798 206.516449,87.0922471 205.922966,90.0296777 C204.084949,99.3920649 205.922966,111.400343 205.922966,111.400343 L209.933929,130.519971 L210.62012,133.788665 C211.07334,134.296129 211.627342,134.700923 212.245835,134.976527 C212.514328,136.147882 212.700604,137.337006 212.803267,138.534989 C212.814149,138.668332 212.822913,138.803426 212.831414,138.938672 C212.345148,139.001305 211.910291,139.276199 211.641232,139.69104 C210.211662,141.726337 211.845464,143.354574 206.331405,147.425184 C204.906857,148.476824 204.219761,149.432984 204.045488,150.245303 L204.045488,150.245303 L204.045488,150.245327 C203.857918,151.119686 204.265356,151.826872 204.992618,152.305761 L204.994126,152.306731 C205.11797,152.387821 205.246825,152.460783 205.379897,152.525168 L205.386155,152.528141 C205.453538,152.560756 205.522626,152.591805 205.593419,152.621286 L205.59438,152.621683 C205.665378,152.651124 205.737994,152.67892 205.812227,152.705074 L205.82509,152.709472 C205.894833,152.733832 205.965841,152.756723 206.038115,152.778145 L206.053647,152.782853 C206.128709,152.804828 206.204989,152.82519 206.282488,152.843939 C206.289069,152.845542 206.295751,152.846969 206.302356,152.848534 C206.373496,152.86544 206.445548,152.880952 206.51851,152.89507 C206.527958,152.896908 206.537308,152.898884 206.54678,152.90066 C206.624785,152.915365 206.703667,152.928496 206.783427,152.940052 C206.792063,152.941293 206.800801,152.942312 206.809464,152.943528 C206.880877,152.953491 206.952894,152.962112 207.025517,152.969392 C207.039317,152.970784 207.053015,152.972325 207.066863,152.973628 C207.146452,152.98112 207.226606,152.987087 207.307325,152.991529 C207.317643,152.99207 207.328039,152.992324 207.338373,152.992835 C207.409821,152.996287 207.481627,152.998444 207.553791,152.999305 C207.570719,152.99953 207.587584,152.999846 207.604547,152.999927 C207.685158,153.000287 207.766029,152.999343 207.847238,152.996524 C207.857882,152.996165 207.868566,152.995443 207.879224,152.995021 C207.951008,152.992151 208.022943,152.987968 208.095028,152.982474 C208.114122,152.981044 208.133181,152.979679 208.152291,152.978063 C208.233225,152.97123 208.314221,152.963132 208.395233,152.953058 C208.404868,152.951864 208.414492,152.950312 208.424127,152.949069 C208.496669,152.939679 208.569156,152.928905 208.641587,152.916747 C208.661756,152.913393 208.681912,152.910063 208.702066,152.906498 C208.782589,152.892275 208.86299,152.876844 208.943088,152.859281 C208.950804,152.857578 208.958468,152.855591 208.966184,152.853875 C209.039416,152.837501 209.112323,152.819426 209.185005,152.800208 C209.205562,152.794781 209.226038,152.789327 209.24652,152.783661 C209.32581,152.761768 209.404833,152.738706 209.483189,152.713339 L209.496214,152.70888 C209.570741,152.684553 209.644622,152.658194 209.718103,152.630692 C209.73791,152.623275 209.757666,152.615751 209.77737,152.60812 C209.854679,152.578118 209.931561,152.547034 210.00741,152.513437 C213.683443,150.8852 221.239735,146.611063 221.239735,146.611063 L221.239636,146.572154 L221.239524,146.546117 L221.23931,146.508403 L221.239086,146.474552 L221.238613,146.415258 L221.238114,146.36224 C221.237903,146.341109 221.23769,146.32004 221.237417,146.2965 L221.236633,146.2341 C221.236269,146.20569 221.235909,146.177753 221.235461,146.146585 C221.235148,146.125478 221.23475,146.102257 221.234393,146.07995 C221.233859,146.047245 221.233384,146.015802 221.232759,145.980596 C221.23175,145.924309 221.230599,145.865053 221.229307,145.802828 L221.229307,145.802828 C221.19175,144.024252 221.018439,139.938678 220.218606,140.098097 C219.946124,140.152409 219.760898,140.540102 219.569786,140.986505 C219.538849,140.927473 219.507448,140.867174 219.475228,140.804342 C218.696809,139.284559 217.570973,136.676098 217.461195,134.126703 C218.089152,133.665981 218.670727,133.143716 219.197486,132.567482 C219.197486,132.567482 218.786994,130.817116 218.43778,128.971093 C218.135517,127.37135 217.878193,125.698339 217.972142,125.036865 C218.176374,123.612157 215.521452,112.621527 215.521452,112.621527 C215.521452,112.621527 215.795117,110.203589 216.344481,106.843303 C217.412569,100.312014 219.516077,90.218963 222.654998,87.365466 C222.728516,87.3003257 222.800002,87.2372396 222.87352,87.1802594 C222.87352,87.1802594 225.119984,87.5873188 226.958001,100.409719 L227.491024,106.120772 C227.643669,107.702452 227.908482,109.270967 228.283413,110.814178 C228.831608,113.275099 229.004479,115.806483 228.796018,118.320372 C228.563199,121.686755 228.463131,125.649494 228.42024,128.431748 C228.387571,130.528106 228.387571,131.956893 228.387571,131.956893 C228.767737,132.281996 229.178099,132.569069 229.612915,132.814096 L229.612915,134.681669 C229.608547,135.077986 229.454763,135.457633 229.183027,135.742934 L229.175873,135.7507 C228.886172,136.080693 228.675211,136.47365 228.559262,136.899259 C228.202753,137.548967 227.901054,138.604259 227.774906,140.301629 C227.366459,145.796944 227.162233,145.186341 227.162233,145.186341 C226.927732,145.780617 226.772017,146.403724 226.699153,147.039405 L226.699153,147.039405 L226.699153,147.039602 C226.687561,147.158412 226.680244,147.278091 226.678113,147.397993 C226.677777,147.416813 226.677862,147.435607 226.677787,147.454416 C226.67759,147.509361 226.678569,147.564119 226.680724,147.618691 C226.68182,147.64554 226.683244,147.672315 226.684996,147.699014 C226.687626,147.739574 226.691,147.779914 226.695116,147.820034 C226.698881,147.856581 226.703285,147.892926 226.708329,147.929067 C226.711981,147.954856 226.715721,147.980558 226.720097,148.006101 C226.728423,148.054845 226.738116,148.103047 226.749178,148.150707 C226.754138,148.172011 226.759659,148.193042 226.765196,148.214098 C226.778248,148.263864 226.792357,148.313144 226.808763,148.361307 C226.813934,148.376443 226.819906,148.391145 226.825427,148.406113 C226.841582,148.450065 226.859291,148.493187 226.878554,148.53548 C226.884387,148.548276 226.889686,148.561358 226.895819,148.573992 C226.919627,148.623147 226.946364,148.670626 226.974796,148.717098 C226.982661,148.729955 226.990513,148.742775 226.998754,148.755422 C227.028943,148.801835 227.061604,148.846552 227.09659,148.889373 C227.104778,148.899374 227.113468,148.909037 227.121952,148.918865 C227.160392,148.963955 227.201491,149.006649 227.245025,149.046713 C227.249564,149.050862 227.25466,149.054627 227.259271,149.058725 C227.304128,149.098351 227.351271,149.135245 227.400449,149.169212 C227.408101,149.174528 227.415293,149.180167 227.42311,149.185373 C227.477165,149.221086 227.533264,149.253523 227.591111,149.282515 C227.60259,149.288329 227.614046,149.294138 227.625787,149.299747 C227.688229,149.329636 227.75227,149.355975 227.81761,149.378642 C227.828804,149.382518 227.840495,149.385997 227.851889,149.389724 C227.92647,149.414428 228.002297,149.435096 228.079048,149.45164 L228.087225,149.453118 C228.166737,149.469752 228.251262,149.482421 228.339244,149.492248 C228.351397,149.493613 228.363077,149.495354 228.375405,149.496573 C228.462571,149.505222 228.554499,149.509966 228.650143,149.511642 C228.667918,149.511953 228.685792,149.512182 228.703866,149.512239 C228.800829,149.512561 228.90169,149.509617 229.007471,149.502509 C229.0239,149.501403 229.040978,149.4997 229.057619,149.498419 C229.170077,149.489699 229.286112,149.477947 229.408729,149.460494 C233.697433,148.849905 235.739676,148.442846 235.53545,146.00049 C235.412361,144.5284 235.066697,142.39086 234.81148,140.924832 C234.68205,140.179843 234.443949,139.458473 234.104986,138.784376 C234.115654,138.669952 234.125484,138.552229 234.134478,138.431205 C234.207993,137.421689 234.203906,136.22087 233.901659,135.416911 L233.995769,133.634953 C235.059711,133.361438 236.021061,132.778009 236.760796,131.956898 C236.760796,131.956898 236.791434,130.635983 236.881293,128.885625 C237.016075,126.180712 237.285653,122.447964 237.781917,120.966271 C238.598813,118.523915 237.781917,109.975644 237.781917,109.975644 C237.781917,109.975644 234.718553,95.3214712 237.577685,89.0120374 C240.100137,83.4464384 240.077885,77.8789745 237.651988,72.4525784 C237.699904,72.4142313 237.743478,72.3706287 237.781911,72.3225681 C237.781911,72.3225681 237.169238,71.9155087 237.373462,67.234326 C237.529324,63.6616394 236.496299,59.9730544 235.998004,58.4252125 C236.778971,58.7638567 237.579264,59.0548563 238.394587,59.2966493 C243.091741,60.7213571 243.500191,55.4295853 243.500191,55.4295853 L244.521343,47.4918897 L245.732439,35.6601713 L245.732327,35.6597118 C246.064426,34.7314164 246.509416,32.41297 244.154527,29.6964217 Z M223.393309,21.8538662 C223.387588,21.9848495 223.378789,22.1157437 223.36575,22.2459946 C223.327787,22.6670706 223.239884,23.0819868 223.103939,23.4817847 C223.243598,22.9416141 223.328478,22.3884306 223.357261,21.8308211 C223.369183,21.8386568 223.381362,21.8461088 223.393315,21.8538743 L223.393309,21.8538662 Z M235.7397,50.7483647 C235.812281,50.8826997 235.8811,51.0135588 235.94745,51.1421203 L235.431666,50.8755586 C235.622694,49.9158171 235.93202,48.9841651 236.352381,48.1024734 C236.859879,47.0764229 237.277567,46.0073089 237.60065,44.907406 C237.586139,46.1784823 237.646681,47.4493004 237.781951,48.7130625 C238.190388,51.9695428 235.7397,50.7483647 235.7397,50.7483647 Z" id="Shape" fill="url(#linearGradient-1)" fill-rule="nonzero"></path>
                <path d="M218.007679,6.43626109 C217.354634,6.8956962 216.67209,7.42677434 216.439681,8.20622675 C216.064848,9.46332879 217.005605,10.7254976 217.098649,12.0372322 C217.267844,14.4224854 214.653388,16.3937282 215.038841,18.7520716 C215.30304,20.3685377 216.909031,21.4686577 217.21839,23.0765662 C217.669563,25.4215579 215.205937,27.4895187 215.399812,29.8718818 C215.503083,31.1408889 216.358477,32.2185845 217.329214,33.005126 C218.691784,34.1052056 220.322421,34.7955539 222.041205,35 C221.926894,32.9600401 220.460383,31.1040273 220.712068,29.0772262 C220.884651,27.6874373 221.832349,26.5509985 222.380646,25.2691109 C223.343323,23.0184511 223.035343,20.4133921 222.457823,18.0265602 C221.880303,15.6397282 221.046721,13.280236 221.004768,10.8205707 C220.979514,9.34006464 221.652804,7.16380034 221.158917,5.75894057 C220.558511,4.05108501 219.126532,5.64912172 218.007679,6.43626109 Z" id="Path" fill="#3F3D56" fill-rule="nonzero"></path>
                <path d="M218.007679,6.43625535 C217.354634,6.89569325 216.67209,7.42676869 216.439681,8.20622119 C216.064848,9.46332336 217.005605,10.7254951 217.098649,12.0372298 C217.267844,14.4224833 214.653388,16.3937263 215.038841,18.7520699 C215.30304,20.3685362 216.909031,21.4686563 217.21839,23.0765622 C217.669563,25.4215542 215.205937,27.4895152 215.399812,29.8718785 C215.503083,31.1408858 216.358477,32.2185814 217.329214,33.0051258 C218.691785,34.1052044 220.322422,34.7955526 222.041205,35 C221.926894,32.9600399 220.460383,31.1040242 220.712068,29.0772256 C220.884651,27.6874366 221.832349,26.5509977 222.380646,25.2691099 C223.343323,23.0184499 223.035343,20.4133906 222.457823,18.0265584 C221.880303,15.6397262 221.046699,13.2802282 221.004747,10.8205572 C220.979492,9.34005093 221.652783,7.16378916 221.158896,5.75892649 C220.558511,4.05109279 219.126532,5.64912691 218.007679,6.43625535 Z" id="Path" fill="#000000" fill-rule="nonzero" opacity="0.1"></path>
                <path d="M221,141.857786 L219.285708,143.737025 C219.285708,143.737025 213.190475,147.286683 213.952379,142.484206 C214.160803,141.05655 214.204958,139.605863 214.083809,138.166151 C213.926378,136.156667 213.562813,134.17304 213,132.252841 L218.714279,131 C217.763807,134.274036 219.329513,138.395812 220.306649,140.494282 C220.700952,141.339945 221,141.857786 221,141.857786 Z" id="Path" fill="#FFB9B9" fill-rule="nonzero"></path>
                <path d="M233.966234,138.592168 C233.927039,139.240763 233.860643,139.886547 233.767302,140.527039 C233.767302,140.527039 229.404798,144.106233 229.055798,140.105957 C228.828949,137.499461 229.34198,136.322532 229.729366,135.819351 L229.735479,135.811322 C229.96828,135.514361 230.099485,135.122236 230.102811,134.713501 L230.102811,130 L233.941803,131.473774 L233.767304,135.474048 C234.025558,136.305698 234.029052,137.54788 233.966234,138.592168 Z" id="Path" fill="#FFB9B9" fill-rule="nonzero"></path>
                <path d="M221,141.790678 L219.313068,143.710051 C219.313068,143.710051 213.315112,147.33552 214.064857,142.430476 C214.269954,140.972329 214.313404,139.49066 214.194189,138.020201 C215.508116,137.800537 217.063834,139.444795 217.063834,139.444795 C219.26058,142.972159 219.852881,141.637131 220.317722,140.398074 C220.705724,141.261778 221,141.790678 221,141.790678 Z" id="Path" fill="#000000" fill-rule="nonzero" opacity="0.05"></path>
                <path d="M216.072407,140.372368 C216.072407,140.372368 213.419088,137.741318 212.092429,139.765204 C210.76577,141.789089 212.281951,143.408195 207.164836,147.455963 C202.04772,151.503731 207.164836,154.134781 210.576246,152.515673 C213.987656,150.896564 221,146.646409 221,146.646409 C221,146.646409 221,139.967591 220.052387,140.169981 C219.104773,140.372371 219.294295,145.22969 216.072407,140.372368 Z" id="Path" fill="#3F3D56" fill-rule="nonzero"></path>
                <path d="M233,137.822415 C232.960539,138.427189 232.893692,139.029341 232.799716,139.626558 C232.799716,139.626558 228.407551,142.963927 228.056177,139.233926 C227.827786,136.803536 228.344305,135.706125 228.734325,135.236941 C229.04516,134.974591 229.460466,134.926212 229.813042,135.111282 C230.515789,134.761834 231.288815,135.344897 231.928306,136.098744 C232.361672,136.609268 232.723035,137.19047 233,137.822415 L233,137.822415 Z" id="Path" fill="#000000" fill-rule="nonzero" opacity="0.05"></path>
                <path d="M229.384211,135.119003 C229.384211,135.119003 227.358788,133.862036 226.990529,139.518384 C226.62227,145.174733 226.438142,144.546251 226.438142,144.546251 C226.438142,144.546251 224.59685,149.574118 228.463565,148.945633 C232.33028,148.317148 234.171572,147.898161 233.987446,145.384229 C233.876464,143.869007 233.564812,141.668833 233.334707,140.159841 C233.115443,138.665173 232.512534,137.277675 231.601839,136.171934 C230.929989,135.367291 230.120729,134.746568 229.384211,135.119003 Z" id="Path" fill="#3F3D56" fill-rule="nonzero"></path>
                <path d="M238.328525,109.770101 C238.328525,109.770101 239.136737,118.262247 238.328525,120.688574 C237.837536,122.160541 237.570824,125.868782 237.437474,128.555942 C237.348571,130.294818 237.318257,131.607055 237.318257,131.607055 C233.479245,135.650934 229.034071,131.607055 229.034071,131.607055 C229.034071,131.607055 229.034071,130.187649 229.066393,128.105054 C229.108829,125.341064 229.207832,121.404343 229.438178,118.06006 C229.644469,115.563045 229.473497,113.049178 228.931022,110.603159 C228.559971,109.069434 228.297996,107.511325 228.147064,105.940539 L227.619708,100.266977 C225.80122,87.5287591 223.578641,87.1243709 223.578641,87.1243709 C223.505905,87.1809779 223.435178,87.243658 223.362441,87.3083607 C220.256882,90.1431257 218.175735,100.169917 217.119001,106.658325 C216.575476,109.996551 216.304719,112.398615 216.304719,112.398615 C216.304719,112.398615 218.931413,123.317087 218.72936,124.732445 C218.636412,125.38957 218.891,127.051606 219.190049,128.640845 C219.535551,130.474746 219.941687,132.213622 219.941687,132.213622 C214.890351,137.672858 211.455446,133.426786 211.455446,133.426786 L210.77655,130.179551 L206.808217,111.18545 C206.808217,111.18545 204.989729,99.2560082 206.808217,89.9550854 C207.395505,87.0360508 207.798389,84.0828819 208.014472,81.1131353 C208.241733,77.7610005 208.780857,74.4373741 209.624842,71.185417 C209.87134,70.2229683 210.144785,69.2679402 210.445177,68.3203326 C210.445177,68.3203326 218.03228,67 225.176882,67 C230.535342,67 235.643267,67.7420593 237.116221,70.3422708 C237.455667,70.9407597 237.764136,71.5405997 238.041629,72.1417908 C240.599617,77.6434926 240.676399,83.2948171 238.126487,88.944119 C235.297725,95.2121372 238.328525,109.770101 238.328525,109.770101 Z" id="Path" fill="#3F3D56" fill-rule="nonzero"></path>
                <path d="M220.501776,37 C220.501776,37 210.064267,25.9205877 217.941632,26.7412853 C219.727826,26.9279898 220.937005,26.5956088 221.738527,25.971883 C222.652292,25.2619745 223.036316,24.174555 223.142656,23.0399339 C223.359291,20.7768679 222.471116,18.3291416 222.471116,18.3291416 C222.471116,18.3291416 233.105561,9.50664641 230.939286,20.5860587 C230.701414,21.7119707 230.562983,22.8582079 230.525728,24.0104182 C230.49027,26.3617055 231.232714,27.2624232 232.274504,27.6317358 C234.031152,28.2575277 236.642501,27.381441 237.831979,29.4085512 C239.998254,33.1016877 220.501776,37 220.501776,37 Z" id="Path" fill="#FFB9B9" fill-rule="nonzero"></path>
                <path d="M220.501776,37 C220.501776,37 210.064267,25.9205877 217.941632,26.7412853 C219.727826,26.9279898 220.937005,26.5956088 221.738527,25.971883 C222.652292,25.2619745 223.036316,24.174555 223.142656,23.0399339 C223.359291,20.7768679 222.471116,18.3291416 222.471116,18.3291416 C222.471116,18.3291416 233.105561,9.50664641 230.939286,20.5860587 C230.701414,21.7119707 230.562983,22.8582079 230.525728,24.0104182 C230.49027,26.3617055 231.232714,27.2624232 232.274504,27.6317358 C234.031152,28.2575277 236.642501,27.381441 237.831979,29.4085512 C239.998254,33.1016877 220.501776,37 220.501776,37 Z" id="Path" fill="#000000" fill-rule="nonzero" opacity="0.1"></path>
                <path d="M236,15.5023929 C235.997381,20.1962586 232.192569,24 227.5,24 C222.807431,24 219.002619,20.1962586 219,15.5023929 C219,15.3442122 219.003957,15.1860183 219.013839,15.0298181 C219.26947,10.4333322 223.136131,6.87535489 227.736672,7.00334732 C232.337213,7.13133974 236.000184,10.8988002 236,15.5023929 L236,15.5023929 Z" id="Path" fill="#FFB9B9" fill-rule="nonzero"></path>
                <path d="M220.501776,36 C220.501776,36 210.064267,24.9488355 217.941632,25.7674406 C219.727826,25.9536692 220.937005,25.6221356 221.738527,25 C220.214247,27.6277142 218.498958,32.353114 226.212866,31.9069768 C233.272951,31.4997213 233.152821,28.5752501 232.274504,26.6556208 C234.031152,27.2798172 236.642501,26.4059642 237.831979,28.4279061 C239.998254,32.1116267 220.501776,36 220.501776,36 Z" id="Path" fill="#000000" fill-rule="nonzero" opacity="0.05"></path>
                <path d="M238,73.1018571 C236.142339,75.5463117 212.462203,72.3414521 209,71.2772966 C209.249043,70.29372 209.525311,69.3177268 209.828803,68.349317 C209.828803,68.349317 217.494226,67 224.712579,67 C230.126353,67 235.287006,67.7583492 236.775165,70.4156415 C237.118114,71.0272686 237.429768,71.6402765 237.710125,72.2546651 C237.840764,72.9943979 238,73.1018571 238,73.1018571 Z" id="Path" fill="#000000" fill-rule="nonzero" opacity="0.1"></path>
                <path d="M222.51677,24 C222.51677,24 209.114984,25.1166409 208.519348,30.3953072 C207.949942,35.4415247 206.236082,49.3781991 206.236082,49.3781991 C206.236082,49.3781991 204.250631,60.5446077 211.79534,55.265944 L211.698475,55.563098 C210.338058,59.8422091 209.410167,64.2526452 208.929351,68.7252582 C208.852842,69.3908966 208.699281,69.9155051 208.420077,70.0868131 C207.42735,70.6958917 235.025101,74.7564036 237.010552,72.1170705 C237.010552,72.1170705 236.414916,71.711019 236.613462,67.0414312 C236.812009,62.3718434 235.025101,57.4992258 235.025101,57.4992258 C235.025101,57.4992258 233.436741,52.6266136 235.620735,47.957023 C237.80473,43.2874325 237.010552,41.8662565 237.010552,41.8662565 L244.555261,35.9785142 C244.555261,35.9785142 246.184629,33.1222723 243.205928,29.5965993 C241.399702,27.4902452 238.848475,26.2048352 236.114589,26.0236998 L230.910561,25.6451725 C230.910561,25.6451725 236.613473,31.9180023 225.892032,32.5270781 C215.170592,33.136154 222.51677,24 222.51677,24 Z" id="Path" fill="#575A89" fill-rule="nonzero"></path>
                <path d="M213.915043,35 C213.915043,35 214.25487,38.301587 213.575218,39.3333324 C212.895565,40.3650778 212.725648,45.1111117 213.575218,48" id="Path" fill="#000000" fill-rule="nonzero" opacity="0.05"></path>
                <path d="M223,86.6356911 C219.641052,89.4725576 217.390099,99.5067815 216.247145,106 C214.656172,96.961305 221.266987,82 221.266987,82 L223,86.6356911 Z" id="Path" fill="#000000" fill-rule="nonzero" opacity="0.1"></path>
                <path d="M219,132.370993 C214.039679,137.521899 210.666664,133.51564 210.666664,133.51564 L210,130.451804 C211.874996,131.3885 215.04365,132.11535 218.26191,129 C218.601187,130.730327 219,132.370993 219,132.370993 Z" id="Path" fill="#000000" fill-rule="nonzero" opacity="0.1"></path>
                <path d="M237,128.425424 C236.915365,130.066095 236.886505,131.304223 236.886505,131.304223 C233.231784,135.119721 229,131.304223 229,131.304223 C229,131.304223 229,129.96498 229.03077,128 C230.61769,128.999658 233.4703,130.100433 237,128.425424 Z" id="Path" fill="#000000" fill-rule="nonzero" opacity="0.1"></path>
                <rect id="Rectangle" fill="#CDD0DB" fill-rule="nonzero" x="215" y="43" width="14" height="5" rx="2.5"></rect>
                <rect id="Rectangle" fill="#000000" fill-rule="nonzero" opacity="0.05" x="215" y="43" width="14" height="5" rx="2.5"></rect>
                <rect id="Rectangle" fill="#3F3D56" fill-rule="nonzero" x="215" y="43" width="14" height="5" rx="2.5"></rect>
                <circle id="Oval" fill="#9DA7C0" fill-rule="nonzero" cx="225.5" cy="45.5" r="1"></circle>
                <path d="M209.166718,51.2403259 C209.534423,50.0916271 210.36717,49.1718018 211.442129,48.7269803 C212.292435,48.3962795 212.990888,47.7387742 213.395743,46.8878974 C214.190142,45.0444455 215.600034,43.1438598 219.225473,44.4109178 C222.850912,45.6779759 218.218408,46.5226785 218.218408,46.5226785 C218.218408,46.5226785 226.476351,45.2556204 223.253739,47.7897365 C220.031127,50.3238527 216.002861,51.8020828 216.002861,51.8020828 L214.01935,54.0040743 C213.444385,54.6548184 212.63163,55.0169888 211.785746,54.999387 C210.939861,54.9817852 210.141452,54.5860883 209.591567,53.9119375 C209.001379,53.1666138 208.839093,52.1460956 209.166718,51.2403259 Z" id="Path" fill="#000000" fill-rule="nonzero" opacity="0.05"></path>
                <path d="M208.166718,50.2403259 C208.534422,49.0916265 209.36717,48.1718008 210.44213,47.7269803 C211.292435,47.3962801 211.990887,46.7387745 212.395741,45.8878974 C213.190139,44.0444455 214.600035,42.1438598 218.225474,43.4109178 C221.850912,44.6779759 217.218405,45.5226785 217.218405,45.5226785 C217.218405,45.5226785 225.476351,44.2556232 222.253739,46.7897365 C219.031127,49.3238498 215.002859,50.8020857 215.002859,50.8020857 L213.019347,53.0040743 C212.444383,53.6548184 211.631628,54.0169888 210.785743,53.999387 C209.939859,53.9817852 209.14145,53.5860883 208.591564,52.9119375 C208.001378,52.1666128 207.839093,51.1460952 208.166718,50.2403259 Z" id="Path" fill="#FFB9B9" fill-rule="nonzero"></path>
                <path d="M237,55.4046423 L235.572823,59 L233.746023,57.606266 L228.64078,53.7127114 L225.174759,51.386304 C220.281551,47.5794559 225.174759,46.9449822 225.174759,46.9449822 C223.339798,46.0990154 225.174759,45.2530485 225.174759,45.2530485 C231.699035,43.7726079 230.475732,49.2713896 230.475732,49.2713896 L234.60846,51.4941661 L235.980591,52.2322708 L237,55.4046423 Z" id="Path" fill="#000000" fill-rule="nonzero" opacity="0.05"></path>
                <path d="M238,54.4046451 L236.572814,58 L234.746015,56.606266 L229.640778,52.7127114 L226.174756,50.386304 C221.281555,46.5794559 226.174756,45.9449822 226.174756,45.9449822 C224.339797,45.0990154 226.174756,44.2530485 226.174756,44.2530485 C232.699027,42.7726079 231.475726,48.2713896 231.475726,48.2713896 L235.608449,50.4941661 L236.980578,51.2322708 L238,54.4046451 Z" id="Path" fill="#FFB9B9" fill-rule="nonzero"></path>
                <path d="M238,55.6469436 L236.68421,59 L235,57.7001927 C236.524441,57.7573986 238.325182,56.9842139 235.79512,52 L237.06015,52.6883623 L238,55.6469436 Z" id="Path" fill="#000000" fill-rule="nonzero" opacity="0.05"></path>
                <path d="M244.619844,34 L245,35.5710362 L243.832058,47.1792832 L242.847326,54.9670422 C242.847326,54.9670422 242.453432,60.1588789 237.923663,58.7610766 C233.393893,57.3632743 233,55.965472 233,55.965472 C233,55.965472 239.499234,58.1620192 235.363357,50.3742602 C235.363357,50.3742602 237.726715,51.5723776 237.332824,48.3774006 C236.938933,45.1824236 237.332824,39.5912118 237.332824,39.5912118 L244.619844,34 Z" id="Path" fill="#575A89" fill-rule="nonzero"></path>
                <path d="M235.999992,14.6060966 C235.99996,18.625957 233.249539,22.1104849 229.374485,23 C229.0896,22.1674095 228.887806,21.3388365 229.095524,20.4962387 C229.497143,18.8610906 231.362722,17.6682478 231.155012,15.997077 C231.137561,15.8089359 231.072865,15.6284296 230.967064,15.4726972 C230.549635,14.9163147 229.698945,15.1925066 229.02234,15.3306053 C227.199031,15.6363119 225.432324,14.5342015 224.883626,12.7487842 C223.334421,14.2904934 221.061528,14.8232022 219,14.1277578 C219.255839,9.47520855 223.125651,5.87383459 227.72994,6.00338814 C232.334229,6.13294169 236.000184,9.94635388 236,14.6060966 L235.999992,14.6060966 Z" id="Path" fill="#000000" fill-rule="nonzero" opacity="0.05"></path>
                <path d="M224.989836,12.3297958 C225.554358,14.1607489 227.374562,15.2909853 229.252775,14.9768226 C229.950625,14.836559 230.826867,14.5530766 231.257051,15.123887 C231.366811,15.2825235 231.433484,15.4672942 231.450458,15.6598776 C231.666078,17.3750825 229.743465,18.5978142 229.32936,20.2756676 C228.90293,22.0034431 230.153032,23.6722279 230.419145,25.4322669 C230.564716,26.3950823 230.410792,27.3758889 230.421766,28.3497327 C230.43274,29.3235766 230.649903,30.3697705 231.366865,31.0234703 C232.083827,31.6771701 233.409038,31.6837646 233.889363,30.8384413 C236.183298,32.0589932 235.267319,35.8422037 237.009195,37.778368 C237.969918,38.8462588 239.550327,39.1030827 240.974845,38.9662716 C241.308627,38.9612217 241.633274,38.8557222 241.907018,38.6633465 C242.143034,38.4293587 242.302154,38.1281502 242.36294,37.800304 C242.722487,36.4300346 242.660585,34.9821541 242.185415,33.6480691 C241.956648,33.0103953 241.629008,32.3656733 241.713802,31.693075 C241.817663,31.1714074 242.062319,30.6886616 242.42089,30.2978794 C243.516105,28.930703 245.010798,27.6087345 244.999941,25.8522443 C244.989163,24.1085693 243.476895,22.7707975 242.912033,21.1224615 C242.143274,18.8791415 243.210067,16.4758814 243.64884,14.1442514 C244.341912,10.3161695 243.327236,6.37491776 240.874493,3.36800609 C240.430143,2.83090775 239.914256,2.31142139 239.253096,2.09822753 C238.24704,1.77382001 237.177028,2.22454346 236.128863,2.35695087 C232.668869,2.7940207 229.520954,-0.255690379 226.044397,0.0173298249 C225.813767,0.0259487346 225.586774,0.0779322242 225.375127,0.170598394 C224.925255,0.390661678 224.681366,0.876273747 224.403288,1.29488493 C222.868656,3.60503263 219.851521,4.26333127 217.486046,5.69554587 C210.577911,9.87819693 219.706622,17.44975 224.989836,12.3297958 Z" id="Path" fill="#3F3D56" fill-rule="nonzero"></path>
                <path d="M210.575407,149.734614 C208.360437,150.762699 205.427548,150.03827 205.04219,148.320517 C204.577866,150.588446 208.045125,151.700824 210.575407,150.526374 C213.987092,148.942836 221,144.786042 221,144.786042 C221,144.786042 220.999977,144.478582 220.99033,144 C220.7861,144.12097 213.936076,148.174754 210.575407,149.734614 Z" id="Path" fill="#FFFFFF" fill-rule="nonzero" opacity="0.3"></path>
                <path d="M233.977902,145 C233.765562,147.017659 231.928105,147.44177 228.462936,148.04467 C226.700717,148.351274 226.125541,147.399826 226.01972,146.273889 C225.904523,147.715986 226.240804,149.328413 228.462936,148.941783 C232.330093,148.268948 234.171591,147.82039 233.987445,145.129046 C233.984577,145.087171 233.981026,145.042842 233.977902,145 Z" id="Path" fill="#FFFFFF" fill-rule="nonzero" opacity="0.3"></path>
                <g id="Group" opacity="0.1" transform="translate(216.000000, 0.000000)" fill="#000000" fill-rule="nonzero">
                    <path d="M26.509194,38.1273146 C25.1002881,38.2640013 23.5372068,38.0074006 22.587012,36.9404402 C20.8642311,35.0059468 21.7701702,31.2260311 19.5013737,30.0065451 C19.0263195,30.8511313 17.7156207,30.844548 17.0065359,30.1914051 C16.2974511,29.5382622 16.0826526,28.4929825 16.0717959,27.5199957 C16.0609392,26.5470089 16.2131868,25.5670377 16.069212,24.6050561 C15.8060268,22.8465351 14.569632,21.1792082 14.991372,19.4529363 C15.4009431,17.7765323 17.3024775,16.5548518 17.089218,14.8411506 C17.0724348,14.6487364 17.0064955,14.4641273 16.8979392,14.3056312 C16.4724678,13.7353221 15.6058218,14.018561 14.9156262,14.1586946 C13.058001,14.4725795 11.257752,13.3433233 10.6994196,11.5139618 C6.0286491,16.0865909 -1.6793703,10.5275694 1.6166574,6.31138923 C-3.5265942,10.5632983 4.9114188,17.2111724 9.8929026,12.3343625 C10.451235,14.163724 12.251484,15.2929802 14.1091092,14.9790953 C14.7993048,14.8389507 15.6659508,14.5557118 16.0914222,15.1260319 C16.1999777,15.2845297 16.2659178,15.4691391 16.2827037,15.6615541 C16.4959605,17.3752608 14.5944288,18.5969358 14.1848577,20.273337 C13.7631015,21.9996144 14.9995071,23.6669385 15.2626977,25.4254568 C15.4066725,26.3874385 15.2544411,27.3673986 15.2652843,28.3403964 C15.2761275,29.3133942 15.4909233,30.3586739 16.2000243,31.011803 C16.9091253,31.6649322 18.2198106,31.671532 18.6948648,30.8269458 C20.9636586,32.0464291 20.0577195,35.8263613 21.7805004,37.7608409 C22.7306952,38.8278013 24.2937765,39.084402 25.7026824,38.9477125 C26.0328081,38.9426639 26.3538984,38.8372565 26.624646,38.6450506 C26.7996563,38.4826947 26.9282586,38.275228 26.996841,38.0446099 C26.8369788,38.0866138 26.6738058,38.1142879 26.509194,38.1273146 Z" id="Path"></path>
                    <path d="M10.1192841,0.488626056 C10.1885445,0.383298592 10.2557016,0.273738803 10.3244679,0.165217183 C10.3077819,0.172476127 10.2903318,0.177634014 10.2739509,0.185722394 C9.8290098,0.405605493 9.5877918,0.890790211 9.3127671,1.30903225 C9.2181663,1.45289282 9.1180206,1.59052803 9.01233,1.72193789 C9.43728073,1.36667236 9.81004642,0.951355841 10.1192841,0.488626056 L10.1192841,0.488626056 Z" id="Path"></path>
                </g>
                <path d="M215.028769,57 C215.028769,57 214.500608,58.98393 217.970291,59.8656646 C221.439973,60.7473991 215.028769,57 215.028769,57 Z" id="Path" fill="#000000" fill-rule="nonzero" opacity="0.1"></path>
                <path d="M213.340249,62 C213.340249,62 211.684405,63.2749371 215.678396,65.4893026 C219.672388,67.703668 213.340249,62 213.340249,62 Z" id="Path" fill="#000000" fill-rule="nonzero" opacity="0.1"></path>
                <path d="M209,84 C209,84 213.35947,82.5898425 213.955257,80.474609 C214.551043,78.3593756 209,84 209,84 Z" id="Path" fill="#000000" fill-rule="nonzero" opacity="0.1"></path>
                <path d="M209,110 C209,110 211.292791,111.137784 212.744102,110.986073 C214.195412,110.834362 209,110 209,110 Z" id="Path" fill="#000000" fill-rule="nonzero" opacity="0.1"></path>
                <path d="M210,112 C210,112 210.919306,112.866595 212.607023,112.990397 C214.29474,113.1142 210,112 210,112 Z" id="Path" fill="#000000" fill-rule="nonzero" opacity="0.1"></path>
                <path d="M245.63427,120.75909 C247.230533,121.339459 249.019217,120.848152 250.095167,119.533793 C251.171117,118.219433 251.29961,116.368755 250.415622,114.918284 C249.531634,113.467814 247.828012,112.733979 246.166865,113.088133 L246.266966,115.146818 L245.29308,113.382506 C244.337264,113.83167 243.598855,114.641981 243.240119,115.635371 C243.11272,115.983344 243.035271,116.347617 243.010081,116.717325 C242.883767,118.499606 243.954945,120.14943 245.63427,120.75909 L245.63427,120.75909 Z" id="Path" fill="#57B894" fill-rule="nonzero"></path>
                <path d="M250.731754,144 C250.397851,142.153044 251.844718,140.515659 253.273891,139.451365 C254.703064,138.387071 256.37297,137.341357 256.860606,135.535194 C257.561424,132.939421 255.473899,130.562179 253.84912,128.512147 C252.643688,126.99079 251.608506,125.319598 250.765235,123.53354 C250.39862,122.831987 250.148913,122.065632 250.027611,121.269764 C249.899502,120.119157 250.239803,118.974194 250.582646,117.876667 C251.724763,114.22048 252.945883,110.594924 254.246008,107" id="Path" stroke="#3F3D56"></path>
                <path d="M245.634269,119.759089 C247.230531,120.33946 249.019215,119.848154 250.095166,118.533794 C251.171117,117.219434 251.29961,115.368754 250.415621,113.918283 C249.531633,112.467812 247.82801,111.733978 246.166863,112.088134 L246.266964,114.146816 L245.293078,112.382507 C244.337263,112.831669 243.598854,113.641979 243.240119,114.63537 C243.112721,114.983342 243.035272,115.347615 243.010081,115.717324 C242.883766,117.499604 243.954944,119.149429 245.634269,119.759089 L245.634269,119.759089 Z" id="Path" stroke="#3F3D56"></path>
                <path d="M250.240125,107.63533 C250.704469,106.353958 251.789795,105.397645 253.119305,105.098397 L253.448668,107.055988 L254.059301,105 C255.798934,105.025805 257.322351,106.173359 257.827448,107.838455 C258.332545,109.503551 257.703453,111.304216 256.271398,112.29237 C254.839343,113.280523 252.932841,113.229483 251.555695,112.166122 C250.17855,111.102761 249.646679,109.271016 250.240122,107.63533 L250.240125,107.63533 Z" id="Path" fill="#57B894" fill-rule="nonzero"></path>
                <path d="M250.240112,106.635337 C250.704457,105.35396 251.78979,104.397642 253.119308,104.098397 L253.448668,106.055988 L254.059301,104 C255.798934,104.025805 257.322351,105.173359 257.827448,106.838455 C258.332545,108.503551 257.703453,110.304216 256.271398,111.29237 C254.839343,112.280523 252.932841,112.229483 251.555695,111.166122 C250.17855,110.102761 249.646679,108.271016 250.240122,106.63533 L250.240112,106.635337 Z" id="Path" stroke="#3F3D56"></path>
                <path d="M252.636615,129.759633 C254.547926,130.452908 256.675241,129.601856 257.580874,127.781636 C258.486508,125.961416 257.88218,123.751437 256.17631,122.645251 L255.707168,124.224687 L255.374504,122.244668 C255.371216,122.243117 255.367812,122.241825 255.364323,122.240804 C253.287923,121.48762 250.994053,122.560189 250.24082,124.636454 C249.487587,126.712719 250.560226,129.006441 252.636625,129.759625 L252.636615,129.759633 Z" id="Path" fill="#57B894" fill-rule="nonzero"></path>
                <path d="M252.635942,128.759602 C254.547493,129.452966 256.675075,128.601805 257.580822,126.78135 C258.486569,124.960896 257.882166,122.750632 256.176081,121.644303 L255.706883,123.223943 L255.374175,121.243668 C255.370887,121.242117 255.367484,121.240825 255.363995,121.239805 C254.020631,120.752517 252.519332,121.018877 251.425621,121.938548 C250.33191,122.85822 249.811948,124.291484 250.061601,125.698443 C250.311253,127.105402 251.292592,128.272306 252.635955,128.759594 L252.635942,128.759602 Z" id="Path" stroke="#3F3D56"></path>
                <path d="M249.061466,136.692465 C249.388776,138.555193 250.975815,139.934054 252.865729,139.997709 C254.755642,140.061364 256.431836,138.792412 256.883702,136.955928 C257.335567,135.119444 256.439591,133.217417 254.735974,132.396615 C253.032356,131.575812 250.986768,132.060594 249.832533,133.558676 L251.615284,136.242354 L249.179378,134.817942 C248.990507,135.424315 248.950068,136.067199 249.061466,136.692465 L249.061466,136.692465 Z" id="Path" fill="#57B894" fill-rule="nonzero"></path>
                <path d="M249.061466,136.692468 C249.388777,138.555195 250.975817,139.934055 252.86573,139.997709 C254.755643,140.061363 256.431836,138.792411 256.883702,136.955927 C257.335567,135.119444 256.439591,133.217417 254.735974,132.396615 C253.032357,131.575812 250.986769,132.060594 249.832534,133.558675 L251.615286,136.242354 L249.179378,134.817944 C248.990507,135.424318 248.950068,136.067201 249.061466,136.692468 Z" id="Path" stroke="#3F3D56"></path>
                <path d="M244,147.1964 C244,147.1964 247.762441,145.806802 248.89634,145.045844 C250.03024,144.284885 254.683912,143.376259 254.965207,144.596669 C255.246502,145.817078 260.619439,150.666434 256.371679,150.698725 C252.123918,150.731017 246.501747,151.355547 245.370025,150.705852 C244.238303,150.056157 244,147.1964 244,147.1964 Z" id="Path" fill="#656380" fill-rule="nonzero"></path>
                <path d="M256.44835,151.237329 C252.200282,151.271255 246.577733,151.927234 245.445932,151.24482 C244.583995,150.725125 244.240535,148.860346 244.125614,148 C244.046024,148.003387 244,148.004846 244,148.004846 C244,148.004846 244.238319,151.008623 245.37012,151.691037 C246.501922,152.373451 252.124479,151.717475 256.372541,151.683549 C257.598788,151.673764 258.022356,151.241914 257.999098,150.602317 C257.828751,150.988746 257.36107,151.230042 256.44835,151.237329 Z" id="Path" fill="#000000" fill-rule="nonzero" opacity="0.2"></path>
            </g>
        </g>
    </g>
</svg>