<?xml version="1.0" encoding="UTF-8"?>
<svg width="149px" height="99px" viewBox="0 0 149 99" version="1.1" xmlns="http://www.w3.org/2000/svg" xmlns:xlink="http://www.w3.org/1999/xlink">
    <!-- Generator: Sketch 53.2 (72643) - https://sketchapp.com -->
    <title>undraw_version_control_9bpv</title>
    <desc>Created with Sketch.</desc>
    <defs>
        <linearGradient x1="50.0228196%" y1="100.006339%" x2="50.0228196%" y2="-0.00916024026%" id="linearGradient-1">
            <stop stop-color="#808080" stop-opacity="0.25" offset="0%"></stop>
            <stop stop-color="#808080" stop-opacity="0.12" offset="54%"></stop>
            <stop stop-color="#808080" stop-opacity="0.1" offset="100%"></stop>
        </linearGradient>
    </defs>
    <g id="Hive-LP" stroke="none" stroke-width="1" fill="none" fill-rule="evenodd">
        <g id="Desktop" transform="translate(-557.000000, -849.000000)">
            <g id="Group-5" transform="translate(-540.000000, -170.000000)">
                <g id="Group-3" transform="translate(760.000000, 890.000000)">
                    <g id="O-que-é-2" transform="translate(279.000000, 103.000000)">
                        <g id="undraw_version_control_9bpv" transform="translate(58.000000, 26.000000)">
                            <path d="M88.2471068,15.8281327 C78.9513758,15.5084498 70.0980251,12.5403721 61.6425294,9.29239431 C53.1870336,6.04441652 44.8148432,2.44549799 35.7417387,0.72489383 C29.9060534,-0.38191925 23.2330055,-0.538208645 18.5305606,2.55632138 C14.0062168,5.54002801 12.5440638,10.6762659 11.7569717,15.445934 C11.1666525,19.0363277 10.8176317,22.8128478 12.439214,26.1730698 C13.5638365,28.5060442 15.5617293,30.4667657 16.9434495,32.7017041 C21.749308,40.4763911 18.3524594,50.0640351 13.1430008,57.6554372 C10.7012914,61.2159938 7.86603603,64.6174194 5.98017466,68.405306 C4.09431329,72.1931926 3.22247943,76.5394586 4.87135137,80.4069107 C6.50729661,84.243105 10.4039774,87.1188298 14.6238257,89.1434879 C23.197098,93.2553198 33.2957205,94.4331735 43.1516083,95.0995347 C64.9575088,96.5757591 86.8811859,95.9363934 108.744538,95.2970277 C116.83665,95.0597519 124.963234,94.8196346 132.923206,93.5821067 C137.344136,92.8944334 141.908696,91.8032493 145.11739,89.1775874 C149.190735,85.8344152 150.200454,80.1724766 147.471485,75.9810792 C142.892561,68.9494773 130.235889,67.2018777 127.031505,59.6559415 C125.269165,55.502906 127.078903,50.8753191 129.638389,47.0234959 C135.130798,38.7586285 144.336043,31.5096422 144.821512,22.0626587 C145.154733,15.575228 140.729494,9.07785159 133.886963,6.00747539 C126.714083,2.78933466 116.769144,3.19426627 111.480689,8.52089302 C106.028496,13.9995467 96.4541228,16.1094536 88.2471068,15.8281327 Z" id="Path" fill="#F6BD60" fill-rule="nonzero" opacity="0.1"></path>
                            <path d="M64.5962905,93.1245884 C64.4521212,92.6075678 64.3079519,92.0848342 64.0196132,91.6349405 C63.7522513,91.2534794 63.434676,90.909089 63.0753042,90.6108968 C62.0300766,89.671119 60.7469697,88.7170588 59.3615025,88.9541456 C58.9330017,89.0480455 58.5189822,89.1978911 58.1302965,89.3997545 C57.9284594,89.4925897 57.7251807,89.5854249 57.5175769,89.6639778 C56.9331749,89.9060055 56.2872389,89.9619099 55.6693262,89.82394 C55.3521537,89.7396742 55.0566065,89.5882814 54.7437591,89.494018 C54.5952108,89.449803 54.443357,89.4173279 54.2896258,89.3968981 C54.5918968,89.2628589 54.8851643,89.1097226 55.1676169,88.938435 C56.7217622,87.9958007 57.9616184,86.2919177 57.7886152,84.4694913 C57.7295058,83.856779 57.5175769,83.2697749 57.3070896,82.6913402 L56.7534795,81.1745558 C56.5141584,80.5175683 56.2661871,79.8477266 55.8293541,79.3021413 C55.3435035,78.6937136 54.6514907,78.2809541 53.9364109,77.9738838 C52.4010076,77.3126115 50.7228767,77.0798094 49.0663712,76.8541485 L48.9510358,76.8384379 L48.9510358,59.1097712 C48.9510358,58.4787378 48.4346614,57.9671841 47.7976812,57.9671841 L45.6207245,57.9671841 C45.5246116,57.3844647 45.4284987,56.8026974 45.3323858,56.2218823 C45.0584641,54.5637028 44.7744506,52.8755304 44.0031447,51.3830261 C43.4985521,50.4061141 42.6955289,49.4734774 41.6128173,49.2820941 C41.4000405,49.263078 41.1909383,49.2150154 40.9914476,49.1392707 C40.6742751,48.9850215 40.5012719,48.6422453 40.2576257,48.3894479 C39.6290475,47.7367451 38.606887,47.7267474 37.7649382,47.3896842 C37.0210245,47.0968963 36.4126299,46.545598 35.7350341,46.1214126 C35.0574383,45.6972271 34.2154895,45.3958698 33.465809,45.6715189 C33.465809,45.7257918 33.4557171,45.7800647 33.4499504,45.8329094 L32.9684248,45.6129613 C32.4494153,45.3744463 31.9203139,45.1302183 31.5036645,44.7388822 C30.9687964,44.2390004 30.6833411,43.5762999 30.4613203,42.8721806 C30.4382533,42.7993407 30.4166279,42.7293572 30.3935608,42.6508044 C31.3150761,41.7194327 31.9389116,40.5395474 32.1870271,39.258749 L32.3038043,39.6343745 C32.3300935,39.7187732 32.3608931,39.8017278 32.3960726,39.8828872 C32.4556849,40.0398428 32.5549655,40.1790133 32.6844113,40.2870773 C32.721347,40.3157981 32.7620967,40.3393468 32.8055135,40.3570608 C32.8453284,40.3727052 32.8869919,40.3832638 32.9294991,40.3884819 C32.9893643,40.3958166 33.0501004,40.3914495 33.1082691,40.3756278 C33.3057329,40.3150605 33.4648057,40.1690291 33.540777,39.9785788 C33.563768,39.922428 33.5806823,39.8640198 33.5912363,39.8043343 C33.596808,39.7683872 33.6001781,39.732139 33.6013282,39.6957885 C33.6013282,39.6843627 33.6013282,39.6729368 33.6013282,39.6615109 C33.6013282,39.650085 33.6013282,39.6115227 33.6013282,39.5872428 C33.6013282,39.5629628 33.6013282,39.5615345 33.6013282,39.5472522 C33.6013282,39.5329699 33.6013282,39.5001205 33.5941197,39.4758405 L33.5941197,39.4387064 C33.5941197,39.4101418 33.5854695,39.3815771 33.5797028,39.3544406 C33.573936,39.3273042 33.5797028,39.3387301 33.5797028,39.3315889 C33.5724943,39.2958831 33.5638441,39.258749 33.5566357,39.2230431 C33.5566357,39.2144737 33.5566357,39.2044761 33.5566357,39.1959067 C33.5566357,39.1873373 33.5436604,39.1373491 33.536452,39.1073562 C33.5292435,39.0773633 33.5263601,39.0687939 33.522035,39.0487986 L33.522035,39.0402292 L33.522035,39.0402292 C33.5076181,38.9830998 33.4946429,38.9273987 33.4816676,38.8702694 C33.3768851,38.37459 33.3501378,37.8658355 33.4023745,37.3620544 C33.4886622,36.622736 33.6264319,35.8902106 33.8146988,35.1697155 L33.8449743,35.0397462 C33.8565079,34.989758 33.8680414,34.9397698 33.8781333,34.8883534 C33.9012003,34.7855206 33.9242674,34.6826877 33.9458928,34.5784267 L33.9458928,34.5784267 L33.9977938,34.3156316 L34.0367195,34.0814013 L34.0367195,34.0514084 C34.1176531,33.5206441 34.1345918,32.9822288 34.0871788,32.4475018 L34.0871788,32.4475018 C34.0208609,31.7005355 33.7873066,30.9935597 33.2755055,30.4308356 C32.9136405,30.0323583 32.43644,29.7381422 32.1005255,29.3196696 C31.7862364,28.9283336 31.6089081,28.4455905 31.2830855,28.0613956 C30.3834689,26.9973614 28.0738764,26.1775552 26.656692,26.0347318 C25.0333454,25.8719131 22.4109054,26.2832445 21.101848,27.23302 C20.6174391,27.5829373 20.2858497,28.0899603 19.9484934,28.5698469 C19.3285654,29.462493 18.6250191,30.353711 17.6316924,30.855021 C17.2568522,31.0435479 16.8272276,31.1863713 16.5778147,31.5148651 C16.4294333,31.7375414 16.3333646,31.9903567 16.2966845,32.2546902 C16.1056801,33.1846387 16.0062177,34.1307546 15.9996957,35.0797367 L15.9996957,35.0797367 C15.9996957,35.1982802 15.9996957,35.3168236 15.9996957,35.4367952 C16.0026514,35.792608 16.0791946,36.1440445 16.2245999,36.4694083 C16.247667,36.5179682 16.2736174,36.5650999 16.3010096,36.6122317 L16.3183099,36.6422246 C16.4926853,36.8891555 16.6469526,37.1494392 16.7796518,37.420612 C16.8127107,37.4965488 16.8364287,37.5761496 16.8502947,37.6576988 C16.8749946,37.8669273 16.861319,38.0788557 16.8099273,38.2832653 L16.8099273,38.2832653 C16.8099273,38.3146864 16.7969521,38.3461075 16.7911853,38.3775287 L16.7782101,38.4389427 C16.7782101,38.4603663 16.7782101,38.4817898 16.7666765,38.501785 C16.755143,38.5631991 16.7450511,38.6246131 16.736401,38.684599 L16.736401,38.684599 C16.7145444,38.8498016 16.7253167,39.0176381 16.7681182,39.1787679 C16.8080484,39.3603596 16.9245504,39.5163249 17.0881741,39.607238 C17.170293,39.6462491 17.2577137,39.6731927 17.3476789,39.6872191 C17.4385056,39.7029297 17.5307739,39.7129273 17.6201589,39.7329226 C17.7351029,39.7588813 17.8461032,39.7996977 17.9503066,39.8543225 C18.0501361,39.9016507 18.1436083,39.9611448 18.2285534,40.0314235 C18.2705799,40.0692626 18.3105243,40.1093109 18.348214,40.1513951 C18.4243476,40.237768 18.4928403,40.3304689 18.5529344,40.4284725 C18.5836905,40.4789368 18.6125244,40.5303532 18.639436,40.5827217 C18.7427411,40.7893975 18.8253137,41.0056219 18.8859655,41.2282834 C18.9234496,41.3611092 18.9551668,41.4953632 18.982559,41.6296172 C18.9955342,41.689603 19.0070678,41.7495888 19.0171596,41.8081464 C19.0272515,41.866704 19.0373433,41.9266898 19.0459935,41.9852474 L19.0459935,41.9852474 C19.0853311,41.9830333 19.1241577,41.9753405 19.1613289,41.9623956 C19.3732578,41.8866992 19.4914767,41.6424713 19.5577946,41.4053844 C19.5693281,41.3653939 19.57942,41.3268316 19.5880701,41.2882693 C19.6212291,41.1454459 19.6558297,40.9883402 19.6889887,40.8383756 C20.2572733,42.0339065 21.1735857,43.0336838 22.3200788,43.7091256 C22.3604462,43.827669 22.3993719,43.9447842 22.4339725,44.0647559 C22.6228343,44.7117458 22.713661,45.3887286 22.3863967,45.9543092 C22.1528424,46.3556429 21.7607018,46.6027274 21.3224271,46.7741155 C21.2592376,46.6906688 21.1779462,46.6223382 21.0845477,46.5741627 C20.7053824,46.3856359 20.2498073,46.6141533 19.9311931,46.8955153 C19.3545158,47.412536 18.8845238,48.1537894 18.1261932,48.3237492 C17.8522715,48.3865915 17.5495159,48.3737374 17.3217284,48.5394125 C17.1710708,48.6797617 17.0448998,48.8438454 16.9483299,49.025012 C16.6139523,49.5007263 16.0582121,49.775195 15.4734777,49.7534113 C15.2096479,49.7405572 14.8968004,49.6805713 14.7165888,49.8719547 C14.5825113,50.0147781 14.5724195,50.240439 14.4282501,50.3761212 C14.2350632,50.5646481 13.9178907,50.4732411 13.6482941,50.4618152 C13.1350513,50.4403917 12.6578509,50.7688855 12.3651871,51.1902145 C12.0725234,51.6115435 11.9326792,52.11571 11.7885099,52.6184484 L11.7885099,52.6270178 C11.7515152,52.6537117 11.7163562,52.6828169 11.6832663,52.71414 C11.5434867,52.8616558 11.4351277,53.0355488 11.3646521,53.2254477 C10.1987446,55.8551823 9.51058972,58.6681663 9.33186463,61.5349122 C9.3347137,61.6746106 9.30303768,61.81288 9.23959626,61.9376742 C9.17509375,62.0192194 9.10423342,62.0956263 9.02766736,62.1661916 C8.88926073,62.3340506 8.82540373,62.5502978 8.85066728,62.7655898 C8.87593083,62.9808818 8.98815948,63.1768501 9.16174483,63.3087787 C9.20322877,63.2342911 9.25516628,63.1660082 9.316006,63.1059695 C9.30014737,63.1716682 9.28573044,63.2359387 9.27563859,63.2944963 C9.21773554,63.7111705 9.21240839,64.1333643 9.25977996,64.5513421 C9.39626026,66.535635 9.53418224,68.5184997 9.67354592,70.4999361 C9.71247163,71.061232 9.75139735,71.6210997 9.80329831,72.1809673 C9.90421683,73.2645207 10.0483862,74.3437894 10.2358063,75.4187734 C10.2444564,75.4673334 10.2545483,75.5173216 10.2675235,75.5615968 C9.09254355,75.9315094 8.04731597,76.5999228 7.60759954,77.7153735 C7.45478006,78.1009966 7.38557879,78.5208974 7.19815867,78.8908099 C6.99199654,79.2964283 6.65319864,79.6206374 6.4282945,80.0176864 C6.04047902,80.7003822 6.0231787,81.5373272 6.16446464,82.3028606 C6.43694466,83.7953649 7.25150132,85.1293354 8.32700446,86.2147931 C8.27942858,86.2147931 8.23041101,86.2147931 8.18283514,86.2147931 C7.83145838,86.2533476 7.4941558,86.3732123 7.19815867,86.5647104 C4.92316678,87.881542 3.62275951,90.7065885 4.09707657,93.2859788 C4.19078663,93.7901454 4.35369796,94.3014531 4.69393756,94.685648 C4.97674805,94.9910658 5.34037656,95.2117585 5.74349022,95.3226403 C5.99559145,95.3977984 6.25516822,95.4456855 6.51767948,95.4654637 C8.29096213,95.6082871 10.0080187,94.7941938 11.7856265,94.7256386 C12.374495,94.7163427 12.9633742,94.7435322 13.5488173,94.8070479 C14.405183,94.8775074 15.2629905,94.9222587 16.1222397,94.9413019 C17.5192404,94.9741512 18.3049632,94.6056669 19.1959296,93.5716256 C19.4149213,93.3144322 19.5977547,93.0290499 19.7394479,92.7232547 C20.4977786,92.6804077 21.3354023,92.6147089 21.9409135,92.566149 L21.9495636,92.6489865 C21.9827226,92.9346333 22.0331818,93.2631271 22.2638527,93.4430846 C22.3936097,93.5317416 22.5411268,93.591659 22.6963607,93.6187573 C24.1524708,93.9729593 25.6258813,94.3328742 27.1252422,94.3328742 C27.8288655,94.3188069 28.5311262,94.2654012 29.2286726,94.1729121 L31.8626461,93.8715547 C32.6301949,93.9679365 33.3876329,94.1313922 34.1261045,94.3600107 C34.8873185,94.6156645 35.5980733,94.9955747 36.341987,95.2969321 C38.0720188,95.9910537 39.9318031,96.2395664 41.774287,96.4823662 C42.0885761,96.523785 42.4489994,96.5523496 42.681112,96.3395428 C42.9809842,96.053896 42.8815074,95.5768659 42.7964475,95.1769604 C42.7618468,95.0127136 42.7358964,94.8484667 42.7157126,94.6827915 C43.9590258,95.007501 45.1755044,95.4257604 46.3545463,95.9339244 L46.5607084,96.0239031 C46.6212596,96.3352581 46.9110399,96.5837708 47.1892867,96.9194057 C47.2806391,97.0610633 47.3874904,97.1923028 47.5079009,97.3107418 C47.6455082,97.3992407 47.8019331,97.4549692 47.9649176,97.4735605 C49.9099508,97.8325655 51.8959734,97.9214939 53.8657679,97.7377837 C54.2689179,97.6833779 54.6765883,97.669501 55.082557,97.6963649 C55.3808007,97.7366056 55.6750192,97.8020673 55.9619899,97.892033 L57.6300289,98.3662066 C58.8597932,98.7146957 60.1183914,99.0674694 61.3942899,98.9889166 C61.6530012,98.9728086 61.9099771,98.9360311 62.1627124,98.8789426 C63.1718976,98.6475687 64.1118816,98.0891293 64.5962905,97.1907702 C65.2810948,95.9696302 64.965364,94.4671282 64.5962905,93.1245884 Z" id="Path" fill="url(#linearGradient-1)" fill-rule="nonzero"></path>
                            <path d="M18.3779912,91.9310699 C18.1027141,91.3604694 17.841788,90.7042787 18.117065,90.1336781 C18.2967508,89.7976407 18.6054259,89.5333004 18.9846444,89.3907087 C19.3599018,89.2512799 19.75544,89.1623798 20.158812,89.1268059 C21.4248829,88.9754956 22.7060242,88.9595373 23.9761614,89.0792558 C24.0687901,89.747334 23.8730955,90.4249222 23.7047982,91.0704141 C23.5521564,91.6647897 23.4647461,91.7527573 22.7915567,91.7836648 C22.3558101,91.8050623 18.481057,92.1414789 18.3779912,91.9310699 Z" id="Path" fill="#FBBEBE" fill-rule="nonzero"></path>
                            <ellipse id="Oval" fill="#464353" fill-rule="nonzero" cx="30.5" cy="82" rx="20.5" ry="6"></ellipse>
                            <ellipse id="Oval" fill="#000000" fill-rule="nonzero" opacity="0.1" cx="30.5" cy="82" rx="20.5" ry="6"></ellipse>
                            <path d="M34.1839452,52.5435942 C33.468205,53.8859733 32.2794676,54.9341423 30.8342729,55.4971671 C29.9810391,55.7989283 29.0830723,55.964531 28.1752697,55.9875396 C27.1838018,56.0314747 26.1718912,55.9691152 25.2402909,55.6403105 C23.9903696,55.2009595 22.9521756,54.3024157 22.1738952,53.2550594 C21.3956147,52.2077032 20.8597256,51.0115345 20.3939255,49.8054449 C20.1486138,49.1775981 19.9149837,48.5086507 20.0303385,47.8453723 C20.7823356,47.6795527 21.6058819,47.4357837 21.994292,46.7880952 C22.3257548,46.2325287 22.2337629,45.5664158 22.0424782,44.9314826 C21.9884513,44.7514904 21.9256632,44.5729155 21.8628751,44.4014268 C21.7168562,43.990421 21.2130912,43.2095099 21.5708374,42.8580291 C21.7942462,42.635519 22.730227,42.5221381 23.0529286,42.3775774 C24.047317,41.9325573 24.9643153,41.2891206 26.0565363,41.0779486 C27.0012782,40.8951219 27.9766841,41.0666105 28.9199658,41.2565236 C29.0450875,41.2741854 29.1652642,41.3161193 29.2733315,41.3798253 C29.3965483,41.4806136 29.4877032,41.6133263 29.5361654,41.7624859 C29.8048401,42.3974191 29.9625404,43.0989635 30.1786483,43.7608246 C30.4035173,44.4538655 30.6926346,45.1043885 31.2343645,45.5961783 C31.656359,45.9802561 32.1937084,46.2211906 32.7193762,46.4550387 L34.0131032,47.0304469 C34.2432297,47.1140802 34.4519567,47.2451115 34.6249221,47.4145248 C34.7941049,47.6402332 34.8952241,47.9071918 34.9169598,48.185515 C35.1487662,49.6768683 34.8923746,51.2012238 34.1839452,52.5435942 L34.1839452,52.5435942 Z" id="Path" fill="#FBBEBE" fill-rule="nonzero"></path>
                            <path d="M30,43.8973892 C28.0574673,46.1445179 24.9938244,46.6495846 22.5477495,45.1259539 C22.4982196,44.9370584 22.4406577,44.7496502 22.3830959,44.5696788 C22.2492311,44.1383426 21.7873978,43.3188036 22.1153664,42.9499367 C22.3201795,42.7164202 23.1782525,42.5974308 23.4740936,42.4457195 C24.3857125,41.9786864 25.2263831,41.303422 26.2276914,41.0818044 C27.0937963,40.8899341 27.9880128,41.0699054 28.8527791,41.2692125 C28.9674861,41.287748 29.0776597,41.3317562 29.1767318,41.3986134 C29.2896925,41.5043873 29.37326,41.6436646 29.4176883,41.8002024 C29.6573062,42.4665426 29.8018802,43.202789 30,43.8973892 Z" id="Path" fill="#000000" fill-rule="nonzero" opacity="0.1"></path>
                            <circle id="Oval" fill="#FBBEBE" fill-rule="nonzero" cx="25.5" cy="38.5" r="6.5"></circle>
                            <path d="M46.0093661,59.8024486 L45.4658834,56.535563 C45.1912665,54.8964138 44.9080228,53.2258797 44.1402457,51.7493615 C43.6355831,50.7821352 42.8347369,49.8605596 41.7549604,49.6693968 C41.5422642,49.6505871 41.3332287,49.6025761 41.1338372,49.5267381 C40.8175245,49.3755198 40.6449903,49.0359919 40.4020047,48.7849125 C39.7751304,48.1400949 38.7543031,48.1301088 37.9146367,47.8019937 C37.1727396,47.5166761 36.5659943,46.9674399 35.8902354,46.5480232 C35.2144764,46.1286064 34.3733722,45.8347294 33.625724,46.1029278 C33.5049501,47.3797237 33.3769872,48.6850514 32.8306289,49.8477203 C32.1104134,51.3806838 30.7309027,52.5088704 29.0768197,52.9176475 C27.4227367,53.3264245 25.6710643,52.9720538 24.3103151,51.9533636 C23.0292487,50.9961233 22.2082734,49.5196051 21.8258226,47.9746108 C21.7323666,47.5979916 21.6259705,47.1657356 21.2765888,46.9931185 C20.8984513,46.8048089 20.4441112,47.0330629 20.1263608,47.3098209 C19.5512468,47.8219659 19.0810911,48.5552319 18.3248162,48.727849 C18.051637,48.7906189 17.7497022,48.7777796 17.5225321,48.9418371 C17.3715535,49.0800833 17.2451709,49.2426189 17.148708,49.4225972 C16.8125061,49.8939558 16.2594617,50.1653743 15.677854,50.1444505 C15.4147394,50.1316112 15.10274,50.0716945 14.9230169,50.2614307 C14.7893029,50.4040894 14.7792384,50.6266371 14.6354599,50.7593098 C14.4413589,50.9461927 14.126484,50.8548911 13.8561804,50.844905 C13.344329,50.8235062 12.8684221,51.1487682 12.575114,51.5581988 C12.2818059,51.9676295 12.1437785,52.474068 12,52.9648142 C13.571499,56.4371284 15.009284,59.9137224 16.580783,63.3860366 C16.6544094,63.5169102 16.6934824,63.6641333 16.694368,63.8140129 C16.6628522,63.9695742 16.595975,64.1159485 16.4988292,64.2419892 C15.7281765,65.4702811 15.7526188,67.0152755 15.8374481,68.4589821 C15.9222775,69.9026888 16.025798,71.4277109 15.3759192,72.7216259 C15.1990716,73.0768462 14.969026,73.4021082 14.8008052,73.7573285 C14.4068521,74.5619239 14.2645114,77.1354879 14.494557,78 L47,78 C46.3803147,76.3094937 46.6161114,72.9170684 46.7455121,71.1224212 C46.8360925,69.8670241 46.6017336,68.6130536 46.5010886,67.3576565 C46.2811075,64.7940786 46.4363883,62.3617467 46.0093661,59.8024486 Z" id="Path" fill="#F6BD60" fill-rule="nonzero"></path>
                            <path d="M9.04823784,63.8337752 C8.99037315,64.2237338 8.98454341,64.6188663 9.03088161,65.0101593 L9.44598479,70.5713706 C9.48503631,71.0955556 9.52408783,71.618393 9.57615652,72.1412304 C9.67595485,73.1559123 9.82492916,74.162509 10.0100623,75.1677583 C10.0187351,75.4649533 10.2840589,75.6994856 10.6030668,75.6919432 C12.4327028,76.0530783 14.3230856,76.0382556 16.1903268,75.9398867 C19.0396413,75.7916596 21.8846168,75.4534323 24.7382704,75.5113756 C25.4730175,75.5261983 26.3292582,75.5113756 26.7747348,74.972368 C27.2202114,74.4333604 26.9613143,73.5615155 26.3798805,73.1262668 C25.7984468,72.6910182 25.0087383,72.5872592 24.2624204,72.5872592 C23.2745616,72.5778266 22.2867028,72.7085359 21.3017367,72.6546352 C20.3977664,72.6047769 19.5140449,72.4013016 18.6375553,72.1978262 L16.1787559,71.6278256 C16.2727689,70.9338533 16.556254,70.2803065 16.8252755,69.6213697 C17.3083573,68.4530706 17.7596193,67.2456935 17.7682974,65.9938483 C17.7769755,64.742003 17.2707521,63.4254769 16.1700778,62.7085967 C15.2646611,62.1197309 14.098901,62.0105818 12.995334,62.0348372 C12.1926083,62.0563975 10.8055562,61.8771774 10.0722554,62.1695891 C9.49226807,62.4067524 9.15671428,63.3042002 9.04823784,63.8337752 Z" id="Path" fill="#FBBEBE" fill-rule="nonzero"></path>
                            <path d="M47.8051625,77.1148038 C48.2818251,76.9374618 48.8071559,77.0016959 49.3181725,77.0687228 C50.962873,77.2879566 52.6319076,77.5127761 54.1563689,78.1537209 C54.8720784,78.4525492 55.5534339,78.8519179 56.0372535,79.4397998 C56.4666792,79.9690331 56.7171776,80.6169599 56.9547931,81.255112 L57.504458,82.7241185 C57.7134452,83.2826761 57.9252952,83.8524048 57.9839834,84.4458723 C58.1557537,86.2039323 56.9233019,87.861452 55.3730751,88.7746937 C53.8228482,89.6879353 51.9977889,90.0132951 50.2199665,90.3540153 C48.442144,90.6947354 46.6571644,91.0717618 44.8864991,91.4711305 C44.0606283,91.6802101 43.2227165,91.8410807 42.3772215,91.9528864 C40.4820226,92.1623455 38.5009387,91.8537424 36.7002135,92.465363 C35.984504,92.7097319 35.2816772,93.0727944 34.5387707,93.2417581 C34.0452991,93.343047 33.546377,93.417173 33.0443692,93.4637847 L29.6361604,93.8436039 C28.9431053,93.9340304 28.245373,93.9862454 27.5462886,94 C26.0576128,94 24.5932711,93.6564871 23.1475379,93.3129742 C22.9938301,93.286666 22.8475178,93.2290974 22.7181121,93.1440105 C22.4890851,92.9680648 22.4389854,92.656669 22.4060628,92.3745974 C22.260058,91.1262212 22.1321846,89.8764485 22.0224425,88.6252795 C21.9880884,88.2189289 21.9623229,87.7790647 22.1899185,87.4369482 C22.4762023,87.01803 23.0344558,86.886769 23.5440409,86.8057781 C25.7048515,86.4609371 27.8938385,86.3127476 30.0827632,86.3631212 C30.9144177,85.5518163 32.2857171,85.5476271 33.375027,85.1063666 C33.7757633,84.9268376 34.1636069,84.7210991 34.5359079,84.4905569 C36.4844683,83.3815309 38.6620114,82.710335 40.9100169,82.5258305 C41.3502506,82.5127238 41.7876195,82.4518383 42.2140397,82.3442993 C43.0571455,82.0887592 43.8258175,81.393355 44.6918261,81.5637151 C44.7991825,81.2746615 44.8736163,80.8878604 45.1212518,80.6895724 C45.2443538,80.5876357 45.3960842,80.5192124 45.5091664,80.4102936 C45.7482133,80.174303 45.7696846,79.8028622 45.7338991,79.4733133 C45.6981137,79.1437643 45.6179542,78.8058369 45.7052708,78.4846663 C45.7415995,78.3630715 45.7950734,78.2469916 45.8641583,78.139757 C46.293584,77.4164249 46.9420168,77.0449841 47.8051625,77.1148038 Z" id="Path" fill="#464353" fill-rule="nonzero"></path>
                            <path d="M47.8051625,77.1148038 C48.2818251,76.9374618 48.8071559,77.0016959 49.3181725,77.0687228 C50.962873,77.2879566 52.6319076,77.5127761 54.1563689,78.1537209 C54.8720784,78.4525492 55.5534339,78.8519179 56.0372535,79.4397998 C56.4666792,79.9690331 56.7171776,80.6169599 56.9547931,81.255112 L57.504458,82.7241185 C57.7134452,83.2826761 57.9252952,83.8524048 57.9839834,84.4458723 C58.1557537,86.2039323 56.9233019,87.861452 55.3730751,88.7746937 C53.8228482,89.6879353 51.9977889,90.0132951 50.2199665,90.3540153 C48.442144,90.6947354 46.6571644,91.0717618 44.8864991,91.4711305 C44.0606283,91.6802101 43.2227165,91.8410807 42.3772215,91.9528864 C40.4820226,92.1623455 38.5009387,91.8537424 36.7002135,92.465363 C35.984504,92.7097319 35.2816772,93.0727944 34.5387707,93.2417581 C34.0452991,93.343047 33.546377,93.417173 33.0443692,93.4637847 L29.6361604,93.8436039 C28.9431053,93.9340304 28.245373,93.9862454 27.5462886,94 C26.0576128,94 24.5932711,93.6564871 23.1475379,93.3129742 C22.9938301,93.286666 22.8475178,93.2290974 22.7181121,93.1440105 C22.4890851,92.9680648 22.4389854,92.656669 22.4060628,92.3745974 C22.260058,91.1262212 22.1321846,89.8764485 22.0224425,88.6252795 C21.9880884,88.2189289 21.9623229,87.7790647 22.1899185,87.4369482 C22.4762023,87.01803 23.0344558,86.886769 23.5440409,86.8057781 C25.7048515,86.4609371 27.8938385,86.3127476 30.0827632,86.3631212 C30.9144177,85.5518163 32.2857171,85.5476271 33.375027,85.1063666 C33.7757633,84.9268376 34.1636069,84.7210991 34.5359079,84.4905569 C36.4844683,83.3815309 38.6620114,82.710335 40.9100169,82.5258305 C41.3502506,82.5127238 41.7876195,82.4518383 42.2140397,82.3442993 C43.0571455,82.0887592 43.8258175,81.393355 44.6918261,81.5637151 C44.7991825,81.2746615 44.8736163,80.8878604 45.1212518,80.6895724 C45.2443538,80.5876357 45.3960842,80.5192124 45.5091664,80.4102936 C45.7482133,80.174303 45.7696846,79.8028622 45.7338991,79.4733133 C45.6981137,79.1437643 45.6179542,78.8058369 45.7052708,78.4846663 C45.7415995,78.3630715 45.7950734,78.2469916 45.8641583,78.139757 C46.293584,77.4164249 46.9420168,77.0449841 47.8051625,77.1148038 Z" id="Path" fill="#000000" fill-rule="nonzero" opacity="0.05"></path>
                            <path d="M19.1109543,93.1441544 C18.2240412,94.1479453 17.4431564,94.5063421 16.0547577,94.4741424 C15.2007993,94.4545425 14.3477962,94.4111429 13.4957482,94.3439435 C12.9133728,94.2824108 12.3276891,94.2557612 11.7419814,94.2641443 C9.97388644,94.3313436 8.26740254,95.1223365 6.503606,94.9837377 C6.24280128,94.9636806 5.98489549,94.9167539 5.73418379,94.843739 C5.33405184,94.7360308 4.97242428,94.521796 4.68966091,94.2249446 C4.35151632,93.851148 4.18960811,93.3555525 4.09647507,92.8655569 C3.62507859,90.3539796 4.91747865,87.6184044 7.17989517,86.340216 C7.47508251,86.1539447 7.81064175,86.0374642 8.15994134,86.000019 C8.50246002,85.9986484 8.84104935,86.0713166 9.15145003,86.2128171 L9.17294228,86.221217 C10.0921096,86.5907562 10.9269084,87.135172 11.628789,87.8228025 C11.7352765,87.9419632 11.8623353,88.0419447 12.0041868,88.1181999 C12.1457478,88.1704381 12.2956141,88.1979238 12.4469269,88.1993991 L14.3296472,88.3155981 C14.6486224,88.3248992 14.965656,88.3676099 15.2753058,88.4429969 C15.6166709,88.5594451 15.9489919,88.6998082 16.2696801,88.8629931 C17.282681,89.3053891 18.4060088,89.4229881 19.5006802,89.5937865 C19.6061691,89.5994824 19.7068347,89.6388261 19.7872435,89.7057855 C19.8309317,89.7588795 19.8613485,89.8211952 19.876078,89.8877839 C20.1884368,91.0300708 19.9019477,92.2493698 19.1109543,93.1441544 Z" id="Path" fill="#3F3D56" fill-rule="nonzero"></path>
                            <path d="M9,86.2251257 C8.29396708,86.9186795 7.68146219,87.7064388 7.17883809,88.5673718 C6.37226757,89.9882114 5.86547978,91.5678121 5.69144046,93.2034232 C5.62544099,93.8000948 5.62033515,94.4022347 5.6762064,95 C5.2894517,94.8903887 4.93991411,94.6723686 4.6666041,94.3702721 C4.3397644,93.9898708 4.18326911,93.4855185 4.0932497,92.9868652 C3.637613,90.4309106 4.88680543,87.6470002 7.07358463,86.3462273 C7.35890323,86.1566647 7.68324403,86.0381262 8.0208658,86.0000194 C8.35193337,85.9986245 8.67920295,86.0725767 8.97922629,86.2165774 L9,86.2251257 Z" id="Path" fill="#000000" fill-rule="nonzero" opacity="0.1"></path>
                            <path d="M45.2102372,91.2417227 C46.2182256,91.2160152 47.3496411,91.1684563 48.090204,91.8047175 C48.7964815,92.4062736 48.8897376,93.398584 48.9363656,94.2919204 L48.9898507,95.329219 C49.0063077,95.6454215 49.0200218,95.9719071 48.884252,96.2649728 C48.6428833,96.7791233 47.9804909,97.0272009 47.3756979,96.9976373 C46.7709049,96.9680736 46.2154827,96.719996 45.6628034,96.4963406 C44.1623491,95.8904882 42.6000427,95.4292356 41,95.1197027 C41.0521137,94.4024628 41.1389698,93.6886505 41.2605684,92.978266 C41.3442246,92.4859669 41.3579387,91.6620407 41.7090204,91.2532911 C42.0806733,90.8214047 42.564782,91.0553432 43.0694619,91.1350365 C43.7775933,91.2363193 44.4946392,91.2720536 45.2102372,91.2417227 L45.2102372,91.2417227 Z" id="Path" fill="#FBBEBE" fill-rule="nonzero"></path>
                            <path d="M17.7649843,78.1327681 C17.7649843,78.274575 17.5393639,78.1327681 17.5192449,77.9810347 C17.3611669,76.8338168 16.4385663,75.8879647 15.3636361,75.4285103 C14.2887058,74.9690559 13.06432,74.9449487 11.9002913,75.05414 C10.1398774,75.218636 8.1639027,75.8837105 7.5200942,77.5073996 C7.36776451,77.8874422 7.29878503,78.2986822 7.1119656,78.663126 C6.90502716,79.0630215 6.56731511,79.382087 6.3431318,79.770638 C5.95655929,80.4428027 5.94075149,81.2667009 6.08014753,82.026786 C6.45522346,84.0546248 7.86068039,85.7889234 9.56361134,86.9900279 C11.2665423,88.1911325 13.2568878,88.9086755 15.2414849,89.555315 C20.4891886,91.2631624 25.8732671,92.5320871 31.3366973,93.3486499 C32.221934,93.4805304 33.1157931,93.6024843 33.9636659,93.883262 C34.7224402,94.1342602 35.432354,94.5100486 36.1738834,94.8050069 C37.8983705,95.4885163 39.7536311,95.7324242 41.5916469,95.9720778 C41.9049287,96.0117838 42.2641968,96.0401452 42.4955655,95.8302709 C42.7944766,95.5565836 42.6953186,95.0801124 42.6105313,94.6873072 C42.2985616,93.1937643 42.5602887,91.6391131 43.3448754,90.3253265 C43.6524089,89.8148217 44.051915,89.2915541 43.9944321,88.7002193 C43.9254527,88.0110377 43.2299095,87.5232219 42.5372406,87.4126125 C41.8445716,87.3020031 41.1404061,87.4650811 40.444863,87.5544195 C40.2048719,87.585617 39.9433247,87.6054699 39.7335121,87.4849341 C39.6301376,87.4160557 39.5364017,87.3340485 39.45472,87.2410262 C38.4717255,86.3052844 36.9897771,86.1008758 35.7844368,86.7347755 C35.5272008,86.8765824 35.1377541,86.560353 34.8704586,86.4412352 L31.8482951,85.0912334 C28.3763279,83.5412838 24.8871158,81.9842439 21.2139584,81.00294 C20.9208861,80.9460928 20.6423476,80.8318109 20.394827,80.6668577 C20.2123188,80.5250508 20.0815452,80.3321933 19.9134077,80.1747877 C19.5469542,79.833033 19.0367935,79.6968984 18.5970493,79.4544086 C18.1573051,79.2119187 17.6643892,78.6191658 17.7649843,78.1327681 Z" id="Path" fill="#464353" fill-rule="nonzero"></path>
                            <path d="M64.6263819,97.2046687 C64.1536646,98.0960292 63.236368,98.6511622 62.2515403,98.880083 C62.0043938,98.9368057 61.753152,98.9731693 61.5002575,98.9888204 C60.255154,99.0675119 59.0255263,98.7169769 57.8254434,98.3707342 L56.1962571,97.904308 C55.9161756,97.8146478 55.6290573,97.749549 55.3380501,97.7097253 C54.9418798,97.6828139 54.5440489,97.6967153 54.1506293,97.7512172 C52.225109,97.9333903 50.2840866,97.8448038 48.382353,97.4879582 C48.2232553,97.4704925 48.070454,97.4151002 47.9363667,97.3262829 C47.8188944,97.2091755 47.7146104,97.0791293 47.6254425,96.9385482 C47.1822701,96.396292 46.7053321,96.0800951 47.2301046,95.3647175 C47.5325874,94.9497985 48.0939391,94.742339 48.3288909,94.2658975 C48.5638426,93.789456 48.4133047,93.1127088 48.2740219,92.620529 C48.0840909,91.9409203 47.4594287,91.6476155 47.2357322,91.0238062 C47.0683115,90.5530878 47.3496908,90.0065393 47.7731667,89.7504341 C48.1966426,89.4943289 48.7200082,89.4742984 49.2082013,89.5401131 C49.6963944,89.6059278 50.1747393,89.7461418 50.6657463,89.7847722 C52.1092222,89.9020942 53.5850568,89.1452247 54.9708501,89.5715897 C55.2761466,89.6660195 55.5645605,89.8162488 55.8740777,89.8992326 C56.4774923,90.0364945 57.1078588,89.9810329 57.6791262,89.7404188 C57.8817193,89.663158 58.0800917,89.570159 58.2770572,89.4785906 C58.6569101,89.2774877 59.0614427,89.128809 59.4799539,89.0364873 C60.8319816,88.8004127 62.0855265,89.7518649 63.1055266,90.680425 C63.4556663,90.9759487 63.7655609,91.3175616 64.0270439,91.6962612 C64.3084233,92.1426568 64.4575543,92.6620209 64.5898026,93.1742313 C64.9626302,94.4976798 65.2707406,95.9885268 64.6263819,97.2046687 Z" id="Path" fill="#3F3D56" fill-rule="nonzero"></path>
                            <path d="M63.6659244,97.3057229 C63.2437131,98.2071188 62.4244222,98.7685018 61.5448154,99 C61.8869754,98.2345602 62.0412126,97.37611 61.9909017,96.5171823 C61.9155069,95.1412151 61.3902559,93.8448254 60.7204982,92.7018033 C60.3084632,91.9981818 59.8397827,91.3408137 59.3206668,90.7384095 C58.921074,90.2754132 58.4297508,89.9079099 58,89.4839789 C58.3392687,89.2806119 58.7005802,89.1302592 59.0743769,89.0368981 C60.2819514,88.7981656 61.4015652,89.7603298 62.3125865,90.6993442 C62.6253166,90.9981951 62.9021014,91.3436541 63.1356472,91.7266173 C63.3869634,92.1780387 63.520161,92.7032501 63.6382796,93.2212273 C63.9662473,94.5682572 64.2414386,96.0758889 63.6659244,97.3057229 Z" id="Path" fill="#000000" fill-rule="nonzero" opacity="0.1"></path>
                            <path d="M11.8916975,52.9395643 C11.7490057,53.0897629 11.638345,53.2676989 11.5665073,53.4624512 C10.3824389,56.1457176 9.68305472,59.0195732 9.50111005,61.949422 C9.50429562,62.0922805 9.47154496,62.2336338 9.40589671,62.360367 C9.34115995,62.4446902 9.26910043,62.5230632 9.19056806,62.5945614 C9.04642552,62.7663584 8.97944237,62.9904919 9.00552819,63.2137265 C9.031614,63.436961 9.14844112,63.6393773 9.32826121,63.7728982 C9.56995663,63.3148198 10.1485608,63.1660548 10.6627129,63.1262859 C13.1250766,62.9303874 15.5303122,64.0822116 18,63.9953093 C17.8256863,63.3899388 17.575202,62.808135 17.4331144,62.1953998 C16.8047063,59.4749148 18.3720645,56.5128706 17.4111421,53.8925442 C17.2192505,53.3681843 16.8984548,52.8526619 16.3930916,52.6228863 C16.1838496,52.5379008 15.9648746,52.4795144 15.7412464,52.4490816 C15.1172328,52.3356667 13.8750648,51.8510757 13.2715586,52.0455012 C13.0489059,52.1176744 12.9610166,52.3283021 12.7764492,52.4549733 C12.4966685,52.6361426 12.124604,52.702424 11.8916975,52.9395643 Z" id="Path" fill="#F6BD60" fill-rule="nonzero"></path>
                            <rect id="Rectangle" fill="#3F3D56" fill-rule="nonzero" x="17" y="59" width="32" height="20" rx="7.97"></rect>
                            <circle id="Oval" fill="#FFFFFF" fill-rule="nonzero" cx="33" cy="69" r="1"></circle>
                            <path d="M21.0730758,27.226159 C20.5916995,27.5768862 20.262186,28.0806055 19.9269418,28.5641182 C19.3094621,29.4575344 18.6103203,30.3495072 17.6232123,30.8474532 C17.2492861,31.0365283 16.8223512,31.1794172 16.5744997,31.5084945 C16.4273884,31.7310472 16.3319039,31.9841131 16.2951295,32.2489185 C16.106034,33.1800326 16.0071931,34.1274545 16,35.0778291 C16,35.5512386 16.0200573,36.0390814 16.2277941,36.4691912 C16.4240696,36.8733213 16.7779385,37.2153885 16.8510045,37.6556017 C16.9068786,37.9991122 16.7808038,38.3411795 16.7363911,38.6861334 C16.6919784,39.0310872 16.7693425,39.4395473 17.085962,39.604086 C17.2565613,39.6687368 17.4347279,39.7109416 17.616049,39.729655 C18.5687729,39.9432666 18.8882578,41.0690575 19.0329572,42 C19.3567401,41.9812368 19.5028722,41.6074165 19.5702076,41.3028756 L20.5630462,36.8560014 C20.6704962,36.373932 20.8495797,35.8153665 21.326658,35.6464978 C21.6461429,35.5353621 21.9957137,35.6392812 22.3295253,35.6681477 C23.6404161,35.7763968 24.7493008,34.7559684 26.0315382,34.4745206 C26.4419746,34.3910713 26.8615961,34.3629209 27.2793917,34.390808 C28.290855,34.4413242 29.4670751,34.8598875 29.6819752,35.8110365 C29.7177919,35.9654719 29.7392819,36.1502171 29.8825486,36.2267132 C30.0258154,36.3032092 30.1762455,36.2382597 30.3266756,36.2267132 C30.9685107,36.1617637 31.3467349,36.8891978 31.531549,37.4838464 L32.2049028,39.6488289 C32.3051895,39.976463 32.4742443,40.3618299 32.8266805,40.4036862 C33.151896,40.4440992 33.4284009,40.133785 33.4771116,39.8263575 C33.5258223,39.51893 33.4198049,39.1999559 33.3496041,38.891085 C33.0329846,37.4694132 33.5172262,36.0145449 33.8123558,34.5899864 C34.1074853,33.1654278 34.160494,31.528701 33.1705207,30.4317765 C32.8109211,30.0348631 32.3381408,29.7389821 32.0028966,29.3204188 C31.6905751,28.9278353 31.514357,28.4457659 31.1905741,28.060399 C30.2951569,26.9966709 27.9985908,26.1754208 26.5902786,26.0397486 C24.9813929,25.8636633 22.373938,26.27501 21.0730758,27.226159 Z" id="Path" fill="#3F3D56" fill-rule="nonzero"></path>
                            <g id="Group" opacity="0.1" transform="translate(16.000000, 33.000000)" fill="#000000" fill-rule="nonzero">
                                <path d="M16.7768504,6.55522388 C16.428189,6.51492537 16.2609449,6.15223881 16.1617323,5.85268657 C15.939685,5.18014925 15.7176378,4.50850746 15.4955906,3.83776119 C15.3127559,3.28298507 14.9385827,2.60597015 14.303622,2.66776119 C14.1548031,2.68253731 13.9946457,2.73761194 13.864252,2.66776119 C13.7338583,2.59791045 13.7012598,2.42462687 13.6658268,2.28089552 C13.4532283,1.39432836 12.2896063,1.0061194 11.2889764,0.959104478 C10.875718,0.933383532 10.4606851,0.959125289 10.0544882,1.03567164 C8.78598425,1.30432836 7.68897638,2.24462687 6.39212598,2.14656716 C6.0576378,2.12104478 5.71181102,2.02432836 5.4,2.12776119 C4.9223622,2.28358209 4.75086614,2.79940299 4.64456693,3.25343284 L3.6623622,7.39074627 C3.59574803,7.67552239 3.4511811,8.02343284 3.13086614,8.03955224 C2.98913386,7.17447761 2.67165354,6.12671642 1.72913386,5.92791045 C1.5499868,5.90920104 1.37389683,5.86995905 1.20472441,5.81104478 C1.08141729,5.74721026 0.98488425,5.64529105 0.931181102,5.52223881 C0.905669291,5.64716418 0.875905512,5.77208955 0.858897638,5.89701493 C0.816377953,6.21671642 0.891496063,6.59820896 1.20472441,6.75134328 C1.37349652,6.81151309 1.54975481,6.8507926 1.72913386,6.86820896 C2.67165354,7.06701493 2.98771654,8.11477612 3.13086614,8.98119403 C3.4511811,8.96373134 3.59574803,8.6158209 3.6623622,8.33238806 L4.64456693,4.19373134 C4.75086614,3.74507463 4.9280315,3.22522388 5.4,3.0680597 C5.71606299,2.96462687 6.06188976,3.06134328 6.39212598,3.08820896 C7.68897638,3.18895522 8.78598425,2.23925373 10.0544882,1.97731343 C10.4605286,1.89964812 10.8756557,1.87344881 11.2889764,1.89940299 C12.2896063,1.94641791 13.4532283,2.33597015 13.6658268,3.22119403 C13.7012598,3.36492537 13.7225197,3.53686567 13.864252,3.6080597 C14.0059843,3.67925373 14.1548031,3.61880597 14.303622,3.6080597 C14.9385827,3.54761194 15.3127559,4.22462687 15.4955906,4.7780597 C15.7166929,5.45059701 15.9387402,6.12223881 16.1617323,6.79298507 C16.2609449,7.09791045 16.428189,7.45656716 16.7768504,7.49552239 C17.0985827,7.53313433 17.372126,7.24432836 17.420315,6.95820896 C17.4420939,6.71745637 17.4131879,6.47500185 17.3352756,6.24492537 C17.2319015,6.44537042 17.0118917,6.56762263 16.7768504,6.55522388 Z" id="Path"></path>
                                <path d="M0.968031496,3.99761194 C0.895748031,3.58791045 0.542834646,3.26955224 0.351496063,2.89343284 C0.22847941,2.63974809 0.15730239,2.3662664 0.141732283,2.08746269 C0.141732283,2.23791045 0.127559055,2.38835821 0.126141732,2.54014925 C0.126141732,2.98074627 0.145984252,3.43477612 0.351496063,3.83507463 C0.508818898,4.14 0.768188976,4.40865672 0.898582677,4.71895522 C0.96733307,4.48442552 0.990859725,4.24006146 0.968031496,3.99761194 Z" id="Path"></path>
                                <path d="M17.7519685,1.13910448 C17.4940157,2.31044776 17.0914961,3.50328358 17.2162205,4.67731343 C17.2970079,3.81089552 17.5634646,2.93910448 17.7519685,2.07940299 C17.9092035,1.42655736 17.9645957,0.755390037 17.916378,0.0873134328 C17.8856033,0.440908145 17.8306851,0.79224125 17.7519685,1.13910448 L17.7519685,1.13910448 Z" id="Path"></path>
                            </g>
                            <g id="Group" opacity="0.8" transform="translate(43.000000, 18.000000)">
                                <path d="M4.44752239,23.7703734 L94.0083582,23.7703734" id="Path" stroke="#3F3D56" stroke-width="3"></path>
                                <path d="M12.4040597,23.7689627 C12.4040597,23.7689627 16.686806,24.3544398 14.4687761,19.8300415 C12.2507463,15.3056432 20.4866866,16.1619917 20.4866866,16.1619917" id="Path" stroke="#3F3D56" stroke-width="3"></path>
                                <path d="M40.9275224,23.7689627 C40.9275224,23.7689627 45.2102687,23.1848963 42.9922388,27.7092946 C40.774209,32.2336929 49.0101493,31.3773444 49.0101493,31.3773444" id="Path" stroke="#3F3D56" stroke-width="3"></path>
                                <path d="M81.9968955,23.7689627 C81.9968955,23.7689627 77.7127164,23.1848963 79.9321791,27.7092946 C82.1516418,32.2336929 73.9142687,31.3773444 73.9142687,31.3773444" id="Path" stroke="#3F3D56" stroke-width="3"></path>
                                <path d="M73.9142687,31.3759336 L50.2825075,31.3759336" id="Path" stroke="#3F3D56" stroke-width="3"></path>
                                <ellipse id="Oval" fill="#F6BD60" fill-rule="nonzero" cx="4.44752239" cy="23.7703734" rx="2.61492537" ry="2.5746888"></ellipse>
                                <ellipse id="Oval" fill="#3ACC6C" fill-rule="nonzero" cx="20.5311045" cy="16.1253112" rx="2.61492537" ry="2.5746888"></ellipse>
                                <ellipse id="Oval" fill="#F6BD60" fill-rule="nonzero" cx="20.5311045" cy="23.7703734" rx="2.61492537" ry="2.5746888"></ellipse>
                                <ellipse id="Oval" fill="#F6BD60" fill-rule="nonzero" cx="30.9105672" cy="23.7703734" rx="2.61492537" ry="2.5746888"></ellipse>
                                <ellipse id="Oval" fill="#FF6584" fill-rule="nonzero" cx="49.0531343" cy="31.3378423" rx="2.61492537" ry="2.5746888"></ellipse>
                                <ellipse id="Oval" fill="#FF6584" fill-rule="nonzero" cx="62.7625075" cy="31.3378423" rx="2.61492537" ry="2.5746888"></ellipse>
                                <ellipse id="Oval" fill="#F6BD60" fill-rule="nonzero" cx="62.0475224" cy="23.7703734" rx="2.61492537" ry="2.5746888"></ellipse>
                                <ellipse id="Oval" fill="#F6BD60" fill-rule="nonzero" cx="93.3463881" cy="23.7703734" rx="2.61492537" ry="2.5746888"></ellipse>
                                <ellipse id="Oval" fill="#F6BD60" fill-rule="nonzero" cx="80.5425672" cy="23.7703734" rx="2.61492537" ry="2.5746888"></ellipse>
                                <rect id="Rectangle" fill="#F6BD60" fill-rule="nonzero" x="0.0544477612" y="0.0931120332" width="8.77325373" height="5.95352697"></rect>
                                <rect id="Rectangle" fill="#3ACC6C" fill-rule="nonzero" x="16.1767164" y="0.0931120332" width="8.77325373" height="5.95352697"></rect>
                                <rect id="Rectangle" fill="#FF6584" fill-rule="nonzero" x="44.6299701" y="0.0931120332" width="8.77325373" height="5.95352697"></rect>
                            </g>
                            <g id="Group" opacity="0.1" transform="translate(0.000000, 41.000000)" fill="#F6BD60" fill-rule="nonzero">
                                <path d="M12.9028736,1.36145455 C12.9028736,1.36145455 1.73034483,-3.21163636 0.265977011,5.04 C0.265977011,5.04 -0.497586207,6.32581818 0.564827586,7.38763636 C0.564827586,7.38763636 0.793448276,6.81745455 1.87229885,7.40654545 C2.25763315,7.61399603 2.66694395,7.77610398 3.0916092,7.88945455 C3.66511849,8.04345076 4.27451192,8.01179982 4.82793103,7.79927273 L4.82793103,7.79927273 C4.82793103,7.79927273 8.50229885,7.60581818 11.5924138,2.92654545 C11.5924138,2.92654545 12.9178161,2.12945455 12.9835632,1.82981818 L10.7690805,1.97527273 C10.7690805,1.97527273 10.9394253,3.55345455 10.021954,4.50036364 C10.021954,4.50036364 10.8348276,2.05090909 10.4448276,1.98254545 C10.3656322,1.968 9.27482759,2.10763636 9.27482759,2.10763636 C9.27482759,2.10763636 9.55724138,4.85236364 8.07942529,6.272 C8.07942529,6.272 9.45114943,3.48072727 8.85494253,2.15709091 L7.22022989,2.464 C7.22022989,2.464 7.66850575,5.35127273 6.05172414,7.02981818 C6.05172414,7.02981818 7.3816092,4.06254545 6.86758621,2.55563636 L5.30310345,3.06763636 C5.30310345,3.06763636 5.67965517,5.89090909 4.32735632,7.28581818 C4.32735632,7.28581818 5.50781609,3.70618182 4.95195402,3.21309091 C4.95195402,3.21309091 3.54436782,3.76872727 3.24402299,4.08581818 C3.24402299,4.08581818 3.46666667,6.12218182 2.60747126,6.85672727 C2.60747126,6.85672727 3.13494253,4.384 2.87344828,4.28218182 C2.87344828,4.28218182 1.23873563,5.48072727 0.739655172,6.51490909 C0.739655172,6.51490909 1.36126437,4.93527273 2.66873563,4.04218182 C2.66873563,4.04218182 1.57045977,3.86181818 0.726206897,4.30836364 C0.726206897,4.30836364 1.29103448,3.25963636 3.06471264,3.75709091 C3.06471264,3.75709091 4.37816092,2.87127273 4.64114943,2.88436364 C4.64114943,2.88436364 2.96310345,2.15709091 1.75126437,2.24727273 C1.75126437,2.24727273 3.05126437,1.52 5.05057471,2.73454545 L6.61206897,2.18618182 C6.61206897,2.18618182 4.4454023,1.10545455 3.36057471,1.10981818 C3.36057471,1.10981818 4.80402299,0.565818182 7.01701149,2.07854545 L8.61586207,1.76145455 C8.61586207,1.76145455 6.82275862,0.692363636 5.61390805,0.443636364 C5.61390805,0.443636364 7.06333333,0.219636364 9.07758621,1.68727273 L10.1698851,1.59854545 C10.1698851,1.59854545 8.84747126,0.839272727 8.44701149,0.654545455 C8.04655172,0.469818182 8.06448276,0.350545455 8.06448276,0.350545455 C9.01479881,0.508990215 9.90136334,0.920856305 10.6256322,1.54036364 C10.6256322,1.54036364 12.893908,1.49672727 12.9028736,1.36145455 Z" id="Path"></path>
                            </g>
                            <g id="Group" opacity="0.1" transform="translate(1.000000, 29.000000)" fill="#F6BD60" fill-rule="nonzero">
                                <path d="M9.94459459,5.46666667 C9.94459459,5.46666667 6.36621622,-2.70266667 1.21081081,1.044 C1.21081081,1.044 0.121621622,1.356 0.12972973,2.47066667 C0.12972973,2.47066667 0.554054054,2.276 0.822972973,3.14666667 C0.921579337,3.455505 1.05770409,3.75143415 1.22837838,4.028 C1.45395221,4.40389382 1.79805663,4.69658033 2.20810811,4.86133333 L2.20810811,4.86133333 C2.20810811,4.86133333 4.28513514,6.624 8.42432432,5.64666667 C8.42432432,5.64666667 9.55945946,5.88533333 9.7527027,5.75733333 L8.48783784,4.708 C8.48783784,4.708 7.74324324,5.65466667 6.74594595,5.7 C6.74594595,5.7 8.47972973,4.78 8.30675676,4.544 C8.27162162,4.496 7.61081081,4.01866667 7.61081081,4.01866667 C7.61081081,4.01866667 6.31081081,5.656 4.77297297,5.68133333 C4.77297297,5.68133333 6.98783784,4.85733333 7.36756757,3.83466667 L6.32702703,3.168 C6.32702703,3.168 5.01486486,4.96933333 3.25810811,5.06266667 C3.25810811,5.06266667 5.54324324,4.12266667 6.06486486,3.04 L4.9527027,2.524 C4.9527027,2.524 3.66081081,4.25733333 2.2,4.32266667 C2.2,4.32266667 4.72972973,2.97333333 4.69054054,2.42266667 C4.69054054,2.42266667 3.64054054,2.00933333 3.30675676,2.03333333 C3.30675676,2.03333333 2.35135135,3.25333333 1.49864865,3.21866667 C1.49864865,3.21866667 3.09189189,2.14 3.00540541,1.952 C3.00540541,1.952 1.49189189,1.77333333 0.677027027,2.08533333 C0.677027027,2.08533333 1.8472973,1.54133333 3.02162162,1.72 C3.02162162,1.72 2.52702703,1.06266667 1.83918919,0.88 C1.83918919,0.88 2.69864865,0.596 3.38783784,1.76666667 C3.38783784,1.76666667 4.56081081,1.95333333 4.69864865,2.092 C4.69864865,2.092 4.18378378,0.84 3.48243243,0.276 C3.48243243,0.276 4.56351351,0.542666667 4.99594595,2.21866667 L6.12567568,2.71333333 C6.12567568,2.71333333 5.53378378,1.02266667 4.9472973,0.474666667 C4.9472973,0.474666667 6.01081081,0.912 6.4,2.86133333 L7.42702703,3.5 C7.42702703,3.5 7.02972973,2.00666667 6.51216216,1.256 C6.51216216,1.256 7.40945946,1.872 7.71351351,3.69466667 L8.34864865,4.20133333 C8.34864865,4.20133333 8.03918919,3.116 7.92162162,2.812 C7.80405405,2.508 7.87702703,2.452 7.87702703,2.452 C8.30390466,3.02372467 8.56081598,3.70153381 8.61891892,4.40933333 C8.61891892,4.40933333 9.86756757,5.53466667 9.94459459,5.46666667 Z" id="Path"></path>
                            </g>
                        </g>
                    </g>
                </g>
            </g>
        </g>
    </g>
</svg>